G04*
G04 #@! TF.GenerationSoftware,Altium Limited,Altium Designer,20.0.12 (288)*
G04*
G04 Layer_Color=8388736*
%FSLAX25Y25*%
%MOIN*%
G70*
G01*
G75*
%ADD17R,0.04921X0.07874*%
%ADD18R,0.03800X0.03800*%
%ADD19R,0.02769X0.03556*%
%ADD20R,0.05170X0.07611*%
%ADD21R,0.09068X0.09658*%
%ADD22R,0.03800X0.03800*%
%ADD23O,0.02769X0.02375*%
%ADD24R,0.04540X0.03950*%
%ADD25R,0.03950X0.04540*%
%ADD26R,0.07572X0.04934*%
%ADD27R,0.02200X0.06600*%
G04:AMPARAMS|DCode=28|XSize=88.71mil|YSize=31.62mil|CornerRadius=6.95mil|HoleSize=0mil|Usage=FLASHONLY|Rotation=0.000|XOffset=0mil|YOffset=0mil|HoleType=Round|Shape=RoundedRectangle|*
%AMROUNDEDRECTD28*
21,1,0.08871,0.01772,0,0,0.0*
21,1,0.07480,0.03162,0,0,0.0*
1,1,0.01391,0.03740,-0.00886*
1,1,0.01391,-0.03740,-0.00886*
1,1,0.01391,-0.03740,0.00886*
1,1,0.01391,0.03740,0.00886*
%
%ADD28ROUNDEDRECTD28*%
G04:AMPARAMS|DCode=29|XSize=86.79mil|YSize=23.94mil|CornerRadius=11.97mil|HoleSize=0mil|Usage=FLASHONLY|Rotation=270.000|XOffset=0mil|YOffset=0mil|HoleType=Round|Shape=RoundedRectangle|*
%AMROUNDEDRECTD29*
21,1,0.08679,0.00000,0,0,270.0*
21,1,0.06285,0.02394,0,0,270.0*
1,1,0.02394,0.00000,-0.03143*
1,1,0.02394,0.00000,0.03143*
1,1,0.02394,0.00000,0.03143*
1,1,0.02394,0.00000,-0.03143*
%
%ADD29ROUNDEDRECTD29*%
%ADD30R,0.02394X0.08679*%
%ADD31R,0.03162X0.06509*%
%ADD32O,0.03162X0.06509*%
G04:AMPARAMS|DCode=33|XSize=86.79mil|YSize=23.94mil|CornerRadius=11.97mil|HoleSize=0mil|Usage=FLASHONLY|Rotation=0.000|XOffset=0mil|YOffset=0mil|HoleType=Round|Shape=RoundedRectangle|*
%AMROUNDEDRECTD33*
21,1,0.08679,0.00000,0,0,0.0*
21,1,0.06285,0.02394,0,0,0.0*
1,1,0.02394,0.03143,0.00000*
1,1,0.02394,-0.03143,0.00000*
1,1,0.02394,-0.03143,0.00000*
1,1,0.02394,0.03143,0.00000*
%
%ADD33ROUNDEDRECTD33*%
%ADD34R,0.08679X0.02394*%
G04:AMPARAMS|DCode=35|XSize=77.29mil|YSize=31.62mil|CornerRadius=6.95mil|HoleSize=0mil|Usage=FLASHONLY|Rotation=0.000|XOffset=0mil|YOffset=0mil|HoleType=Round|Shape=RoundedRectangle|*
%AMROUNDEDRECTD35*
21,1,0.07729,0.01772,0,0,0.0*
21,1,0.06339,0.03162,0,0,0.0*
1,1,0.01391,0.03169,-0.00886*
1,1,0.01391,-0.03169,-0.00886*
1,1,0.01391,-0.03169,0.00886*
1,1,0.01391,0.03169,0.00886*
%
%ADD35ROUNDEDRECTD35*%
%ADD36R,0.04934X0.04343*%
%ADD37R,0.04343X0.04934*%
G04:AMPARAMS|DCode=38|XSize=49.34mil|YSize=43.43mil|CornerRadius=0mil|HoleSize=0mil|Usage=FLASHONLY|Rotation=110.000|XOffset=0mil|YOffset=0mil|HoleType=Round|Shape=Rectangle|*
%AMROTATEDRECTD38*
4,1,4,0.02884,-0.01575,-0.01197,-0.03061,-0.02884,0.01575,0.01197,0.03061,0.02884,-0.01575,0.0*
%
%ADD38ROTATEDRECTD38*%

%ADD39R,0.10654X0.03757*%
%ADD40R,0.08674X0.23241*%
%ADD41C,0.07296*%
%ADD42R,0.07296X0.07296*%
%ADD43C,0.00800*%
%ADD44R,0.10839X0.10839*%
%ADD45C,0.10839*%
%ADD46C,0.06737*%
G04:AMPARAMS|DCode=47|XSize=98.55mil|YSize=67.06mil|CornerRadius=18.76mil|HoleSize=0mil|Usage=FLASHONLY|Rotation=90.000|XOffset=0mil|YOffset=0mil|HoleType=Round|Shape=RoundedRectangle|*
%AMROUNDEDRECTD47*
21,1,0.09855,0.02953,0,0,90.0*
21,1,0.06102,0.06706,0,0,90.0*
1,1,0.03753,0.01476,0.03051*
1,1,0.03753,0.01476,-0.03051*
1,1,0.03753,-0.01476,-0.03051*
1,1,0.03753,-0.01476,0.03051*
%
%ADD47ROUNDEDRECTD47*%
%ADD48C,0.05950*%
%ADD49R,0.07493X0.07493*%
%ADD50C,0.07493*%
%ADD51R,0.04921X0.04921*%
%ADD52C,0.04921*%
D17*
X137795Y166142D02*
D03*
X127953D02*
D03*
X118110D02*
D03*
D18*
X293406Y227047D02*
D03*
Y234547D02*
D03*
X302406Y230797D02*
D03*
X310968Y278638D02*
D03*
Y271138D02*
D03*
X301968Y274888D02*
D03*
X320374Y254842D02*
D03*
Y247342D02*
D03*
X311374Y251093D02*
D03*
D19*
X108661Y334055D02*
D03*
Y329724D02*
D03*
X178150Y252165D02*
D03*
Y247835D02*
D03*
X86221Y287992D02*
D03*
Y292323D02*
D03*
X286697Y210409D02*
D03*
Y206079D02*
D03*
X319980Y232480D02*
D03*
Y228150D02*
D03*
X102362Y333858D02*
D03*
Y329528D02*
D03*
X160236Y139665D02*
D03*
Y135335D02*
D03*
D20*
X279744Y235335D02*
D03*
X266319D02*
D03*
D21*
X249114Y86319D02*
D03*
Y72736D02*
D03*
D22*
X28150Y127854D02*
D03*
X35650D02*
D03*
X31900Y118854D02*
D03*
D23*
X137795Y163386D02*
D03*
Y168504D02*
D03*
X127953Y163386D02*
D03*
Y168504D02*
D03*
X118110Y163386D02*
D03*
Y168504D02*
D03*
D24*
X209449Y323031D02*
D03*
Y317913D02*
D03*
X294094Y210827D02*
D03*
Y205709D02*
D03*
X287500Y233071D02*
D03*
Y238189D02*
D03*
X44685Y128642D02*
D03*
Y123524D02*
D03*
D25*
X52559Y321260D02*
D03*
X47441D02*
D03*
X210433Y335039D02*
D03*
X205315D02*
D03*
X52559Y331496D02*
D03*
X47441D02*
D03*
X102165Y81496D02*
D03*
X97047D02*
D03*
X113779Y74705D02*
D03*
X108661D02*
D03*
X343110Y167323D02*
D03*
X337992D02*
D03*
X343110Y174213D02*
D03*
X337992D02*
D03*
X331299Y194882D02*
D03*
X326181D02*
D03*
X339020Y207653D02*
D03*
X333902D02*
D03*
X338976Y214665D02*
D03*
X333858D02*
D03*
X294291Y253051D02*
D03*
X289173D02*
D03*
X344882Y248228D02*
D03*
X339764D02*
D03*
X344980Y256496D02*
D03*
X339862D02*
D03*
X340256Y274606D02*
D03*
X335138D02*
D03*
X28346Y135827D02*
D03*
X33465D02*
D03*
X340354Y282185D02*
D03*
X335236D02*
D03*
X268012Y227461D02*
D03*
X273130D02*
D03*
X23031Y112205D02*
D03*
X28150D02*
D03*
D26*
X320965Y270138D02*
D03*
Y281634D02*
D03*
X329921Y257716D02*
D03*
Y246220D02*
D03*
D27*
X95921Y89287D02*
D03*
X98521D02*
D03*
X101121D02*
D03*
X103621D02*
D03*
X106221D02*
D03*
X108721D02*
D03*
X111321D02*
D03*
X113921D02*
D03*
Y112287D02*
D03*
X111321D02*
D03*
X108721D02*
D03*
X106221D02*
D03*
X103621D02*
D03*
X101121D02*
D03*
X98521D02*
D03*
X95921D02*
D03*
D28*
X103740Y263209D02*
D03*
Y258209D02*
D03*
Y253209D02*
D03*
Y248209D02*
D03*
Y243209D02*
D03*
Y238209D02*
D03*
Y233209D02*
D03*
Y228209D02*
D03*
X140394D02*
D03*
Y233209D02*
D03*
Y238209D02*
D03*
Y243209D02*
D03*
Y248209D02*
D03*
Y253209D02*
D03*
Y258209D02*
D03*
Y263209D02*
D03*
D29*
X86354Y250606D02*
D03*
X81354D02*
D03*
X76354D02*
D03*
X71354D02*
D03*
X66354D02*
D03*
X61354D02*
D03*
X56354D02*
D03*
X51354D02*
D03*
Y270692D02*
D03*
X56354D02*
D03*
X61354D02*
D03*
X66354D02*
D03*
X71354D02*
D03*
X76354D02*
D03*
X81354D02*
D03*
D30*
X86354D02*
D03*
D31*
X121732Y175492D02*
D03*
D32*
X126732D02*
D03*
X131732D02*
D03*
X136732D02*
D03*
X121732Y196949D02*
D03*
X126732D02*
D03*
X131732D02*
D03*
X136732D02*
D03*
D33*
X185929Y319961D02*
D03*
Y314961D02*
D03*
Y309961D02*
D03*
Y304961D02*
D03*
Y299961D02*
D03*
Y294961D02*
D03*
Y289961D02*
D03*
Y284961D02*
D03*
X165843D02*
D03*
Y289961D02*
D03*
Y294961D02*
D03*
Y299961D02*
D03*
Y304961D02*
D03*
Y309961D02*
D03*
Y314961D02*
D03*
D34*
Y319961D02*
D03*
D35*
X218583Y339390D02*
D03*
Y334390D02*
D03*
Y329390D02*
D03*
Y324390D02*
D03*
X238898D02*
D03*
Y329390D02*
D03*
Y334390D02*
D03*
Y339390D02*
D03*
X64252Y336634D02*
D03*
Y331634D02*
D03*
Y326634D02*
D03*
Y321634D02*
D03*
X84567D02*
D03*
Y326634D02*
D03*
Y331634D02*
D03*
Y336634D02*
D03*
D36*
X241339Y352756D02*
D03*
Y359055D02*
D03*
X148893Y255906D02*
D03*
Y262205D02*
D03*
X120866Y90551D02*
D03*
Y96850D02*
D03*
X200787Y314764D02*
D03*
Y321063D02*
D03*
X113976Y196850D02*
D03*
Y190551D02*
D03*
X83760Y235827D02*
D03*
Y242126D02*
D03*
X301870Y204232D02*
D03*
Y210531D02*
D03*
X117717Y330709D02*
D03*
Y337008D02*
D03*
D37*
X96457Y74803D02*
D03*
X102756D02*
D03*
X90354Y228346D02*
D03*
X96653D02*
D03*
X34449Y143701D02*
D03*
X28150D02*
D03*
D38*
X308009Y229509D02*
D03*
X313928Y231664D02*
D03*
D39*
X129724Y343799D02*
D03*
Y331004D02*
D03*
X148425Y130905D02*
D03*
Y143701D02*
D03*
D40*
X203839Y49705D02*
D03*
Y87894D02*
D03*
D41*
X352992Y171221D02*
D03*
X362992D02*
D03*
X352992Y191220D02*
D03*
X362992D02*
D03*
X352992Y211221D02*
D03*
X362992D02*
D03*
X352992Y231221D02*
D03*
X362992D02*
D03*
X352992Y251220D02*
D03*
X362992D02*
D03*
X352992Y271220D02*
D03*
X362992D02*
D03*
X352992Y291220D02*
D03*
X362992D02*
D03*
X352992Y311221D02*
D03*
Y161221D02*
D03*
Y181220D02*
D03*
Y201220D02*
D03*
Y221220D02*
D03*
Y241220D02*
D03*
Y261221D02*
D03*
Y281221D02*
D03*
Y301220D02*
D03*
X362992Y161221D02*
D03*
Y181220D02*
D03*
Y201220D02*
D03*
Y221220D02*
D03*
Y241220D02*
D03*
Y261221D02*
D03*
Y281221D02*
D03*
Y301220D02*
D03*
D42*
Y311221D02*
D03*
D43*
X372992Y331221D02*
D03*
Y141220D02*
D03*
X12598Y361984D02*
D03*
X147098D02*
D03*
X12598Y275984D02*
D03*
D44*
X368110Y59055D02*
D03*
D45*
Y39370D02*
D03*
D46*
X407480Y27559D02*
D03*
Y70866D02*
D03*
D47*
X322244Y54134D02*
D03*
X298622D02*
D03*
X260827D02*
D03*
X237205D02*
D03*
D48*
X248425Y369685D02*
D03*
Y359685D02*
D03*
Y349685D02*
D03*
Y339685D02*
D03*
D49*
X168425Y217008D02*
D03*
X152098Y280484D02*
D03*
D50*
X158425Y217008D02*
D03*
X148425D02*
D03*
X138425D02*
D03*
X128425D02*
D03*
X118425D02*
D03*
X108425D02*
D03*
X98425D02*
D03*
X88425D02*
D03*
X78425D02*
D03*
X68425D02*
D03*
X58425D02*
D03*
X48425D02*
D03*
X38425D02*
D03*
X28425D02*
D03*
Y157008D02*
D03*
X38425D02*
D03*
X48425D02*
D03*
X58425D02*
D03*
X68425D02*
D03*
X78425D02*
D03*
X88425D02*
D03*
X98425D02*
D03*
X108425D02*
D03*
X118425D02*
D03*
X128425D02*
D03*
X138425D02*
D03*
X148425D02*
D03*
X158425D02*
D03*
X168425D02*
D03*
X152098Y340484D02*
D03*
Y330484D02*
D03*
Y320484D02*
D03*
Y310484D02*
D03*
Y300484D02*
D03*
Y290484D02*
D03*
D51*
X179134Y357283D02*
D03*
D52*
Y337598D02*
D03*
M02*
