G04*
G04 #@! TF.GenerationSoftware,Altium Limited,Altium Designer,20.0.12 (288)*
G04*
G04 Layer_Color=16711935*
%FSLAX25Y25*%
%MOIN*%
G70*
G01*
G75*
%ADD19R,0.02769X0.03556*%
%ADD24R,0.04540X0.03950*%
%ADD25R,0.03950X0.04540*%
%ADD26R,0.07572X0.04934*%
G04:AMPARAMS|DCode=35|XSize=77.29mil|YSize=31.62mil|CornerRadius=6.95mil|HoleSize=0mil|Usage=FLASHONLY|Rotation=0.000|XOffset=0mil|YOffset=0mil|HoleType=Round|Shape=RoundedRectangle|*
%AMROUNDEDRECTD35*
21,1,0.07729,0.01772,0,0,0.0*
21,1,0.06339,0.03162,0,0,0.0*
1,1,0.01391,0.03169,-0.00886*
1,1,0.01391,-0.03169,-0.00886*
1,1,0.01391,-0.03169,0.00886*
1,1,0.01391,0.03169,0.00886*
%
%ADD35ROUNDEDRECTD35*%
%ADD36R,0.04934X0.04343*%
%ADD37R,0.04343X0.04934*%
%ADD39R,0.10654X0.03757*%
%ADD41C,0.07296*%
%ADD42R,0.07296X0.07296*%
%ADD43C,0.00800*%
%ADD44R,0.10839X0.10839*%
%ADD45C,0.10839*%
%ADD46C,0.06737*%
G04:AMPARAMS|DCode=47|XSize=98.55mil|YSize=67.06mil|CornerRadius=18.76mil|HoleSize=0mil|Usage=FLASHONLY|Rotation=90.000|XOffset=0mil|YOffset=0mil|HoleType=Round|Shape=RoundedRectangle|*
%AMROUNDEDRECTD47*
21,1,0.09855,0.02953,0,0,90.0*
21,1,0.06102,0.06706,0,0,90.0*
1,1,0.03753,0.01476,0.03051*
1,1,0.03753,0.01476,-0.03051*
1,1,0.03753,-0.01476,-0.03051*
1,1,0.03753,-0.01476,0.03051*
%
%ADD47ROUNDEDRECTD47*%
%ADD48C,0.05950*%
%ADD49R,0.07493X0.07493*%
%ADD50C,0.07493*%
%ADD51R,0.04921X0.04921*%
%ADD52C,0.04921*%
%ADD102R,0.19500X0.12500*%
G04:AMPARAMS|DCode=111|XSize=37.57mil|YSize=106.54mil|CornerRadius=0mil|HoleSize=0mil|Usage=FLASHONLY|Rotation=45.000|XOffset=0mil|YOffset=0mil|HoleType=Round|Shape=Rectangle|*
%AMROTATEDRECTD111*
4,1,4,0.02439,-0.05095,-0.05095,0.02439,-0.02439,0.05095,0.05095,-0.02439,0.02439,-0.05095,0.0*
%
%ADD111ROTATEDRECTD111*%

%ADD112R,0.07874X0.05512*%
%ADD113R,0.05512X0.07874*%
%ADD114R,0.03757X0.10654*%
%ADD116R,0.06803X0.07572*%
%ADD117R,0.07572X0.06803*%
%ADD118R,0.06312X0.07099*%
%ADD119R,0.20485X0.20485*%
%ADD120R,0.04895X0.02611*%
%ADD121R,0.09147X0.06706*%
%ADD122R,0.14973X0.08674*%
%ADD123R,0.06706X0.09147*%
%ADD124R,0.04934X0.07572*%
%ADD125R,0.05524X0.05524*%
%ADD126R,0.06706X0.07099*%
G04:AMPARAMS|DCode=127|XSize=82.8mil|YSize=140.68mil|CornerRadius=6.62mil|HoleSize=0mil|Usage=FLASHONLY|Rotation=0.000|XOffset=0mil|YOffset=0mil|HoleType=Round|Shape=RoundedRectangle|*
%AMROUNDEDRECTD127*
21,1,0.08280,0.12744,0,0,0.0*
21,1,0.06957,0.14068,0,0,0.0*
1,1,0.01324,0.03478,-0.06372*
1,1,0.01324,-0.03478,-0.06372*
1,1,0.01324,-0.03478,0.06372*
1,1,0.01324,0.03478,0.06372*
%
%ADD127ROUNDEDRECTD127*%
%ADD128R,0.10249X0.06706*%
%ADD129R,0.06706X0.10249*%
%ADD130R,0.14300X0.10300*%
%ADD131R,0.05524X0.03162*%
%ADD132R,0.06902X0.03162*%
%ADD133R,0.09855X0.09855*%
%ADD134R,0.15367X0.17729*%
%ADD135R,0.04147X0.02178*%
%ADD136R,0.07887X0.07887*%
D19*
X249807Y184523D02*
D03*
Y180193D02*
D03*
X249807Y208146D02*
D03*
Y203815D02*
D03*
Y231768D02*
D03*
Y227437D02*
D03*
X249807Y255390D02*
D03*
Y251059D02*
D03*
X249807Y279012D02*
D03*
Y274681D02*
D03*
X249807Y302634D02*
D03*
Y298303D02*
D03*
Y326256D02*
D03*
Y321925D02*
D03*
D24*
X262500Y14567D02*
D03*
Y19685D02*
D03*
X253445Y19882D02*
D03*
Y14764D02*
D03*
X76181Y240551D02*
D03*
Y245669D02*
D03*
X41732Y250197D02*
D03*
Y245079D02*
D03*
X68898Y245669D02*
D03*
Y240551D02*
D03*
X309098Y182555D02*
D03*
Y177437D02*
D03*
Y206177D02*
D03*
Y201059D02*
D03*
Y229799D02*
D03*
Y224681D02*
D03*
Y253421D02*
D03*
Y248303D02*
D03*
Y277043D02*
D03*
Y271925D02*
D03*
X309350Y300689D02*
D03*
Y295571D02*
D03*
X309098Y324287D02*
D03*
Y319169D02*
D03*
Y165626D02*
D03*
Y170744D02*
D03*
X309744Y189272D02*
D03*
Y194390D02*
D03*
X310433Y213189D02*
D03*
Y218307D02*
D03*
X309098Y236492D02*
D03*
Y241610D02*
D03*
Y260114D02*
D03*
Y265232D02*
D03*
X309489Y283752D02*
D03*
Y288870D02*
D03*
X309098Y307358D02*
D03*
Y312476D02*
D03*
X200043Y182555D02*
D03*
Y177437D02*
D03*
Y206177D02*
D03*
Y201059D02*
D03*
Y229799D02*
D03*
Y224681D02*
D03*
Y253421D02*
D03*
Y248303D02*
D03*
Y277043D02*
D03*
Y271925D02*
D03*
Y300665D02*
D03*
Y295547D02*
D03*
Y324287D02*
D03*
Y319169D02*
D03*
Y165626D02*
D03*
Y170744D02*
D03*
Y189248D02*
D03*
Y194366D02*
D03*
Y212870D02*
D03*
Y217988D02*
D03*
Y236492D02*
D03*
Y241610D02*
D03*
Y260114D02*
D03*
Y265232D02*
D03*
Y283736D02*
D03*
Y288854D02*
D03*
Y307358D02*
D03*
Y312476D02*
D03*
X268941Y182555D02*
D03*
Y177437D02*
D03*
Y206177D02*
D03*
Y201059D02*
D03*
X268996Y229331D02*
D03*
Y224213D02*
D03*
X268941Y253421D02*
D03*
Y248303D02*
D03*
Y277043D02*
D03*
Y271925D02*
D03*
Y300665D02*
D03*
Y295547D02*
D03*
Y324287D02*
D03*
Y319169D02*
D03*
Y165626D02*
D03*
Y170744D02*
D03*
Y189248D02*
D03*
Y194366D02*
D03*
Y212870D02*
D03*
Y217988D02*
D03*
X269291Y237106D02*
D03*
Y242224D02*
D03*
X268941Y260114D02*
D03*
Y265232D02*
D03*
Y283736D02*
D03*
Y288854D02*
D03*
Y307358D02*
D03*
Y312476D02*
D03*
X360236Y77362D02*
D03*
Y82480D02*
D03*
X319291Y114370D02*
D03*
Y119488D02*
D03*
X322441Y92027D02*
D03*
Y86909D02*
D03*
X272441Y126870D02*
D03*
Y121752D02*
D03*
X315354Y330217D02*
D03*
Y335335D02*
D03*
X372047Y184843D02*
D03*
Y189961D02*
D03*
X143405Y197343D02*
D03*
Y202461D02*
D03*
D25*
X90551Y66929D02*
D03*
X95669D02*
D03*
X78150Y66929D02*
D03*
X83268D02*
D03*
X125197Y66929D02*
D03*
X120079D02*
D03*
X30709Y125984D02*
D03*
X25591D02*
D03*
X69488Y133858D02*
D03*
X64370D02*
D03*
X80020Y132972D02*
D03*
X85138D02*
D03*
X255909Y181965D02*
D03*
X261028D02*
D03*
X255909Y205587D02*
D03*
X261028D02*
D03*
X255909Y229209D02*
D03*
X261028D02*
D03*
X255909Y252831D02*
D03*
X261028D02*
D03*
X255909Y276453D02*
D03*
X261028D02*
D03*
X255909Y300075D02*
D03*
X261028D02*
D03*
X255909Y323697D02*
D03*
X261028D02*
D03*
X238783Y181965D02*
D03*
X243901D02*
D03*
X238783Y205587D02*
D03*
X243901D02*
D03*
X238784Y229209D02*
D03*
X243902D02*
D03*
X238784Y252831D02*
D03*
X243902D02*
D03*
X238784Y276453D02*
D03*
X243902D02*
D03*
X238784Y300075D02*
D03*
X243902D02*
D03*
X238783Y323697D02*
D03*
X243901D02*
D03*
X375590Y89567D02*
D03*
X370472D02*
D03*
X330118Y127559D02*
D03*
X325000D02*
D03*
X257185Y340256D02*
D03*
X262303D02*
D03*
X257874Y332677D02*
D03*
X262992D02*
D03*
X337992Y96457D02*
D03*
X343110D02*
D03*
X290945Y134646D02*
D03*
X296063D02*
D03*
X282087Y354331D02*
D03*
X276969D02*
D03*
D26*
X14961Y112047D02*
D03*
Y100551D02*
D03*
X15650Y245728D02*
D03*
Y257224D02*
D03*
D35*
X318626Y166590D02*
D03*
Y171590D02*
D03*
Y176590D02*
D03*
Y181590D02*
D03*
X338941D02*
D03*
Y176590D02*
D03*
Y171590D02*
D03*
Y166590D02*
D03*
X318626Y190213D02*
D03*
Y195213D02*
D03*
Y200213D02*
D03*
Y205213D02*
D03*
X338941D02*
D03*
Y200213D02*
D03*
Y195213D02*
D03*
Y190213D02*
D03*
X318626Y213835D02*
D03*
Y218835D02*
D03*
Y223835D02*
D03*
Y228835D02*
D03*
X338941D02*
D03*
Y223835D02*
D03*
Y218835D02*
D03*
Y213835D02*
D03*
X318626Y237457D02*
D03*
Y242457D02*
D03*
Y247457D02*
D03*
Y252457D02*
D03*
X338941D02*
D03*
Y247457D02*
D03*
Y242457D02*
D03*
Y237457D02*
D03*
X318626Y261079D02*
D03*
Y266079D02*
D03*
Y271079D02*
D03*
Y276079D02*
D03*
X338941D02*
D03*
Y271079D02*
D03*
Y266079D02*
D03*
Y261079D02*
D03*
X318626Y284701D02*
D03*
Y289701D02*
D03*
Y294701D02*
D03*
Y299701D02*
D03*
X338941D02*
D03*
Y294701D02*
D03*
Y289701D02*
D03*
Y284701D02*
D03*
X318626Y308323D02*
D03*
Y313323D02*
D03*
Y318323D02*
D03*
Y323323D02*
D03*
X338941D02*
D03*
Y318323D02*
D03*
Y313323D02*
D03*
Y308323D02*
D03*
X209571Y166590D02*
D03*
Y171590D02*
D03*
Y176590D02*
D03*
Y181590D02*
D03*
X229886D02*
D03*
Y176590D02*
D03*
Y171590D02*
D03*
Y166590D02*
D03*
X209571Y190213D02*
D03*
Y195213D02*
D03*
Y200213D02*
D03*
Y205213D02*
D03*
X229886D02*
D03*
Y200213D02*
D03*
Y195213D02*
D03*
Y190213D02*
D03*
X209571Y213835D02*
D03*
Y218835D02*
D03*
Y223835D02*
D03*
Y228835D02*
D03*
X229886D02*
D03*
Y223835D02*
D03*
Y218835D02*
D03*
Y213835D02*
D03*
X209571Y237457D02*
D03*
Y242457D02*
D03*
Y247457D02*
D03*
Y252457D02*
D03*
X229886D02*
D03*
Y247457D02*
D03*
Y242457D02*
D03*
Y237457D02*
D03*
X209571Y261079D02*
D03*
Y266079D02*
D03*
Y271079D02*
D03*
Y276079D02*
D03*
X229886D02*
D03*
Y271079D02*
D03*
Y266079D02*
D03*
Y261079D02*
D03*
X209571Y284701D02*
D03*
Y289701D02*
D03*
Y294701D02*
D03*
Y299701D02*
D03*
X229886D02*
D03*
Y294701D02*
D03*
Y289701D02*
D03*
Y284701D02*
D03*
X209571Y308323D02*
D03*
Y313323D02*
D03*
Y318323D02*
D03*
Y323323D02*
D03*
X229886D02*
D03*
Y318323D02*
D03*
Y313323D02*
D03*
Y308323D02*
D03*
X278468Y166590D02*
D03*
Y171590D02*
D03*
Y176590D02*
D03*
Y181590D02*
D03*
X298783D02*
D03*
Y176590D02*
D03*
Y171590D02*
D03*
Y166590D02*
D03*
X278468Y190213D02*
D03*
Y195213D02*
D03*
Y200213D02*
D03*
Y205213D02*
D03*
X298783D02*
D03*
Y200213D02*
D03*
Y195213D02*
D03*
Y190213D02*
D03*
X278468Y213835D02*
D03*
Y218835D02*
D03*
Y223835D02*
D03*
Y228835D02*
D03*
X298783D02*
D03*
Y223835D02*
D03*
Y218835D02*
D03*
Y213835D02*
D03*
X278468Y237457D02*
D03*
Y242457D02*
D03*
Y247457D02*
D03*
Y252457D02*
D03*
X298783D02*
D03*
Y247457D02*
D03*
Y242457D02*
D03*
Y237457D02*
D03*
X278468Y261079D02*
D03*
Y266079D02*
D03*
Y271079D02*
D03*
Y276079D02*
D03*
X298783D02*
D03*
Y271079D02*
D03*
Y266079D02*
D03*
Y261079D02*
D03*
X278468Y284701D02*
D03*
Y289701D02*
D03*
Y294701D02*
D03*
Y299701D02*
D03*
X298783D02*
D03*
Y294701D02*
D03*
Y289701D02*
D03*
Y284701D02*
D03*
X278468Y308323D02*
D03*
Y313323D02*
D03*
Y318323D02*
D03*
Y323323D02*
D03*
X298783D02*
D03*
Y318323D02*
D03*
Y313323D02*
D03*
Y308323D02*
D03*
D36*
X319291Y101575D02*
D03*
Y107874D02*
D03*
X314567Y92421D02*
D03*
Y86122D02*
D03*
X281890Y127362D02*
D03*
Y121063D02*
D03*
X309842Y347638D02*
D03*
Y341339D02*
D03*
X314567Y79823D02*
D03*
Y73524D02*
D03*
X272244Y114862D02*
D03*
Y108563D02*
D03*
X302953Y339370D02*
D03*
Y345669D02*
D03*
D37*
X111417Y35433D02*
D03*
X105118D02*
D03*
X83858Y100394D02*
D03*
X77559D02*
D03*
X373622Y72835D02*
D03*
X367323D02*
D03*
X244193Y332579D02*
D03*
X250492D02*
D03*
X334252Y89764D02*
D03*
X340551D02*
D03*
X289370Y125984D02*
D03*
X295669D02*
D03*
X301969Y330217D02*
D03*
X308268D02*
D03*
D39*
X324803Y26083D02*
D03*
Y13287D02*
D03*
X220768Y36024D02*
D03*
Y23228D02*
D03*
X163386Y108760D02*
D03*
Y95965D02*
D03*
X149606Y108760D02*
D03*
Y95965D02*
D03*
X137795Y261909D02*
D03*
Y249114D02*
D03*
X29528Y256004D02*
D03*
Y243209D02*
D03*
X287795Y142421D02*
D03*
Y155217D02*
D03*
X301181Y143209D02*
D03*
Y156004D02*
D03*
X314961Y143209D02*
D03*
Y156004D02*
D03*
X273622Y140453D02*
D03*
Y153248D02*
D03*
X250000Y69882D02*
D03*
Y82677D02*
D03*
X237795Y379134D02*
D03*
Y366339D02*
D03*
X236221Y70374D02*
D03*
Y83169D02*
D03*
X279528Y378445D02*
D03*
Y365650D02*
D03*
X222441Y70374D02*
D03*
Y83169D02*
D03*
X265158Y378543D02*
D03*
Y365748D02*
D03*
D41*
X352992Y171221D02*
D03*
X362992D02*
D03*
X352992Y191220D02*
D03*
X362992D02*
D03*
X352992Y211221D02*
D03*
X362992D02*
D03*
X352992Y231221D02*
D03*
X362992D02*
D03*
X352992Y251220D02*
D03*
X362992D02*
D03*
X352992Y271220D02*
D03*
X362992D02*
D03*
X352992Y291220D02*
D03*
X362992D02*
D03*
X352992Y311221D02*
D03*
Y161221D02*
D03*
Y181220D02*
D03*
Y201220D02*
D03*
Y221220D02*
D03*
Y241220D02*
D03*
Y261221D02*
D03*
Y281221D02*
D03*
Y301220D02*
D03*
X362992Y161221D02*
D03*
Y181220D02*
D03*
Y201220D02*
D03*
Y221220D02*
D03*
Y241220D02*
D03*
Y261221D02*
D03*
Y281221D02*
D03*
Y301220D02*
D03*
D42*
Y311221D02*
D03*
D43*
X372992Y331221D02*
D03*
Y141220D02*
D03*
X12598Y361984D02*
D03*
X147098D02*
D03*
X12598Y275984D02*
D03*
D44*
X368110Y59055D02*
D03*
D45*
Y39370D02*
D03*
D46*
X407480Y27559D02*
D03*
Y70866D02*
D03*
D47*
X322244Y54134D02*
D03*
X298622D02*
D03*
X260827D02*
D03*
X237205D02*
D03*
D48*
X248425Y369685D02*
D03*
Y359685D02*
D03*
Y349685D02*
D03*
Y339685D02*
D03*
D49*
X152098Y280484D02*
D03*
D50*
X158425Y217008D02*
D03*
X148425D02*
D03*
X138425D02*
D03*
X128425D02*
D03*
X118425D02*
D03*
X108425D02*
D03*
X98425D02*
D03*
X88425D02*
D03*
X78425D02*
D03*
X68425D02*
D03*
X58425D02*
D03*
X48425D02*
D03*
X38425D02*
D03*
X28425D02*
D03*
Y157008D02*
D03*
X38425D02*
D03*
X48425D02*
D03*
X58425D02*
D03*
X68425D02*
D03*
X78425D02*
D03*
X88425D02*
D03*
X98425D02*
D03*
X108425D02*
D03*
X118425D02*
D03*
X128425D02*
D03*
X138425D02*
D03*
X148425D02*
D03*
X158425D02*
D03*
X168425D02*
D03*
X152098Y340484D02*
D03*
Y330484D02*
D03*
Y320484D02*
D03*
Y310484D02*
D03*
Y300484D02*
D03*
Y290484D02*
D03*
D51*
X179134Y357283D02*
D03*
D52*
Y337598D02*
D03*
D102*
X61024Y19652D02*
D03*
Y55152D02*
D03*
X116142Y94455D02*
D03*
Y129955D02*
D03*
D111*
X20272Y75390D02*
D03*
X11224Y66342D02*
D03*
X32083Y63579D02*
D03*
X23035Y54531D02*
D03*
D112*
X125984Y54331D02*
D03*
Y40157D02*
D03*
X139764Y54331D02*
D03*
Y40157D02*
D03*
X43307Y115354D02*
D03*
Y101181D02*
D03*
X27559Y115354D02*
D03*
Y101181D02*
D03*
D113*
X270472Y35433D02*
D03*
X284646D02*
D03*
X270472Y49213D02*
D03*
X284646D02*
D03*
X81496Y275590D02*
D03*
X95669D02*
D03*
X81496Y261811D02*
D03*
X95669D02*
D03*
D114*
X348917Y122047D02*
D03*
X361713D02*
D03*
X342028Y364173D02*
D03*
X354823D02*
D03*
X348917Y135827D02*
D03*
X361713D02*
D03*
X342028Y350394D02*
D03*
X354823D02*
D03*
X348917Y149606D02*
D03*
X361713D02*
D03*
X342028Y336614D02*
D03*
X354823D02*
D03*
X348917Y108268D02*
D03*
X361713D02*
D03*
X342028Y377953D02*
D03*
X354823D02*
D03*
X209154Y114173D02*
D03*
X196358D02*
D03*
X209154Y100394D02*
D03*
X196358D02*
D03*
X209154Y86614D02*
D03*
X196358D02*
D03*
D116*
X167708Y117717D02*
D03*
X156684Y259055D02*
D03*
D117*
X14961Y106290D02*
D03*
X15650Y251485D02*
D03*
D118*
X114469Y17224D02*
D03*
Y25492D02*
D03*
D119*
X99705Y21358D02*
D03*
D120*
X85866Y35433D02*
D03*
X95236D02*
D03*
X56339Y100394D02*
D03*
X65709D02*
D03*
D121*
X298760Y43307D02*
D03*
X315413D02*
D03*
X64508Y88583D02*
D03*
X81161D02*
D03*
X109291Y279134D02*
D03*
X125945D02*
D03*
D122*
X295276Y63681D02*
D03*
Y90453D02*
D03*
X251886Y98760D02*
D03*
Y125531D02*
D03*
X326854Y379587D02*
D03*
Y352815D02*
D03*
D123*
X372933Y270610D02*
D03*
Y287264D02*
D03*
X373031Y298228D02*
D03*
Y314882D02*
D03*
D124*
X173465Y117717D02*
D03*
X161969D02*
D03*
X162441Y259055D02*
D03*
X150945D02*
D03*
D125*
X270866Y14469D02*
D03*
Y22343D02*
D03*
X38189Y125984D02*
D03*
Y133858D02*
D03*
X83366Y237303D02*
D03*
Y245177D02*
D03*
X363287Y97342D02*
D03*
Y89468D02*
D03*
X317717Y136221D02*
D03*
Y128347D02*
D03*
X269390Y356201D02*
D03*
Y348327D02*
D03*
D126*
X283661Y18406D02*
D03*
X50984Y129921D02*
D03*
X96161Y241240D02*
D03*
X350492Y93405D02*
D03*
X304921Y132283D02*
D03*
X256594Y352264D02*
D03*
D127*
X240122Y170153D02*
D03*
X261067D02*
D03*
X240122Y193775D02*
D03*
X261067D02*
D03*
X240122Y217398D02*
D03*
X261067D02*
D03*
X240122Y241020D02*
D03*
X261067D02*
D03*
X240122Y264642D02*
D03*
X261067D02*
D03*
X240122Y288264D02*
D03*
X261067D02*
D03*
X240122Y311886D02*
D03*
X261067D02*
D03*
D128*
X303150Y12795D02*
D03*
Y34449D02*
D03*
X113779Y247047D02*
D03*
Y268701D02*
D03*
D129*
X237205Y39370D02*
D03*
X258858D02*
D03*
X51772Y270079D02*
D03*
X73425D02*
D03*
D130*
X269685Y88272D02*
D03*
Y65272D02*
D03*
X226378Y121736D02*
D03*
Y98736D02*
D03*
X299213Y356299D02*
D03*
Y379299D02*
D03*
D131*
X244685Y21457D02*
D03*
Y17717D02*
D03*
Y13976D02*
D03*
X235630D02*
D03*
Y17717D02*
D03*
Y21457D02*
D03*
X60827Y247047D02*
D03*
Y243307D02*
D03*
Y239567D02*
D03*
X51772D02*
D03*
Y243307D02*
D03*
Y247047D02*
D03*
D132*
X89764Y43681D02*
D03*
Y48681D02*
D03*
Y53681D02*
D03*
Y58681D02*
D03*
X111024D02*
D03*
Y53681D02*
D03*
Y48681D02*
D03*
Y43681D02*
D03*
X64173Y108642D02*
D03*
Y113642D02*
D03*
Y118642D02*
D03*
Y123642D02*
D03*
X85433D02*
D03*
Y118642D02*
D03*
Y113642D02*
D03*
Y108642D02*
D03*
D133*
X100394Y51181D02*
D03*
X74803Y116142D02*
D03*
D134*
X340551Y75984D02*
D03*
X299213Y111811D02*
D03*
X287402Y338583D02*
D03*
D135*
X330807Y83858D02*
D03*
Y80709D02*
D03*
Y77559D02*
D03*
Y74410D02*
D03*
Y71260D02*
D03*
Y68110D02*
D03*
X350295D02*
D03*
Y71260D02*
D03*
Y74410D02*
D03*
Y77559D02*
D03*
Y80709D02*
D03*
Y83858D02*
D03*
X289469Y119685D02*
D03*
Y116535D02*
D03*
Y113386D02*
D03*
Y110236D02*
D03*
Y107087D02*
D03*
Y103937D02*
D03*
X308957D02*
D03*
Y107087D02*
D03*
Y110236D02*
D03*
Y113386D02*
D03*
Y116535D02*
D03*
Y119685D02*
D03*
X297146Y330709D02*
D03*
Y333858D02*
D03*
Y337008D02*
D03*
Y340158D02*
D03*
Y343307D02*
D03*
Y346457D02*
D03*
X277658D02*
D03*
Y343307D02*
D03*
Y340158D02*
D03*
Y337008D02*
D03*
Y333858D02*
D03*
Y330709D02*
D03*
D136*
X168425Y217008D02*
D03*
M02*
