G04*
G04 #@! TF.GenerationSoftware,Altium Limited,Altium Designer,20.0.12 (288)*
G04*
G04 Layer_Color=65535*
%FSLAX25Y25*%
%MOIN*%
G70*
G01*
G75*
%ADD10C,0.00787*%
%ADD11C,0.00984*%
%ADD12C,0.01000*%
%ADD13C,0.00600*%
%ADD14C,0.02362*%
%ADD15C,0.00591*%
%ADD16C,0.00500*%
G36*
X38337Y129173D02*
Y126673D01*
X40837D01*
Y129173D01*
X38337D01*
D02*
G37*
G36*
X292087Y237234D02*
X294587D01*
Y239734D01*
X292087D01*
Y237234D01*
D02*
G37*
G36*
X321693Y244655D02*
X319193D01*
Y242156D01*
X321693D01*
Y244655D01*
D02*
G37*
G36*
X312287Y268451D02*
X309787D01*
Y265951D01*
X312287D01*
Y268451D01*
D02*
G37*
D10*
X363386Y345472D02*
G03*
X363386Y345472I-394J0D01*
G01*
X261614Y235335D02*
G03*
X261614Y235335I-394J0D01*
G01*
X96161Y263209D02*
G03*
X96161Y263209I-394J0D01*
G01*
X168898Y227165D02*
G03*
X168898Y227165I-394J0D01*
G01*
X217634Y342890D02*
G03*
X217634Y342890I-394J0D01*
G01*
X63303Y340134D02*
G03*
X63303Y340134I-394J0D01*
G01*
X195965Y37697D02*
G03*
X195965Y37697I-394J0D01*
G01*
X254823Y88976D02*
X256594D01*
X254823Y70079D02*
X256594D01*
X241634Y88976D02*
X243406D01*
X241634Y70079D02*
X243406D01*
X256594D02*
Y88976D01*
X241634Y70079D02*
Y88976D01*
X212402Y315354D02*
Y325590D01*
X206496Y315354D02*
Y325590D01*
X212402D01*
X206496Y315354D02*
X212402D01*
X44882Y318307D02*
X55118D01*
X44882Y324213D02*
X55118D01*
Y318307D02*
Y324213D01*
X44882Y318307D02*
Y324213D01*
X202756Y332087D02*
X212992D01*
X202756Y337992D02*
X212992D01*
Y332087D02*
Y337992D01*
X202756Y332087D02*
Y337992D01*
X44882Y328543D02*
X55118D01*
X44882Y334449D02*
X55118D01*
Y328543D02*
Y334449D01*
X44882Y328543D02*
Y334449D01*
X94488Y78543D02*
X104724D01*
X94488Y84449D02*
X104724D01*
Y78543D02*
Y84449D01*
X94488Y78543D02*
Y84449D01*
X106102Y71752D02*
X116339D01*
X106102Y77658D02*
X116339D01*
Y71752D02*
Y77658D01*
X106102Y71752D02*
Y77658D01*
X335433Y164370D02*
X345669D01*
X335433Y170276D02*
X345669D01*
Y164370D02*
Y170276D01*
X335433Y164370D02*
Y170276D01*
Y171260D02*
X345669D01*
X335433Y177165D02*
X345669D01*
Y171260D02*
Y177165D01*
X335433Y171260D02*
Y177165D01*
X297047Y203150D02*
Y213386D01*
X291142Y203150D02*
Y213386D01*
X297047D01*
X291142Y203150D02*
X297047D01*
X323622Y191929D02*
X333858D01*
X323622Y197835D02*
X333858D01*
Y191929D02*
Y197835D01*
X323622Y191929D02*
Y197835D01*
X331342Y204701D02*
X341579D01*
X331342Y210606D02*
X341579D01*
Y204701D02*
Y210606D01*
X331342Y204701D02*
Y210606D01*
X331299Y211713D02*
X341535D01*
X331299Y217618D02*
X341535D01*
Y211713D02*
Y217618D01*
X331299Y211713D02*
Y217618D01*
X284547Y230512D02*
Y240748D01*
X290453Y230512D02*
Y240748D01*
X284547Y230512D02*
X290453D01*
X284547Y240748D02*
X290453D01*
X47638Y120965D02*
Y131201D01*
X41732Y120965D02*
Y131201D01*
X47638D01*
X41732Y120965D02*
X47638D01*
X286614Y250098D02*
X296850D01*
X286614Y256004D02*
X296850D01*
Y250098D02*
Y256004D01*
X286614Y250098D02*
Y256004D01*
X337205Y245276D02*
X347441D01*
X337205Y251181D02*
X347441D01*
Y245276D02*
Y251181D01*
X337205Y245276D02*
Y251181D01*
X337303Y253543D02*
X347539D01*
X337303Y259449D02*
X347539D01*
Y253543D02*
Y259449D01*
X337303Y253543D02*
Y259449D01*
X332579Y271654D02*
X342815D01*
X332579Y277559D02*
X342815D01*
Y271654D02*
Y277559D01*
X332579Y271654D02*
Y277559D01*
X25787Y138779D02*
X36024D01*
X25787Y132874D02*
X36024D01*
X25787D02*
Y138779D01*
X36024Y132874D02*
Y138779D01*
X332677Y279232D02*
X342913D01*
X332677Y285138D02*
X342913D01*
Y279232D02*
Y285138D01*
X332677Y279232D02*
Y285138D01*
X265453Y230413D02*
X275689D01*
X265453Y224508D02*
X275689D01*
X265453D02*
Y230413D01*
X275689Y224508D02*
Y230413D01*
X20472Y115157D02*
X30709D01*
X20472Y109252D02*
X30709D01*
X20472D02*
Y115157D01*
X30709Y109252D02*
Y115157D01*
X237205Y65551D02*
X322244D01*
X237205Y42716D02*
X322244D01*
Y47835D01*
Y60433D02*
Y65551D01*
X237205Y42716D02*
Y47835D01*
Y60433D02*
Y65551D01*
X49366Y264384D02*
X88342D01*
X49366Y256914D02*
Y264384D01*
Y256914D02*
X88342D01*
Y264384D01*
X119390Y179921D02*
X139075D01*
X119390Y192520D02*
X139075D01*
X119390Y179921D02*
Y192520D01*
X139075Y179921D02*
Y192520D01*
X172151Y282972D02*
Y321949D01*
Y282972D02*
X179621D01*
Y321949D01*
X172151D02*
X179621D01*
X238583Y350394D02*
X244094D01*
X238583Y361417D02*
X244094D01*
X238583Y350394D02*
Y361417D01*
X244094Y350394D02*
Y361417D01*
X94095Y72047D02*
Y77559D01*
X105118Y72047D02*
Y77559D01*
X94095D02*
X105118D01*
X94095Y72047D02*
X105118D01*
X87992Y225590D02*
Y231102D01*
X99016Y225590D02*
Y231102D01*
X87992D02*
X99016D01*
X87992Y225590D02*
X99016D01*
X146137Y253543D02*
X151649D01*
X146137Y264567D02*
X151649D01*
X146137Y253543D02*
Y264567D01*
X151649Y253543D02*
Y264567D01*
X118110Y88189D02*
X123622D01*
X118110Y99213D02*
X123622D01*
X118110Y88189D02*
Y99213D01*
X123622Y88189D02*
Y99213D01*
X198031Y312402D02*
X203543D01*
X198031Y323425D02*
X203543D01*
X198031Y312402D02*
Y323425D01*
X203543Y312402D02*
Y323425D01*
X111221Y199213D02*
X116732D01*
X111221Y188189D02*
X116732D01*
Y199213D01*
X111221Y188189D02*
Y199213D01*
X81004Y233465D02*
X86516D01*
X81004Y244488D02*
X86516D01*
X81004Y233465D02*
Y244488D01*
X86516Y233465D02*
Y244488D01*
X299114Y201870D02*
X304626D01*
X299114Y212894D02*
X304626D01*
X299114Y201870D02*
Y212894D01*
X304626Y201870D02*
Y212894D01*
X304846Y231291D02*
X306732Y226112D01*
X315205Y235061D02*
X317090Y229882D01*
X304846Y231291D02*
X315205Y235061D01*
X306732Y226112D02*
X317090Y229882D01*
X114961Y328346D02*
X120473D01*
X114961Y339370D02*
X120473D01*
X114961Y328346D02*
Y339370D01*
X120473Y328346D02*
Y339370D01*
X124397Y334063D02*
Y340740D01*
X135052Y334063D02*
Y340740D01*
X167323Y363976D02*
X190945D01*
X36811Y140945D02*
Y146457D01*
X25787Y140945D02*
Y146457D01*
Y140945D02*
X36811D01*
X25787Y146457D02*
X36811D01*
X153752Y133965D02*
Y140641D01*
X143098Y133965D02*
Y140641D01*
X246229Y383858D02*
Y379922D01*
X248197D01*
X248853Y380578D01*
Y383202D01*
X248197Y383858D01*
X246229D01*
X250165D02*
Y379922D01*
X252132D01*
X252788Y380578D01*
Y383202D01*
X252132Y383858D01*
X250165D01*
X254100Y383202D02*
X254756Y383858D01*
X256068D01*
X256724Y383202D01*
Y382546D01*
X256068Y381890D01*
X256724Y381234D01*
Y380578D01*
X256068Y379922D01*
X254756D01*
X254100Y380578D01*
Y381234D01*
X254756Y381890D01*
X254100Y382546D01*
Y383202D01*
X254756Y381890D02*
X256068D01*
X90683Y240584D02*
X90027Y241240D01*
X88715D01*
X88059Y240584D01*
Y237960D01*
X88715Y237304D01*
X90027D01*
X90683Y237960D01*
X91995D02*
X92651Y237304D01*
X93962D01*
X94618Y237960D01*
Y240584D01*
X93962Y241240D01*
X92651D01*
X91995Y240584D01*
Y239928D01*
X92651Y239272D01*
X94618D01*
X121086Y105655D02*
X120430Y106310D01*
X119118D01*
X118462Y105655D01*
Y103031D01*
X119118Y102375D01*
X120430D01*
X121086Y103031D01*
X122398Y102375D02*
X123710D01*
X123054D01*
Y106310D01*
X122398Y105655D01*
X128302Y102375D02*
X125678D01*
X128302Y104999D01*
Y105655D01*
X127646Y106310D01*
X126334D01*
X125678Y105655D01*
X197966Y329757D02*
X197310Y330413D01*
X195999D01*
X195343Y329757D01*
Y327133D01*
X195999Y326477D01*
X197310D01*
X197966Y327133D01*
X199278Y326477D02*
X200590D01*
X199934D01*
Y330413D01*
X199278Y329757D01*
X202558Y326477D02*
X203870D01*
X203214D01*
Y330413D01*
X202558Y329757D01*
X134482Y138418D02*
X133826Y139074D01*
X132514D01*
X131858Y138418D01*
Y135794D01*
X132514Y135138D01*
X133826D01*
X134482Y135794D01*
X138418Y135138D02*
X135794D01*
X138418Y137762D01*
Y138418D01*
X137762Y139074D01*
X136450D01*
X135794Y138418D01*
X19718Y144914D02*
X19062Y145570D01*
X17750D01*
X17094Y144914D01*
Y142290D01*
X17750Y141635D01*
X19062D01*
X19718Y142290D01*
X21030Y144914D02*
X21686Y145570D01*
X22998D01*
X23654Y144914D01*
Y144258D01*
X22998Y143602D01*
X22342D01*
X22998D01*
X23654Y142946D01*
Y142290D01*
X22998Y141635D01*
X21686D01*
X21030Y142290D01*
X199541Y367946D02*
X198885Y368602D01*
X197573D01*
X196917Y367946D01*
Y365322D01*
X197573Y364666D01*
X198885D01*
X199541Y365322D01*
X202821Y364666D02*
Y368602D01*
X200853Y366634D01*
X203477D01*
X126437Y353155D02*
X125781Y353811D01*
X124469D01*
X123813Y353155D01*
Y350531D01*
X124469Y349875D01*
X125781D01*
X126437Y350531D01*
X130373Y353811D02*
X127749D01*
Y351843D01*
X129061Y352499D01*
X129717D01*
X130373Y351843D01*
Y350531D01*
X129717Y349875D01*
X128405D01*
X127749Y350531D01*
X118027Y345860D02*
X117371Y346516D01*
X116059D01*
X115403Y345860D01*
Y343236D01*
X116059Y342580D01*
X117371D01*
X118027Y343236D01*
X121963Y346516D02*
X120651Y345860D01*
X119339Y344548D01*
Y343236D01*
X119995Y342580D01*
X121307D01*
X121963Y343236D01*
Y343892D01*
X121307Y344548D01*
X119339D01*
X316303Y224987D02*
X316695Y225828D01*
X316246Y227061D01*
X315405Y227453D01*
X312940Y226555D01*
X312548Y225714D01*
X312996Y224482D01*
X313837Y224090D01*
X317368Y223978D02*
X318265Y221513D01*
X317649Y221289D01*
X314286Y222857D01*
X313669Y222632D01*
X309580Y205151D02*
X308924Y205806D01*
X307612D01*
X306956Y205151D01*
Y202527D01*
X307612Y201871D01*
X308924D01*
X309580Y202527D01*
X310892Y205151D02*
X311548Y205806D01*
X312860D01*
X313516Y205151D01*
Y204495D01*
X312860Y203839D01*
X313516Y203183D01*
Y202527D01*
X312860Y201871D01*
X311548D01*
X310892Y202527D01*
Y203183D01*
X311548Y203839D01*
X310892Y204495D01*
Y205151D01*
X311548Y203839D02*
X312860D01*
X109810Y206233D02*
X109154Y206889D01*
X107843D01*
X107187Y206233D01*
Y203609D01*
X107843Y202953D01*
X109154D01*
X109810Y203609D01*
X111122Y202953D02*
X112434D01*
X111778D01*
Y206889D01*
X111122Y206233D01*
X114402D02*
X115058Y206889D01*
X116370D01*
X117026Y206233D01*
Y203609D01*
X116370Y202953D01*
X115058D01*
X114402Y203609D01*
Y206233D01*
X155381Y259186D02*
X154725Y259842D01*
X153413D01*
X152758Y259186D01*
Y256562D01*
X153413Y255906D01*
X154725D01*
X155381Y256562D01*
X156693Y255906D02*
X158005D01*
X157349D01*
Y259842D01*
X156693Y259186D01*
X159973D02*
X160629Y259842D01*
X161941D01*
X162597Y259186D01*
Y258530D01*
X161941Y257874D01*
X161285D01*
X161941D01*
X162597Y257218D01*
Y256562D01*
X161941Y255906D01*
X160629D01*
X159973Y256562D01*
X95933Y68241D02*
X95277Y68897D01*
X93965D01*
X93309Y68241D01*
Y65617D01*
X93965Y64961D01*
X95277D01*
X95933Y65617D01*
X97245Y64961D02*
X98556D01*
X97900D01*
Y68897D01*
X97245Y68241D01*
X103148Y68897D02*
X100524D01*
Y66929D01*
X101836Y67585D01*
X102492D01*
X103148Y66929D01*
Y65617D01*
X102492Y64961D01*
X101180D01*
X100524Y65617D01*
X79299Y227493D02*
X78643Y228149D01*
X77331D01*
X76675Y227493D01*
Y224869D01*
X77331Y224213D01*
X78643D01*
X79299Y224869D01*
X80611Y224213D02*
X81923D01*
X81266D01*
Y228149D01*
X80611Y227493D01*
X85858Y224213D02*
Y228149D01*
X83890Y226181D01*
X86514D01*
X234909Y366962D02*
X234253Y367618D01*
X232941D01*
X232285Y366962D01*
Y364338D01*
X232941Y363682D01*
X234253D01*
X234909Y364338D01*
X236221Y363682D02*
X237533D01*
X236877D01*
Y367618D01*
X236221Y366962D01*
X242124Y367618D02*
X240812Y366962D01*
X239501Y365650D01*
Y364338D01*
X240157Y363682D01*
X241468D01*
X242124Y364338D01*
Y364994D01*
X241468Y365650D01*
X239501D01*
X303142Y253284D02*
Y249348D01*
X305110D01*
X305766Y250004D01*
Y252628D01*
X305110Y253284D01*
X303142D01*
X307078Y249348D02*
X308390D01*
X307734D01*
Y253284D01*
X307078Y252628D01*
X302449Y287622D02*
Y283686D01*
X304416D01*
X305072Y284342D01*
Y286966D01*
X304416Y287622D01*
X302449D01*
X309008Y283686D02*
X306384D01*
X309008Y286310D01*
Y286966D01*
X308352Y287622D01*
X307040D01*
X306384Y286966D01*
X58462Y346469D02*
Y342533D01*
X60430D01*
X61085Y343189D01*
Y345813D01*
X60430Y346469D01*
X58462D01*
X62397Y342533D02*
Y345157D01*
X63709Y346469D01*
X65021Y345157D01*
Y342533D01*
Y344501D01*
X62397D01*
X66333Y342533D02*
X67645D01*
X66989D01*
Y346469D01*
X66333Y345813D01*
X218473Y347736D02*
Y343800D01*
X220441D01*
X221097Y344456D01*
Y347080D01*
X220441Y347736D01*
X218473D01*
X222409Y343800D02*
Y346424D01*
X223721Y347736D01*
X225032Y346424D01*
Y343800D01*
Y345768D01*
X222409D01*
X228968Y343800D02*
X226344D01*
X228968Y346424D01*
Y347080D01*
X228312Y347736D01*
X227000D01*
X226344Y347080D01*
X1862Y380210D02*
Y376275D01*
X3830D01*
X4486Y376931D01*
Y379555D01*
X3830Y380210D01*
X1862D01*
X5798D02*
Y376275D01*
X7766D01*
X8422Y376931D01*
Y379555D01*
X7766Y380210D01*
X5798D01*
X9734Y376275D02*
X11046D01*
X10390D01*
Y380210D01*
X9734Y379555D01*
X5662Y234711D02*
Y230775D01*
X7630D01*
X8286Y231431D01*
Y234055D01*
X7630Y234711D01*
X5662D01*
X9598D02*
Y230775D01*
X11566D01*
X12222Y231431D01*
Y234055D01*
X11566Y234711D01*
X9598D01*
X16158Y230775D02*
X13534D01*
X16158Y233399D01*
Y234055D01*
X15502Y234711D01*
X14190D01*
X13534Y234055D01*
X182055Y326673D02*
Y322737D01*
X184023D01*
X184679Y323393D01*
Y326017D01*
X184023Y326673D01*
X182055D01*
X185991D02*
Y322737D01*
X187959D01*
X188615Y323393D01*
Y326017D01*
X187959Y326673D01*
X185991D01*
X189927Y326017D02*
X190583Y326673D01*
X191895D01*
X192551Y326017D01*
Y325361D01*
X191895Y324705D01*
X191239D01*
X191895D01*
X192551Y324049D01*
Y323393D01*
X191895Y322737D01*
X190583D01*
X189927Y323393D01*
X124378Y206102D02*
Y202166D01*
X126346D01*
X127002Y202822D01*
Y205446D01*
X126346Y206102D01*
X124378D01*
X128314D02*
Y202166D01*
X130282D01*
X130938Y202822D01*
Y205446D01*
X130282Y206102D01*
X128314D01*
X134218Y202166D02*
Y206102D01*
X132250Y204134D01*
X134874D01*
X47762Y284711D02*
Y280775D01*
X49730D01*
X50386Y281431D01*
Y284055D01*
X49730Y284711D01*
X47762D01*
X51698D02*
Y280775D01*
X53666D01*
X54322Y281431D01*
Y284055D01*
X53666Y284711D01*
X51698D01*
X58258D02*
X55634D01*
Y282743D01*
X56946Y283399D01*
X57601D01*
X58258Y282743D01*
Y281431D01*
X57601Y280775D01*
X56290D01*
X55634Y281431D01*
X95733Y273796D02*
Y269861D01*
X97701D01*
X98357Y270517D01*
Y273140D01*
X97701Y273796D01*
X95733D01*
X99669D02*
Y269861D01*
X101637D01*
X102293Y270517D01*
Y273140D01*
X101637Y273796D01*
X99669D01*
X106228D02*
X104917Y273140D01*
X103604Y271829D01*
Y270517D01*
X104261Y269861D01*
X105572D01*
X106228Y270517D01*
Y271172D01*
X105572Y271829D01*
X103604D01*
X95436Y122355D02*
Y118420D01*
X97404D01*
X98060Y119076D01*
Y121700D01*
X97404Y122355D01*
X95436D01*
X99372D02*
Y118420D01*
X101340D01*
X101996Y119076D01*
Y121700D01*
X101340Y122355D01*
X99372D01*
X103308D02*
X105931D01*
Y121700D01*
X103308Y119076D01*
Y118420D01*
X236586Y72811D02*
X233962D01*
Y70843D01*
X235274D01*
X233962D01*
Y68875D01*
X237898D02*
X239210D01*
X238554D01*
Y72811D01*
X237898Y72155D01*
X17750Y117225D02*
Y121161D01*
X19718D01*
X20374Y120505D01*
Y119193D01*
X19718Y118537D01*
X17750D01*
X19062D02*
X20374Y117225D01*
X21686D02*
X22998D01*
X22342D01*
Y121161D01*
X21686Y120505D01*
X255382Y226379D02*
Y230314D01*
X257349D01*
X258005Y229658D01*
Y228346D01*
X257349Y227691D01*
X255382D01*
X256694D02*
X258005Y226379D01*
X261941D02*
X259317D01*
X261941Y229002D01*
Y229658D01*
X261285Y230314D01*
X259973D01*
X259317Y229658D01*
X333630Y287205D02*
Y291141D01*
X335597D01*
X336253Y290485D01*
Y289173D01*
X335597Y288517D01*
X333630D01*
X334942D02*
X336253Y287205D01*
X337565Y290485D02*
X338221Y291141D01*
X339533D01*
X340189Y290485D01*
Y289829D01*
X339533Y289173D01*
X338877D01*
X339533D01*
X340189Y288517D01*
Y287861D01*
X339533Y287205D01*
X338221D01*
X337565Y287861D01*
X38271Y133741D02*
Y137677D01*
X40239D01*
X40895Y137021D01*
Y135709D01*
X40239Y135053D01*
X38271D01*
X39583D02*
X40895Y133741D01*
X44175D02*
Y137677D01*
X42207Y135709D01*
X44831D01*
X332252Y265355D02*
Y269291D01*
X334220D01*
X334875Y268635D01*
Y267323D01*
X334220Y266667D01*
X332252D01*
X333564D02*
X334875Y265355D01*
X338811Y269291D02*
X336188D01*
Y267323D01*
X337499Y267979D01*
X338155D01*
X338811Y267323D01*
Y266011D01*
X338155Y265355D01*
X336843D01*
X336188Y266011D01*
X340786Y261579D02*
Y265515D01*
X342754D01*
X343410Y264859D01*
Y263547D01*
X342754Y262891D01*
X340786D01*
X342098D02*
X343410Y261579D01*
X344722Y265515D02*
X347346D01*
Y264859D01*
X344722Y262235D01*
Y261579D01*
X338649Y239371D02*
Y243306D01*
X340617D01*
X341273Y242651D01*
Y241339D01*
X340617Y240683D01*
X338649D01*
X339961D02*
X341273Y239371D01*
X342585Y242651D02*
X343241Y243306D01*
X344553D01*
X345209Y242651D01*
Y241995D01*
X344553Y241339D01*
X345209Y240683D01*
Y240027D01*
X344553Y239371D01*
X343241D01*
X342585Y240027D01*
Y240683D01*
X343241Y241339D01*
X342585Y241995D01*
Y242651D01*
X343241Y241339D02*
X344553D01*
X288453Y257875D02*
Y261810D01*
X290420D01*
X291076Y261154D01*
Y259842D01*
X290420Y259187D01*
X288453D01*
X289764D02*
X291076Y257875D01*
X292388Y258531D02*
X293044Y257875D01*
X294356D01*
X295012Y258531D01*
Y261154D01*
X294356Y261810D01*
X293044D01*
X292388Y261154D01*
Y260498D01*
X293044Y259842D01*
X295012D01*
X49805Y124705D02*
Y128641D01*
X51773D01*
X52429Y127985D01*
Y126673D01*
X51773Y126017D01*
X49805D01*
X51117D02*
X52429Y124705D01*
X53741D02*
X55052D01*
X54396D01*
Y128641D01*
X53741Y127985D01*
X57020D02*
X57676Y128641D01*
X58988D01*
X59644Y127985D01*
Y125361D01*
X58988Y124705D01*
X57676D01*
X57020Y125361D01*
Y127985D01*
X280087Y243603D02*
Y247539D01*
X282055D01*
X282711Y246883D01*
Y245571D01*
X282055Y244915D01*
X280087D01*
X281399D02*
X282711Y243603D01*
X284022D02*
X285334D01*
X284678D01*
Y247539D01*
X284022Y246883D01*
X287302Y243603D02*
X288614D01*
X287958D01*
Y247539D01*
X287302Y246883D01*
X319490Y212205D02*
Y216141D01*
X321458D01*
X322114Y215485D01*
Y214173D01*
X321458Y213517D01*
X319490D01*
X320802D02*
X322114Y212205D01*
X323426D02*
X324737D01*
X324081D01*
Y216141D01*
X323426Y215485D01*
X329329Y212205D02*
X326705D01*
X329329Y214829D01*
Y215485D01*
X328673Y216141D01*
X327361D01*
X326705Y215485D01*
X319785Y204725D02*
Y208661D01*
X321753D01*
X322409Y208005D01*
Y206693D01*
X321753Y206037D01*
X319785D01*
X321097D02*
X322409Y204725D01*
X323721D02*
X325033D01*
X324377D01*
Y208661D01*
X323721Y208005D01*
X327001D02*
X327657Y208661D01*
X328968D01*
X329624Y208005D01*
Y207349D01*
X328968Y206693D01*
X328312D01*
X328968D01*
X329624Y206037D01*
Y205381D01*
X328968Y204725D01*
X327657D01*
X327001Y205381D01*
X287249Y215823D02*
Y219759D01*
X289217D01*
X289873Y219103D01*
Y217791D01*
X289217Y217135D01*
X287249D01*
X288561D02*
X289873Y215823D01*
X291185D02*
X292497D01*
X291841D01*
Y219759D01*
X291185Y219103D01*
X297089Y219759D02*
X294465D01*
Y217791D01*
X295777Y218447D01*
X296433D01*
X297089Y217791D01*
Y216479D01*
X296433Y215823D01*
X295121D01*
X294465Y216479D01*
X336616Y193209D02*
Y197145D01*
X338584D01*
X339240Y196489D01*
Y195177D01*
X338584Y194521D01*
X336616D01*
X337928D02*
X339240Y193209D01*
X340551D02*
X341863D01*
X341208D01*
Y197145D01*
X340551Y196489D01*
X345799Y193209D02*
Y197145D01*
X343831Y195177D01*
X346455D01*
X322541Y171753D02*
Y175688D01*
X324509D01*
X325165Y175032D01*
Y173721D01*
X324509Y173064D01*
X322541D01*
X323853D02*
X325165Y171753D01*
X326477D02*
X327789D01*
X327133D01*
Y175688D01*
X326477Y175032D01*
X332380Y175688D02*
X331068Y175032D01*
X329756Y173721D01*
Y172409D01*
X330412Y171753D01*
X331724D01*
X332380Y172409D01*
Y173064D01*
X331724Y173721D01*
X329756D01*
X323427Y164568D02*
Y168503D01*
X325395D01*
X326051Y167847D01*
Y166535D01*
X325395Y165879D01*
X323427D01*
X324739D02*
X326051Y164568D01*
X327362D02*
X328674D01*
X328018D01*
Y168503D01*
X327362Y167847D01*
X330642D02*
X331298Y168503D01*
X332610D01*
X333266Y167847D01*
Y167191D01*
X332610Y166535D01*
X333266Y165879D01*
Y165224D01*
X332610Y164568D01*
X331298D01*
X330642Y165224D01*
Y165879D01*
X331298Y166535D01*
X330642Y167191D01*
Y167847D01*
X331298Y166535D02*
X332610D01*
X320376Y261418D02*
Y265354D01*
X322343D01*
X322999Y264698D01*
Y263386D01*
X322343Y262730D01*
X320376D01*
X321688D02*
X322999Y261418D01*
X324311D02*
X325623D01*
X324967D01*
Y265354D01*
X324311Y264698D01*
X327591Y262074D02*
X328247Y261418D01*
X329559D01*
X330215Y262074D01*
Y264698D01*
X329559Y265354D01*
X328247D01*
X327591Y264698D01*
Y264042D01*
X328247Y263386D01*
X330215D01*
X317768Y286342D02*
Y290277D01*
X319736D01*
X320392Y289621D01*
Y288310D01*
X319736Y287654D01*
X317768D01*
X319080D02*
X320392Y286342D01*
X324327D02*
X321703D01*
X324327Y288966D01*
Y289621D01*
X323671Y290277D01*
X322359D01*
X321703Y289621D01*
X325639D02*
X326295Y290277D01*
X327607D01*
X328263Y289621D01*
Y286998D01*
X327607Y286342D01*
X326295D01*
X325639Y286998D01*
Y289621D01*
X109089Y65749D02*
Y69684D01*
X111057D01*
X111713Y69028D01*
Y67716D01*
X111057Y67061D01*
X109089D01*
X110401D02*
X111713Y65749D01*
X115649D02*
X113025D01*
X115649Y68372D01*
Y69028D01*
X114993Y69684D01*
X113681D01*
X113025Y69028D01*
X116961Y65749D02*
X118273D01*
X117617D01*
Y69684D01*
X116961Y69028D01*
X106152Y167257D02*
X105496Y167913D01*
X104184D01*
X103528Y167257D01*
Y166601D01*
X104184Y165945D01*
X105496D01*
X106152Y165289D01*
Y164633D01*
X105496Y163977D01*
X104184D01*
X103528Y164633D01*
X107464Y167913D02*
Y163977D01*
X109432D01*
X110088Y164633D01*
Y165289D01*
X109432Y165945D01*
X107464D01*
X109432D01*
X110088Y166601D01*
Y167257D01*
X109432Y167913D01*
X107464D01*
X111400Y163977D02*
X112712D01*
X112056D01*
Y167913D01*
X111400Y167257D01*
X145408Y179560D02*
X144752Y180216D01*
X143440D01*
X142784Y179560D01*
Y178904D01*
X143440Y178248D01*
X144752D01*
X145408Y177592D01*
Y176936D01*
X144752Y176280D01*
X143440D01*
X142784Y176936D01*
X146720Y180216D02*
Y176280D01*
X148688D01*
X149343Y176936D01*
Y177592D01*
X148688Y178248D01*
X146720D01*
X148688D01*
X149343Y178904D01*
Y179560D01*
X148688Y180216D01*
X146720D01*
X153279Y176280D02*
X150655D01*
X153279Y178904D01*
Y179560D01*
X152623Y180216D01*
X151311D01*
X150655Y179560D01*
X147475Y167454D02*
X146819Y168110D01*
X145507D01*
X144851Y167454D01*
Y166798D01*
X145507Y166142D01*
X146819D01*
X147475Y165486D01*
Y164830D01*
X146819Y164174D01*
X145507D01*
X144851Y164830D01*
X148786Y168110D02*
Y164174D01*
X150754D01*
X151410Y164830D01*
Y165486D01*
X150754Y166142D01*
X148786D01*
X150754D01*
X151410Y166798D01*
Y167454D01*
X150754Y168110D01*
X148786D01*
X152722Y167454D02*
X153378Y168110D01*
X154690D01*
X155346Y167454D01*
Y166798D01*
X154690Y166142D01*
X154034D01*
X154690D01*
X155346Y165486D01*
Y164830D01*
X154690Y164174D01*
X153378D01*
X152722Y164830D01*
X17357Y129330D02*
Y126050D01*
X18012Y125394D01*
X19324D01*
X19980Y126050D01*
Y129330D01*
X21292Y125394D02*
X22604D01*
X21948D01*
Y129330D01*
X21292Y128674D01*
X241947Y97876D02*
Y95252D01*
X243258Y93940D01*
X244570Y95252D01*
Y97876D01*
X245882D02*
Y93940D01*
X247850D01*
X248506Y94596D01*
Y97220D01*
X247850Y97876D01*
X245882D01*
X249818Y93940D02*
X251130D01*
X250474D01*
Y97876D01*
X249818Y97220D01*
X159172Y148211D02*
Y145587D01*
X160484Y144275D01*
X161795Y145587D01*
Y148211D01*
X163107D02*
Y144275D01*
X165075D01*
X165731Y144931D01*
Y147555D01*
X165075Y148211D01*
X163107D01*
X169667Y144275D02*
X167043D01*
X169667Y146899D01*
Y147555D01*
X169011Y148211D01*
X167699D01*
X167043Y147555D01*
X266406Y244881D02*
Y242257D01*
X267718Y240946D01*
X269030Y242257D01*
Y244881D01*
X270342D02*
Y240946D01*
X272309D01*
X272966Y241601D01*
Y244225D01*
X272309Y244881D01*
X270342D01*
X274277Y244225D02*
X274933Y244881D01*
X276245D01*
X276901Y244225D01*
Y243569D01*
X276245Y242913D01*
X275589D01*
X276245D01*
X276901Y242257D01*
Y241601D01*
X276245Y240946D01*
X274933D01*
X274277Y241601D01*
X89142Y333267D02*
Y330643D01*
X90454Y329331D01*
X91766Y330643D01*
Y333267D01*
X93078D02*
Y329331D01*
X95046D01*
X95702Y329987D01*
Y332611D01*
X95046Y333267D01*
X93078D01*
X98981Y329331D02*
Y333267D01*
X97014Y331299D01*
X99637D01*
X325855Y236983D02*
Y234360D01*
X327167Y233048D01*
X328479Y234360D01*
Y236983D01*
X329790D02*
Y233048D01*
X331758D01*
X332414Y233704D01*
Y236328D01*
X331758Y236983D01*
X329790D01*
X336350D02*
X333726D01*
Y235016D01*
X335038Y235672D01*
X335694D01*
X336350Y235016D01*
Y233704D01*
X335694Y233048D01*
X334382D01*
X333726Y233704D01*
X163477Y252346D02*
Y249722D01*
X164789Y248410D01*
X166101Y249722D01*
Y252346D01*
X167412D02*
Y248410D01*
X169380D01*
X170036Y249066D01*
Y251690D01*
X169380Y252346D01*
X167412D01*
X171348Y251690D02*
X172004Y252346D01*
X173316D01*
X173972Y251690D01*
Y251034D01*
X173316Y250378D01*
X173972Y249722D01*
Y249066D01*
X173316Y248410D01*
X172004D01*
X171348Y249066D01*
Y249722D01*
X172004Y250378D01*
X171348Y251034D01*
Y251690D01*
X172004Y250378D02*
X173316D01*
X98231Y342027D02*
Y339403D01*
X99542Y338091D01*
X100854Y339403D01*
Y342027D01*
X102166D02*
Y338091D01*
X104134D01*
X104790Y338747D01*
Y341371D01*
X104134Y342027D01*
X102166D01*
X106102Y338091D02*
X107414D01*
X106758D01*
Y342027D01*
X106102Y341371D01*
X109382D02*
X110038Y342027D01*
X111350D01*
X112006Y341371D01*
Y338747D01*
X111350Y338091D01*
X110038D01*
X109382Y338747D01*
Y341371D01*
X291668Y246850D02*
Y244226D01*
X292980Y242914D01*
X294292Y244226D01*
Y246850D01*
X295604D02*
X298228D01*
X296916D01*
Y242914D01*
X299540D02*
X300851D01*
X300196D01*
Y246850D01*
X299540Y246194D01*
X367455Y73818D02*
X370079Y69883D01*
Y73818D02*
X367455Y69883D01*
X371391D02*
X372703D01*
X372047D01*
Y73818D01*
X371391Y73162D01*
X179580Y106314D02*
X178925Y106970D01*
X177613D01*
X176957Y106314D01*
Y103690D01*
X177613Y103034D01*
X178925D01*
X179580Y103690D01*
X180892Y103034D02*
X182204D01*
X181548D01*
Y106970D01*
X180892Y106314D01*
X81071Y81300D02*
Y85236D01*
X83039D01*
X83695Y84580D01*
Y83268D01*
X83039Y82612D01*
X81071D01*
X82383D02*
X83695Y81300D01*
X87631D02*
X85007D01*
X87631Y83924D01*
Y84580D01*
X86975Y85236D01*
X85663D01*
X85007Y84580D01*
X91566Y81300D02*
X88943D01*
X91566Y83924D01*
Y84580D01*
X90911Y85236D01*
X89599D01*
X88943Y84580D01*
X45243Y337637D02*
Y341573D01*
X47211D01*
X47867Y340917D01*
Y339605D01*
X47211Y338949D01*
X45243D01*
X46555D02*
X47867Y337637D01*
X51803D02*
X49179D01*
X51803Y340261D01*
Y340917D01*
X51147Y341573D01*
X49835D01*
X49179Y340917D01*
X53115D02*
X53771Y341573D01*
X55083D01*
X55739Y340917D01*
Y340261D01*
X55083Y339605D01*
X54427D01*
X55083D01*
X55739Y338949D01*
Y338293D01*
X55083Y337637D01*
X53771D01*
X53115Y338293D01*
X200559Y340749D02*
Y344684D01*
X202527D01*
X203183Y344028D01*
Y342717D01*
X202527Y342061D01*
X200559D01*
X201871D02*
X203183Y340749D01*
X207119D02*
X204495D01*
X207119Y343373D01*
Y344028D01*
X206463Y344684D01*
X205151D01*
X204495Y344028D01*
X210399Y340749D02*
Y344684D01*
X208431Y342717D01*
X211055D01*
X31760Y318997D02*
Y322932D01*
X33728D01*
X34384Y322276D01*
Y320965D01*
X33728Y320309D01*
X31760D01*
X33072D02*
X34384Y318997D01*
X38320D02*
X35696D01*
X38320Y321620D01*
Y322276D01*
X37664Y322932D01*
X36352D01*
X35696Y322276D01*
X42255Y322932D02*
X39632D01*
Y320965D01*
X40944Y321620D01*
X41600D01*
X42255Y320965D01*
Y319653D01*
X41600Y318997D01*
X40288D01*
X39632Y319653D01*
X215225Y315552D02*
Y319488D01*
X217193D01*
X217849Y318832D01*
Y317520D01*
X217193Y316864D01*
X215225D01*
X216537D02*
X217849Y315552D01*
X221784D02*
X219161D01*
X221784Y318176D01*
Y318832D01*
X221128Y319488D01*
X219816D01*
X219161Y318832D01*
X225720Y319488D02*
X224408Y318832D01*
X223096Y317520D01*
Y316208D01*
X223752Y315552D01*
X225064D01*
X225720Y316208D01*
Y316864D01*
X225064Y317520D01*
X223096D01*
X367357Y347736D02*
X369981Y343800D01*
Y347736D02*
X367357Y343800D01*
X371293D02*
Y347736D01*
X373261D01*
X373917Y347080D01*
Y345768D01*
X373261Y345112D01*
X371293D01*
X375229Y343800D02*
X376540D01*
X375885D01*
Y347736D01*
X375229Y347080D01*
X271510Y210303D02*
Y207679D01*
X272822Y206367D01*
X274134Y207679D01*
Y210303D01*
X275446D02*
Y206367D01*
X277413D01*
X278069Y207023D01*
Y209647D01*
X277413Y210303D01*
X275446D01*
X282005D02*
X280693Y209647D01*
X279381Y208335D01*
Y207023D01*
X280037Y206367D01*
X281349D01*
X282005Y207023D01*
Y207679D01*
X281349Y208335D01*
X279381D01*
X85200Y300851D02*
Y298228D01*
X86512Y296916D01*
X87824Y298228D01*
Y300851D01*
X89136D02*
Y296916D01*
X91104D01*
X91760Y297572D01*
Y300196D01*
X91104Y300851D01*
X89136D01*
X93072D02*
X95695D01*
Y300196D01*
X93072Y297572D01*
Y296916D01*
D11*
X243307Y67520D02*
G03*
X243307Y67520I-492J0D01*
G01*
X86847Y277000D02*
G03*
X86847Y277000I-492J0D01*
G01*
X118878Y175492D02*
G03*
X118878Y175492I-492J0D01*
G01*
X160027Y319961D02*
G03*
X160027Y319961I-492J0D01*
G01*
D12*
X351831Y354685D02*
G03*
X351831Y354685I-5906J0D01*
G01*
X300406Y233858D02*
Y236909D01*
Y224705D02*
Y227756D01*
X295374Y230020D02*
Y231594D01*
X296063Y236909D02*
X300406D01*
X296161Y224705D02*
X300406D01*
X34961Y120854D02*
X38012D01*
X25807D02*
X28858D01*
X31122Y125886D02*
X32697D01*
X38012Y120854D02*
Y125197D01*
X25807Y120854D02*
Y125098D01*
X258425Y324685D02*
Y354685D01*
Y384685D01*
X338425D01*
X258425Y324685D02*
X338425D01*
Y384685D01*
X358425Y374685D01*
Y334685D02*
Y374685D01*
X338425Y324685D02*
X358425Y334685D01*
X1598Y264984D02*
X159079D01*
X1598Y373004D02*
X159079D01*
Y264984D02*
Y373004D01*
X1598Y264984D02*
Y373004D01*
X303968Y268775D02*
Y271827D01*
Y277929D02*
Y280980D01*
X309000Y274090D02*
Y275665D01*
X303968Y268775D02*
X308311D01*
X303968Y280980D02*
X308212D01*
X313374Y244980D02*
Y248031D01*
Y254134D02*
Y257185D01*
X318406Y250295D02*
Y251870D01*
X313374Y244980D02*
X317717D01*
X313374Y257185D02*
X317618D01*
X138956Y173819D02*
X142323Y175591D01*
X134097Y342482D02*
X130098D01*
Y339483D01*
X132098Y340483D01*
X133098D01*
X134097Y339483D01*
Y337484D01*
X133098Y336484D01*
X131098D01*
X130098Y337484D01*
X136097Y340483D02*
X138096Y336484D01*
X140095Y340483D01*
X134097Y332483D02*
X133098Y333482D01*
X131098D01*
X130098Y332483D01*
Y328484D01*
X131098Y327484D01*
X133098D01*
X134097Y328484D01*
Y330483D01*
X132098D01*
X136097Y327484D02*
Y333482D01*
X140095Y327484D01*
Y333482D01*
X142095D02*
Y327484D01*
X145094D01*
X146093Y328484D01*
Y332483D01*
X145094Y333482D01*
X142095D01*
X130098Y323482D02*
Y319484D01*
X132098Y317484D01*
X134097Y319484D01*
Y323482D01*
X136097D02*
Y317484D01*
X139095D01*
X140095Y318484D01*
Y322483D01*
X139095Y323482D01*
X136097D01*
X142095D02*
Y317484D01*
X145094D01*
X146093Y318484D01*
Y322483D01*
X145094Y323482D01*
X142095D01*
X131098Y312483D02*
Y311483D01*
X130098D01*
X132098D01*
X131098D01*
Y308484D01*
X132098Y307484D01*
X135097Y311483D02*
X139095Y307484D01*
X137096Y309484D01*
X139095Y311483D01*
X135097Y307484D01*
X130098Y301483D02*
Y297484D01*
Y299484D01*
X131098Y300483D01*
X132098Y301483D01*
X133098D01*
X136097D02*
X140095Y297484D01*
X138096Y299484D01*
X140095Y301483D01*
X136097Y297484D01*
X134097Y292483D02*
X133098Y293482D01*
X131098D01*
X130098Y292483D01*
Y288484D01*
X131098Y287484D01*
X133098D01*
X134097Y288484D01*
Y290483D01*
X132098D01*
X136097Y287484D02*
Y293482D01*
X140095Y287484D01*
Y293482D01*
X142095D02*
Y287484D01*
X145094D01*
X146093Y288484D01*
Y292483D01*
X145094Y293482D01*
X142095D01*
X130098Y281483D02*
Y277484D01*
Y279484D01*
X131098Y280483D01*
X132098Y281483D01*
X133098D01*
X136097Y277484D02*
X139095D01*
X140095Y278484D01*
X139095Y279484D01*
X137096D01*
X136097Y280483D01*
X137096Y281483D01*
X140095D01*
X143094Y282483D02*
Y281483D01*
X142095D01*
X144094D01*
X143094D01*
Y278484D01*
X144094Y277484D01*
D13*
X94921Y99587D02*
G03*
X94921Y101987I0J1200D01*
G01*
X114921Y93387D02*
Y108187D01*
X94921Y101987D02*
Y108187D01*
Y99587D02*
Y101987D01*
Y93387D02*
Y99587D01*
D14*
X124508Y183858D02*
G03*
X124508Y183858I-1181J0D01*
G01*
D15*
X199803Y347441D02*
G03*
X199803Y347441I-20669J0D01*
G01*
X363150Y151063D02*
X368071D01*
X363150Y131890D02*
X383858D01*
X363150D02*
Y151063D01*
X368071D02*
Y321378D01*
X363150Y340551D02*
X383858D01*
X363150Y321378D02*
X368071D01*
X363150D02*
Y340551D01*
X359252Y57087D02*
Y61024D01*
X357283Y59055D02*
X361221D01*
X359252Y37402D02*
Y41339D01*
X383661Y29724D02*
Y68701D01*
X402559D01*
Y75394D01*
X412402D01*
Y68701D02*
Y75394D01*
Y68701D02*
X419095D01*
Y29724D02*
Y68701D01*
X412402Y29724D02*
X419095D01*
X412402Y23031D02*
Y29724D01*
X402559Y23031D02*
X412402D01*
X402559D02*
Y29724D01*
X383661D02*
X402559D01*
D16*
X269764Y238288D02*
X276300D01*
X269764Y232382D02*
X276300D01*
X317618Y273445D02*
Y278327D01*
X324311Y273445D02*
Y278327D01*
X333268Y249528D02*
Y254409D01*
X326575Y249528D02*
Y254409D01*
X136831Y265650D02*
Y265984D01*
Y225433D02*
Y225768D01*
X107303Y265650D02*
Y265984D01*
Y225433D02*
Y225768D01*
Y265984D02*
X136831D01*
X107303Y225433D02*
X136831D01*
X183425Y152008D02*
Y222008D01*
X13425Y152008D02*
X183425D01*
X13425D02*
Y222008D01*
X183425D01*
X221063Y341831D02*
X236417D01*
X221063Y321949D02*
X236417D01*
X66732Y339075D02*
X82087D01*
X66732Y319193D02*
X82087D01*
X221752Y42224D02*
X230413Y50886D01*
Y95374D01*
X177264Y50886D02*
Y95374D01*
Y50886D02*
X185925Y42224D01*
X198642D01*
X209035D02*
X221752D01*
X177264Y95374D02*
X198642D01*
X209035D02*
X230413D01*
M02*
