G04*
G04 #@! TF.GenerationSoftware,Altium Limited,Altium Designer,20.0.12 (288)*
G04*
G04 Layer_Color=65535*
%FSLAX44Y44*%
%MOMM*%
G71*
G01*
G75*
%ADD10C,0.2000*%
%ADD11C,0.2500*%
%ADD12C,0.2540*%
%ADD13C,0.1524*%
%ADD14C,0.6000*%
%ADD15C,0.1500*%
%ADD16C,0.1270*%
G36*
X97375Y328100D02*
Y321750D01*
X103725D01*
Y328100D01*
X97375D01*
D02*
G37*
G36*
X741900Y602575D02*
X748250D01*
Y608925D01*
X741900D01*
Y602575D01*
D02*
G37*
G36*
X817100Y621425D02*
X810750D01*
Y615075D01*
X817100D01*
Y621425D01*
D02*
G37*
G36*
X793210Y681864D02*
X786860D01*
Y675515D01*
X793210D01*
Y681864D01*
D02*
G37*
D10*
X923000Y877500D02*
G03*
X923000Y877500I-1000J0D01*
G01*
X664501Y597751D02*
G03*
X664501Y597751I-1000J0D01*
G01*
X244250Y668550D02*
G03*
X244250Y668550I-1000J0D01*
G01*
X429000Y577000D02*
G03*
X429000Y577000I-1000J0D01*
G01*
X552790Y870940D02*
G03*
X552790Y870940I-1000J0D01*
G01*
X160790Y863940D02*
G03*
X160790Y863940I-1000J0D01*
G01*
X497750Y95750D02*
G03*
X497750Y95750I-1000J0D01*
G01*
X647250Y226000D02*
X651750D01*
X647250Y178000D02*
X651750D01*
X613750Y226000D02*
X618250D01*
X613750Y178000D02*
X618250D01*
X651750D02*
Y226000D01*
X613750Y178000D02*
Y226000D01*
X539500Y801000D02*
Y827000D01*
X524500Y801000D02*
Y827000D01*
X539500D01*
X524500Y801000D02*
X539500D01*
X114000Y808500D02*
X140000D01*
X114000Y823500D02*
X140000D01*
Y808500D02*
Y823500D01*
X114000Y808500D02*
Y823500D01*
X515000Y843500D02*
X541000D01*
X515000Y858500D02*
X541000D01*
Y843500D02*
Y858500D01*
X515000Y843500D02*
Y858500D01*
X114000Y834500D02*
X140000D01*
X114000Y849500D02*
X140000D01*
Y834500D02*
Y849500D01*
X114000Y834500D02*
Y849500D01*
X240000Y199500D02*
X266000D01*
X240000Y214500D02*
X266000D01*
Y199500D02*
Y214500D01*
X240000Y199500D02*
Y214500D01*
X269500Y182250D02*
X295500D01*
X269500Y197250D02*
X295500D01*
Y182250D02*
Y197250D01*
X269500Y182250D02*
Y197250D01*
X852000Y417500D02*
X878000D01*
X852000Y432500D02*
X878000D01*
Y417500D02*
Y432500D01*
X852000Y417500D02*
Y432500D01*
Y435000D02*
X878000D01*
X852000Y450000D02*
X878000D01*
Y435000D02*
Y450000D01*
X852000Y435000D02*
Y450000D01*
X754500Y516000D02*
Y542000D01*
X739500Y516000D02*
Y542000D01*
X754500D01*
X739500Y516000D02*
X754500D01*
X822000Y487500D02*
X848000D01*
X822000Y502500D02*
X848000D01*
Y487500D02*
Y502500D01*
X822000Y487500D02*
Y502500D01*
X841610Y519940D02*
X867610D01*
X841610Y534940D02*
X867610D01*
Y519940D02*
Y534940D01*
X841610Y519940D02*
Y534940D01*
X841500Y537750D02*
X867500D01*
X841500Y552750D02*
X867500D01*
Y537750D02*
Y552750D01*
X841500Y537750D02*
Y552750D01*
X722750Y585500D02*
Y611500D01*
X737750Y585500D02*
Y611500D01*
X722750Y585500D02*
X737750D01*
X722750Y611500D02*
X737750D01*
X121000Y307250D02*
Y333250D01*
X106000Y307250D02*
Y333250D01*
X121000D01*
X106000Y307250D02*
X121000D01*
X728000Y635250D02*
X754000D01*
X728000Y650250D02*
X754000D01*
Y635250D02*
Y650250D01*
X728000Y635250D02*
Y650250D01*
X856500Y623000D02*
X882500D01*
X856500Y638000D02*
X882500D01*
Y623000D02*
Y638000D01*
X856500Y623000D02*
Y638000D01*
X856750Y644000D02*
X882750D01*
X856750Y659000D02*
X882750D01*
Y644000D02*
Y659000D01*
X856750Y644000D02*
Y659000D01*
X844750Y690000D02*
X870750D01*
X844750Y705000D02*
X870750D01*
Y690000D02*
Y705000D01*
X844750Y690000D02*
Y705000D01*
X65500Y352500D02*
X91500D01*
X65500Y337500D02*
X91500D01*
X65500D02*
Y352500D01*
X91500Y337500D02*
Y352500D01*
X845000Y709250D02*
X871000D01*
X845000Y724250D02*
X871000D01*
Y709250D02*
Y724250D01*
X845000Y709250D02*
Y724250D01*
X674250Y585250D02*
X700250D01*
X674250Y570250D02*
X700250D01*
X674250D02*
Y585250D01*
X700250Y570250D02*
Y585250D01*
X52000Y292500D02*
X78000D01*
X52000Y277500D02*
X78000D01*
X52000D02*
Y292500D01*
X78000Y277500D02*
Y292500D01*
X602500Y166500D02*
X818500D01*
X602500Y108500D02*
X818500D01*
Y121500D01*
Y153500D02*
Y166500D01*
X602500Y108500D02*
Y121500D01*
Y153500D02*
Y166500D01*
X125390Y671535D02*
X224390D01*
X125390Y652562D02*
Y671535D01*
Y652562D02*
X224390D01*
Y671535D01*
X303250Y457000D02*
X353250D01*
X303250Y489000D02*
X353250D01*
X303250Y457000D02*
Y489000D01*
X353250Y457000D02*
Y489000D01*
X437263Y718750D02*
Y817750D01*
Y718750D02*
X456237D01*
Y817750D01*
X437263D02*
X456237D01*
X606000Y890000D02*
X620000D01*
X606000Y918000D02*
X620000D01*
X606000Y890000D02*
Y918000D01*
X620000Y890000D02*
Y918000D01*
X239000Y183000D02*
Y197000D01*
X267000Y183000D02*
Y197000D01*
X239000D02*
X267000D01*
X239000Y183000D02*
X267000D01*
X223500Y573000D02*
Y587000D01*
X251500Y573000D02*
Y587000D01*
X223500D02*
X251500D01*
X223500Y573000D02*
X251500D01*
X371188Y644000D02*
X385188D01*
X371188Y672000D02*
X385188D01*
X371188Y644000D02*
Y672000D01*
X385188Y644000D02*
Y672000D01*
X300000Y224000D02*
X314000D01*
X300000Y252000D02*
X314000D01*
X300000Y224000D02*
Y252000D01*
X314000Y224000D02*
Y252000D01*
X503000Y793500D02*
X517000D01*
X503000Y821500D02*
X517000D01*
X503000Y793500D02*
Y821500D01*
X517000Y793500D02*
Y821500D01*
X282500Y506000D02*
X296500D01*
X282500Y478000D02*
X296500D01*
Y506000D01*
X282500Y478000D02*
Y506000D01*
X205750Y593000D02*
X219750D01*
X205750Y621000D02*
X219750D01*
X205750Y593000D02*
Y621000D01*
X219750Y593000D02*
Y621000D01*
X759750Y512750D02*
X773750D01*
X759750Y540750D02*
X773750D01*
X759750Y512750D02*
Y540750D01*
X773750Y512750D02*
Y540750D01*
X774310Y587479D02*
X779098Y574324D01*
X800621Y597056D02*
X805410Y583900D01*
X774310Y587479D02*
X800621Y597056D01*
X779098Y574324D02*
X805410Y583900D01*
X292000Y834000D02*
X306000D01*
X292000Y862000D02*
X306000D01*
X292000Y834000D02*
Y862000D01*
X306000Y834000D02*
Y862000D01*
X315969Y848521D02*
Y865479D01*
X343031Y848521D02*
Y865479D01*
X425000Y924500D02*
X485000D01*
X93500Y358000D02*
Y372000D01*
X65500Y358000D02*
Y372000D01*
Y358000D02*
X93500D01*
X65500Y372000D02*
X93500D01*
X390531Y340271D02*
Y357229D01*
X363469Y340271D02*
Y357229D01*
X625421Y974998D02*
Y965002D01*
X630419D01*
X632085Y966668D01*
Y973332D01*
X630419Y974998D01*
X625421D01*
X635418D02*
Y965002D01*
X640416D01*
X642082Y966668D01*
Y973332D01*
X640416Y974998D01*
X635418D01*
X645415Y973332D02*
X647081Y974998D01*
X650413D01*
X652079Y973332D01*
Y971666D01*
X650413Y970000D01*
X652079Y968334D01*
Y966668D01*
X650413Y965002D01*
X647081D01*
X645415Y966668D01*
Y968334D01*
X647081Y970000D01*
X645415Y971666D01*
Y973332D01*
X647081Y970000D02*
X650413D01*
X230334Y611082D02*
X228668Y612748D01*
X225336D01*
X223669Y611082D01*
Y604418D01*
X225336Y602752D01*
X228668D01*
X230334Y604418D01*
X233666D02*
X235332Y602752D01*
X238664D01*
X240331Y604418D01*
Y611082D01*
X238664Y612748D01*
X235332D01*
X233666Y611082D01*
Y609416D01*
X235332Y607750D01*
X240331D01*
X307558Y268363D02*
X305892Y270029D01*
X302560D01*
X300894Y268363D01*
Y261698D01*
X302560Y260032D01*
X305892D01*
X307558Y261698D01*
X310891Y260032D02*
X314223D01*
X312557D01*
Y270029D01*
X310891Y268363D01*
X325886Y260032D02*
X319221D01*
X325886Y266696D01*
Y268363D01*
X324220Y270029D01*
X320887D01*
X319221Y268363D01*
X502835Y837582D02*
X501169Y839248D01*
X497836D01*
X496170Y837582D01*
Y830918D01*
X497836Y829252D01*
X501169D01*
X502835Y830918D01*
X506167Y829252D02*
X509499D01*
X507833D01*
Y839248D01*
X506167Y837582D01*
X514498Y829252D02*
X517830D01*
X516164D01*
Y839248D01*
X514498Y837582D01*
X341584Y351582D02*
X339918Y353248D01*
X336586D01*
X334919Y351582D01*
Y344918D01*
X336586Y343252D01*
X339918D01*
X341584Y344918D01*
X351581Y343252D02*
X344916D01*
X351581Y349916D01*
Y351582D01*
X349915Y353248D01*
X346582D01*
X344916Y351582D01*
X50084Y368082D02*
X48418Y369748D01*
X45086D01*
X43419Y368082D01*
Y361418D01*
X45086Y359752D01*
X48418D01*
X50084Y361418D01*
X53416Y368082D02*
X55082Y369748D01*
X58415D01*
X60081Y368082D01*
Y366416D01*
X58415Y364750D01*
X56748D01*
X58415D01*
X60081Y363084D01*
Y361418D01*
X58415Y359752D01*
X55082D01*
X53416Y361418D01*
X506834Y934582D02*
X505168Y936248D01*
X501836D01*
X500169Y934582D01*
Y927918D01*
X501836Y926252D01*
X505168D01*
X506834Y927918D01*
X515164Y926252D02*
Y936248D01*
X510166Y931250D01*
X516831D01*
X321151Y897013D02*
X319484Y898679D01*
X316152D01*
X314486Y897013D01*
Y890348D01*
X316152Y888682D01*
X319484D01*
X321151Y890348D01*
X331147Y898679D02*
X324483D01*
Y893680D01*
X327815Y895347D01*
X329481D01*
X331147Y893680D01*
Y890348D01*
X329481Y888682D01*
X326149D01*
X324483Y890348D01*
X299788Y878485D02*
X298122Y880151D01*
X294790D01*
X293124Y878485D01*
Y871820D01*
X294790Y870154D01*
X298122D01*
X299788Y871820D01*
X309785Y880151D02*
X306453Y878485D01*
X303121Y875152D01*
Y871820D01*
X304787Y870154D01*
X308119D01*
X309785Y871820D01*
Y873486D01*
X308119Y875152D01*
X303121D01*
X803409Y571467D02*
X804405Y573602D01*
X803265Y576734D01*
X801129Y577729D01*
X794867Y575450D01*
X793871Y573315D01*
X795011Y570183D01*
X797146Y569188D01*
X806114Y568905D02*
X808394Y562643D01*
X806828Y562073D01*
X798286Y566056D01*
X796720Y565486D01*
X786334Y521082D02*
X784668Y522748D01*
X781336D01*
X779669Y521082D01*
Y514418D01*
X781336Y512752D01*
X784668D01*
X786334Y514418D01*
X789666Y521082D02*
X791332Y522748D01*
X794665D01*
X796331Y521082D01*
Y519416D01*
X794665Y517750D01*
X796331Y516084D01*
Y514418D01*
X794665Y512752D01*
X791332D01*
X789666Y514418D01*
Y516084D01*
X791332Y517750D01*
X789666Y519416D01*
Y521082D01*
X791332Y517750D02*
X794665D01*
X278918Y523832D02*
X277252Y525498D01*
X273920D01*
X272254Y523832D01*
Y517168D01*
X273920Y515502D01*
X277252D01*
X278918Y517168D01*
X282251Y515502D02*
X285583D01*
X283917D01*
Y525498D01*
X282251Y523832D01*
X290581D02*
X292248Y525498D01*
X295580D01*
X297246Y523832D01*
Y517168D01*
X295580Y515502D01*
X292248D01*
X290581Y517168D01*
Y523832D01*
X394669Y658332D02*
X393002Y659998D01*
X389670D01*
X388004Y658332D01*
Y651668D01*
X389670Y650002D01*
X393002D01*
X394669Y651668D01*
X398001Y650002D02*
X401333D01*
X399667D01*
Y659998D01*
X398001Y658332D01*
X406331D02*
X407998Y659998D01*
X411330D01*
X412996Y658332D01*
Y656666D01*
X411330Y655000D01*
X409664D01*
X411330D01*
X412996Y653334D01*
Y651668D01*
X411330Y650002D01*
X407998D01*
X406331Y651668D01*
X243669Y173332D02*
X242003Y174998D01*
X238670D01*
X237004Y173332D01*
Y166668D01*
X238670Y165001D01*
X242003D01*
X243669Y166668D01*
X247001Y165001D02*
X250333D01*
X248667D01*
Y174998D01*
X247001Y173332D01*
X261996Y174998D02*
X255332D01*
Y170000D01*
X258664Y171666D01*
X260330D01*
X261996Y170000D01*
Y166668D01*
X260330Y165001D01*
X256998D01*
X255332Y166668D01*
X201418Y577832D02*
X199752Y579498D01*
X196420D01*
X194754Y577832D01*
Y571168D01*
X196420Y569502D01*
X199752D01*
X201418Y571168D01*
X204751Y569502D02*
X208083D01*
X206417D01*
Y579498D01*
X204751Y577832D01*
X218080Y569502D02*
Y579498D01*
X213081Y574500D01*
X219746D01*
X596669Y932082D02*
X595002Y933748D01*
X591670D01*
X590004Y932082D01*
Y925418D01*
X591670Y923752D01*
X595002D01*
X596669Y925418D01*
X600001Y923752D02*
X603333D01*
X601667D01*
Y933748D01*
X600001Y932082D01*
X614996Y933748D02*
X611664Y932082D01*
X608331Y928750D01*
Y925418D01*
X609998Y923752D01*
X613330D01*
X614996Y925418D01*
Y927084D01*
X613330Y928750D01*
X608331D01*
X769982Y643340D02*
Y633344D01*
X774980D01*
X776646Y635010D01*
Y641674D01*
X774980Y643340D01*
X769982D01*
X779979Y633344D02*
X783311D01*
X781645D01*
Y643340D01*
X779979Y641674D01*
X768219Y730560D02*
Y720563D01*
X773217D01*
X774884Y722229D01*
Y728894D01*
X773217Y730560D01*
X768219D01*
X784880Y720563D02*
X778216D01*
X784880Y727228D01*
Y728894D01*
X783214Y730560D01*
X779882D01*
X778216Y728894D01*
X148493Y880031D02*
Y870034D01*
X153491D01*
X155157Y871701D01*
Y878365D01*
X153491Y880031D01*
X148493D01*
X158489Y870034D02*
Y876699D01*
X161822Y880031D01*
X165154Y876699D01*
Y870034D01*
Y875033D01*
X158489D01*
X168486Y870034D02*
X171818D01*
X170152D01*
Y880031D01*
X168486Y878365D01*
X554921Y883248D02*
Y873252D01*
X559919D01*
X561586Y874918D01*
Y881582D01*
X559919Y883248D01*
X554921D01*
X564918Y873252D02*
Y879916D01*
X568250Y883248D01*
X571582Y879916D01*
Y873252D01*
Y878250D01*
X564918D01*
X581579Y873252D02*
X574915D01*
X581579Y879916D01*
Y881582D01*
X579913Y883248D01*
X576581D01*
X574915Y881582D01*
X4730Y965735D02*
Y955738D01*
X9728D01*
X11394Y957404D01*
Y964069D01*
X9728Y965735D01*
X4730D01*
X14727D02*
Y955738D01*
X19725D01*
X21391Y957404D01*
Y964069D01*
X19725Y965735D01*
X14727D01*
X24723Y955738D02*
X28056D01*
X26390D01*
Y965735D01*
X24723Y964069D01*
X14382Y596165D02*
Y586168D01*
X19380D01*
X21047Y587834D01*
Y594499D01*
X19380Y596165D01*
X14382D01*
X24379D02*
Y586168D01*
X29377D01*
X31043Y587834D01*
Y594499D01*
X29377Y596165D01*
X24379D01*
X41040Y586168D02*
X34376D01*
X41040Y592832D01*
Y594499D01*
X39374Y596165D01*
X36042D01*
X34376Y594499D01*
X462421Y829748D02*
Y819752D01*
X467419D01*
X469086Y821418D01*
Y828082D01*
X467419Y829748D01*
X462421D01*
X472418D02*
Y819752D01*
X477416D01*
X479082Y821418D01*
Y828082D01*
X477416Y829748D01*
X472418D01*
X482415Y828082D02*
X484081Y829748D01*
X487413D01*
X489079Y828082D01*
Y826416D01*
X487413Y824750D01*
X485747D01*
X487413D01*
X489079Y823084D01*
Y821418D01*
X487413Y819752D01*
X484081D01*
X482415Y821418D01*
X315921Y523498D02*
Y513502D01*
X320919D01*
X322585Y515168D01*
Y521832D01*
X320919Y523498D01*
X315921D01*
X325918D02*
Y513502D01*
X330916D01*
X332582Y515168D01*
Y521832D01*
X330916Y523498D01*
X325918D01*
X340913Y513502D02*
Y523498D01*
X335914Y518500D01*
X342579D01*
X121316Y723165D02*
Y713168D01*
X126314D01*
X127980Y714834D01*
Y721499D01*
X126314Y723165D01*
X121316D01*
X131313D02*
Y713168D01*
X136311D01*
X137977Y714834D01*
Y721499D01*
X136311Y723165D01*
X131313D01*
X147974D02*
X141309D01*
Y718166D01*
X144642Y719833D01*
X146308D01*
X147974Y718166D01*
Y714834D01*
X146308Y713168D01*
X142976D01*
X141309Y714834D01*
X243162Y695443D02*
Y685446D01*
X248160D01*
X249827Y687112D01*
Y693777D01*
X248160Y695443D01*
X243162D01*
X253159D02*
Y685446D01*
X258157D01*
X259823Y687112D01*
Y693777D01*
X258157Y695443D01*
X253159D01*
X269820D02*
X266488Y693777D01*
X263156Y690444D01*
Y687112D01*
X264822Y685446D01*
X268154D01*
X269820Y687112D01*
Y688778D01*
X268154Y690444D01*
X263156D01*
X242408Y310783D02*
Y300786D01*
X247406D01*
X249072Y302452D01*
Y309117D01*
X247406Y310783D01*
X242408D01*
X252405D02*
Y300786D01*
X257403D01*
X259069Y302452D01*
Y309117D01*
X257403Y310783D01*
X252405D01*
X262402D02*
X269066D01*
Y309117D01*
X262402Y302452D01*
Y300786D01*
X600928Y184939D02*
X594264D01*
Y179940D01*
X597596D01*
X594264D01*
Y174942D01*
X604261D02*
X607593D01*
X605927D01*
Y184939D01*
X604261Y183273D01*
X45086Y297752D02*
Y307748D01*
X50084D01*
X51750Y306082D01*
Y302750D01*
X50084Y301084D01*
X45086D01*
X48418D02*
X51750Y297752D01*
X55082D02*
X58415D01*
X56748D01*
Y307748D01*
X55082Y306082D01*
X648669Y575002D02*
Y584998D01*
X653668D01*
X655334Y583332D01*
Y580000D01*
X653668Y578334D01*
X648669D01*
X652002D02*
X655334Y575002D01*
X665331D02*
X658666D01*
X665331Y581666D01*
Y583332D01*
X663664Y584998D01*
X660332D01*
X658666Y583332D01*
X847419Y729502D02*
Y739498D01*
X852418D01*
X854084Y737832D01*
Y734500D01*
X852418Y732834D01*
X847419D01*
X850752D02*
X854084Y729502D01*
X857416Y737832D02*
X859082Y739498D01*
X862414D01*
X864081Y737832D01*
Y736166D01*
X862414Y734500D01*
X860748D01*
X862414D01*
X864081Y732834D01*
Y731168D01*
X862414Y729502D01*
X859082D01*
X857416Y731168D01*
X97209Y339703D02*
Y349700D01*
X102208D01*
X103874Y348034D01*
Y344701D01*
X102208Y343035D01*
X97209D01*
X100542D02*
X103874Y339703D01*
X112205D02*
Y349700D01*
X107206Y344701D01*
X113871D01*
X843919Y674002D02*
Y683998D01*
X848918D01*
X850584Y682332D01*
Y679000D01*
X848918Y677334D01*
X843919D01*
X847252D02*
X850584Y674002D01*
X860581Y683998D02*
X853916D01*
Y679000D01*
X857248Y680666D01*
X858914D01*
X860581Y679000D01*
Y675668D01*
X858914Y674002D01*
X855582D01*
X853916Y675668D01*
X865597Y664412D02*
Y674409D01*
X870595D01*
X872261Y672742D01*
Y669410D01*
X870595Y667744D01*
X865597D01*
X868929D02*
X872261Y664412D01*
X875593Y674409D02*
X882258D01*
Y672742D01*
X875593Y666078D01*
Y664412D01*
X860169Y608002D02*
Y617998D01*
X865168D01*
X866834Y616332D01*
Y613000D01*
X865168Y611334D01*
X860169D01*
X863502D02*
X866834Y608002D01*
X870166Y616332D02*
X871832Y617998D01*
X875164D01*
X876831Y616332D01*
Y614666D01*
X875164Y613000D01*
X876831Y611334D01*
Y609668D01*
X875164Y608002D01*
X871832D01*
X870166Y609668D01*
Y611334D01*
X871832Y613000D01*
X870166Y614666D01*
Y616332D01*
X871832Y613000D02*
X875164D01*
X732669Y655002D02*
Y664998D01*
X737668D01*
X739334Y663332D01*
Y660000D01*
X737668Y658334D01*
X732669D01*
X736002D02*
X739334Y655002D01*
X742666Y656668D02*
X744332Y655002D01*
X747664D01*
X749331Y656668D01*
Y663332D01*
X747664Y664998D01*
X744332D01*
X742666Y663332D01*
Y661666D01*
X744332Y660000D01*
X749331D01*
X126504Y316752D02*
Y326748D01*
X131502D01*
X133168Y325082D01*
Y321750D01*
X131502Y320084D01*
X126504D01*
X129836D02*
X133168Y316752D01*
X136501D02*
X139833D01*
X138167D01*
Y326748D01*
X136501Y325082D01*
X144831D02*
X146498Y326748D01*
X149830D01*
X151496Y325082D01*
Y318418D01*
X149830Y316752D01*
X146498D01*
X144831Y318418D01*
Y325082D01*
X711420Y618752D02*
Y628748D01*
X716419D01*
X718085Y627082D01*
Y623750D01*
X716419Y622084D01*
X711420D01*
X714752D02*
X718085Y618752D01*
X721417D02*
X724749D01*
X723083D01*
Y628748D01*
X721417Y627082D01*
X729748Y618752D02*
X733080D01*
X731414D01*
Y628748D01*
X729748Y627082D01*
X811504Y539002D02*
Y548998D01*
X816502D01*
X818168Y547332D01*
Y544000D01*
X816502Y542334D01*
X811504D01*
X814836D02*
X818168Y539002D01*
X821501D02*
X824833D01*
X823167D01*
Y548998D01*
X821501Y547332D01*
X836496Y539002D02*
X829831D01*
X836496Y545666D01*
Y547332D01*
X834830Y548998D01*
X831498D01*
X829831Y547332D01*
X812254Y520002D02*
Y529998D01*
X817252D01*
X818919Y528332D01*
Y525000D01*
X817252Y523334D01*
X812254D01*
X815586D02*
X818919Y520002D01*
X822251D02*
X825583D01*
X823917D01*
Y529998D01*
X822251Y528332D01*
X830581D02*
X832248Y529998D01*
X835580D01*
X837246Y528332D01*
Y526666D01*
X835580Y525000D01*
X833914D01*
X835580D01*
X837246Y523334D01*
Y521668D01*
X835580Y520002D01*
X832248D01*
X830581Y521668D01*
X729614Y548191D02*
Y558188D01*
X734612D01*
X736278Y556522D01*
Y553190D01*
X734612Y551524D01*
X729614D01*
X732946D02*
X736278Y548191D01*
X739611D02*
X742943D01*
X741277D01*
Y558188D01*
X739611Y556522D01*
X754606Y558188D02*
X747941D01*
Y553190D01*
X751273Y554856D01*
X752940D01*
X754606Y553190D01*
Y549858D01*
X752940Y548191D01*
X749607D01*
X747941Y549858D01*
X855004Y490752D02*
Y500748D01*
X860002D01*
X861668Y499082D01*
Y495750D01*
X860002Y494084D01*
X855004D01*
X858336D02*
X861668Y490752D01*
X865001D02*
X868333D01*
X866667D01*
Y500748D01*
X865001Y499082D01*
X878330Y490752D02*
Y500748D01*
X873332Y495750D01*
X879996D01*
X819254Y436252D02*
Y446248D01*
X824252D01*
X825919Y444582D01*
Y441250D01*
X824252Y439584D01*
X819254D01*
X822586D02*
X825919Y436252D01*
X829251D02*
X832583D01*
X830917D01*
Y446248D01*
X829251Y444582D01*
X844246Y446248D02*
X840914Y444582D01*
X837581Y441250D01*
Y437918D01*
X839248Y436252D01*
X842580D01*
X844246Y437918D01*
Y439584D01*
X842580Y441250D01*
X837581D01*
X821504Y418002D02*
Y427998D01*
X826502D01*
X828168Y426332D01*
Y423000D01*
X826502Y421334D01*
X821504D01*
X824836D02*
X828168Y418002D01*
X831501D02*
X834833D01*
X833167D01*
Y427998D01*
X831501Y426332D01*
X839831D02*
X841498Y427998D01*
X844830D01*
X846496Y426332D01*
Y424666D01*
X844830Y423000D01*
X846496Y421334D01*
Y419668D01*
X844830Y418002D01*
X841498D01*
X839831Y419668D01*
Y421334D01*
X841498Y423000D01*
X839831Y424666D01*
Y426332D01*
X841498Y423000D02*
X844830D01*
X813754Y664002D02*
Y673998D01*
X818752D01*
X820419Y672332D01*
Y669000D01*
X818752Y667334D01*
X813754D01*
X817086D02*
X820419Y664002D01*
X823751D02*
X827083D01*
X825417D01*
Y673998D01*
X823751Y672332D01*
X832082Y665668D02*
X833748Y664002D01*
X837080D01*
X838746Y665668D01*
Y672332D01*
X837080Y673998D01*
X833748D01*
X832082Y672332D01*
Y670666D01*
X833748Y669000D01*
X838746D01*
X807130Y727308D02*
Y737305D01*
X812128D01*
X813794Y735639D01*
Y732306D01*
X812128Y730640D01*
X807130D01*
X810462D02*
X813794Y727308D01*
X823791D02*
X817127D01*
X823791Y733972D01*
Y735639D01*
X822125Y737305D01*
X818793D01*
X817127Y735639D01*
X827123D02*
X828790Y737305D01*
X832122D01*
X833788Y735639D01*
Y728974D01*
X832122Y727308D01*
X828790D01*
X827123Y728974D01*
Y735639D01*
X277087Y167002D02*
Y176998D01*
X282085D01*
X283752Y175332D01*
Y172000D01*
X282085Y170334D01*
X277087D01*
X280419D02*
X283752Y167002D01*
X293748D02*
X287084D01*
X293748Y173666D01*
Y175332D01*
X292082Y176998D01*
X288750D01*
X287084Y175332D01*
X297081Y167002D02*
X300413D01*
X298747D01*
Y176998D01*
X297081Y175332D01*
X269627Y424832D02*
X267960Y426498D01*
X264628D01*
X262962Y424832D01*
Y423166D01*
X264628Y421500D01*
X267960D01*
X269627Y419834D01*
Y418168D01*
X267960Y416502D01*
X264628D01*
X262962Y418168D01*
X272959Y426498D02*
Y416502D01*
X277957D01*
X279623Y418168D01*
Y419834D01*
X277957Y421500D01*
X272959D01*
X277957D01*
X279623Y423166D01*
Y424832D01*
X277957Y426498D01*
X272959D01*
X282956Y416502D02*
X286288D01*
X284622D01*
Y426498D01*
X282956Y424832D01*
X369336Y456082D02*
X367669Y457748D01*
X364337D01*
X362671Y456082D01*
Y454416D01*
X364337Y452750D01*
X367669D01*
X369336Y451084D01*
Y449418D01*
X367669Y447752D01*
X364337D01*
X362671Y449418D01*
X372668Y457748D02*
Y447752D01*
X377666D01*
X379332Y449418D01*
Y451084D01*
X377666Y452750D01*
X372668D01*
X377666D01*
X379332Y454416D01*
Y456082D01*
X377666Y457748D01*
X372668D01*
X389329Y447752D02*
X382664D01*
X389329Y454416D01*
Y456082D01*
X387663Y457748D01*
X384331D01*
X382664Y456082D01*
X374585Y425332D02*
X372919Y426998D01*
X369587D01*
X367921Y425332D01*
Y423666D01*
X369587Y422000D01*
X372919D01*
X374585Y420334D01*
Y418668D01*
X372919Y417002D01*
X369587D01*
X367921Y418668D01*
X377918Y426998D02*
Y417002D01*
X382916D01*
X384582Y418668D01*
Y420334D01*
X382916Y422000D01*
X377918D01*
X382916D01*
X384582Y423666D01*
Y425332D01*
X382916Y426998D01*
X377918D01*
X387915Y425332D02*
X389581Y426998D01*
X392913D01*
X394579Y425332D01*
Y423666D01*
X392913Y422000D01*
X391247D01*
X392913D01*
X394579Y420334D01*
Y418668D01*
X392913Y417002D01*
X389581D01*
X387915Y418668D01*
X44085Y328498D02*
Y320168D01*
X45752Y318502D01*
X49084D01*
X50750Y320168D01*
Y328498D01*
X54082Y318502D02*
X57414D01*
X55748D01*
Y328498D01*
X54082Y326832D01*
X614544Y248605D02*
Y241940D01*
X617876Y238608D01*
X621208Y241940D01*
Y248605D01*
X624541D02*
Y238608D01*
X629539D01*
X631205Y240274D01*
Y246939D01*
X629539Y248605D01*
X624541D01*
X634538Y238608D02*
X637870D01*
X636204D01*
Y248605D01*
X634538Y246939D01*
X404296Y376455D02*
Y369790D01*
X407628Y366458D01*
X410961Y369790D01*
Y376455D01*
X414293D02*
Y366458D01*
X419291D01*
X420957Y368124D01*
Y374789D01*
X419291Y376455D01*
X414293D01*
X430954Y366458D02*
X424290D01*
X430954Y373122D01*
Y374789D01*
X429288Y376455D01*
X425956D01*
X424290Y374789D01*
X676671Y621998D02*
Y615334D01*
X680003Y612002D01*
X683335Y615334D01*
Y621998D01*
X686668D02*
Y612002D01*
X691666D01*
X693332Y613668D01*
Y620332D01*
X691666Y621998D01*
X686668D01*
X696665Y620332D02*
X698331Y621998D01*
X701663D01*
X703329Y620332D01*
Y618666D01*
X701663Y617000D01*
X699997D01*
X701663D01*
X703329Y615334D01*
Y613668D01*
X701663Y612002D01*
X698331D01*
X696665Y613668D01*
X226421Y846498D02*
Y839834D01*
X229753Y836502D01*
X233085Y839834D01*
Y846498D01*
X236418D02*
Y836502D01*
X241416D01*
X243082Y838168D01*
Y844832D01*
X241416Y846498D01*
X236418D01*
X251413Y836502D02*
Y846498D01*
X246415Y841500D01*
X253079D01*
X827671Y601938D02*
Y595274D01*
X831003Y591941D01*
X834335Y595274D01*
Y601938D01*
X837668D02*
Y591941D01*
X842666D01*
X844332Y593607D01*
Y600272D01*
X842666Y601938D01*
X837668D01*
X854329D02*
X847664D01*
Y596940D01*
X850997Y598606D01*
X852663D01*
X854329Y596940D01*
Y593607D01*
X852663Y591941D01*
X849331D01*
X847664Y593607D01*
X415231Y640958D02*
Y634294D01*
X418563Y630962D01*
X421895Y634294D01*
Y640958D01*
X425228D02*
Y630962D01*
X430226D01*
X431892Y632628D01*
Y639292D01*
X430226Y640958D01*
X425228D01*
X435225Y639292D02*
X436891Y640958D01*
X440223D01*
X441889Y639292D01*
Y637626D01*
X440223Y635960D01*
X441889Y634294D01*
Y632628D01*
X440223Y630962D01*
X436891D01*
X435225Y632628D01*
Y634294D01*
X436891Y635960D01*
X435225Y637626D01*
Y639292D01*
X436891Y635960D02*
X440223D01*
X249506Y868748D02*
Y862084D01*
X252838Y858752D01*
X256170Y862084D01*
Y868748D01*
X259502D02*
Y858752D01*
X264501D01*
X266167Y860418D01*
Y867082D01*
X264501Y868748D01*
X259502D01*
X269499Y858752D02*
X272831D01*
X271165D01*
Y868748D01*
X269499Y867082D01*
X277830D02*
X279496Y868748D01*
X282828D01*
X284494Y867082D01*
Y860418D01*
X282828Y858752D01*
X279496D01*
X277830Y860418D01*
Y867082D01*
X740837Y626998D02*
Y620334D01*
X744169Y617002D01*
X747502Y620334D01*
Y626998D01*
X750834D02*
X757498D01*
X754166D01*
Y617002D01*
X760831D02*
X764163D01*
X762497D01*
Y626998D01*
X760831Y625332D01*
X933335Y187498D02*
X940000Y177502D01*
Y187498D02*
X933335Y177502D01*
X943332D02*
X946665D01*
X944998D01*
Y187498D01*
X943332Y185832D01*
X456134Y270037D02*
X454468Y271703D01*
X451136D01*
X449470Y270037D01*
Y263372D01*
X451136Y261706D01*
X454468D01*
X456134Y263372D01*
X459467Y261706D02*
X462799D01*
X461133D01*
Y271703D01*
X459467Y270037D01*
X205921Y206502D02*
Y216498D01*
X210919D01*
X212586Y214832D01*
Y211500D01*
X210919Y209834D01*
X205921D01*
X209253D02*
X212586Y206502D01*
X222582D02*
X215918D01*
X222582Y213166D01*
Y214832D01*
X220916Y216498D01*
X217584D01*
X215918Y214832D01*
X232579Y206502D02*
X225914D01*
X232579Y213166D01*
Y214832D01*
X230913Y216498D01*
X227581D01*
X225914Y214832D01*
X114918Y857598D02*
Y867595D01*
X119916D01*
X121582Y865929D01*
Y862596D01*
X119916Y860930D01*
X114918D01*
X118250D02*
X121582Y857598D01*
X131579D02*
X124915D01*
X131579Y864262D01*
Y865929D01*
X129913Y867595D01*
X126581D01*
X124915Y865929D01*
X134911D02*
X136578Y867595D01*
X139910D01*
X141576Y865929D01*
Y864262D01*
X139910Y862596D01*
X138244D01*
X139910D01*
X141576Y860930D01*
Y859264D01*
X139910Y857598D01*
X136578D01*
X134911Y859264D01*
X509421Y865502D02*
Y875498D01*
X514419D01*
X516086Y873832D01*
Y870500D01*
X514419Y868834D01*
X509421D01*
X512753D02*
X516086Y865502D01*
X526082D02*
X519418D01*
X526082Y872166D01*
Y873832D01*
X524416Y875498D01*
X521084D01*
X519418Y873832D01*
X534413Y865502D02*
Y875498D01*
X529414Y870500D01*
X536079D01*
X80671Y810252D02*
Y820248D01*
X85669D01*
X87336Y818582D01*
Y815250D01*
X85669Y813584D01*
X80671D01*
X84003D02*
X87336Y810252D01*
X97332D02*
X90668D01*
X97332Y816916D01*
Y818582D01*
X95666Y820248D01*
X92334D01*
X90668Y818582D01*
X107329Y820248D02*
X100665D01*
Y815250D01*
X103997Y816916D01*
X105663D01*
X107329Y815250D01*
Y811918D01*
X105663Y810252D01*
X102331D01*
X100665Y811918D01*
X546671Y801502D02*
Y811498D01*
X551669D01*
X553335Y809832D01*
Y806500D01*
X551669Y804834D01*
X546671D01*
X550003D02*
X553335Y801502D01*
X563332D02*
X556668D01*
X563332Y808166D01*
Y809832D01*
X561666Y811498D01*
X558334D01*
X556668Y809832D01*
X573329Y811498D02*
X569997Y809832D01*
X566665Y806500D01*
Y803168D01*
X568331Y801502D01*
X571663D01*
X573329Y803168D01*
Y804834D01*
X571663Y806500D01*
X566665D01*
X933087Y883248D02*
X939752Y873252D01*
Y883248D02*
X933087Y873252D01*
X943084D02*
Y883248D01*
X948082D01*
X949748Y881582D01*
Y878250D01*
X948082Y876584D01*
X943084D01*
X953081Y873252D02*
X956413D01*
X954747D01*
Y883248D01*
X953081Y881582D01*
X689635Y534170D02*
Y527505D01*
X692967Y524173D01*
X696299Y527505D01*
Y534170D01*
X699632D02*
Y524173D01*
X704630D01*
X706296Y525839D01*
Y532504D01*
X704630Y534170D01*
X699632D01*
X716293D02*
X712961Y532504D01*
X709628Y529172D01*
Y525839D01*
X711294Y524173D01*
X714627D01*
X716293Y525839D01*
Y527505D01*
X714627Y529172D01*
X709628D01*
X216408Y764163D02*
Y757498D01*
X219740Y754166D01*
X223072Y757498D01*
Y764163D01*
X226405D02*
Y754166D01*
X231403D01*
X233069Y755832D01*
Y762497D01*
X231403Y764163D01*
X226405D01*
X236402D02*
X243066D01*
Y762497D01*
X236402Y755832D01*
Y754166D01*
D11*
X618000Y171500D02*
G03*
X618000Y171500I-1250J0D01*
G01*
X220590Y703580D02*
G03*
X220590Y703580I-1250J0D01*
G01*
X301950Y445750D02*
G03*
X301950Y445750I-1250J0D01*
G01*
X406469Y812700D02*
G03*
X406469Y812700I-1250J0D01*
G01*
D12*
X893650Y900900D02*
G03*
X893650Y900900I-15000J0D01*
G01*
X763030Y594000D02*
Y601750D01*
Y570750D02*
Y578500D01*
X750250Y584250D02*
Y588250D01*
X752000Y601750D02*
X763030D01*
X752250Y570750D02*
X763030D01*
X88800Y306970D02*
X96550D01*
X65550D02*
X73300D01*
X79050Y319750D02*
X83050D01*
X96550Y306970D02*
Y318000D01*
X65550Y306970D02*
Y317750D01*
X656400Y824700D02*
Y900900D01*
Y977100D01*
X859600D01*
X656400Y824700D02*
X859600D01*
Y977100D01*
X910400Y951700D01*
Y850100D02*
Y951700D01*
X859600Y824700D02*
X910400Y850100D01*
X4060Y673060D02*
X404060D01*
X4060Y947430D02*
X404060D01*
Y673060D02*
Y947430D01*
X4060Y673060D02*
Y947430D01*
X772080Y682690D02*
Y690440D01*
Y705939D02*
Y713689D01*
X784860Y696189D02*
Y700190D01*
X772080Y682690D02*
X783110D01*
X772080Y713689D02*
X782860D01*
X795970Y622250D02*
Y630000D01*
Y645500D02*
Y653250D01*
X808750Y635750D02*
Y639750D01*
X795970Y622250D02*
X807000D01*
X795970Y653250D02*
X806750D01*
X352948Y441500D02*
X361500Y446000D01*
X340607Y869905D02*
X330450D01*
Y862288D01*
X335528Y864827D01*
X338068D01*
X340607Y862288D01*
Y857209D01*
X338068Y854670D01*
X332989D01*
X330450Y857209D01*
X345685Y864827D02*
X350763Y854670D01*
X355842Y864827D01*
X340607Y844506D02*
X338068Y847045D01*
X332989D01*
X330450Y844506D01*
Y834349D01*
X332989Y831810D01*
X338068D01*
X340607Y834349D01*
Y839427D01*
X335528D01*
X345685Y831810D02*
Y847045D01*
X355842Y831810D01*
Y847045D01*
X360920D02*
Y831810D01*
X368538D01*
X371077Y834349D01*
Y844506D01*
X368538Y847045D01*
X360920D01*
X330450Y821645D02*
Y811488D01*
X335528Y806410D01*
X340607Y811488D01*
Y821645D01*
X345685D02*
Y806410D01*
X353303D01*
X355842Y808949D01*
Y819106D01*
X353303Y821645D01*
X345685D01*
X360920D02*
Y806410D01*
X368538D01*
X371077Y808949D01*
Y819106D01*
X368538Y821645D01*
X360920D01*
X332989Y793706D02*
Y791167D01*
X330450D01*
X335528D01*
X332989D01*
Y783549D01*
X335528Y781010D01*
X343146Y791167D02*
X353303Y781010D01*
X348224Y786088D01*
X353303Y791167D01*
X343146Y781010D01*
X330450Y765767D02*
Y755610D01*
Y760688D01*
X332989Y763227D01*
X335528Y765767D01*
X338068D01*
X345685D02*
X355842Y755610D01*
X350763Y760688D01*
X355842Y765767D01*
X345685Y755610D01*
X340607Y742906D02*
X338068Y745445D01*
X332989D01*
X330450Y742906D01*
Y732749D01*
X332989Y730210D01*
X338068D01*
X340607Y732749D01*
Y737828D01*
X335528D01*
X345685Y730210D02*
Y745445D01*
X355842Y730210D01*
Y745445D01*
X360920D02*
Y730210D01*
X368538D01*
X371077Y732749D01*
Y742906D01*
X368538Y745445D01*
X360920D01*
X330450Y714967D02*
Y704810D01*
Y709888D01*
X332989Y712428D01*
X335528Y714967D01*
X338068D01*
X345685Y704810D02*
X353303D01*
X355842Y707349D01*
X353303Y709888D01*
X348224D01*
X345685Y712428D01*
X348224Y714967D01*
X355842D01*
X363459Y717506D02*
Y714967D01*
X360920D01*
X365998D01*
X363459D01*
Y707349D01*
X365998Y704810D01*
D13*
X241100Y252952D02*
G03*
X241100Y259048I0J3048D01*
G01*
X291900Y237204D02*
Y274796D01*
X241100Y259048D02*
Y274796D01*
Y252952D02*
Y259048D01*
Y237204D02*
Y252952D01*
D14*
X316250Y467000D02*
G03*
X316250Y467000I-3000J0D01*
G01*
D15*
X507500Y882500D02*
G03*
X507500Y882500I-52500J0D01*
G01*
X922400Y383700D02*
X934900D01*
X922400Y335000D02*
X975000D01*
X922400D02*
Y383700D01*
X934900D02*
Y816300D01*
X922400Y865000D02*
X975000D01*
X922400Y816300D02*
X934900D01*
X922400D02*
Y865000D01*
X912500Y145000D02*
Y155000D01*
X907500Y150000D02*
X917500D01*
X912500Y95000D02*
Y105000D01*
X974500Y75500D02*
Y174500D01*
X1022500D01*
Y191500D01*
X1047500D01*
Y174500D02*
Y191500D01*
Y174500D02*
X1064500D01*
Y75500D02*
Y174500D01*
X1047500Y75500D02*
X1064500D01*
X1047500Y58500D02*
Y75500D01*
X1022500Y58500D02*
X1047500D01*
X1022500D02*
Y75500D01*
X974500D02*
X1022500D01*
D16*
X685201Y605251D02*
X701801D01*
X685201Y590251D02*
X701801D01*
X806750Y694550D02*
Y706950D01*
X823750Y694550D02*
Y706950D01*
X846500Y633800D02*
Y646200D01*
X829500Y633800D02*
Y646200D01*
X347550Y674750D02*
Y675600D01*
Y572600D02*
Y573450D01*
X272550Y674750D02*
Y675600D01*
Y572600D02*
Y573450D01*
Y675600D02*
X347550D01*
X272550Y572600D02*
X347550D01*
X465900Y386100D02*
Y563900D01*
X34100Y386100D02*
X465900D01*
X34100D02*
Y563900D01*
X465900D01*
X561500Y868250D02*
X600500D01*
X561500Y817750D02*
X600500D01*
X169500Y861250D02*
X208500D01*
X169500Y810750D02*
X208500D01*
X563250Y107250D02*
X585250Y129250D01*
Y242250D01*
X450250Y129250D02*
Y242250D01*
Y129250D02*
X472250Y107250D01*
X504550D01*
X530950D02*
X563250D01*
X450250Y242250D02*
X504550D01*
X530950D02*
X585250D01*
M02*
