G04*
G04 #@! TF.GenerationSoftware,Altium Limited,Altium Designer,20.0.12 (288)*
G04*
G04 Layer_Physical_Order=2*
G04 Layer_Color=36540*
%FSLAX44Y44*%
%MOMM*%
G71*
G01*
G75*
%ADD52C,1.2500*%
%ADD71C,0.4000*%
%ADD76C,0.3500*%
%ADD79C,1.6500*%
%ADD82C,2.5500*%
%ADD85C,1.3080*%
%ADD87C,1.7000*%
%ADD88C,0.8000*%
%ADD89C,0.6000*%
G36*
X975000Y209750D02*
X1064000D01*
Y0D01*
X0D01*
Y1000000D01*
X975000D01*
Y209750D01*
D02*
G37*
%LPC*%
G36*
X764000Y965096D02*
X762293Y964872D01*
X760702Y964213D01*
X759336Y963164D01*
X758287Y961798D01*
X757628Y960207D01*
X757404Y958500D01*
X757628Y956793D01*
X758287Y955202D01*
X759336Y953836D01*
X760702Y952787D01*
X762293Y952128D01*
X764000Y951904D01*
X765707Y952128D01*
X767298Y952787D01*
X768664Y953836D01*
X769713Y955202D01*
X770372Y956793D01*
X770596Y958500D01*
X770372Y960207D01*
X769713Y961798D01*
X768664Y963164D01*
X767298Y964213D01*
X765707Y964872D01*
X764000Y965096D01*
D02*
G37*
G36*
X631000Y948158D02*
X628630Y947846D01*
X626421Y946931D01*
X624524Y945476D01*
X623069Y943579D01*
X622154Y941370D01*
X621842Y939000D01*
X622154Y936630D01*
X623069Y934421D01*
X624524Y932524D01*
X626421Y931069D01*
X628630Y930154D01*
X631000Y929842D01*
X633370Y930154D01*
X635579Y931069D01*
X637476Y932524D01*
X638931Y934421D01*
X639846Y936630D01*
X640158Y939000D01*
X639846Y941370D01*
X638931Y943579D01*
X637476Y945476D01*
X635579Y946931D01*
X633370Y947846D01*
X631000Y948158D01*
D02*
G37*
G36*
Y922758D02*
X628630Y922446D01*
X626421Y921531D01*
X624524Y920076D01*
X623069Y918179D01*
X622154Y915970D01*
X621842Y913600D01*
X622154Y911230D01*
X623069Y909021D01*
X624524Y907124D01*
X626421Y905669D01*
X628630Y904754D01*
X631000Y904442D01*
X633370Y904754D01*
X635579Y905669D01*
X637476Y907124D01*
X638931Y909021D01*
X639846Y911230D01*
X640158Y913600D01*
X639846Y915970D01*
X638931Y918179D01*
X637476Y920076D01*
X635579Y921531D01*
X633370Y922446D01*
X631000Y922758D01*
D02*
G37*
G36*
X373630Y939577D02*
X369701Y939190D01*
X365924Y938044D01*
X362443Y936183D01*
X359391Y933679D01*
X356887Y930628D01*
X355026Y927146D01*
X353880Y923369D01*
X353493Y919440D01*
X353880Y915511D01*
X355026Y911734D01*
X356887Y908252D01*
X359391Y905201D01*
X362443Y902697D01*
X365924Y900836D01*
X369701Y899690D01*
X373630Y899303D01*
X377559Y899690D01*
X381336Y900836D01*
X384818Y902697D01*
X387869Y905201D01*
X390373Y908252D01*
X392234Y911734D01*
X393380Y915511D01*
X393767Y919440D01*
X393380Y923369D01*
X392234Y927146D01*
X390373Y930628D01*
X387869Y933679D01*
X384818Y936183D01*
X381336Y938044D01*
X377559Y939190D01*
X373630Y939577D01*
D02*
G37*
G36*
X32000D02*
X28071Y939190D01*
X24294Y938044D01*
X20812Y936183D01*
X17761Y933679D01*
X15257Y930628D01*
X13396Y927146D01*
X12250Y923369D01*
X11863Y919440D01*
X12250Y915511D01*
X13396Y911734D01*
X15257Y908252D01*
X17761Y905201D01*
X20812Y902697D01*
X24294Y900836D01*
X28071Y899690D01*
X32000Y899303D01*
X35928Y899690D01*
X39706Y900836D01*
X43187Y902697D01*
X46239Y905201D01*
X48743Y908252D01*
X50604Y911734D01*
X51750Y915511D01*
X52137Y919440D01*
X51750Y923369D01*
X50604Y927146D01*
X48743Y930628D01*
X46239Y933679D01*
X43187Y936183D01*
X39706Y938044D01*
X35928Y939190D01*
X32000Y939577D01*
D02*
G37*
G36*
X463790Y916290D02*
X446210D01*
Y898710D01*
X463790D01*
Y916290D01*
D02*
G37*
G36*
X595000Y911596D02*
X593293Y911372D01*
X591702Y910713D01*
X590336Y909664D01*
X589287Y908298D01*
X588628Y906707D01*
X588404Y905000D01*
X588628Y903293D01*
X589287Y901702D01*
X590336Y900336D01*
X591702Y899287D01*
X593293Y898628D01*
X595000Y898404D01*
X596707Y898628D01*
X598298Y899287D01*
X599664Y900336D01*
X600713Y901702D01*
X601372Y903293D01*
X601596Y905000D01*
X601372Y906707D01*
X600713Y908298D01*
X599664Y909664D01*
X598298Y910713D01*
X596707Y911372D01*
X595000Y911596D01*
D02*
G37*
G36*
X540904D02*
X539196Y911372D01*
X537605Y910713D01*
X536239Y909664D01*
X535191Y908298D01*
X534532Y906707D01*
X534307Y905000D01*
X534532Y903293D01*
X535191Y901702D01*
X536239Y900336D01*
X537605Y899287D01*
X539196Y898628D01*
X540904Y898404D01*
X542611Y898628D01*
X544202Y899287D01*
X545568Y900336D01*
X546616Y901702D01*
X547275Y903293D01*
X547500Y905000D01*
X547275Y906707D01*
X546616Y908298D01*
X545568Y909664D01*
X544202Y910713D01*
X542611Y911372D01*
X540904Y911596D01*
D02*
G37*
G36*
X731500Y900596D02*
X729793Y900372D01*
X728202Y899713D01*
X726836Y898664D01*
X725787Y897298D01*
X725128Y895707D01*
X724904Y894000D01*
X725128Y892293D01*
X725787Y890702D01*
X726836Y889336D01*
X728202Y888287D01*
X729793Y887628D01*
X731500Y887404D01*
X733207Y887628D01*
X734798Y888287D01*
X736164Y889336D01*
X737213Y890702D01*
X737872Y892293D01*
X738096Y894000D01*
X737872Y895707D01*
X737213Y897298D01*
X736164Y898664D01*
X734798Y899713D01*
X733207Y900372D01*
X731500Y900596D01*
D02*
G37*
G36*
X396042Y895953D02*
X394335Y895728D01*
X392744Y895069D01*
X391378Y894021D01*
X390329Y892655D01*
X389670Y891064D01*
X389446Y889356D01*
X389670Y887649D01*
X390329Y886058D01*
X391378Y884692D01*
X392744Y883644D01*
X394335Y882985D01*
X396042Y882760D01*
X397749Y882985D01*
X399340Y883644D01*
X400706Y884692D01*
X401755Y886058D01*
X402414Y887649D01*
X402639Y889356D01*
X402414Y891064D01*
X401755Y892655D01*
X400706Y894021D01*
X399340Y895069D01*
X397749Y895728D01*
X396042Y895953D01*
D02*
G37*
G36*
X495742Y892855D02*
X494034Y892630D01*
X492443Y891971D01*
X491077Y890923D01*
X490029Y889557D01*
X489370Y887966D01*
X489145Y886258D01*
X489370Y884551D01*
X490029Y882960D01*
X491077Y881594D01*
X492443Y880546D01*
X494034Y879887D01*
X495742Y879662D01*
X497449Y879887D01*
X499040Y880546D01*
X500406Y881594D01*
X501454Y882960D01*
X502113Y884551D01*
X502338Y886258D01*
X502113Y887966D01*
X501454Y889557D01*
X500406Y890923D01*
X499040Y891971D01*
X497449Y892630D01*
X495742Y892855D01*
D02*
G37*
G36*
X631000Y897358D02*
X628630Y897046D01*
X626421Y896131D01*
X624524Y894676D01*
X623069Y892779D01*
X622154Y890570D01*
X621842Y888200D01*
X622154Y885830D01*
X623069Y883621D01*
X624524Y881724D01*
X626421Y880269D01*
X628630Y879354D01*
X631000Y879042D01*
X633370Y879354D01*
X635579Y880269D01*
X637476Y881724D01*
X638931Y883621D01*
X639846Y885830D01*
X640158Y888200D01*
X639846Y890570D01*
X638931Y892779D01*
X637476Y894676D01*
X635579Y896131D01*
X633370Y897046D01*
X631000Y897358D01*
D02*
G37*
G36*
X590000Y867596D02*
X588293Y867372D01*
X586702Y866713D01*
X585336Y865664D01*
X585261Y865566D01*
X582739D01*
X582664Y865664D01*
X581298Y866713D01*
X579707Y867372D01*
X578000Y867596D01*
X576293Y867372D01*
X574702Y866713D01*
X573336Y865664D01*
X572287Y864298D01*
X571628Y862707D01*
X571404Y861000D01*
X571628Y859293D01*
X572287Y857702D01*
X573336Y856336D01*
Y854664D01*
X572287Y853298D01*
X571628Y851707D01*
X571404Y850000D01*
X571628Y848293D01*
X572287Y846702D01*
X573336Y845336D01*
X573433Y845260D01*
Y842739D01*
X573336Y842664D01*
X572287Y841298D01*
X571628Y839707D01*
X571404Y838000D01*
X571628Y836293D01*
X572287Y834702D01*
X573336Y833336D01*
X574702Y832287D01*
X576293Y831628D01*
X578000Y831404D01*
X579707Y831628D01*
X581298Y832287D01*
X582664Y833336D01*
X582739Y833434D01*
X585261D01*
X585336Y833336D01*
X586702Y832287D01*
X588293Y831628D01*
X590000Y831404D01*
X591707Y831628D01*
X593298Y832287D01*
X594664Y833336D01*
X595713Y834702D01*
X596372Y836293D01*
X596596Y838000D01*
X596372Y839707D01*
X595713Y841298D01*
X594664Y842664D01*
X594566Y842739D01*
Y845260D01*
X594664Y845336D01*
X595713Y846702D01*
X596372Y848293D01*
X596596Y850000D01*
X596372Y851707D01*
X595713Y853298D01*
X594664Y854664D01*
Y856336D01*
X595713Y857702D01*
X596372Y859293D01*
X596596Y861000D01*
X596372Y862707D01*
X595713Y864298D01*
X594664Y865664D01*
X593298Y866713D01*
X591707Y867372D01*
X590000Y867596D01*
D02*
G37*
G36*
X689455Y874693D02*
X687748Y874468D01*
X686157Y873809D01*
X684791Y872761D01*
X683742Y871395D01*
X683083Y869804D01*
X682859Y868096D01*
X683083Y866389D01*
X683742Y864798D01*
X684791Y863432D01*
X686157Y862384D01*
X687748Y861725D01*
X689455Y861500D01*
X691162Y861725D01*
X692753Y862384D01*
X694119Y863432D01*
X695168Y864798D01*
X695827Y866389D01*
X696051Y868096D01*
X695827Y869804D01*
X695168Y871395D01*
X694119Y872761D01*
X692753Y873809D01*
X691162Y874468D01*
X689455Y874693D01*
D02*
G37*
G36*
X386330Y875965D02*
X383448Y875586D01*
X380762Y874473D01*
X378456Y872704D01*
X376687Y870398D01*
X375574Y867712D01*
X375195Y864830D01*
X375574Y861948D01*
X376687Y859262D01*
X378456Y856956D01*
X380762Y855187D01*
X383448Y854074D01*
X386330Y853695D01*
X389212Y854074D01*
X391898Y855187D01*
X394204Y856956D01*
X395973Y859262D01*
X397086Y861948D01*
X397465Y864830D01*
X397086Y867712D01*
X395973Y870398D01*
X394204Y872704D01*
X391898Y874473D01*
X389212Y875586D01*
X386330Y875965D01*
D02*
G37*
G36*
X767383Y864284D02*
X765675Y864059D01*
X764084Y863400D01*
X762718Y862352D01*
X761670Y860986D01*
X761011Y859395D01*
X760786Y857688D01*
X761011Y855980D01*
X761670Y854389D01*
X762718Y853023D01*
X764084Y851975D01*
X765675Y851316D01*
X767383Y851091D01*
X769090Y851316D01*
X770681Y851975D01*
X772047Y853023D01*
X773095Y854389D01*
X773754Y855980D01*
X773979Y857688D01*
X773754Y859395D01*
X773095Y860986D01*
X772047Y862352D01*
X770681Y863400D01*
X769090Y864059D01*
X767383Y864284D01*
D02*
G37*
G36*
X178000Y861596D02*
X176293Y861372D01*
X174702Y860713D01*
X173336Y859664D01*
X172287Y858298D01*
X171628Y856707D01*
X171404Y855000D01*
X171628Y853293D01*
X172287Y851702D01*
X173336Y850336D01*
X174702Y849287D01*
X176293Y848628D01*
X178000Y848404D01*
X179707Y848628D01*
X181298Y849287D01*
X182664Y850336D01*
X183713Y851702D01*
X184372Y853293D01*
X184596Y855000D01*
X184372Y856707D01*
X183713Y858298D01*
X182664Y859664D01*
X181298Y860713D01*
X179707Y861372D01*
X178000Y861596D01*
D02*
G37*
G36*
X812540Y852888D02*
X810832Y852663D01*
X809241Y852004D01*
X807875Y850956D01*
X806827Y849589D01*
X806168Y847999D01*
X805943Y846291D01*
X806168Y844584D01*
X806827Y842993D01*
X807875Y841627D01*
X809241Y840579D01*
X810832Y839920D01*
X812540Y839695D01*
X814247Y839920D01*
X815838Y840579D01*
X817204Y841627D01*
X818252Y842993D01*
X818911Y844584D01*
X819136Y846291D01*
X818911Y847999D01*
X818252Y849589D01*
X817204Y850956D01*
X815838Y852004D01*
X814247Y852663D01*
X812540Y852888D01*
D02*
G37*
G36*
X851000Y845136D02*
X849293Y844912D01*
X847702Y844253D01*
X846336Y843204D01*
X845287Y841838D01*
X844628Y840247D01*
X844404Y838540D01*
X844628Y836833D01*
X845287Y835242D01*
X846336Y833876D01*
X847702Y832827D01*
X849293Y832168D01*
X851000Y831944D01*
X852707Y832168D01*
X854298Y832827D01*
X855664Y833876D01*
X856713Y835242D01*
X857372Y836833D01*
X857596Y838540D01*
X857372Y840247D01*
X856713Y841838D01*
X855664Y843204D01*
X854298Y844253D01*
X852707Y844912D01*
X851000Y845136D01*
D02*
G37*
G36*
X947400Y858422D02*
X944060Y858093D01*
X940847Y857119D01*
X937887Y855537D01*
X935293Y853407D01*
X933163Y850813D01*
X931581Y847852D01*
X930607Y844640D01*
X930277Y841300D01*
X930607Y837960D01*
X931581Y834747D01*
X933163Y831787D01*
X935293Y829193D01*
X937887Y827063D01*
X940847Y825481D01*
X944060Y824507D01*
X947400Y824177D01*
X950740Y824507D01*
X953952Y825481D01*
X956913Y827063D01*
X959507Y829193D01*
X961637Y831787D01*
X963219Y834747D01*
X964193Y837960D01*
X964522Y841300D01*
X964193Y844640D01*
X963219Y847852D01*
X961637Y850813D01*
X959507Y853407D01*
X956913Y855537D01*
X953952Y857119D01*
X950740Y858093D01*
X947400Y858422D01*
D02*
G37*
G36*
X430710Y834111D02*
X429003Y833886D01*
X427412Y833227D01*
X426046Y832179D01*
X424997Y830813D01*
X424338Y829222D01*
X424114Y827515D01*
X424338Y825807D01*
X424997Y824216D01*
X426046Y822850D01*
X427412Y821802D01*
X429003Y821143D01*
X430710Y820918D01*
X432417Y821143D01*
X434008Y821802D01*
X435374Y822850D01*
X436423Y824216D01*
X437082Y825807D01*
X437306Y827515D01*
X437082Y829222D01*
X436423Y830813D01*
X435374Y832179D01*
X434008Y833227D01*
X432417Y833886D01*
X430710Y834111D01*
D02*
G37*
G36*
X288177Y826420D02*
X286469Y826195D01*
X284879Y825536D01*
X283512Y824488D01*
X282464Y823121D01*
X281805Y821531D01*
X281580Y819823D01*
X281805Y818116D01*
X282464Y816525D01*
X283512Y815159D01*
X284879Y814110D01*
X286469Y813452D01*
X288177Y813227D01*
X289884Y813452D01*
X291475Y814110D01*
X292841Y815159D01*
X293890Y816525D01*
X294548Y818116D01*
X294773Y819823D01*
X294548Y821531D01*
X293890Y823121D01*
X292841Y824488D01*
X291475Y825536D01*
X289884Y826195D01*
X288177Y826420D01*
D02*
G37*
G36*
X624332Y819912D02*
X622625Y819687D01*
X621034Y819028D01*
X619668Y817980D01*
X618619Y816614D01*
X617960Y815023D01*
X617736Y813315D01*
X617960Y811608D01*
X618619Y810017D01*
X619668Y808651D01*
X621034Y807603D01*
X622625Y806944D01*
X624332Y806719D01*
X626039Y806944D01*
X627630Y807603D01*
X628996Y808651D01*
X630045Y810017D01*
X630704Y811608D01*
X630928Y813315D01*
X630704Y815023D01*
X630045Y816614D01*
X628996Y817980D01*
X627630Y819028D01*
X626039Y819687D01*
X624332Y819912D01*
D02*
G37*
G36*
X262131Y819744D02*
X260424Y819519D01*
X258833Y818860D01*
X257467Y817812D01*
X256418Y816446D01*
X255759Y814855D01*
X255535Y813148D01*
X255759Y811440D01*
X256418Y809849D01*
X257467Y808483D01*
X258833Y807435D01*
X260424Y806776D01*
X262131Y806551D01*
X263838Y806776D01*
X265429Y807435D01*
X266795Y808483D01*
X267844Y809849D01*
X268503Y811440D01*
X268727Y813148D01*
X268503Y814855D01*
X267844Y816446D01*
X266795Y817812D01*
X265429Y818860D01*
X263838Y819519D01*
X262131Y819744D01*
D02*
G37*
G36*
X450406Y818598D02*
X448699Y818373D01*
X447108Y817714D01*
X445742Y816666D01*
X444694Y815300D01*
X444035Y813709D01*
X443810Y812001D01*
X444035Y810294D01*
X444694Y808703D01*
X445742Y807337D01*
X447108Y806289D01*
X448699Y805630D01*
X450406Y805405D01*
X452114Y805630D01*
X453704Y806289D01*
X455071Y807337D01*
X456119Y808703D01*
X456778Y810294D01*
X457003Y812001D01*
X456778Y813709D01*
X456119Y815300D01*
X455071Y816666D01*
X453704Y817714D01*
X452114Y818373D01*
X450406Y818598D01*
D02*
G37*
G36*
X386330Y825165D02*
X383448Y824786D01*
X380762Y823673D01*
X378456Y821904D01*
X376687Y819598D01*
X375574Y816912D01*
X375195Y814030D01*
X375574Y811148D01*
X376687Y808462D01*
X378456Y806156D01*
X380762Y804387D01*
X383448Y803274D01*
X386330Y802895D01*
X389212Y803274D01*
X391898Y804387D01*
X394204Y806156D01*
X395973Y808462D01*
X397086Y811148D01*
X397465Y814030D01*
X397086Y816912D01*
X395973Y819598D01*
X394204Y821904D01*
X391898Y823673D01*
X389212Y824786D01*
X386330Y825165D01*
D02*
G37*
G36*
X725000Y811636D02*
X723293Y811412D01*
X721702Y810753D01*
X720336Y809704D01*
X719287Y808338D01*
X718628Y806747D01*
X718404Y805040D01*
X718628Y803333D01*
X719287Y801742D01*
X720336Y800376D01*
X721702Y799327D01*
X723293Y798668D01*
X725000Y798444D01*
X726707Y798668D01*
X728298Y799327D01*
X729664Y800376D01*
X730713Y801742D01*
X731372Y803333D01*
X731596Y805040D01*
X731372Y806747D01*
X730713Y808338D01*
X729664Y809704D01*
X728298Y810753D01*
X726707Y811412D01*
X725000Y811636D01*
D02*
G37*
G36*
X276392Y800489D02*
X274685Y800264D01*
X273094Y799605D01*
X271728Y798557D01*
X270680Y797190D01*
X270021Y795600D01*
X269796Y793892D01*
X270021Y792185D01*
X270680Y790594D01*
X271728Y789228D01*
X273094Y788180D01*
X274685Y787521D01*
X276392Y787296D01*
X278099Y787521D01*
X279690Y788180D01*
X281057Y789228D01*
X282105Y790594D01*
X282764Y792185D01*
X282989Y793892D01*
X282764Y795600D01*
X282105Y797190D01*
X281057Y798557D01*
X279690Y799605D01*
X278099Y800264D01*
X276392Y800489D01*
D02*
G37*
G36*
X496500Y795846D02*
X494793Y795622D01*
X493202Y794963D01*
X491836Y793914D01*
X490787Y792548D01*
X490128Y790957D01*
X489904Y789250D01*
X490128Y787543D01*
X490787Y785952D01*
X491836Y784586D01*
X493202Y783537D01*
X494793Y782878D01*
X496500Y782654D01*
X498207Y782878D01*
X499798Y783537D01*
X501164Y784586D01*
X502213Y785952D01*
X502872Y787543D01*
X503096Y789250D01*
X502872Y790957D01*
X502213Y792548D01*
X501164Y793914D01*
X499798Y794963D01*
X498207Y795622D01*
X496500Y795846D01*
D02*
G37*
G36*
X922000Y801383D02*
X919183Y801012D01*
X916558Y799925D01*
X914305Y798195D01*
X912575Y795941D01*
X911488Y793317D01*
X911117Y790500D01*
X911488Y787683D01*
X912575Y785059D01*
X914305Y782804D01*
X916558Y781075D01*
X919183Y779988D01*
X922000Y779617D01*
X924817Y779988D01*
X927442Y781075D01*
X929696Y782804D01*
X931425Y785059D01*
X932512Y787683D01*
X932883Y790500D01*
X932512Y793317D01*
X931425Y795941D01*
X929696Y798195D01*
X927442Y799925D01*
X924817Y801012D01*
X922000Y801383D01*
D02*
G37*
G36*
X896600D02*
X893783Y801012D01*
X891158Y799925D01*
X888904Y798195D01*
X887175Y795941D01*
X886088Y793317D01*
X885717Y790500D01*
X886088Y787683D01*
X887175Y785059D01*
X888904Y782804D01*
X891158Y781075D01*
X893783Y779988D01*
X896600Y779617D01*
X899417Y779988D01*
X902042Y781075D01*
X904296Y782804D01*
X906025Y785059D01*
X907112Y787683D01*
X907483Y790500D01*
X907112Y793317D01*
X906025Y795941D01*
X904296Y798195D01*
X902042Y799925D01*
X899417Y801012D01*
X896600Y801383D01*
D02*
G37*
G36*
X571278Y793893D02*
X569310Y793634D01*
X567475Y792875D01*
X565900Y791666D01*
X564692Y790091D01*
X563932Y788257D01*
X563673Y786288D01*
X563932Y784320D01*
X564692Y782486D01*
X565900Y780911D01*
X567475Y779702D01*
X569310Y778942D01*
X571278Y778683D01*
X573246Y778942D01*
X575080Y779702D01*
X576656Y780911D01*
X577864Y782486D01*
X578624Y784320D01*
X578883Y786288D01*
X578624Y788257D01*
X577864Y790091D01*
X576656Y791666D01*
X575080Y792875D01*
X573246Y793634D01*
X571278Y793893D01*
D02*
G37*
G36*
X768538Y792893D02*
X766569Y792634D01*
X764735Y791874D01*
X763160Y790666D01*
X761951Y789091D01*
X761192Y787257D01*
X760932Y785288D01*
X761192Y783320D01*
X761951Y781486D01*
X763160Y779911D01*
X764735Y778702D01*
X766569Y777942D01*
X768538Y777683D01*
X770506Y777942D01*
X772340Y778702D01*
X773915Y779911D01*
X775124Y781486D01*
X775883Y783320D01*
X776143Y785288D01*
X775883Y787257D01*
X775124Y789091D01*
X773915Y790666D01*
X772340Y791874D01*
X770506Y792634D01*
X768538Y792893D01*
D02*
G37*
G36*
X386330Y799765D02*
X383448Y799386D01*
X380762Y798273D01*
X378456Y796504D01*
X376687Y794198D01*
X375574Y791512D01*
X375195Y788630D01*
X375574Y785748D01*
X376687Y783062D01*
X378456Y780756D01*
X380762Y778987D01*
X383448Y777874D01*
X386330Y777495D01*
X389212Y777874D01*
X391898Y778987D01*
X394204Y780756D01*
X395973Y783062D01*
X397086Y785748D01*
X397465Y788630D01*
X397086Y791512D01*
X395973Y794198D01*
X394204Y796504D01*
X391898Y798273D01*
X389212Y799386D01*
X386330Y799765D01*
D02*
G37*
G36*
X801589Y782579D02*
X799882Y782355D01*
X798291Y781696D01*
X796925Y780647D01*
X795877Y779281D01*
X795218Y777690D01*
X794993Y775983D01*
X795218Y774276D01*
X795877Y772685D01*
X796925Y771319D01*
X798291Y770270D01*
X799882Y769611D01*
X801589Y769387D01*
X803297Y769611D01*
X804888Y770270D01*
X806254Y771319D01*
X807302Y772685D01*
X807961Y774276D01*
X808186Y775983D01*
X807961Y777690D01*
X807302Y779281D01*
X806254Y780647D01*
X804888Y781696D01*
X803297Y782355D01*
X801589Y782579D01*
D02*
G37*
G36*
X497909Y777900D02*
X496202Y777676D01*
X494611Y777017D01*
X493245Y775968D01*
X492197Y774602D01*
X491538Y773011D01*
X491313Y771304D01*
X491538Y769597D01*
X492197Y768006D01*
X493245Y766639D01*
X494611Y765591D01*
X496202Y764932D01*
X497909Y764707D01*
X499617Y764932D01*
X501208Y765591D01*
X502574Y766639D01*
X503622Y768006D01*
X504281Y769597D01*
X504506Y771304D01*
X504281Y773011D01*
X503622Y774602D01*
X502574Y775968D01*
X501208Y777017D01*
X499617Y777676D01*
X497909Y777900D01*
D02*
G37*
G36*
X621280Y775384D02*
X619573Y775159D01*
X617982Y774500D01*
X616616Y773452D01*
X615568Y772086D01*
X614909Y770495D01*
X614684Y768788D01*
X614909Y767080D01*
X615568Y765489D01*
X616616Y764123D01*
X617982Y763075D01*
X619573Y762416D01*
X621280Y762191D01*
X622988Y762416D01*
X624579Y763075D01*
X625945Y764123D01*
X626993Y765489D01*
X627652Y767080D01*
X627877Y768788D01*
X627652Y770495D01*
X626993Y772086D01*
X625945Y773452D01*
X624579Y774500D01*
X622988Y775159D01*
X621280Y775384D01*
D02*
G37*
G36*
X455250Y786846D02*
X453543Y786622D01*
X451952Y785963D01*
X450586Y784914D01*
X449537Y783548D01*
X448878Y781957D01*
X448654Y780250D01*
X448878Y778543D01*
X449537Y776952D01*
X450586Y775586D01*
X450893Y775350D01*
X450970Y772887D01*
X450905Y772838D01*
X449857Y771471D01*
X449198Y769881D01*
X448973Y768173D01*
X449198Y766466D01*
X449857Y764875D01*
X450905Y763509D01*
X452271Y762461D01*
X453862Y761802D01*
X455569Y761577D01*
X457276Y761802D01*
X458867Y762461D01*
X460234Y763509D01*
X461282Y764875D01*
X461941Y766466D01*
X462166Y768173D01*
X461941Y769881D01*
X461282Y771471D01*
X460234Y772838D01*
X459926Y773074D01*
X459850Y775536D01*
X459914Y775586D01*
X460963Y776952D01*
X461622Y778543D01*
X461846Y780250D01*
X461622Y781957D01*
X460963Y783548D01*
X459914Y784914D01*
X458548Y785963D01*
X456957Y786622D01*
X455250Y786846D01*
D02*
G37*
G36*
X922000Y775983D02*
X919183Y775612D01*
X916558Y774525D01*
X914305Y772795D01*
X912575Y770542D01*
X911488Y767917D01*
X911117Y765100D01*
X911488Y762283D01*
X912575Y759659D01*
X914305Y757404D01*
X916558Y755675D01*
X919183Y754588D01*
X922000Y754217D01*
X924817Y754588D01*
X927442Y755675D01*
X929696Y757404D01*
X931425Y759659D01*
X932512Y762283D01*
X932883Y765100D01*
X932512Y767917D01*
X931425Y770542D01*
X929696Y772795D01*
X927442Y774525D01*
X924817Y775612D01*
X922000Y775983D01*
D02*
G37*
G36*
X896600D02*
X893783Y775612D01*
X891158Y774525D01*
X888904Y772795D01*
X887175Y770542D01*
X886088Y767917D01*
X885717Y765100D01*
X886088Y762283D01*
X887175Y759659D01*
X888904Y757404D01*
X891158Y755675D01*
X893783Y754588D01*
X896600Y754217D01*
X899417Y754588D01*
X902042Y755675D01*
X904296Y757404D01*
X906025Y759659D01*
X907112Y762283D01*
X907483Y765100D01*
X907112Y767917D01*
X906025Y770542D01*
X904296Y772795D01*
X902042Y774525D01*
X899417Y775612D01*
X896600Y775983D01*
D02*
G37*
G36*
X386330Y774365D02*
X383448Y773986D01*
X380762Y772873D01*
X378456Y771104D01*
X376687Y768798D01*
X375574Y766112D01*
X375195Y763230D01*
X375574Y760348D01*
X376687Y757662D01*
X378456Y755356D01*
X380762Y753587D01*
X383448Y752474D01*
X386330Y752095D01*
X389212Y752474D01*
X391898Y753587D01*
X394204Y755356D01*
X395973Y757662D01*
X397086Y760348D01*
X397465Y763230D01*
X397086Y766112D01*
X395973Y768798D01*
X394204Y771104D01*
X391898Y772873D01*
X389212Y773986D01*
X386330Y774365D01*
D02*
G37*
G36*
X774788Y749641D02*
X772820Y749382D01*
X770985Y748622D01*
X769410Y747414D01*
X768202Y745839D01*
X767442Y744005D01*
X767183Y742036D01*
X767442Y740068D01*
X768202Y738234D01*
X769410Y736659D01*
X770985Y735450D01*
X772820Y734690D01*
X774788Y734431D01*
X776756Y734690D01*
X778590Y735450D01*
X780165Y736659D01*
X781374Y738234D01*
X782134Y740068D01*
X782393Y742036D01*
X782134Y744005D01*
X781374Y745839D01*
X780165Y747414D01*
X778590Y748622D01*
X776756Y749382D01*
X774788Y749641D01*
D02*
G37*
G36*
X567750Y749395D02*
X565782Y749136D01*
X563947Y748376D01*
X562372Y747168D01*
X561164Y745592D01*
X560404Y743758D01*
X560145Y741790D01*
X560404Y739822D01*
X561164Y737988D01*
X562372Y736412D01*
X563947Y735204D01*
X565782Y734444D01*
X567750Y734185D01*
X569718Y734444D01*
X571553Y735204D01*
X573128Y736412D01*
X574336Y737988D01*
X575096Y739822D01*
X575355Y741790D01*
X575096Y743758D01*
X574336Y745592D01*
X573128Y747168D01*
X571553Y748376D01*
X569718Y749136D01*
X567750Y749395D01*
D02*
G37*
G36*
X486210Y744346D02*
X484503Y744122D01*
X482912Y743463D01*
X481546Y742414D01*
X480497Y741048D01*
X479838Y739457D01*
X479614Y737750D01*
X479838Y736043D01*
X480497Y734452D01*
X481546Y733086D01*
X482912Y732037D01*
X484503Y731378D01*
X486210Y731154D01*
X487917Y731378D01*
X489508Y732037D01*
X490874Y733086D01*
X491923Y734452D01*
X492582Y736043D01*
X492806Y737750D01*
X492582Y739457D01*
X491923Y741048D01*
X490874Y742414D01*
X489508Y743463D01*
X487917Y744122D01*
X486210Y744346D01*
D02*
G37*
G36*
X922000Y750583D02*
X919183Y750212D01*
X916558Y749125D01*
X914305Y747395D01*
X912575Y745142D01*
X911488Y742517D01*
X911117Y739700D01*
X911488Y736883D01*
X912575Y734258D01*
X914305Y732004D01*
X916558Y730275D01*
X919183Y729188D01*
X922000Y728817D01*
X924817Y729188D01*
X927442Y730275D01*
X929696Y732004D01*
X931425Y734258D01*
X932512Y736883D01*
X932883Y739700D01*
X932512Y742517D01*
X931425Y745142D01*
X929696Y747395D01*
X927442Y749125D01*
X924817Y750212D01*
X922000Y750583D01*
D02*
G37*
G36*
X896600D02*
X893783Y750212D01*
X891158Y749125D01*
X888904Y747395D01*
X887175Y745142D01*
X886088Y742517D01*
X885717Y739700D01*
X886088Y736883D01*
X887175Y734258D01*
X888904Y732004D01*
X891158Y730275D01*
X893783Y729188D01*
X896600Y728817D01*
X899417Y729188D01*
X902042Y730275D01*
X904296Y732004D01*
X906025Y734258D01*
X907112Y736883D01*
X907483Y739700D01*
X907112Y742517D01*
X906025Y745142D01*
X904296Y747395D01*
X902042Y749125D01*
X899417Y750212D01*
X896600Y750583D01*
D02*
G37*
G36*
X470822Y723166D02*
X469114Y722941D01*
X467524Y722282D01*
X466157Y721234D01*
X465109Y719868D01*
X464450Y718277D01*
X464225Y716570D01*
X464338Y715716D01*
X464150Y715319D01*
X463025Y714199D01*
X462635Y714017D01*
X461772Y714131D01*
X460065Y713906D01*
X458474Y713247D01*
X457679Y712637D01*
X456638Y712278D01*
X454874Y712572D01*
X454320Y712997D01*
X452729Y713656D01*
X451022Y713881D01*
X449315Y713656D01*
X447724Y712997D01*
X446358Y711949D01*
X445309Y710583D01*
X444650Y708992D01*
X444426Y707284D01*
X443022Y705630D01*
X442552Y705569D01*
X441062Y705928D01*
X440443Y707209D01*
X440372Y707747D01*
X439713Y709338D01*
X438664Y710704D01*
X437298Y711753D01*
X435707Y712412D01*
X434000Y712636D01*
X432293Y712412D01*
X431908Y712252D01*
X430307Y712244D01*
X429449Y713312D01*
X429233Y713833D01*
X428185Y715199D01*
X426819Y716247D01*
X425228Y716906D01*
X423521Y717131D01*
X421813Y716906D01*
X420223Y716247D01*
X418856Y715199D01*
X418115Y714233D01*
X417464Y713824D01*
X415619Y713775D01*
X415048Y714213D01*
X413457Y714872D01*
X411750Y715096D01*
X410043Y714872D01*
X408452Y714213D01*
X407086Y713164D01*
X406037Y711798D01*
X405378Y710207D01*
X405154Y708500D01*
X405378Y706793D01*
X406037Y705202D01*
X407086Y703836D01*
X408452Y702787D01*
X410043Y702128D01*
X411750Y701904D01*
X413457Y702128D01*
X415048Y702787D01*
X416414Y703836D01*
X417155Y704801D01*
X417807Y705211D01*
X419652Y705260D01*
X420223Y704822D01*
X421813Y704163D01*
X423521Y703938D01*
X425228Y704163D01*
X425612Y704322D01*
X427214Y704331D01*
X428072Y703262D01*
X428287Y702742D01*
X429336Y701376D01*
X430702Y700327D01*
X432293Y699668D01*
X434000Y699444D01*
X434470Y699505D01*
X435960Y699146D01*
X436579Y697865D01*
X436650Y697327D01*
X437309Y695736D01*
X438357Y694370D01*
X439723Y693321D01*
X441314Y692662D01*
X443022Y692438D01*
X444729Y692662D01*
X446320Y693321D01*
X447686Y694370D01*
X448734Y695736D01*
X449393Y697327D01*
X449618Y699034D01*
X451022Y700688D01*
X452729Y700913D01*
X454320Y701572D01*
X455115Y702182D01*
X456157Y702542D01*
X457921Y702247D01*
X458474Y701822D01*
X460065Y701163D01*
X461772Y700938D01*
X463480Y701163D01*
X465071Y701822D01*
X466437Y702870D01*
X467485Y704236D01*
X468144Y705827D01*
X468369Y707534D01*
X468256Y708389D01*
X468445Y708786D01*
X469570Y709906D01*
X469959Y710087D01*
X470822Y709973D01*
X472529Y710198D01*
X474120Y710857D01*
X475486Y711905D01*
X476535Y713271D01*
X477193Y714863D01*
X477418Y716570D01*
X477193Y718277D01*
X476535Y719868D01*
X475486Y721234D01*
X474120Y722282D01*
X472529Y722941D01*
X470822Y723166D01*
D02*
G37*
G36*
X800039Y726632D02*
X798332Y726407D01*
X796741Y725748D01*
X795375Y724699D01*
X794326Y723333D01*
X793667Y721742D01*
X793443Y720035D01*
X793667Y718328D01*
X794326Y716737D01*
X795375Y715371D01*
X796741Y714322D01*
X798332Y713663D01*
X800039Y713439D01*
X801746Y713663D01*
X803337Y714322D01*
X804703Y715371D01*
X805752Y716737D01*
X806411Y718328D01*
X806636Y720035D01*
X806411Y721742D01*
X805752Y723333D01*
X804703Y724699D01*
X803337Y725748D01*
X801746Y726407D01*
X800039Y726632D01*
D02*
G37*
G36*
X177051Y719648D02*
X175344Y719423D01*
X173753Y718764D01*
X172387Y717716D01*
X171339Y716349D01*
X170680Y714759D01*
X170455Y713051D01*
X170680Y711344D01*
X171339Y709753D01*
X172387Y708387D01*
X173753Y707338D01*
X175344Y706680D01*
X177051Y706455D01*
X178759Y706680D01*
X180349Y707338D01*
X181716Y708387D01*
X182764Y709753D01*
X183423Y711344D01*
X183648Y713051D01*
X183423Y714759D01*
X182764Y716349D01*
X181716Y717716D01*
X180349Y718764D01*
X178759Y719423D01*
X177051Y719648D01*
D02*
G37*
G36*
X922000Y725183D02*
X919183Y724812D01*
X916558Y723725D01*
X914305Y721995D01*
X912575Y719742D01*
X911488Y717117D01*
X911117Y714300D01*
X911488Y711483D01*
X912575Y708858D01*
X914305Y706605D01*
X916558Y704875D01*
X919183Y703788D01*
X922000Y703417D01*
X924817Y703788D01*
X927442Y704875D01*
X929696Y706605D01*
X931425Y708858D01*
X932512Y711483D01*
X932883Y714300D01*
X932512Y717117D01*
X931425Y719742D01*
X929696Y721995D01*
X927442Y723725D01*
X924817Y724812D01*
X922000Y725183D01*
D02*
G37*
G36*
X896600D02*
X893783Y724812D01*
X891158Y723725D01*
X888904Y721995D01*
X887175Y719742D01*
X886088Y717117D01*
X885717Y714300D01*
X886088Y711483D01*
X887175Y708858D01*
X888904Y706605D01*
X891158Y704875D01*
X893783Y703788D01*
X896600Y703417D01*
X899417Y703788D01*
X902042Y704875D01*
X904296Y706605D01*
X906025Y708858D01*
X907112Y711483D01*
X907483Y714300D01*
X907112Y717117D01*
X906025Y719742D01*
X904296Y721995D01*
X902042Y723725D01*
X899417Y724812D01*
X896600Y725183D01*
D02*
G37*
G36*
X397370Y723470D02*
X375290D01*
Y701390D01*
X397370D01*
Y723470D01*
D02*
G37*
G36*
X82750Y710096D02*
X81043Y709872D01*
X79452Y709213D01*
X78086Y708164D01*
X77037Y706798D01*
X76378Y705207D01*
X76154Y703500D01*
X76378Y701793D01*
X77037Y700202D01*
X78086Y698836D01*
X79452Y697787D01*
X81043Y697128D01*
X82750Y696904D01*
X84457Y697128D01*
X86048Y697787D01*
X87414Y698836D01*
X88463Y700202D01*
X89122Y701793D01*
X89346Y703500D01*
X89122Y705207D01*
X88463Y706798D01*
X87414Y708164D01*
X86048Y709213D01*
X84457Y709872D01*
X82750Y710096D01*
D02*
G37*
G36*
X577610Y706808D02*
X575641Y706548D01*
X573807Y705789D01*
X572232Y704580D01*
X571024Y703005D01*
X570264Y701171D01*
X570005Y699202D01*
X570264Y697234D01*
X571024Y695400D01*
X572232Y693825D01*
X573807Y692616D01*
X575641Y691857D01*
X577610Y691598D01*
X579578Y691857D01*
X581412Y692616D01*
X582987Y693825D01*
X584196Y695400D01*
X584956Y697234D01*
X585215Y699202D01*
X584956Y701171D01*
X584196Y703005D01*
X582987Y704580D01*
X581412Y705789D01*
X579578Y706548D01*
X577610Y706808D01*
D02*
G37*
G36*
X621510Y704036D02*
X619803Y703812D01*
X618212Y703153D01*
X616846Y702104D01*
X615797Y700738D01*
X615138Y699147D01*
X614914Y697440D01*
X615138Y695733D01*
X615797Y694142D01*
X616846Y692775D01*
X618212Y691727D01*
X619803Y691068D01*
X621510Y690844D01*
X623217Y691068D01*
X624808Y691727D01*
X626174Y692775D01*
X627223Y694142D01*
X627882Y695733D01*
X628106Y697440D01*
X627882Y699147D01*
X627223Y700738D01*
X626174Y702104D01*
X624808Y703153D01*
X623217Y703812D01*
X621510Y704036D01*
D02*
G37*
G36*
X560000Y691596D02*
X558293Y691372D01*
X556702Y690713D01*
X556345Y690439D01*
X555988Y690713D01*
X554397Y691372D01*
X552690Y691596D01*
X550983Y691372D01*
X549392Y690713D01*
X548025Y689664D01*
X546977Y688298D01*
X546318Y686707D01*
X546093Y685000D01*
X546318Y683293D01*
X546977Y681702D01*
X547132Y681500D01*
X547862Y680000D01*
X547132Y678500D01*
X546977Y678298D01*
X546318Y676707D01*
X546093Y675000D01*
X546318Y673293D01*
X546977Y671702D01*
X547062Y671591D01*
X547754Y669868D01*
X547013Y668592D01*
X546787Y668298D01*
X546128Y666707D01*
X545904Y665000D01*
X546128Y663293D01*
X546787Y661702D01*
X547836Y660336D01*
X549202Y659287D01*
X550793Y658628D01*
X552500Y658404D01*
X554207Y658628D01*
X555798Y659287D01*
X556250Y659634D01*
X556702Y659287D01*
X558293Y658628D01*
X560000Y658404D01*
X561707Y658628D01*
X563298Y659287D01*
X564664Y660336D01*
X565713Y661702D01*
X566372Y663293D01*
X566596Y665000D01*
X566372Y666707D01*
X565713Y668298D01*
X565558Y668500D01*
X564828Y670000D01*
X565558Y671500D01*
X565713Y671702D01*
X566372Y673293D01*
X566596Y675000D01*
X566372Y676707D01*
X565713Y678298D01*
X565558Y678500D01*
X564828Y680000D01*
X565558Y681500D01*
X565713Y681702D01*
X566372Y683293D01*
X566596Y685000D01*
X566372Y686707D01*
X565713Y688298D01*
X564664Y689664D01*
X563298Y690713D01*
X561707Y691372D01*
X560000Y691596D01*
D02*
G37*
G36*
X390796Y692406D02*
X389088Y692182D01*
X387497Y691523D01*
X386131Y690474D01*
X385083Y689108D01*
X384621Y687992D01*
X384054Y687347D01*
X382277Y686530D01*
X381519Y686630D01*
X379811Y686405D01*
X378220Y685746D01*
X376854Y684698D01*
X375806Y683331D01*
X375147Y681740D01*
X374922Y680033D01*
X375147Y678326D01*
X375806Y676735D01*
X376854Y675369D01*
X378220Y674321D01*
X379811Y673661D01*
X381519Y673437D01*
X383226Y673661D01*
X384817Y674321D01*
X386183Y675369D01*
X387231Y676735D01*
X387694Y677851D01*
X388260Y678496D01*
X390037Y679313D01*
X390796Y679214D01*
X392503Y679438D01*
X394094Y680097D01*
X395460Y681146D01*
X396508Y682512D01*
X397167Y684103D01*
X397392Y685810D01*
X397167Y687517D01*
X396508Y689108D01*
X395460Y690474D01*
X394094Y691523D01*
X392503Y692182D01*
X390796Y692406D01*
D02*
G37*
G36*
X416610Y698931D02*
X414903Y698707D01*
X413312Y698048D01*
X411946Y696999D01*
X410897Y695633D01*
X410238Y694042D01*
X410014Y692335D01*
X410238Y690628D01*
X410897Y689037D01*
X411946Y687671D01*
X413312Y686622D01*
X414903Y685963D01*
X416610Y685739D01*
X418317Y685963D01*
X419908Y686622D01*
X421274Y687671D01*
X422323Y689037D01*
X422982Y690628D01*
X423206Y692335D01*
X422982Y694042D01*
X422323Y695633D01*
X421274Y696999D01*
X419908Y698048D01*
X418317Y698707D01*
X416610Y698931D01*
D02*
G37*
G36*
X32000Y721137D02*
X28071Y720750D01*
X24294Y719604D01*
X20812Y717743D01*
X17761Y715239D01*
X15257Y712188D01*
X13396Y708706D01*
X12250Y704929D01*
X11863Y701000D01*
X12250Y697072D01*
X13396Y693294D01*
X15257Y689812D01*
X17761Y686761D01*
X20812Y684257D01*
X24294Y682396D01*
X28071Y681250D01*
X32000Y680863D01*
X35928Y681250D01*
X39706Y682396D01*
X43187Y684257D01*
X46239Y686761D01*
X48743Y689812D01*
X50604Y693294D01*
X51750Y697072D01*
X52137Y701000D01*
X51750Y704929D01*
X50604Y708706D01*
X48743Y712188D01*
X46239Y715239D01*
X43187Y717743D01*
X39706Y719604D01*
X35928Y720750D01*
X32000Y721137D01*
D02*
G37*
G36*
X922000Y699783D02*
X919183Y699412D01*
X916558Y698325D01*
X914305Y696596D01*
X912575Y694342D01*
X911488Y691717D01*
X911117Y688900D01*
X911488Y686083D01*
X912575Y683458D01*
X914305Y681205D01*
X916558Y679475D01*
X919183Y678388D01*
X922000Y678017D01*
X924817Y678388D01*
X927442Y679475D01*
X929696Y681205D01*
X931425Y683458D01*
X932512Y686083D01*
X932883Y688900D01*
X932512Y691717D01*
X931425Y694342D01*
X929696Y696596D01*
X927442Y698325D01*
X924817Y699412D01*
X922000Y699783D01*
D02*
G37*
G36*
X896600D02*
X893783Y699412D01*
X891158Y698325D01*
X888904Y696596D01*
X887175Y694342D01*
X886088Y691717D01*
X885717Y688900D01*
X886088Y686083D01*
X887175Y683458D01*
X888904Y681205D01*
X891158Y679475D01*
X893783Y678388D01*
X896600Y678017D01*
X899417Y678388D01*
X902042Y679475D01*
X904296Y681205D01*
X906025Y683458D01*
X907112Y686083D01*
X907483Y688900D01*
X907112Y691717D01*
X906025Y694342D01*
X904296Y696596D01*
X902042Y698325D01*
X899417Y699412D01*
X896600Y699783D01*
D02*
G37*
G36*
X498286Y689159D02*
X496579Y688934D01*
X494988Y688275D01*
X493622Y687227D01*
X492573Y685861D01*
X491914Y684270D01*
X491690Y682563D01*
X491914Y680855D01*
X492573Y679265D01*
X493622Y677898D01*
X494988Y676850D01*
X496579Y676191D01*
X498286Y675966D01*
X499993Y676191D01*
X501584Y676850D01*
X502951Y677898D01*
X503999Y679265D01*
X504658Y680855D01*
X504883Y682563D01*
X504658Y684270D01*
X503999Y685861D01*
X502951Y687227D01*
X501584Y688275D01*
X499993Y688934D01*
X498286Y689159D01*
D02*
G37*
G36*
X428750Y669096D02*
X427043Y668872D01*
X425452Y668213D01*
X424086Y667164D01*
X423509D01*
X422143Y668213D01*
X420552Y668872D01*
X418845Y669096D01*
X417138Y668872D01*
X415547Y668213D01*
X414181Y667164D01*
X413132Y665798D01*
X412473Y664207D01*
X412249Y662500D01*
X412473Y660793D01*
X413132Y659202D01*
X414054Y658000D01*
X413132Y656798D01*
X412473Y655207D01*
X412249Y653500D01*
X412473Y651793D01*
X413132Y650202D01*
X414181Y648836D01*
X415547Y647787D01*
X417138Y647128D01*
X417727Y647051D01*
X418013Y646822D01*
X418936Y645080D01*
X418942Y644965D01*
X418628Y644207D01*
X418404Y642500D01*
X418628Y640793D01*
X419287Y639202D01*
X420336Y637836D01*
X421702Y636787D01*
X423293Y636128D01*
X425000Y635904D01*
X426707Y636128D01*
X428298Y636787D01*
X429664Y637836D01*
X430713Y639202D01*
X431372Y640793D01*
X431596Y642500D01*
X431372Y644207D01*
X430932Y645269D01*
X430771Y645900D01*
X431373Y646953D01*
X433360Y647819D01*
X434951Y647160D01*
X436658Y646936D01*
X438366Y647160D01*
X439957Y647819D01*
X441323Y648867D01*
X442371Y650234D01*
X443030Y651825D01*
X443255Y653532D01*
X443030Y655239D01*
X442371Y656830D01*
X441545Y657907D01*
X442371Y658984D01*
X443030Y660575D01*
X443255Y662282D01*
X443030Y663990D01*
X442371Y665581D01*
X441323Y666947D01*
X439957Y667995D01*
X438366Y668654D01*
X436658Y668879D01*
X434951Y668654D01*
X433360Y667995D01*
X432846Y667600D01*
X432048Y668213D01*
X430457Y668872D01*
X428750Y669096D01*
D02*
G37*
G36*
X772788Y673138D02*
X770819Y672878D01*
X768985Y672119D01*
X767410Y670910D01*
X766201Y669335D01*
X765442Y667501D01*
X765183Y665533D01*
X765442Y663564D01*
X766201Y661730D01*
X767410Y660155D01*
X768985Y658946D01*
X770819Y658186D01*
X772788Y657927D01*
X774756Y658186D01*
X776590Y658946D01*
X778165Y660155D01*
X779374Y661730D01*
X780134Y663564D01*
X780393Y665533D01*
X780134Y667501D01*
X779374Y669335D01*
X778165Y670910D01*
X776590Y672119D01*
X774756Y672878D01*
X772788Y673138D01*
D02*
G37*
G36*
X294000Y666096D02*
X292293Y665872D01*
X290702Y665213D01*
X289336Y664164D01*
X288287Y662798D01*
X287628Y661207D01*
X287404Y659500D01*
X287628Y657793D01*
X288287Y656202D01*
X289336Y654836D01*
X290702Y653787D01*
X292293Y653128D01*
X294000Y652904D01*
X295707Y653128D01*
X297298Y653787D01*
X298664Y654836D01*
X299713Y656202D01*
X300372Y657793D01*
X300596Y659500D01*
X300372Y661207D01*
X299713Y662798D01*
X298664Y664164D01*
X297298Y665213D01*
X295707Y665872D01*
X294000Y666096D01*
D02*
G37*
G36*
X922000Y674383D02*
X919183Y674012D01*
X916558Y672925D01*
X914305Y671196D01*
X912575Y668941D01*
X911488Y666317D01*
X911117Y663500D01*
X911488Y660683D01*
X912575Y658058D01*
X914305Y655805D01*
X916558Y654075D01*
X919183Y652988D01*
X922000Y652617D01*
X924817Y652988D01*
X927442Y654075D01*
X929696Y655805D01*
X931425Y658058D01*
X932512Y660683D01*
X932883Y663500D01*
X932512Y666317D01*
X931425Y668941D01*
X929696Y671196D01*
X927442Y672925D01*
X924817Y674012D01*
X922000Y674383D01*
D02*
G37*
G36*
X896600D02*
X893783Y674012D01*
X891158Y672925D01*
X888904Y671196D01*
X887175Y668941D01*
X886088Y666317D01*
X885717Y663500D01*
X886088Y660683D01*
X887175Y658058D01*
X888904Y655805D01*
X891158Y654075D01*
X893783Y652988D01*
X896600Y652617D01*
X899417Y652988D01*
X902042Y654075D01*
X904296Y655805D01*
X906025Y658058D01*
X907112Y660683D01*
X907483Y663500D01*
X907112Y666317D01*
X906025Y668941D01*
X904296Y671196D01*
X902042Y672925D01*
X899417Y674012D01*
X896600Y674383D01*
D02*
G37*
G36*
X803000Y662446D02*
X801293Y662222D01*
X799702Y661563D01*
X798336Y660514D01*
X797287Y659148D01*
X796628Y657557D01*
X796404Y655850D01*
X796628Y654143D01*
X797287Y652552D01*
X798336Y651186D01*
X799702Y650137D01*
X801293Y649478D01*
X803000Y649254D01*
X804707Y649478D01*
X806298Y650137D01*
X807664Y651186D01*
X808713Y652552D01*
X809372Y654143D01*
X809596Y655850D01*
X809372Y657557D01*
X808713Y659148D01*
X807664Y660514D01*
X806298Y661563D01*
X804707Y662222D01*
X803000Y662446D01*
D02*
G37*
G36*
X532500Y659096D02*
X530793Y658872D01*
X529202Y658213D01*
X527836Y657164D01*
X526787Y655798D01*
X526128Y654207D01*
X525904Y652500D01*
X526128Y650793D01*
X526787Y649202D01*
X527836Y647836D01*
X529202Y646787D01*
X530793Y646128D01*
X532500Y645904D01*
X534207Y646128D01*
X535798Y646787D01*
X537164Y647836D01*
X538213Y649202D01*
X538872Y650793D01*
X539096Y652500D01*
X538872Y654207D01*
X538213Y655798D01*
X537164Y657164D01*
X535798Y658213D01*
X534207Y658872D01*
X532500Y659096D01*
D02*
G37*
G36*
X396012Y644096D02*
X394304Y643872D01*
X392714Y643213D01*
X391347Y642164D01*
X390299Y640798D01*
X389640Y639207D01*
X389510Y638219D01*
X389390Y637488D01*
X387517Y636594D01*
X387500Y636596D01*
X385793Y636372D01*
X384202Y635713D01*
X382836Y634664D01*
X381787Y633298D01*
X381128Y631707D01*
X380904Y630000D01*
X381128Y628293D01*
X381787Y626702D01*
X382836Y625336D01*
X384202Y624287D01*
X385793Y623628D01*
X387500Y623404D01*
X389207Y623628D01*
X390798Y624287D01*
X392164Y625336D01*
X393213Y626702D01*
X393872Y628293D01*
X394002Y629281D01*
X394122Y630012D01*
X395994Y630906D01*
X396012Y630904D01*
X397719Y631128D01*
X399310Y631787D01*
X400676Y632836D01*
X401724Y634202D01*
X402383Y635793D01*
X402608Y637500D01*
X402383Y639207D01*
X401724Y640798D01*
X400676Y642164D01*
X399310Y643213D01*
X397719Y643872D01*
X396012Y644096D01*
D02*
G37*
G36*
X619250Y643806D02*
X617543Y643582D01*
X615952Y642923D01*
X614586Y641874D01*
X613537Y640508D01*
X612878Y638917D01*
X612654Y637210D01*
X612878Y635503D01*
X613537Y633912D01*
X614586Y632546D01*
X615952Y631497D01*
X617543Y630838D01*
X619250Y630614D01*
X620957Y630838D01*
X622548Y631497D01*
X623914Y632546D01*
X624963Y633912D01*
X625622Y635503D01*
X625846Y637210D01*
X625622Y638917D01*
X624963Y640508D01*
X623914Y641874D01*
X622548Y642923D01*
X620957Y643582D01*
X619250Y643806D01*
D02*
G37*
G36*
X137645Y662596D02*
X135938Y662372D01*
X134347Y661713D01*
X132980Y660664D01*
X131932Y659298D01*
X131273Y657707D01*
X131048Y656000D01*
X131273Y654293D01*
X131932Y652702D01*
X132980Y651336D01*
X134347Y650287D01*
X135938Y649628D01*
X137645Y649404D01*
X139352Y649628D01*
X140943Y650287D01*
X142196Y651249D01*
X142221Y651263D01*
X142228Y651270D01*
X142315Y651297D01*
X142458Y651329D01*
X142620Y651356D01*
X142808Y651371D01*
X195745D01*
X210490Y636626D01*
X210552Y636549D01*
X210667Y636390D01*
X210744Y636266D01*
X210787Y636186D01*
X210788Y636176D01*
X210795Y636149D01*
X211001Y634583D01*
X211660Y632992D01*
X212708Y631626D01*
X214074Y630577D01*
X215665Y629918D01*
X217373Y629694D01*
X219080Y629918D01*
X220671Y630577D01*
X221954Y631562D01*
X222073Y631623D01*
X224435Y631465D01*
X224726Y631086D01*
X226092Y630037D01*
X227683Y629378D01*
X229390Y629154D01*
X231097Y629378D01*
X232688Y630037D01*
X234054Y631086D01*
X235103Y632452D01*
X235762Y634043D01*
X235986Y635750D01*
X235762Y637457D01*
X235103Y639048D01*
X234054Y640414D01*
X232688Y641463D01*
X231097Y642122D01*
X229390Y642346D01*
X227683Y642122D01*
X226092Y641463D01*
X224809Y640478D01*
X224690Y640417D01*
X222328Y640575D01*
X222037Y640954D01*
X220671Y642003D01*
X219080Y642662D01*
X217514Y642868D01*
X217486Y642875D01*
X217477Y642876D01*
X217396Y642918D01*
X217272Y642996D01*
X217139Y643092D01*
X216995Y643214D01*
X200936Y659273D01*
X199434Y660277D01*
X197663Y660629D01*
X197662Y660629D01*
X142749D01*
X142651Y660639D01*
X142458Y660671D01*
X142315Y660704D01*
X142228Y660730D01*
X142221Y660737D01*
X142196Y660751D01*
X140943Y661713D01*
X139352Y662372D01*
X137645Y662596D01*
D02*
G37*
G36*
X922000Y648983D02*
X919183Y648612D01*
X916558Y647525D01*
X914305Y645796D01*
X912575Y643541D01*
X911488Y640917D01*
X911117Y638100D01*
X911488Y635283D01*
X912575Y632659D01*
X914305Y630405D01*
X916558Y628675D01*
X919183Y627588D01*
X922000Y627217D01*
X924817Y627588D01*
X927442Y628675D01*
X929696Y630405D01*
X931425Y632659D01*
X932512Y635283D01*
X932883Y638100D01*
X932512Y640917D01*
X931425Y643541D01*
X929696Y645796D01*
X927442Y647525D01*
X924817Y648612D01*
X922000Y648983D01*
D02*
G37*
G36*
X896600D02*
X893783Y648612D01*
X891158Y647525D01*
X888904Y645796D01*
X887175Y643541D01*
X886088Y640917D01*
X885717Y638100D01*
X886088Y635283D01*
X887175Y632659D01*
X888904Y630405D01*
X891158Y628675D01*
X893783Y627588D01*
X896600Y627217D01*
X899417Y627588D01*
X902042Y628675D01*
X904296Y630405D01*
X906025Y632659D01*
X907112Y635283D01*
X907483Y638100D01*
X907112Y640917D01*
X906025Y643541D01*
X904296Y645796D01*
X902042Y647525D01*
X899417Y648612D01*
X896600Y648983D01*
D02*
G37*
G36*
X473273Y637877D02*
X471566Y637653D01*
X469975Y636993D01*
X468609Y635945D01*
X467560Y634579D01*
X466901Y632988D01*
X466677Y631281D01*
X466901Y629574D01*
X467560Y627983D01*
X468609Y626616D01*
X468843Y626436D01*
X469844Y625263D01*
X469191Y623739D01*
X469068Y623578D01*
X468409Y621988D01*
X468184Y620280D01*
X468409Y618573D01*
X469068Y616982D01*
X470116Y615616D01*
X471482Y614568D01*
X473073Y613909D01*
X474780Y613684D01*
X476488Y613909D01*
X478078Y614568D01*
X479445Y615616D01*
X480493Y616982D01*
X481152Y618573D01*
X481377Y620280D01*
X481152Y621988D01*
X480493Y623578D01*
X479445Y624945D01*
X479210Y625125D01*
X478209Y626298D01*
X478863Y627822D01*
X478986Y627983D01*
X479645Y629574D01*
X479869Y631281D01*
X479645Y632988D01*
X478986Y634579D01*
X477938Y635945D01*
X476571Y636993D01*
X474980Y637653D01*
X473273Y637877D01*
D02*
G37*
G36*
X922000Y623583D02*
X919183Y623212D01*
X916558Y622125D01*
X914305Y620396D01*
X912575Y618142D01*
X911488Y615517D01*
X911117Y612700D01*
X911488Y609883D01*
X912575Y607258D01*
X913376Y606214D01*
X912390Y604214D01*
X906210D01*
X905224Y606214D01*
X906025Y607258D01*
X907112Y609883D01*
X907483Y612700D01*
X907112Y615517D01*
X906025Y618142D01*
X904296Y620396D01*
X902042Y622125D01*
X899417Y623212D01*
X896600Y623583D01*
X893783Y623212D01*
X891158Y622125D01*
X888904Y620396D01*
X887175Y618142D01*
X886088Y615517D01*
X885717Y612700D01*
X886088Y609883D01*
X887175Y607258D01*
X887976Y606214D01*
X886990Y604214D01*
X781528D01*
X780035Y606214D01*
X780143Y607030D01*
X779884Y608998D01*
X779124Y610832D01*
X777915Y612407D01*
X776340Y613616D01*
X774506Y614376D01*
X772538Y614635D01*
X770569Y614376D01*
X768735Y613616D01*
X767160Y612407D01*
X765952Y610832D01*
X765192Y608998D01*
X764933Y607030D01*
X764998Y606534D01*
X763363Y604534D01*
X704932D01*
X703651Y604789D01*
X697861D01*
X697860Y604789D01*
X696089Y604437D01*
X694587Y603433D01*
X694587Y603433D01*
X689468Y598314D01*
X689386Y598238D01*
X689133Y598030D01*
X689119Y598020D01*
X689068Y597988D01*
X689030Y597952D01*
X688451Y597713D01*
X687085Y596664D01*
X686036Y595298D01*
X685377Y593707D01*
X685153Y592000D01*
X685377Y590293D01*
X686036Y588702D01*
X687085Y587336D01*
X688451Y586287D01*
X690042Y585628D01*
X691749Y585404D01*
X693456Y585628D01*
X695047Y586287D01*
X696413Y587336D01*
X697462Y588702D01*
X698121Y590293D01*
X698345Y592000D01*
X698121Y593707D01*
X698072Y593825D01*
X699778Y595531D01*
X703651D01*
X704932Y595786D01*
X764457D01*
X765597Y594647D01*
X767016Y593699D01*
X768690Y593366D01*
X776386D01*
X778060Y593699D01*
X779479Y594647D01*
X780298Y595466D01*
X886745D01*
X887731Y593466D01*
X887175Y592742D01*
X886088Y590117D01*
X885717Y587300D01*
X886088Y584483D01*
X887175Y581858D01*
X888904Y579604D01*
X891158Y577875D01*
X893783Y576788D01*
X896600Y576417D01*
X899417Y576788D01*
X902042Y577875D01*
X904296Y579604D01*
X906025Y581858D01*
X907112Y584483D01*
X907483Y587300D01*
X907112Y590117D01*
X906025Y592742D01*
X905469Y593466D01*
X906456Y595466D01*
X912144D01*
X913131Y593466D01*
X912575Y592742D01*
X911488Y590117D01*
X911117Y587300D01*
X911488Y584483D01*
X912575Y581858D01*
X914305Y579604D01*
X916558Y577875D01*
X919183Y576788D01*
X922000Y576417D01*
X924817Y576788D01*
X927442Y577875D01*
X929696Y579604D01*
X931425Y581858D01*
X932512Y584483D01*
X932883Y587300D01*
X932512Y590117D01*
X931425Y592742D01*
X930869Y593466D01*
X931855Y595466D01*
X952449D01*
X952572Y595445D01*
X952680Y595417D01*
X952732Y595398D01*
X952771Y595344D01*
X952913Y595213D01*
X953586Y594336D01*
X954952Y593287D01*
X956543Y592628D01*
X958250Y592404D01*
X959957Y592628D01*
X961548Y593287D01*
X962914Y594336D01*
X963963Y595702D01*
X964622Y597293D01*
X964846Y599000D01*
X964622Y600707D01*
X963963Y602298D01*
X962914Y603664D01*
X961548Y604713D01*
X959957Y605372D01*
X958250Y605596D01*
X956543Y605372D01*
X954952Y604713D01*
X954782Y604582D01*
X954710Y604557D01*
X954563Y604468D01*
X954487Y604431D01*
X954383Y604388D01*
X954286Y604356D01*
X953854Y604256D01*
X953690Y604232D01*
X953457Y604214D01*
X931610D01*
X930624Y606214D01*
X931425Y607258D01*
X932512Y609883D01*
X932883Y612700D01*
X932512Y615517D01*
X931425Y618142D01*
X929696Y620396D01*
X927442Y622125D01*
X924817Y623212D01*
X922000Y623583D01*
D02*
G37*
G36*
X573339Y612263D02*
X571371Y612004D01*
X569537Y611245D01*
X567962Y610036D01*
X566753Y608461D01*
X565993Y606627D01*
X565734Y604658D01*
X565993Y602690D01*
X566753Y600856D01*
X567962Y599281D01*
X569537Y598072D01*
X571371Y597312D01*
X573339Y597053D01*
X575308Y597312D01*
X577142Y598072D01*
X578717Y599281D01*
X579925Y600856D01*
X580685Y602690D01*
X580944Y604658D01*
X580685Y606627D01*
X579925Y608461D01*
X578717Y610036D01*
X577142Y611245D01*
X575308Y612004D01*
X573339Y612263D01*
D02*
G37*
G36*
X376250Y607846D02*
X374543Y607622D01*
X372952Y606963D01*
X371586Y605914D01*
X370537Y604548D01*
X369878Y602957D01*
X369654Y601250D01*
X369878Y599543D01*
X370537Y597952D01*
X371586Y596586D01*
X372952Y595537D01*
X374543Y594878D01*
X376250Y594654D01*
X377957Y594878D01*
X379548Y595537D01*
X380914Y596586D01*
X381963Y597952D01*
X382622Y599543D01*
X382846Y601250D01*
X382622Y602957D01*
X381963Y604548D01*
X380914Y605914D01*
X379548Y606963D01*
X377957Y607622D01*
X376250Y607846D01*
D02*
G37*
G36*
X626010Y596286D02*
X624303Y596062D01*
X622712Y595403D01*
X621346Y594354D01*
X620298Y592988D01*
X619639Y591397D01*
X619414Y589690D01*
X619639Y587983D01*
X620298Y586392D01*
X621346Y585026D01*
X622712Y583977D01*
X624303Y583318D01*
X626010Y583093D01*
X627718Y583318D01*
X629309Y583977D01*
X630675Y585026D01*
X631723Y586392D01*
X632382Y587983D01*
X632607Y589690D01*
X632382Y591397D01*
X631723Y592988D01*
X630675Y594354D01*
X629309Y595403D01*
X627718Y596062D01*
X626010Y596286D01*
D02*
G37*
G36*
X195250Y595096D02*
X193543Y594872D01*
X191952Y594213D01*
X190586Y593164D01*
X189537Y591798D01*
X188878Y590207D01*
X188654Y588500D01*
X188878Y586793D01*
X189537Y585202D01*
X190586Y583836D01*
X191952Y582787D01*
X193543Y582128D01*
X195250Y581904D01*
X196957Y582128D01*
X198548Y582787D01*
X199914Y583836D01*
X200963Y585202D01*
X201622Y586793D01*
X201846Y588500D01*
X201622Y590207D01*
X200963Y591798D01*
X199914Y593164D01*
X198548Y594213D01*
X196957Y594872D01*
X195250Y595096D01*
D02*
G37*
G36*
X826750Y589596D02*
X825043Y589372D01*
X823452Y588713D01*
X822086Y587664D01*
X821037Y586298D01*
X820378Y584707D01*
X820154Y583000D01*
X820378Y581293D01*
X821037Y579702D01*
X822086Y578336D01*
X823452Y577287D01*
X825043Y576628D01*
X826750Y576404D01*
X828457Y576628D01*
X830048Y577287D01*
X831414Y578336D01*
X832463Y579702D01*
X833122Y581293D01*
X833346Y583000D01*
X833122Y584707D01*
X832463Y586298D01*
X831414Y587664D01*
X830048Y588713D01*
X828457Y589372D01*
X826750Y589596D01*
D02*
G37*
G36*
X171082Y586683D02*
X169374Y586458D01*
X167784Y585799D01*
X166417Y584750D01*
X165369Y583384D01*
X164710Y581793D01*
X164485Y580086D01*
X164710Y578379D01*
X165369Y576788D01*
X166417Y575422D01*
X167784Y574373D01*
X169374Y573714D01*
X171082Y573490D01*
X172789Y573714D01*
X174380Y574373D01*
X175746Y575422D01*
X176794Y576788D01*
X177453Y578379D01*
X177678Y580086D01*
X177453Y581793D01*
X176794Y583384D01*
X175746Y584750D01*
X174380Y585799D01*
X172789Y586458D01*
X171082Y586683D01*
D02*
G37*
G36*
X568028Y569883D02*
X566059Y569623D01*
X564225Y568864D01*
X562650Y567655D01*
X561441Y566080D01*
X560682Y564246D01*
X560423Y562277D01*
X560682Y560309D01*
X561441Y558475D01*
X562650Y556900D01*
X564225Y555691D01*
X566059Y554931D01*
X568028Y554672D01*
X569996Y554931D01*
X571830Y555691D01*
X573405Y556900D01*
X574614Y558475D01*
X575374Y560309D01*
X575633Y562277D01*
X575374Y564246D01*
X574614Y566080D01*
X573405Y567655D01*
X571830Y568864D01*
X569996Y569623D01*
X568028Y569883D01*
D02*
G37*
G36*
X922000Y572783D02*
X919183Y572412D01*
X916558Y571325D01*
X914305Y569595D01*
X912575Y567341D01*
X911488Y564717D01*
X911117Y561900D01*
X911488Y559083D01*
X912575Y556459D01*
X914305Y554204D01*
X916558Y552475D01*
X919183Y551388D01*
X922000Y551017D01*
X924817Y551388D01*
X927442Y552475D01*
X929696Y554204D01*
X931425Y556459D01*
X932512Y559083D01*
X932883Y561900D01*
X932512Y564717D01*
X931425Y567341D01*
X929696Y569595D01*
X927442Y571325D01*
X924817Y572412D01*
X922000Y572783D01*
D02*
G37*
G36*
X896600D02*
X893783Y572412D01*
X891158Y571325D01*
X888904Y569595D01*
X887175Y567341D01*
X886088Y564717D01*
X885717Y561900D01*
X886088Y559083D01*
X887175Y556459D01*
X888904Y554204D01*
X891158Y552475D01*
X893783Y551388D01*
X896600Y551017D01*
X899417Y551388D01*
X902042Y552475D01*
X904296Y554204D01*
X906025Y556459D01*
X907112Y559083D01*
X907483Y561900D01*
X907112Y564717D01*
X906025Y567341D01*
X904296Y569595D01*
X902042Y571325D01*
X899417Y572412D01*
X896600Y572783D01*
D02*
G37*
G36*
X775250Y565207D02*
X773281Y564948D01*
X771447Y564188D01*
X769872Y562979D01*
X768664Y561404D01*
X767904Y559570D01*
X767645Y557602D01*
X767904Y555633D01*
X768664Y553799D01*
X769872Y552224D01*
X771447Y551016D01*
X773281Y550256D01*
X775250Y549997D01*
X777218Y550256D01*
X779052Y551016D01*
X780627Y552224D01*
X781836Y553799D01*
X782596Y555633D01*
X782855Y557602D01*
X782596Y559570D01*
X781836Y561404D01*
X780627Y562979D01*
X779052Y564188D01*
X777218Y564948D01*
X775250Y565207D01*
D02*
G37*
G36*
X494080Y561346D02*
X492373Y561122D01*
X490782Y560463D01*
X489416Y559414D01*
X488367Y558048D01*
X487708Y556457D01*
X487484Y554750D01*
X487708Y553043D01*
X488367Y551452D01*
X489416Y550086D01*
X490782Y549037D01*
X492373Y548378D01*
X494080Y548154D01*
X495787Y548378D01*
X497378Y549037D01*
X498744Y550086D01*
X499793Y551452D01*
X500452Y553043D01*
X500676Y554750D01*
X500452Y556457D01*
X499793Y558048D01*
X498744Y559414D01*
X497378Y560463D01*
X495787Y561122D01*
X494080Y561346D01*
D02*
G37*
G36*
X402400Y562335D02*
X399518Y561956D01*
X396832Y560843D01*
X394526Y559074D01*
X392757Y556768D01*
X391644Y554082D01*
X391265Y551200D01*
X391644Y548318D01*
X392757Y545632D01*
X394526Y543326D01*
X396832Y541557D01*
X399518Y540444D01*
X402400Y540065D01*
X405282Y540444D01*
X407968Y541557D01*
X410274Y543326D01*
X412043Y545632D01*
X413156Y548318D01*
X413535Y551200D01*
X413156Y554082D01*
X412043Y556768D01*
X410274Y559074D01*
X407968Y560843D01*
X405282Y561956D01*
X402400Y562335D01*
D02*
G37*
G36*
X377000D02*
X374118Y561956D01*
X371432Y560843D01*
X369126Y559074D01*
X367357Y556768D01*
X366244Y554082D01*
X365865Y551200D01*
X366244Y548318D01*
X367357Y545632D01*
X369126Y543326D01*
X371432Y541557D01*
X374118Y540444D01*
X377000Y540065D01*
X379882Y540444D01*
X382568Y541557D01*
X384874Y543326D01*
X386643Y545632D01*
X387756Y548318D01*
X388135Y551200D01*
X387756Y554082D01*
X386643Y556768D01*
X384874Y559074D01*
X382568Y560843D01*
X379882Y561956D01*
X377000Y562335D01*
D02*
G37*
G36*
X326200D02*
X323318Y561956D01*
X320632Y560843D01*
X318326Y559074D01*
X316557Y556768D01*
X315444Y554082D01*
X315065Y551200D01*
X315444Y548318D01*
X316557Y545632D01*
X318326Y543326D01*
X320632Y541557D01*
X323318Y540444D01*
X326200Y540065D01*
X329082Y540444D01*
X331768Y541557D01*
X334074Y543326D01*
X335843Y545632D01*
X336956Y548318D01*
X337335Y551200D01*
X336956Y554082D01*
X335843Y556768D01*
X334074Y559074D01*
X331768Y560843D01*
X329082Y561956D01*
X326200Y562335D01*
D02*
G37*
G36*
X300800D02*
X297918Y561956D01*
X295232Y560843D01*
X292926Y559074D01*
X291157Y556768D01*
X290044Y554082D01*
X289665Y551200D01*
X290044Y548318D01*
X291157Y545632D01*
X292926Y543326D01*
X295232Y541557D01*
X297918Y540444D01*
X300800Y540065D01*
X303682Y540444D01*
X306368Y541557D01*
X308674Y543326D01*
X310443Y545632D01*
X311556Y548318D01*
X311935Y551200D01*
X311556Y554082D01*
X310443Y556768D01*
X308674Y559074D01*
X306368Y560843D01*
X303682Y561956D01*
X300800Y562335D01*
D02*
G37*
G36*
X275400D02*
X272518Y561956D01*
X269832Y560843D01*
X267526Y559074D01*
X265757Y556768D01*
X264644Y554082D01*
X264265Y551200D01*
X264644Y548318D01*
X265757Y545632D01*
X267526Y543326D01*
X269832Y541557D01*
X272518Y540444D01*
X275400Y540065D01*
X278282Y540444D01*
X280968Y541557D01*
X283274Y543326D01*
X285043Y545632D01*
X286156Y548318D01*
X286535Y551200D01*
X286156Y554082D01*
X285043Y556768D01*
X283274Y559074D01*
X280968Y560843D01*
X278282Y561956D01*
X275400Y562335D01*
D02*
G37*
G36*
X248617Y576570D02*
X246910Y576345D01*
X245319Y575687D01*
X243953Y574638D01*
X242905Y573272D01*
X242246Y571681D01*
X242021Y569974D01*
X242246Y568267D01*
X242905Y566676D01*
X243953Y565309D01*
X245319Y564261D01*
X246424Y563804D01*
X246595Y562121D01*
X246506Y561702D01*
X244432Y560843D01*
X242126Y559074D01*
X240357Y556768D01*
X239244Y554082D01*
X238865Y551200D01*
X239244Y548318D01*
X240357Y545632D01*
X242126Y543326D01*
X244432Y541557D01*
X247118Y540444D01*
X250000Y540065D01*
X252882Y540444D01*
X255568Y541557D01*
X257874Y543326D01*
X259643Y545632D01*
X260756Y548318D01*
X261135Y551200D01*
X260756Y554082D01*
X259643Y556768D01*
X257874Y559074D01*
X255568Y560843D01*
X252882Y561956D01*
X251891Y562086D01*
X251621Y564139D01*
X251915Y564261D01*
X253282Y565309D01*
X254330Y566676D01*
X254989Y568267D01*
X255214Y569974D01*
X254989Y571681D01*
X254330Y573272D01*
X253282Y574638D01*
X251915Y575687D01*
X250325Y576345D01*
X248617Y576570D01*
D02*
G37*
G36*
X224600Y562335D02*
X221718Y561956D01*
X219032Y560843D01*
X216726Y559074D01*
X214957Y556768D01*
X213844Y554082D01*
X213465Y551200D01*
X213844Y548318D01*
X214957Y545632D01*
X216726Y543326D01*
X219032Y541557D01*
X221718Y540444D01*
X224600Y540065D01*
X227482Y540444D01*
X230168Y541557D01*
X232474Y543326D01*
X234243Y545632D01*
X235356Y548318D01*
X235735Y551200D01*
X235356Y554082D01*
X234243Y556768D01*
X232474Y559074D01*
X230168Y560843D01*
X227482Y561956D01*
X224600Y562335D01*
D02*
G37*
G36*
X199200D02*
X196318Y561956D01*
X193632Y560843D01*
X191326Y559074D01*
X189557Y556768D01*
X188444Y554082D01*
X188065Y551200D01*
X188444Y548318D01*
X189557Y545632D01*
X191326Y543326D01*
X193632Y541557D01*
X196318Y540444D01*
X199200Y540065D01*
X202082Y540444D01*
X204768Y541557D01*
X207074Y543326D01*
X208843Y545632D01*
X209956Y548318D01*
X210335Y551200D01*
X209956Y554082D01*
X208843Y556768D01*
X207074Y559074D01*
X204768Y560843D01*
X202082Y561956D01*
X199200Y562335D01*
D02*
G37*
G36*
X173800D02*
X170918Y561956D01*
X168232Y560843D01*
X165926Y559074D01*
X164157Y556768D01*
X163044Y554082D01*
X162665Y551200D01*
X163044Y548318D01*
X164157Y545632D01*
X165926Y543326D01*
X168232Y541557D01*
X170918Y540444D01*
X173800Y540065D01*
X176682Y540444D01*
X179368Y541557D01*
X181674Y543326D01*
X183443Y545632D01*
X184556Y548318D01*
X184935Y551200D01*
X184556Y554082D01*
X183443Y556768D01*
X181674Y559074D01*
X179368Y560843D01*
X176682Y561956D01*
X173800Y562335D01*
D02*
G37*
G36*
X148400D02*
X145518Y561956D01*
X142832Y560843D01*
X140526Y559074D01*
X138757Y556768D01*
X137644Y554082D01*
X137265Y551200D01*
X137644Y548318D01*
X138757Y545632D01*
X140526Y543326D01*
X142832Y541557D01*
X145518Y540444D01*
X148400Y540065D01*
X151282Y540444D01*
X153968Y541557D01*
X156274Y543326D01*
X158043Y545632D01*
X159156Y548318D01*
X159535Y551200D01*
X159156Y554082D01*
X158043Y556768D01*
X156274Y559074D01*
X153968Y560843D01*
X151282Y561956D01*
X148400Y562335D01*
D02*
G37*
G36*
X123000D02*
X120118Y561956D01*
X117432Y560843D01*
X115126Y559074D01*
X113357Y556768D01*
X112244Y554082D01*
X111865Y551200D01*
X112244Y548318D01*
X113357Y545632D01*
X115126Y543326D01*
X117432Y541557D01*
X120118Y540444D01*
X123000Y540065D01*
X125882Y540444D01*
X128568Y541557D01*
X130874Y543326D01*
X132643Y545632D01*
X133756Y548318D01*
X134135Y551200D01*
X133756Y554082D01*
X132643Y556768D01*
X130874Y559074D01*
X128568Y560843D01*
X125882Y561956D01*
X123000Y562335D01*
D02*
G37*
G36*
X97600D02*
X94718Y561956D01*
X92032Y560843D01*
X89726Y559074D01*
X87957Y556768D01*
X86844Y554082D01*
X86465Y551200D01*
X86844Y548318D01*
X87957Y545632D01*
X89726Y543326D01*
X92032Y541557D01*
X94718Y540444D01*
X97600Y540065D01*
X100482Y540444D01*
X103168Y541557D01*
X105474Y543326D01*
X107243Y545632D01*
X108356Y548318D01*
X108735Y551200D01*
X108356Y554082D01*
X107243Y556768D01*
X105474Y559074D01*
X103168Y560843D01*
X100482Y561956D01*
X97600Y562335D01*
D02*
G37*
G36*
X72200D02*
X69318Y561956D01*
X66632Y560843D01*
X64326Y559074D01*
X62557Y556768D01*
X61444Y554082D01*
X61065Y551200D01*
X61444Y548318D01*
X62557Y545632D01*
X64326Y543326D01*
X66632Y541557D01*
X69318Y540444D01*
X72200Y540065D01*
X75082Y540444D01*
X77768Y541557D01*
X80074Y543326D01*
X81843Y545632D01*
X82956Y548318D01*
X83335Y551200D01*
X82956Y554082D01*
X81843Y556768D01*
X80074Y559074D01*
X77768Y560843D01*
X75082Y561956D01*
X72200Y562335D01*
D02*
G37*
G36*
X427800Y562840D02*
X424787Y562443D01*
X421980Y561280D01*
X419570Y559430D01*
X417720Y557020D01*
X416557Y554212D01*
X416161Y551200D01*
X416557Y548187D01*
X417720Y545380D01*
X419570Y542970D01*
X421980Y541120D01*
X424787Y539957D01*
X427800Y539560D01*
X430812Y539957D01*
X433620Y541120D01*
X436030Y542970D01*
X437880Y545380D01*
X439043Y548187D01*
X439440Y551200D01*
X439043Y554212D01*
X437880Y557020D01*
X436030Y559430D01*
X433620Y561280D01*
X430812Y562443D01*
X427800Y562840D01*
D02*
G37*
G36*
X922000Y547383D02*
X919183Y547012D01*
X916558Y545925D01*
X914305Y544196D01*
X912575Y541941D01*
X911488Y539317D01*
X911117Y536500D01*
X911488Y533683D01*
X912575Y531059D01*
X914305Y528805D01*
X916558Y527075D01*
X919183Y525988D01*
X922000Y525617D01*
X924817Y525988D01*
X927442Y527075D01*
X929696Y528805D01*
X931425Y531059D01*
X932512Y533683D01*
X932883Y536500D01*
X932512Y539317D01*
X931425Y541941D01*
X929696Y544196D01*
X927442Y545925D01*
X924817Y547012D01*
X922000Y547383D01*
D02*
G37*
G36*
X896600D02*
X893783Y547012D01*
X891158Y545925D01*
X888904Y544196D01*
X887175Y541941D01*
X886088Y539317D01*
X885717Y536500D01*
X886088Y533683D01*
X887175Y531059D01*
X888904Y528805D01*
X891158Y527075D01*
X893783Y525988D01*
X896600Y525617D01*
X899417Y525988D01*
X902042Y527075D01*
X904296Y528805D01*
X906025Y531059D01*
X907112Y533683D01*
X907483Y536500D01*
X907112Y539317D01*
X906025Y541941D01*
X904296Y544196D01*
X902042Y545925D01*
X899417Y547012D01*
X896600Y547383D01*
D02*
G37*
G36*
X491750Y538806D02*
X490043Y538582D01*
X488452Y537923D01*
X487086Y536874D01*
X486037Y535508D01*
X485378Y533917D01*
X485154Y532210D01*
X485378Y530503D01*
X486037Y528912D01*
X487086Y527546D01*
X488452Y526497D01*
X490043Y525838D01*
X491750Y525614D01*
X493457Y525838D01*
X495048Y526497D01*
X496414Y527546D01*
X497463Y528912D01*
X498122Y530503D01*
X498346Y532210D01*
X498122Y533917D01*
X497463Y535508D01*
X496414Y536874D01*
X495048Y537923D01*
X493457Y538582D01*
X491750Y538806D01*
D02*
G37*
G36*
X625426Y538522D02*
X623718Y538298D01*
X622128Y537639D01*
X620761Y536590D01*
X619713Y535224D01*
X619054Y533633D01*
X618829Y531926D01*
X619054Y530219D01*
X619713Y528628D01*
X620761Y527261D01*
X622128Y526213D01*
X623718Y525554D01*
X625426Y525329D01*
X627133Y525554D01*
X628724Y526213D01*
X630090Y527261D01*
X631138Y528628D01*
X631797Y530219D01*
X632022Y531926D01*
X631797Y533633D01*
X631138Y535224D01*
X630090Y536590D01*
X628724Y537639D01*
X627133Y538298D01*
X625426Y538522D01*
D02*
G37*
G36*
X797614Y536399D02*
X795907Y536175D01*
X794316Y535516D01*
X792950Y534467D01*
X791902Y533101D01*
X791243Y531510D01*
X791018Y529803D01*
X791243Y528096D01*
X791902Y526505D01*
X792950Y525139D01*
X794316Y524090D01*
X795907Y523431D01*
X797614Y523207D01*
X799322Y523431D01*
X800913Y524090D01*
X802279Y525139D01*
X803327Y526505D01*
X803986Y528096D01*
X804211Y529803D01*
X803986Y531510D01*
X803327Y533101D01*
X802279Y534467D01*
X800913Y535516D01*
X799322Y536175D01*
X797614Y536399D01*
D02*
G37*
G36*
X315500Y535346D02*
X313793Y535122D01*
X312202Y534463D01*
X310836Y533414D01*
X309787Y532048D01*
X309128Y530457D01*
X308904Y528750D01*
X309128Y527043D01*
X309787Y525452D01*
X310836Y524086D01*
X312202Y523037D01*
X313793Y522378D01*
X315500Y522154D01*
X317207Y522378D01*
X318798Y523037D01*
X320164Y524086D01*
X321213Y525452D01*
X321872Y527043D01*
X322096Y528750D01*
X321872Y530457D01*
X321213Y532048D01*
X320164Y533414D01*
X318798Y534463D01*
X317207Y535122D01*
X315500Y535346D01*
D02*
G37*
G36*
X572110Y526855D02*
X570141Y526596D01*
X568307Y525836D01*
X566732Y524628D01*
X565524Y523052D01*
X564764Y521218D01*
X564505Y519250D01*
X564764Y517282D01*
X565524Y515448D01*
X566732Y513872D01*
X568307Y512664D01*
X570141Y511904D01*
X572110Y511645D01*
X574078Y511904D01*
X575912Y512664D01*
X577487Y513872D01*
X578696Y515448D01*
X579456Y517282D01*
X579715Y519250D01*
X579456Y521218D01*
X578696Y523052D01*
X577487Y524628D01*
X575912Y525836D01*
X574078Y526596D01*
X572110Y526855D01*
D02*
G37*
G36*
X433500Y518346D02*
X431793Y518122D01*
X430202Y517463D01*
X428836Y516414D01*
X427787Y515048D01*
X427128Y513457D01*
X426904Y511750D01*
X427128Y510043D01*
X427787Y508452D01*
X428836Y507086D01*
X430202Y506037D01*
X431793Y505378D01*
X433500Y505154D01*
X435207Y505378D01*
X436798Y506037D01*
X438164Y507086D01*
X439213Y508452D01*
X439872Y510043D01*
X440096Y511750D01*
X439872Y513457D01*
X439213Y515048D01*
X438164Y516414D01*
X436798Y517463D01*
X435207Y518122D01*
X433500Y518346D01*
D02*
G37*
G36*
X465900Y516596D02*
X464193Y516372D01*
X462602Y515713D01*
X461236Y514664D01*
X460187Y513298D01*
X459528Y511707D01*
X459304Y510000D01*
X459528Y508293D01*
X460187Y506702D01*
X461236Y505336D01*
X462602Y504287D01*
X464193Y503628D01*
X465900Y503404D01*
X467607Y503628D01*
X469198Y504287D01*
X470564Y505336D01*
X471613Y506702D01*
X472272Y508293D01*
X472496Y510000D01*
X472272Y511707D01*
X471613Y513298D01*
X470564Y514664D01*
X469198Y515713D01*
X467607Y516372D01*
X465900Y516596D01*
D02*
G37*
G36*
X922000Y521983D02*
X919183Y521612D01*
X916558Y520525D01*
X914305Y518796D01*
X912575Y516541D01*
X911488Y513917D01*
X911117Y511100D01*
X911488Y508283D01*
X912575Y505658D01*
X914305Y503405D01*
X916558Y501675D01*
X919183Y500588D01*
X922000Y500217D01*
X924817Y500588D01*
X927442Y501675D01*
X929696Y503405D01*
X931425Y505658D01*
X932512Y508283D01*
X932883Y511100D01*
X932512Y513917D01*
X931425Y516541D01*
X929696Y518796D01*
X927442Y520525D01*
X924817Y521612D01*
X922000Y521983D01*
D02*
G37*
G36*
X896600D02*
X893783Y521612D01*
X891158Y520525D01*
X888904Y518796D01*
X887175Y516541D01*
X886088Y513917D01*
X885717Y511100D01*
X886088Y508283D01*
X887175Y505658D01*
X888904Y503405D01*
X891158Y501675D01*
X893783Y500588D01*
X896600Y500217D01*
X899417Y500588D01*
X902042Y501675D01*
X904296Y503405D01*
X906025Y505658D01*
X907112Y508283D01*
X907483Y511100D01*
X907112Y513917D01*
X906025Y516541D01*
X904296Y518796D01*
X902042Y520525D01*
X899417Y521612D01*
X896600Y521983D01*
D02*
G37*
G36*
X947000Y506596D02*
X945293Y506372D01*
X943702Y505713D01*
X942336Y504664D01*
X941287Y503298D01*
X940628Y501707D01*
X940404Y500000D01*
X940628Y498293D01*
X941287Y496702D01*
X942336Y495336D01*
X943702Y494287D01*
X945293Y493628D01*
X947000Y493404D01*
X948707Y493628D01*
X950298Y494287D01*
X951664Y495336D01*
X952713Y496702D01*
X953372Y498293D01*
X953596Y500000D01*
X953372Y501707D01*
X952713Y503298D01*
X951664Y504664D01*
X950298Y505713D01*
X948707Y506372D01*
X947000Y506596D01*
D02*
G37*
G36*
X774460Y496971D02*
X772492Y496712D01*
X770658Y495952D01*
X769082Y494744D01*
X767874Y493169D01*
X767114Y491335D01*
X766855Y489366D01*
X767114Y487398D01*
X767874Y485564D01*
X769082Y483989D01*
X770658Y482780D01*
X772492Y482020D01*
X774460Y481761D01*
X776428Y482020D01*
X778262Y482780D01*
X779838Y483989D01*
X781046Y485564D01*
X781806Y487398D01*
X782065Y489366D01*
X781806Y491335D01*
X781046Y493169D01*
X779838Y494744D01*
X778262Y495952D01*
X776428Y496712D01*
X774460Y496971D01*
D02*
G37*
G36*
X496820Y489399D02*
X495112Y489175D01*
X493521Y488516D01*
X492155Y487467D01*
X491107Y486101D01*
X490448Y484510D01*
X490223Y482803D01*
X490448Y481096D01*
X491107Y479505D01*
X492155Y478139D01*
X493521Y477090D01*
X495112Y476431D01*
X496820Y476207D01*
X498527Y476431D01*
X500118Y477090D01*
X501484Y478139D01*
X502532Y479505D01*
X503191Y481096D01*
X503416Y482803D01*
X503191Y484510D01*
X502532Y486101D01*
X501484Y487467D01*
X500118Y488516D01*
X498527Y489175D01*
X496820Y489399D01*
D02*
G37*
G36*
X922000Y496583D02*
X919183Y496212D01*
X916558Y495125D01*
X914305Y493396D01*
X912575Y491142D01*
X911488Y488517D01*
X911117Y485700D01*
X911488Y482883D01*
X912575Y480258D01*
X914305Y478004D01*
X916558Y476275D01*
X919183Y475188D01*
X922000Y474817D01*
X924817Y475188D01*
X927442Y476275D01*
X929696Y478004D01*
X931425Y480258D01*
X932512Y482883D01*
X932883Y485700D01*
X932512Y488517D01*
X931425Y491142D01*
X929696Y493396D01*
X927442Y495125D01*
X924817Y496212D01*
X922000Y496583D01*
D02*
G37*
G36*
X896600D02*
X893783Y496212D01*
X891158Y495125D01*
X888904Y493396D01*
X887175Y491142D01*
X886088Y488517D01*
X885717Y485700D01*
X886088Y482883D01*
X887175Y480258D01*
X888904Y478004D01*
X891158Y476275D01*
X893783Y475188D01*
X896600Y474817D01*
X899417Y475188D01*
X902042Y476275D01*
X904296Y478004D01*
X906025Y480258D01*
X907112Y482883D01*
X907483Y485700D01*
X907112Y488517D01*
X906025Y491142D01*
X904296Y493396D01*
X902042Y495125D01*
X899417Y496212D01*
X896600Y496583D01*
D02*
G37*
G36*
X802670Y487136D02*
X800962Y486912D01*
X799371Y486253D01*
X798005Y485204D01*
X796957Y483838D01*
X796298Y482247D01*
X796073Y480540D01*
X796298Y478833D01*
X796957Y477242D01*
X798005Y475876D01*
X799371Y474827D01*
X800962Y474168D01*
X802670Y473944D01*
X804377Y474168D01*
X805968Y474827D01*
X807334Y475876D01*
X808382Y477242D01*
X809041Y478833D01*
X809266Y480540D01*
X809041Y482247D01*
X808382Y483838D01*
X807334Y485204D01*
X805968Y486253D01*
X804377Y486912D01*
X802670Y487136D01*
D02*
G37*
G36*
X718873Y476883D02*
X717165Y476658D01*
X715574Y475999D01*
X714208Y474951D01*
X713160Y473585D01*
X712501Y471994D01*
X712276Y470286D01*
X712501Y468579D01*
X713160Y466988D01*
X714208Y465622D01*
X715574Y464574D01*
X717165Y463915D01*
X718873Y463690D01*
X720580Y463915D01*
X722171Y464574D01*
X723537Y465622D01*
X724585Y466988D01*
X725244Y468579D01*
X725469Y470286D01*
X725244Y471994D01*
X724585Y473585D01*
X723537Y474951D01*
X722171Y475999D01*
X720580Y476658D01*
X718873Y476883D01*
D02*
G37*
G36*
X569570Y466900D02*
X567601Y466641D01*
X565767Y465881D01*
X564192Y464672D01*
X562984Y463097D01*
X562224Y461263D01*
X561965Y459295D01*
X562224Y457326D01*
X562984Y455492D01*
X564192Y453917D01*
X565767Y452709D01*
X567601Y451949D01*
X569570Y451690D01*
X571538Y451949D01*
X573372Y452709D01*
X574947Y453917D01*
X576156Y455492D01*
X576916Y457326D01*
X577175Y459295D01*
X576916Y461263D01*
X576156Y463097D01*
X574947Y464672D01*
X573372Y465881D01*
X571538Y466641D01*
X569570Y466900D01*
D02*
G37*
G36*
X771699Y466604D02*
X769731Y466345D01*
X767897Y465585D01*
X766321Y464377D01*
X765113Y462802D01*
X764353Y460967D01*
X764094Y458999D01*
X764353Y457031D01*
X765113Y455196D01*
X766321Y453621D01*
X767897Y452413D01*
X769731Y451653D01*
X771699Y451394D01*
X773667Y451653D01*
X775502Y452413D01*
X777077Y453621D01*
X778285Y455196D01*
X779045Y457031D01*
X779304Y458999D01*
X779045Y460967D01*
X778285Y462802D01*
X777077Y464377D01*
X775502Y465585D01*
X773667Y466345D01*
X771699Y466604D01*
D02*
G37*
G36*
X922000Y471183D02*
X919183Y470812D01*
X916558Y469725D01*
X914305Y467995D01*
X912575Y465742D01*
X911488Y463117D01*
X911117Y460300D01*
X911488Y457483D01*
X912575Y454859D01*
X914305Y452604D01*
X916558Y450875D01*
X919183Y449788D01*
X922000Y449417D01*
X924817Y449788D01*
X927442Y450875D01*
X929696Y452604D01*
X931425Y454859D01*
X932512Y457483D01*
X932883Y460300D01*
X932512Y463117D01*
X931425Y465742D01*
X929696Y467995D01*
X927442Y469725D01*
X924817Y470812D01*
X922000Y471183D01*
D02*
G37*
G36*
X896600D02*
X893783Y470812D01*
X891158Y469725D01*
X888904Y467995D01*
X887175Y465742D01*
X886088Y463117D01*
X885717Y460300D01*
X886088Y457483D01*
X887175Y454859D01*
X888904Y452604D01*
X891158Y450875D01*
X893783Y449788D01*
X896600Y449417D01*
X899417Y449788D01*
X902042Y450875D01*
X904296Y452604D01*
X906025Y454859D01*
X907112Y457483D01*
X907483Y460300D01*
X907112Y463117D01*
X906025Y465742D01*
X904296Y467995D01*
X902042Y469725D01*
X899417Y470812D01*
X896600Y471183D01*
D02*
G37*
G36*
X242500Y461596D02*
X240793Y461372D01*
X239202Y460713D01*
X237836Y459664D01*
X236787Y458298D01*
X236128Y456707D01*
X235904Y455000D01*
X236128Y453293D01*
X236787Y451702D01*
X237836Y450336D01*
X239202Y449287D01*
X240793Y448628D01*
X242500Y448404D01*
X244207Y448628D01*
X245798Y449287D01*
X247164Y450336D01*
X248213Y451702D01*
X248872Y453293D01*
X249096Y455000D01*
X248872Y456707D01*
X248213Y458298D01*
X247164Y459664D01*
X245798Y460713D01*
X244207Y461372D01*
X242500Y461596D01*
D02*
G37*
G36*
X459090Y489620D02*
X457383Y489395D01*
X455792Y488736D01*
X454426Y487688D01*
X453377Y486322D01*
X452718Y484731D01*
X452494Y483024D01*
X452718Y481316D01*
X453377Y479725D01*
X452476Y477614D01*
X451869Y477148D01*
X450820Y475782D01*
X450162Y474191D01*
X449937Y472484D01*
X450162Y470776D01*
X450820Y469185D01*
X450133Y466796D01*
X449823Y466559D01*
X448774Y465192D01*
X448116Y463601D01*
X447891Y461894D01*
X448116Y460187D01*
X448774Y458596D01*
X449823Y457230D01*
X451189Y456182D01*
X451324Y456126D01*
X451612Y453841D01*
X451145Y453483D01*
X450097Y452117D01*
X449437Y450526D01*
X449213Y448818D01*
X449437Y447111D01*
X450097Y445520D01*
X451145Y444154D01*
X452511Y443106D01*
X454102Y442447D01*
X455809Y442222D01*
X457517Y442447D01*
X459107Y443106D01*
X460474Y444154D01*
X461522Y445520D01*
X462181Y447111D01*
X462406Y448818D01*
X462181Y450526D01*
X461522Y452117D01*
X460474Y453483D01*
X459107Y454531D01*
X458973Y454587D01*
X458684Y456871D01*
X459151Y457230D01*
X460200Y458596D01*
X460859Y460187D01*
X461084Y461894D01*
X460859Y463601D01*
X460200Y465192D01*
X460888Y467581D01*
X461198Y467819D01*
X462246Y469185D01*
X462905Y470776D01*
X463130Y472484D01*
X462905Y474191D01*
X462246Y475782D01*
X463147Y477893D01*
X463754Y478359D01*
X464803Y479725D01*
X465462Y481316D01*
X465686Y483024D01*
X465462Y484731D01*
X464803Y486322D01*
X463754Y487688D01*
X462388Y488736D01*
X460797Y489395D01*
X459090Y489620D01*
D02*
G37*
G36*
X922000Y445783D02*
X919183Y445412D01*
X916558Y444325D01*
X914305Y442595D01*
X912575Y440341D01*
X911488Y437717D01*
X911117Y434900D01*
X911488Y432083D01*
X912575Y429459D01*
X914305Y427205D01*
X916558Y425475D01*
X919183Y424388D01*
X922000Y424017D01*
X924817Y424388D01*
X927442Y425475D01*
X929696Y427205D01*
X931425Y429459D01*
X932512Y432083D01*
X932883Y434900D01*
X932512Y437717D01*
X931425Y440341D01*
X929696Y442595D01*
X927442Y444325D01*
X924817Y445412D01*
X922000Y445783D01*
D02*
G37*
G36*
X641530Y436596D02*
X639823Y436372D01*
X638232Y435713D01*
X636866Y434664D01*
X635817Y433298D01*
X635158Y431707D01*
X634933Y430000D01*
X635158Y428293D01*
X635817Y426702D01*
X636866Y425336D01*
X638232Y424287D01*
X639823Y423628D01*
X641530Y423404D01*
X643237Y423628D01*
X644828Y424287D01*
X646194Y425336D01*
X647243Y426702D01*
X647902Y428293D01*
X648126Y430000D01*
X647902Y431707D01*
X647243Y433298D01*
X646194Y434664D01*
X644828Y435713D01*
X643237Y436372D01*
X641530Y436596D01*
D02*
G37*
G36*
X480960Y447118D02*
X479253Y446893D01*
X477662Y446234D01*
X476296Y445186D01*
X475247Y443820D01*
X474588Y442229D01*
X474364Y440522D01*
X474588Y438814D01*
X474980Y437869D01*
X474024Y436241D01*
X473687Y435971D01*
X472173Y435772D01*
X470582Y435113D01*
X469216Y434064D01*
X468167Y432698D01*
X467508Y431107D01*
X467284Y429400D01*
X467362Y428801D01*
X465978Y427073D01*
X465661Y426945D01*
X464193Y426751D01*
X462602Y426092D01*
X461236Y425044D01*
X460187Y423678D01*
X459528Y422087D01*
X459304Y420380D01*
X459528Y418672D01*
X460187Y417082D01*
X461236Y415715D01*
X462602Y414667D01*
X464193Y414008D01*
X465900Y413783D01*
X467607Y414008D01*
X469198Y414667D01*
X470564Y415715D01*
X471613Y417082D01*
X472272Y418672D01*
X472439Y419943D01*
X474404Y419750D01*
X474628Y418043D01*
X475287Y416452D01*
X476336Y415086D01*
X477702Y414037D01*
X479293Y413378D01*
X481000Y413154D01*
X482707Y413378D01*
X484298Y414037D01*
X485664Y415086D01*
X486713Y416452D01*
X487372Y418043D01*
X487596Y419750D01*
X487372Y421457D01*
X486713Y423048D01*
X485664Y424414D01*
X484298Y425463D01*
X482707Y426122D01*
X481814Y426239D01*
X480665Y427308D01*
X480328Y428275D01*
X480476Y429400D01*
X480252Y431107D01*
X479860Y432053D01*
X480816Y433680D01*
X481153Y433950D01*
X482667Y434150D01*
X484258Y434809D01*
X485624Y435857D01*
X486673Y437223D01*
X487332Y438814D01*
X487556Y440522D01*
X487332Y442229D01*
X486673Y443820D01*
X485624Y445186D01*
X484258Y446234D01*
X482667Y446893D01*
X480960Y447118D01*
D02*
G37*
G36*
X560000Y414096D02*
X558293Y413872D01*
X556702Y413213D01*
X556500Y413058D01*
X555000Y412328D01*
X553500Y413058D01*
X553298Y413213D01*
X551707Y413872D01*
X550000Y414096D01*
X548293Y413872D01*
X546702Y413213D01*
X545336Y412164D01*
X544287Y410798D01*
X543628Y409207D01*
X543404Y407500D01*
X543628Y405793D01*
X543293Y403872D01*
X541702Y403213D01*
X540336Y402164D01*
X539287Y400798D01*
X538628Y399207D01*
X538404Y397500D01*
X538498Y396786D01*
X538293Y394742D01*
X536702Y394083D01*
X535336Y393034D01*
X534287Y391668D01*
X533628Y390077D01*
X533404Y388370D01*
X533628Y386663D01*
X534287Y385072D01*
X535336Y383706D01*
X536702Y382657D01*
X538293Y381998D01*
X540000Y381774D01*
X541707Y381998D01*
X543298Y382657D01*
X543500Y382812D01*
X545000Y383542D01*
X546500Y382812D01*
X546702Y382657D01*
X548293Y381998D01*
X550000Y381774D01*
X551707Y381998D01*
X553298Y382657D01*
X554664Y383706D01*
X555713Y385072D01*
X556372Y386663D01*
X556596Y388370D01*
X556372Y390077D01*
X557897Y391621D01*
X558298Y391787D01*
X559664Y392836D01*
X560713Y394202D01*
X561372Y395793D01*
X561596Y397500D01*
X561372Y399207D01*
X561707Y401128D01*
X563298Y401787D01*
X564664Y402836D01*
X565713Y404202D01*
X566372Y405793D01*
X566596Y407500D01*
X566372Y409207D01*
X565713Y410798D01*
X564664Y412164D01*
X563298Y413213D01*
X561707Y413872D01*
X560000Y414096D01*
D02*
G37*
G36*
X808304Y415626D02*
X806597Y415401D01*
X805006Y414743D01*
X803640Y413694D01*
X802592Y412328D01*
X801933Y410737D01*
X801708Y409030D01*
X801933Y407323D01*
X802592Y405732D01*
X803640Y404365D01*
X805006Y403317D01*
X806597Y402658D01*
X808304Y402433D01*
X810012Y402658D01*
X811603Y403317D01*
X812969Y404365D01*
X814017Y405732D01*
X814676Y407323D01*
X814901Y409030D01*
X814676Y410737D01*
X814017Y412328D01*
X812969Y413694D01*
X811603Y414743D01*
X810012Y415401D01*
X808304Y415626D01*
D02*
G37*
G36*
X590492Y410546D02*
X588785Y410322D01*
X587194Y409663D01*
X585828Y408614D01*
X584779Y407248D01*
X584120Y405657D01*
X583896Y403950D01*
X584120Y402243D01*
X584779Y400652D01*
X585828Y399286D01*
X587194Y398237D01*
X588785Y397578D01*
X590492Y397354D01*
X592199Y397578D01*
X593790Y398237D01*
X595157Y399286D01*
X596205Y400652D01*
X596864Y402243D01*
X597089Y403950D01*
X596864Y405657D01*
X596205Y407248D01*
X595157Y408614D01*
X593790Y409663D01*
X592199Y410322D01*
X590492Y410546D01*
D02*
G37*
G36*
X497500Y409596D02*
X495793Y409372D01*
X494202Y408713D01*
X492836Y407664D01*
X491787Y406298D01*
X491128Y404707D01*
X490904Y403000D01*
X491128Y401293D01*
X491787Y399702D01*
X492836Y398336D01*
X494202Y397287D01*
X495793Y396628D01*
X497500Y396404D01*
X499207Y396628D01*
X500798Y397287D01*
X502164Y398336D01*
X503213Y399702D01*
X503872Y401293D01*
X504096Y403000D01*
X503872Y404707D01*
X503213Y406298D01*
X502164Y407664D01*
X500798Y408713D01*
X499207Y409372D01*
X497500Y409596D01*
D02*
G37*
G36*
X427800Y409935D02*
X424918Y409556D01*
X422232Y408443D01*
X419926Y406674D01*
X418157Y404368D01*
X417044Y401682D01*
X416665Y398800D01*
X417044Y395918D01*
X418157Y393232D01*
X419926Y390926D01*
X422232Y389157D01*
X424918Y388044D01*
X427800Y387665D01*
X430682Y388044D01*
X433368Y389157D01*
X435674Y390926D01*
X437443Y393232D01*
X438556Y395918D01*
X438935Y398800D01*
X438556Y401682D01*
X437443Y404368D01*
X435674Y406674D01*
X433368Y408443D01*
X430682Y409556D01*
X427800Y409935D01*
D02*
G37*
G36*
X377000D02*
X374118Y409556D01*
X371432Y408443D01*
X369126Y406674D01*
X367357Y404368D01*
X366244Y401682D01*
X365865Y398800D01*
X366244Y395918D01*
X367357Y393232D01*
X369126Y390926D01*
X371432Y389157D01*
X374118Y388044D01*
X377000Y387665D01*
X379882Y388044D01*
X382568Y389157D01*
X384874Y390926D01*
X386643Y393232D01*
X387756Y395918D01*
X388135Y398800D01*
X387756Y401682D01*
X386643Y404368D01*
X384874Y406674D01*
X382568Y408443D01*
X379882Y409556D01*
X377000Y409935D01*
D02*
G37*
G36*
X351600D02*
X348718Y409556D01*
X346032Y408443D01*
X343726Y406674D01*
X341957Y404368D01*
X340844Y401682D01*
X340465Y398800D01*
X340844Y395918D01*
X341957Y393232D01*
X343726Y390926D01*
X346032Y389157D01*
X348718Y388044D01*
X351600Y387665D01*
X354482Y388044D01*
X357168Y389157D01*
X359474Y390926D01*
X361243Y393232D01*
X362356Y395918D01*
X362735Y398800D01*
X362356Y401682D01*
X361243Y404368D01*
X359474Y406674D01*
X357168Y408443D01*
X354482Y409556D01*
X351600Y409935D01*
D02*
G37*
G36*
X326200D02*
X323318Y409556D01*
X320632Y408443D01*
X318326Y406674D01*
X316557Y404368D01*
X315444Y401682D01*
X315065Y398800D01*
X315444Y395918D01*
X316557Y393232D01*
X318326Y390926D01*
X320632Y389157D01*
X323318Y388044D01*
X326200Y387665D01*
X329082Y388044D01*
X331768Y389157D01*
X334074Y390926D01*
X335843Y393232D01*
X336956Y395918D01*
X337335Y398800D01*
X336956Y401682D01*
X335843Y404368D01*
X334074Y406674D01*
X331768Y408443D01*
X329082Y409556D01*
X326200Y409935D01*
D02*
G37*
G36*
X300800D02*
X297918Y409556D01*
X295232Y408443D01*
X292926Y406674D01*
X291157Y404368D01*
X290044Y401682D01*
X289665Y398800D01*
X290044Y395918D01*
X291157Y393232D01*
X292926Y390926D01*
X295232Y389157D01*
X297918Y388044D01*
X300800Y387665D01*
X303682Y388044D01*
X306368Y389157D01*
X308674Y390926D01*
X310443Y393232D01*
X311556Y395918D01*
X311935Y398800D01*
X311556Y401682D01*
X310443Y404368D01*
X308674Y406674D01*
X306368Y408443D01*
X303682Y409556D01*
X300800Y409935D01*
D02*
G37*
G36*
X275400D02*
X272518Y409556D01*
X269832Y408443D01*
X267526Y406674D01*
X265757Y404368D01*
X264644Y401682D01*
X264265Y398800D01*
X264644Y395918D01*
X265757Y393232D01*
X267526Y390926D01*
X269832Y389157D01*
X272518Y388044D01*
X275400Y387665D01*
X278282Y388044D01*
X280968Y389157D01*
X283274Y390926D01*
X285043Y393232D01*
X286156Y395918D01*
X286535Y398800D01*
X286156Y401682D01*
X285043Y404368D01*
X283274Y406674D01*
X280968Y408443D01*
X278282Y409556D01*
X275400Y409935D01*
D02*
G37*
G36*
X250000D02*
X247118Y409556D01*
X244432Y408443D01*
X242126Y406674D01*
X240357Y404368D01*
X239244Y401682D01*
X238865Y398800D01*
X239244Y395918D01*
X240357Y393232D01*
X242126Y390926D01*
X244432Y389157D01*
X247118Y388044D01*
X250000Y387665D01*
X252882Y388044D01*
X255568Y389157D01*
X257874Y390926D01*
X259643Y393232D01*
X260756Y395918D01*
X261135Y398800D01*
X260756Y401682D01*
X259643Y404368D01*
X257874Y406674D01*
X255568Y408443D01*
X252882Y409556D01*
X250000Y409935D01*
D02*
G37*
G36*
X224600D02*
X221718Y409556D01*
X219032Y408443D01*
X216726Y406674D01*
X214957Y404368D01*
X213844Y401682D01*
X213465Y398800D01*
X213844Y395918D01*
X214957Y393232D01*
X216726Y390926D01*
X219032Y389157D01*
X221718Y388044D01*
X224600Y387665D01*
X227482Y388044D01*
X230168Y389157D01*
X232474Y390926D01*
X234243Y393232D01*
X235356Y395918D01*
X235735Y398800D01*
X235356Y401682D01*
X234243Y404368D01*
X232474Y406674D01*
X230168Y408443D01*
X227482Y409556D01*
X224600Y409935D01*
D02*
G37*
G36*
X199200D02*
X196318Y409556D01*
X193632Y408443D01*
X191326Y406674D01*
X189557Y404368D01*
X188444Y401682D01*
X188065Y398800D01*
X188444Y395918D01*
X189557Y393232D01*
X191326Y390926D01*
X193632Y389157D01*
X196318Y388044D01*
X199200Y387665D01*
X202082Y388044D01*
X204768Y389157D01*
X207074Y390926D01*
X208843Y393232D01*
X209956Y395918D01*
X210335Y398800D01*
X209956Y401682D01*
X208843Y404368D01*
X207074Y406674D01*
X204768Y408443D01*
X202082Y409556D01*
X199200Y409935D01*
D02*
G37*
G36*
X173800D02*
X170918Y409556D01*
X168232Y408443D01*
X165926Y406674D01*
X164157Y404368D01*
X163044Y401682D01*
X162665Y398800D01*
X163044Y395918D01*
X164157Y393232D01*
X165926Y390926D01*
X168232Y389157D01*
X170918Y388044D01*
X173800Y387665D01*
X176682Y388044D01*
X179368Y389157D01*
X181674Y390926D01*
X183443Y393232D01*
X184556Y395918D01*
X184935Y398800D01*
X184556Y401682D01*
X183443Y404368D01*
X181674Y406674D01*
X179368Y408443D01*
X176682Y409556D01*
X173800Y409935D01*
D02*
G37*
G36*
X148400D02*
X145518Y409556D01*
X142832Y408443D01*
X140526Y406674D01*
X138757Y404368D01*
X137644Y401682D01*
X137265Y398800D01*
X137644Y395918D01*
X138757Y393232D01*
X140526Y390926D01*
X142832Y389157D01*
X145518Y388044D01*
X148400Y387665D01*
X151282Y388044D01*
X153968Y389157D01*
X156274Y390926D01*
X158043Y393232D01*
X159156Y395918D01*
X159535Y398800D01*
X159156Y401682D01*
X158043Y404368D01*
X156274Y406674D01*
X153968Y408443D01*
X151282Y409556D01*
X148400Y409935D01*
D02*
G37*
G36*
X123000D02*
X120118Y409556D01*
X117432Y408443D01*
X115126Y406674D01*
X113357Y404368D01*
X112244Y401682D01*
X111865Y398800D01*
X112244Y395918D01*
X113357Y393232D01*
X115126Y390926D01*
X117432Y389157D01*
X120118Y388044D01*
X123000Y387665D01*
X125882Y388044D01*
X128568Y389157D01*
X130874Y390926D01*
X132643Y393232D01*
X133756Y395918D01*
X134135Y398800D01*
X133756Y401682D01*
X132643Y404368D01*
X130874Y406674D01*
X128568Y408443D01*
X125882Y409556D01*
X123000Y409935D01*
D02*
G37*
G36*
X97600D02*
X94718Y409556D01*
X92032Y408443D01*
X89726Y406674D01*
X87957Y404368D01*
X86844Y401682D01*
X86465Y398800D01*
X86844Y395918D01*
X87957Y393232D01*
X89726Y390926D01*
X92032Y389157D01*
X94718Y388044D01*
X97600Y387665D01*
X100482Y388044D01*
X103168Y389157D01*
X105474Y390926D01*
X107243Y393232D01*
X108356Y395918D01*
X108735Y398800D01*
X108356Y401682D01*
X107243Y404368D01*
X105474Y406674D01*
X103168Y408443D01*
X100482Y409556D01*
X97600Y409935D01*
D02*
G37*
G36*
X72200D02*
X69318Y409556D01*
X66632Y408443D01*
X64326Y406674D01*
X62557Y404368D01*
X61444Y401682D01*
X61065Y398800D01*
X61444Y395918D01*
X62557Y393232D01*
X64326Y390926D01*
X66632Y389157D01*
X69318Y388044D01*
X72200Y387665D01*
X75082Y388044D01*
X77768Y389157D01*
X80074Y390926D01*
X81843Y393232D01*
X82956Y395918D01*
X83335Y398800D01*
X82956Y401682D01*
X81843Y404368D01*
X80074Y406674D01*
X77768Y408443D01*
X75082Y409556D01*
X72200Y409935D01*
D02*
G37*
G36*
X601665Y394966D02*
X599958Y394742D01*
X598367Y394083D01*
X597001Y393034D01*
X595952Y391668D01*
X595293Y390077D01*
X595069Y388370D01*
X595293Y386663D01*
X595952Y385072D01*
X597001Y383706D01*
X598367Y382657D01*
X599958Y381998D01*
X601665Y381774D01*
X603372Y381998D01*
X604963Y382657D01*
X606329Y383706D01*
X607378Y385072D01*
X608037Y386663D01*
X608261Y388370D01*
X608037Y390077D01*
X607378Y391668D01*
X606329Y393034D01*
X604963Y394083D01*
X603372Y394742D01*
X601665Y394966D01*
D02*
G37*
G36*
X487000D02*
X485293Y394742D01*
X483702Y394083D01*
X482336Y393034D01*
X481287Y391668D01*
X480628Y390077D01*
X480404Y388370D01*
X480628Y386663D01*
X481287Y385072D01*
X482336Y383706D01*
X483702Y382657D01*
X485293Y381998D01*
X487000Y381774D01*
X488707Y381998D01*
X490298Y382657D01*
X491664Y383706D01*
X492713Y385072D01*
X493372Y386663D01*
X493596Y388370D01*
X493372Y390077D01*
X492713Y391668D01*
X491664Y393034D01*
X490298Y394083D01*
X488707Y394742D01*
X487000Y394966D01*
D02*
G37*
G36*
X186882Y357226D02*
X185175Y357002D01*
X183584Y356343D01*
X182218Y355294D01*
X181169Y353928D01*
X180510Y352337D01*
X180286Y350630D01*
X180510Y348923D01*
X181169Y347332D01*
X182218Y345966D01*
X183584Y344917D01*
X185175Y344258D01*
X186882Y344034D01*
X188589Y344258D01*
X190180Y344917D01*
X191546Y345966D01*
X192595Y347332D01*
X193254Y348923D01*
X193479Y350630D01*
X193254Y352337D01*
X192595Y353928D01*
X191546Y355294D01*
X190180Y356343D01*
X188589Y357002D01*
X186882Y357226D01*
D02*
G37*
G36*
X241574Y344785D02*
X239867Y344560D01*
X238276Y343901D01*
X237633Y343408D01*
X235700Y342642D01*
X234334Y343690D01*
X232743Y344350D01*
X231036Y344574D01*
X229329Y344350D01*
X227738Y343690D01*
X226372Y342642D01*
X225323Y341276D01*
X224664Y339685D01*
X224440Y337978D01*
X224664Y336270D01*
X225323Y334680D01*
X226372Y333313D01*
X227738Y332265D01*
X229329Y331606D01*
X231036Y331381D01*
X232743Y331606D01*
X234334Y332265D01*
X234976Y332758D01*
X236910Y333524D01*
X238276Y332476D01*
X239867Y331817D01*
X241574Y331592D01*
X243281Y331817D01*
X244872Y332476D01*
X245371Y332859D01*
X247371Y331872D01*
Y321179D01*
X247055Y321137D01*
X245464Y320478D01*
X244098Y319430D01*
X243050Y318064D01*
X242390Y316473D01*
X242166Y314765D01*
X242390Y313058D01*
X243050Y311467D01*
X244098Y310101D01*
X245464Y309053D01*
X247055Y308394D01*
X248762Y308169D01*
X250469Y308394D01*
X252060Y309053D01*
X253426Y310101D01*
X254475Y311467D01*
X255134Y313058D01*
X255359Y314765D01*
X255348Y314843D01*
X256277Y316232D01*
X256629Y318003D01*
X256629Y318003D01*
Y331409D01*
X258337Y332950D01*
X258425Y332979D01*
X259478Y332782D01*
X260397Y332077D01*
X261988Y331418D01*
X263695Y331194D01*
X265402Y331418D01*
X266993Y332077D01*
X268359Y333126D01*
X269408Y334492D01*
X270067Y336083D01*
X270291Y337790D01*
X270067Y339497D01*
X269408Y341088D01*
X268359Y342454D01*
X266993Y343503D01*
X265402Y344162D01*
X263695Y344386D01*
X261988Y344162D01*
X260397Y343503D01*
X259545Y342849D01*
X258059Y342636D01*
X256826Y342867D01*
X255907Y343572D01*
X254316Y344231D01*
X252609Y344455D01*
X250902Y344231D01*
X249311Y343572D01*
X247945Y342523D01*
X245885Y343124D01*
X244872Y343901D01*
X243281Y344560D01*
X241574Y344785D01*
D02*
G37*
G36*
X947400Y375822D02*
X944060Y375493D01*
X940847Y374519D01*
X937887Y372937D01*
X935293Y370807D01*
X933163Y368213D01*
X931581Y365252D01*
X930607Y362040D01*
X930277Y358700D01*
X930607Y355360D01*
X931581Y352147D01*
X933163Y349187D01*
X935293Y346593D01*
X937887Y344463D01*
X940847Y342881D01*
X944060Y341907D01*
X947400Y341577D01*
X950740Y341907D01*
X953952Y342881D01*
X956913Y344463D01*
X959507Y346593D01*
X961637Y349187D01*
X963219Y352147D01*
X964193Y355360D01*
X964522Y358700D01*
X964193Y362040D01*
X963219Y365252D01*
X961637Y368213D01*
X959507Y370807D01*
X956913Y372937D01*
X953952Y374519D01*
X950740Y375493D01*
X947400Y375822D01*
D02*
G37*
G36*
X535000Y336596D02*
X533293Y336372D01*
X531702Y335713D01*
X531500Y335558D01*
X530000Y334828D01*
X528500Y335558D01*
X528298Y335713D01*
X526707Y336372D01*
X525000Y336596D01*
X523293Y336372D01*
X521702Y335713D01*
X520336Y334664D01*
X519287Y333298D01*
X518628Y331707D01*
X518404Y330000D01*
X518628Y328293D01*
X519287Y326702D01*
X520336Y325336D01*
Y324664D01*
X519287Y323298D01*
X518628Y321707D01*
X518404Y320000D01*
X518628Y318293D01*
X519287Y316702D01*
X519442Y316500D01*
X520172Y315000D01*
X519442Y313500D01*
X519287Y313298D01*
X518628Y311707D01*
X518404Y310000D01*
X518628Y308293D01*
X519287Y306702D01*
X520336Y305336D01*
X521702Y304287D01*
X523293Y303628D01*
X525000Y303404D01*
X526707Y303628D01*
X528298Y304287D01*
X528500Y304442D01*
X530000Y305172D01*
X531500Y304442D01*
X531702Y304287D01*
X533293Y303628D01*
X535000Y303404D01*
X536707Y303628D01*
X538298Y304287D01*
X539664Y305336D01*
X540713Y306702D01*
X541372Y308293D01*
X541596Y310000D01*
X541372Y311707D01*
X540713Y313298D01*
X539664Y314664D01*
Y315336D01*
X540713Y316702D01*
X541372Y318293D01*
X541596Y320000D01*
X541372Y321707D01*
X540713Y323298D01*
X540558Y323500D01*
X539828Y325000D01*
X540558Y326500D01*
X540713Y326702D01*
X541372Y328293D01*
X541596Y330000D01*
X541372Y331707D01*
X540713Y333298D01*
X539664Y334664D01*
X538298Y335713D01*
X536707Y336372D01*
X535000Y336596D01*
D02*
G37*
G36*
X203260Y344613D02*
X201553Y344388D01*
X199962Y343729D01*
X198596Y342681D01*
X197547Y341315D01*
X196888Y339724D01*
X196663Y338017D01*
X196888Y336309D01*
X197547Y334718D01*
X198596Y333352D01*
X199962Y332304D01*
X201553Y331645D01*
X203260Y331420D01*
X204967Y331645D01*
X206558Y332304D01*
X207924Y333352D01*
X208973Y334718D01*
X209632Y336309D01*
X209856Y338017D01*
X209632Y339724D01*
X208973Y341315D01*
X207924Y342681D01*
X206558Y343729D01*
X204967Y344388D01*
X203260Y344613D01*
D02*
G37*
G36*
X695366Y339216D02*
X693659Y338991D01*
X692068Y338332D01*
X690702Y337284D01*
X689653Y335917D01*
X688995Y334326D01*
X688770Y332619D01*
X688995Y330912D01*
X689653Y329321D01*
X690702Y327955D01*
X692068Y326906D01*
X693659Y326247D01*
X695366Y326023D01*
X697073Y326247D01*
X698664Y326906D01*
X700031Y327955D01*
X701079Y329321D01*
X701738Y330912D01*
X701963Y332619D01*
X701738Y334326D01*
X701079Y335917D01*
X700031Y337284D01*
X698664Y338332D01*
X697073Y338991D01*
X695366Y339216D01*
D02*
G37*
G36*
X789750Y319596D02*
X788043Y319372D01*
X786452Y318713D01*
X785086Y317664D01*
X784037Y316298D01*
X783378Y314707D01*
X783154Y313000D01*
X783378Y311293D01*
X784037Y309702D01*
X785086Y308336D01*
X786452Y307287D01*
X788043Y306628D01*
X789750Y306404D01*
X791457Y306628D01*
X793048Y307287D01*
X794414Y308336D01*
X795463Y309702D01*
X796122Y311293D01*
X796346Y313000D01*
X796122Y314707D01*
X795463Y316298D01*
X794414Y317664D01*
X793048Y318713D01*
X791457Y319372D01*
X789750Y319596D01*
D02*
G37*
G36*
X822979Y311952D02*
X821271Y311728D01*
X819680Y311069D01*
X818314Y310020D01*
X817266Y308654D01*
X816607Y307063D01*
X816382Y305356D01*
X816607Y303649D01*
X817266Y302058D01*
X818314Y300692D01*
X819680Y299643D01*
X821271Y298984D01*
X822979Y298760D01*
X824686Y298984D01*
X826277Y299643D01*
X827643Y300692D01*
X828691Y302058D01*
X829350Y303649D01*
X829575Y305356D01*
X829350Y307063D01*
X828691Y308654D01*
X827643Y310020D01*
X826277Y311069D01*
X824686Y311728D01*
X822979Y311952D01*
D02*
G37*
G36*
X228210Y295596D02*
X226503Y295372D01*
X224912Y294713D01*
X223546Y293664D01*
X222497Y292298D01*
X221838Y290707D01*
X221614Y289000D01*
X221838Y287293D01*
X222497Y285702D01*
X223546Y284336D01*
X224912Y283287D01*
X226503Y282628D01*
X228210Y282404D01*
X229917Y282628D01*
X231508Y283287D01*
X232874Y284336D01*
X233923Y285702D01*
X234582Y287293D01*
X234806Y289000D01*
X234582Y290707D01*
X233923Y292298D01*
X232874Y293664D01*
X231508Y294713D01*
X229917Y295372D01*
X228210Y295596D01*
D02*
G37*
G36*
X795108Y294824D02*
X793400Y294599D01*
X791810Y293940D01*
X790443Y292892D01*
X789395Y291525D01*
X788736Y289935D01*
X788511Y288227D01*
X788736Y286520D01*
X789395Y284929D01*
X790443Y283563D01*
X791810Y282514D01*
X793400Y281856D01*
X795108Y281631D01*
X796815Y281856D01*
X798406Y282514D01*
X799772Y283563D01*
X800820Y284929D01*
X801479Y286520D01*
X801704Y288227D01*
X801479Y289935D01*
X800820Y291525D01*
X799772Y292892D01*
X798406Y293940D01*
X796815Y294599D01*
X795108Y294824D01*
D02*
G37*
G36*
X277501Y306096D02*
X275794Y305872D01*
X274203Y305213D01*
X272837Y304164D01*
X271789Y302798D01*
X271130Y301207D01*
X270905Y299500D01*
X271130Y297793D01*
X271789Y296202D01*
X272837Y294836D01*
X274203Y293787D01*
X275794Y293128D01*
X277501Y292904D01*
X279209Y293128D01*
X280800Y293787D01*
X281333Y294197D01*
X283516Y294638D01*
X284882Y293590D01*
X286473Y292931D01*
X288180Y292706D01*
X289887Y292931D01*
X291041Y293409D01*
X291506Y293575D01*
X293422Y292560D01*
X293467Y292452D01*
X294516Y291086D01*
X295882Y290037D01*
X297473Y289378D01*
X299180Y289154D01*
X300887Y289378D01*
X302478Y290037D01*
X303844Y291086D01*
X304893Y292452D01*
X306716Y291662D01*
X306574Y290580D01*
X306798Y288873D01*
X307457Y287282D01*
X308506Y285916D01*
X309220Y285367D01*
X310537Y283798D01*
X309878Y282207D01*
X309654Y280500D01*
X309878Y278793D01*
X310537Y277202D01*
X311586Y275836D01*
X312952Y274787D01*
X314543Y274128D01*
X316250Y273904D01*
X317957Y274128D01*
X319548Y274787D01*
X320914Y275836D01*
X321963Y277202D01*
X322622Y278793D01*
X322846Y280500D01*
X322622Y282207D01*
X321963Y283798D01*
X320914Y285164D01*
X320200Y285713D01*
X318883Y287282D01*
X319542Y288873D01*
X319766Y290580D01*
X319542Y292287D01*
X318883Y293878D01*
X317834Y295244D01*
X316468Y296293D01*
X314877Y296952D01*
X313170Y297176D01*
X311463Y296952D01*
X309872Y296293D01*
X308506Y295244D01*
X307457Y293878D01*
X305634Y294668D01*
X305777Y295750D01*
X305552Y297457D01*
X304893Y299048D01*
X303844Y300414D01*
X302478Y301463D01*
X300887Y302122D01*
X299180Y302346D01*
X297473Y302122D01*
X296319Y301644D01*
X295855Y301477D01*
X293938Y302492D01*
X293893Y302601D01*
X292845Y303967D01*
X291478Y305015D01*
X289887Y305674D01*
X288180Y305899D01*
X286473Y305674D01*
X284882Y305015D01*
X284348Y304606D01*
X282166Y304164D01*
X280800Y305213D01*
X279209Y305872D01*
X277501Y306096D01*
D02*
G37*
G36*
X118500Y274346D02*
X116793Y274122D01*
X115202Y273463D01*
X113836Y272414D01*
X112787Y271048D01*
X112128Y269457D01*
X111904Y267750D01*
X112128Y266043D01*
X112787Y264452D01*
X113836Y263086D01*
X115202Y262037D01*
X116793Y261378D01*
X118500Y261154D01*
X120207Y261378D01*
X121798Y262037D01*
X123164Y263086D01*
X124213Y264452D01*
X124872Y266043D01*
X125096Y267750D01*
X124872Y269457D01*
X124213Y271048D01*
X123164Y272414D01*
X121798Y273463D01*
X120207Y274122D01*
X118500Y274346D01*
D02*
G37*
G36*
X239836Y264971D02*
X238129Y264746D01*
X236538Y264087D01*
X235172Y263039D01*
X234123Y261673D01*
X233464Y260082D01*
X233239Y258375D01*
X233464Y256667D01*
X234123Y255076D01*
X235172Y253710D01*
X236538Y252662D01*
X238129Y252003D01*
X239836Y251778D01*
X241543Y252003D01*
X243134Y252662D01*
X243601Y253020D01*
X245274Y253193D01*
X246167Y252596D01*
X246725Y251868D01*
X248092Y250820D01*
X249683Y250161D01*
X251390Y249936D01*
X253097Y250161D01*
X254688Y250820D01*
X256054Y251868D01*
X257103Y253235D01*
X257761Y254825D01*
X257986Y256533D01*
X257761Y258240D01*
X257103Y259831D01*
X256054Y261197D01*
X254688Y262246D01*
X253097Y262904D01*
X251390Y263129D01*
X249683Y262904D01*
X248092Y262246D01*
X247625Y261887D01*
X245952Y261714D01*
X245059Y262311D01*
X244500Y263039D01*
X243134Y264087D01*
X241543Y264746D01*
X239836Y264971D01*
D02*
G37*
G36*
X38500Y233096D02*
X36793Y232872D01*
X35202Y232213D01*
X33836Y231164D01*
X32787Y229798D01*
X32059Y228235D01*
X30457Y228872D01*
X28750Y229096D01*
X27043Y228872D01*
X25452Y228213D01*
X24086Y227164D01*
X23037Y225798D01*
X22378Y224207D01*
X22154Y222500D01*
X22378Y220793D01*
X23037Y219202D01*
X24086Y217836D01*
X23361Y215871D01*
X22537Y214798D01*
X21878Y213207D01*
X21654Y211500D01*
X21878Y209793D01*
X22537Y208202D01*
X23586Y206836D01*
X24952Y205787D01*
X26543Y205128D01*
X28250Y204904D01*
X29957Y205128D01*
X31548Y205787D01*
X32914Y206836D01*
X33963Y208202D01*
X34151Y208656D01*
X34875Y209781D01*
X36626Y209697D01*
X36793Y209628D01*
X38500Y209404D01*
X40207Y209628D01*
X41798Y210287D01*
X43164Y211336D01*
X44213Y212702D01*
X44872Y214293D01*
X45096Y216000D01*
X44872Y217707D01*
X44213Y219298D01*
X43164Y220664D01*
Y221836D01*
X44213Y223202D01*
X44872Y224793D01*
X45096Y226500D01*
X44872Y228207D01*
X44213Y229798D01*
X43164Y231164D01*
X41798Y232213D01*
X40207Y232872D01*
X38500Y233096D01*
D02*
G37*
G36*
X831000Y240471D02*
X829293Y240247D01*
X827702Y239588D01*
X826336Y238539D01*
X825287Y237173D01*
X824628Y235582D01*
X824404Y233875D01*
X824628Y232168D01*
X825287Y230577D01*
X826336Y229211D01*
X827702Y228162D01*
X829293Y227503D01*
X831000Y227279D01*
X832707Y227503D01*
X834298Y228162D01*
X835664Y229211D01*
X836713Y230577D01*
X837372Y232168D01*
X837596Y233875D01*
X837372Y235582D01*
X836713Y237173D01*
X835664Y238539D01*
X834298Y239588D01*
X832707Y240247D01*
X831000Y240471D01*
D02*
G37*
G36*
X891500Y228346D02*
X889793Y228122D01*
X888202Y227463D01*
X886836Y226414D01*
X885787Y225048D01*
X885128Y223457D01*
X884904Y221750D01*
X885128Y220043D01*
X885787Y218452D01*
X886836Y217086D01*
X888202Y216037D01*
X889793Y215378D01*
X891500Y215154D01*
X893207Y215378D01*
X894798Y216037D01*
X896164Y217086D01*
X897213Y218452D01*
X897872Y220043D01*
X898096Y221750D01*
X897872Y223457D01*
X897213Y225048D01*
X896164Y226414D01*
X894798Y227463D01*
X893207Y228122D01*
X891500Y228346D01*
D02*
G37*
G36*
X909575Y225846D02*
X907868Y225622D01*
X906277Y224963D01*
X904911Y223914D01*
X903862Y222548D01*
X903203Y220957D01*
X902979Y219250D01*
X903203Y217543D01*
X903862Y215952D01*
X904911Y214586D01*
X906277Y213537D01*
X907868Y212878D01*
X909575Y212654D01*
X911282Y212878D01*
X912873Y213537D01*
X914240Y214586D01*
X915288Y215952D01*
X915947Y217543D01*
X916171Y219250D01*
X915947Y220957D01*
X915288Y222548D01*
X914240Y223914D01*
X912873Y224963D01*
X911282Y225622D01*
X909575Y225846D01*
D02*
G37*
G36*
X72000Y208596D02*
X70293Y208372D01*
X68702Y207713D01*
X67336Y206664D01*
X65914D01*
X64548Y207713D01*
X62957Y208372D01*
X61250Y208596D01*
X59543Y208372D01*
X57952Y207713D01*
X56586Y206664D01*
X55537Y205298D01*
X54878Y203707D01*
X54654Y202000D01*
X54878Y200293D01*
X55537Y198702D01*
X56586Y197336D01*
X57952Y196287D01*
X58947Y195875D01*
X60628Y194707D01*
X60404Y193000D01*
X60628Y191293D01*
X61287Y189702D01*
X62336Y188336D01*
X63702Y187287D01*
X65293Y186628D01*
X67000Y186404D01*
X68707Y186628D01*
X70298Y187287D01*
X71664Y188336D01*
X73336D01*
X74702Y187287D01*
X76293Y186628D01*
X78000Y186404D01*
X79707Y186628D01*
X81298Y187287D01*
X82664Y188336D01*
X83713Y189702D01*
X84372Y191293D01*
X84596Y193000D01*
X84372Y194707D01*
X83713Y196298D01*
X82664Y197664D01*
X81298Y198713D01*
X80089Y199213D01*
X78372Y200293D01*
X78596Y202000D01*
X78372Y203707D01*
X77713Y205298D01*
X76664Y206664D01*
X75298Y207713D01*
X73707Y208372D01*
X72000Y208596D01*
D02*
G37*
G36*
X283000Y212846D02*
X281293Y212622D01*
X279702Y211963D01*
X278336Y210914D01*
X277287Y209548D01*
X276628Y207957D01*
X276404Y206250D01*
X276628Y204543D01*
X277287Y202952D01*
X278336Y201586D01*
X279702Y200537D01*
X281293Y199878D01*
X283000Y199654D01*
X284707Y199878D01*
X286298Y200537D01*
X287664Y201586D01*
X288713Y202952D01*
X289372Y204543D01*
X289596Y206250D01*
X289372Y207957D01*
X288713Y209548D01*
X287664Y210914D01*
X286298Y211963D01*
X284707Y212622D01*
X283000Y212846D01*
D02*
G37*
G36*
X900500Y203596D02*
X898793Y203372D01*
X897202Y202713D01*
X895836Y201664D01*
X894787Y200298D01*
X894128Y198707D01*
X893904Y197000D01*
X894128Y195293D01*
X894787Y193702D01*
X895836Y192336D01*
X897202Y191287D01*
X898793Y190628D01*
X900500Y190404D01*
X902207Y190628D01*
X903798Y191287D01*
X905164Y192336D01*
X906213Y193702D01*
X906872Y195293D01*
X907096Y197000D01*
X906872Y198707D01*
X906213Y200298D01*
X905164Y201664D01*
X903798Y202713D01*
X902207Y203372D01*
X900500Y203596D01*
D02*
G37*
G36*
X1035000Y190167D02*
X1032369Y189820D01*
X1029917Y188805D01*
X1027811Y187189D01*
X1026195Y185084D01*
X1025180Y182631D01*
X1024833Y180000D01*
X1025180Y177369D01*
X1026195Y174916D01*
X1027811Y172811D01*
X1029917Y171195D01*
X1032369Y170180D01*
X1035000Y169833D01*
X1037631Y170180D01*
X1040083Y171195D01*
X1042189Y172811D01*
X1043805Y174916D01*
X1044820Y177369D01*
X1045167Y180000D01*
X1044820Y182631D01*
X1043805Y185084D01*
X1042189Y187189D01*
X1040083Y188805D01*
X1037631Y189820D01*
X1035000Y190167D01*
D02*
G37*
G36*
X330256Y177533D02*
X328549Y177308D01*
X326958Y176649D01*
X325592Y175601D01*
X324543Y174235D01*
X323884Y172644D01*
X323659Y170936D01*
X323884Y169229D01*
X324543Y167638D01*
X325592Y166272D01*
X326958Y165224D01*
X328549Y164565D01*
X330256Y164340D01*
X331963Y164565D01*
X333554Y165224D01*
X334920Y166272D01*
X335969Y167638D01*
X336628Y169229D01*
X336852Y170936D01*
X336628Y172644D01*
X335969Y174235D01*
X334920Y175601D01*
X333554Y176649D01*
X331963Y177308D01*
X330256Y177533D01*
D02*
G37*
G36*
X190750Y165846D02*
X189043Y165622D01*
X187452Y164963D01*
X186086Y163914D01*
X185037Y162548D01*
X184378Y160957D01*
X184154Y159250D01*
X184378Y157543D01*
X185037Y155952D01*
X186086Y154586D01*
X187452Y153537D01*
X189043Y152878D01*
X190750Y152654D01*
X192457Y152878D01*
X194048Y153537D01*
X195414Y154586D01*
X196463Y155952D01*
X197122Y157543D01*
X197346Y159250D01*
X197122Y160957D01*
X196463Y162548D01*
X195414Y163914D01*
X194048Y164963D01*
X192457Y165622D01*
X190750Y165846D01*
D02*
G37*
G36*
X935000Y165364D02*
X932003Y165069D01*
X929120Y164195D01*
X926464Y162775D01*
X924136Y160864D01*
X922225Y158536D01*
X920806Y155879D01*
X919931Y152997D01*
X919636Y150000D01*
X919931Y147003D01*
X920806Y144121D01*
X922225Y141464D01*
X924136Y139136D01*
X926464Y137225D01*
X929120Y135806D01*
X932003Y134931D01*
X935000Y134636D01*
X937997Y134931D01*
X940880Y135806D01*
X943536Y137225D01*
X945864Y139136D01*
X947775Y141464D01*
X949194Y144121D01*
X950069Y147003D01*
X950364Y150000D01*
X950069Y152997D01*
X949194Y155879D01*
X947775Y158536D01*
X945864Y160864D01*
X943536Y162775D01*
X940880Y164195D01*
X937997Y165069D01*
X935000Y165364D01*
D02*
G37*
G36*
X822250Y151663D02*
X814750D01*
X812296Y151175D01*
X810215Y149785D01*
X808825Y147704D01*
X808337Y145250D01*
Y129750D01*
X808825Y127296D01*
X810215Y125215D01*
X812296Y123825D01*
X814750Y123336D01*
X822250D01*
X824704Y123825D01*
X826785Y125215D01*
X828175Y127296D01*
X828663Y129750D01*
Y145250D01*
X828175Y147704D01*
X826785Y149785D01*
X824704Y151175D01*
X822250Y151663D01*
D02*
G37*
G36*
X762250D02*
X754750D01*
X752296Y151175D01*
X750215Y149785D01*
X748825Y147704D01*
X748337Y145250D01*
Y129750D01*
X748825Y127296D01*
X750215Y125215D01*
X752296Y123825D01*
X754750Y123336D01*
X762250D01*
X764704Y123825D01*
X766785Y125215D01*
X768175Y127296D01*
X768663Y129750D01*
Y145250D01*
X768175Y147704D01*
X766785Y149785D01*
X764704Y151175D01*
X762250Y151663D01*
D02*
G37*
G36*
X666250D02*
X658750D01*
X656296Y151175D01*
X654215Y149785D01*
X652825Y147704D01*
X652337Y145250D01*
Y129750D01*
X652825Y127296D01*
X654215Y125215D01*
X656296Y123825D01*
X658750Y123336D01*
X666250D01*
X668704Y123825D01*
X670785Y125215D01*
X672175Y127296D01*
X672663Y129750D01*
Y145250D01*
X672175Y147704D01*
X670785Y149785D01*
X668704Y151175D01*
X666250Y151663D01*
D02*
G37*
G36*
X606250D02*
X598750D01*
X596296Y151175D01*
X594215Y149785D01*
X592825Y147704D01*
X592337Y145250D01*
Y129750D01*
X592825Y127296D01*
X594215Y125215D01*
X596296Y123825D01*
X598750Y123336D01*
X606250D01*
X608704Y123825D01*
X610785Y125215D01*
X612175Y127296D01*
X612663Y129750D01*
Y145250D01*
X612175Y147704D01*
X610785Y149785D01*
X608704Y151175D01*
X606250Y151663D01*
D02*
G37*
G36*
X209000Y105055D02*
X207293Y104830D01*
X205702Y104171D01*
X204336Y103123D01*
X203287Y101757D01*
X202628Y100166D01*
X202404Y98459D01*
X202628Y96751D01*
X203287Y95161D01*
X204336Y93794D01*
X205702Y92746D01*
X207293Y92087D01*
X209000Y91862D01*
X210707Y92087D01*
X212298Y92746D01*
X213664Y93794D01*
X214713Y95161D01*
X215372Y96751D01*
X215596Y98459D01*
X215372Y100166D01*
X214713Y101757D01*
X213664Y103123D01*
X212298Y104171D01*
X210707Y104830D01*
X209000Y105055D01*
D02*
G37*
G36*
X338000Y103346D02*
X336293Y103122D01*
X334702Y102463D01*
X333336Y101414D01*
X332287Y100048D01*
X331628Y98457D01*
X331404Y96750D01*
X331628Y95043D01*
X332287Y93452D01*
X333336Y92086D01*
X334702Y91037D01*
X336293Y90378D01*
X338000Y90154D01*
X339707Y90378D01*
X341298Y91037D01*
X342664Y92086D01*
X343713Y93452D01*
X344372Y95043D01*
X344596Y96750D01*
X344372Y98457D01*
X343713Y100048D01*
X342664Y101414D01*
X341298Y102463D01*
X339707Y103122D01*
X338000Y103346D01*
D02*
G37*
G36*
X1035000Y80167D02*
X1032369Y79820D01*
X1029917Y78805D01*
X1027811Y77189D01*
X1026195Y75083D01*
X1025180Y72631D01*
X1024833Y70000D01*
X1025180Y67369D01*
X1026195Y64917D01*
X1027811Y62811D01*
X1029917Y61195D01*
X1032369Y60180D01*
X1035000Y59833D01*
X1037631Y60180D01*
X1040083Y61195D01*
X1042189Y62811D01*
X1043805Y64917D01*
X1044820Y67369D01*
X1045167Y70000D01*
X1044820Y72631D01*
X1043805Y75083D01*
X1042189Y77189D01*
X1040083Y78805D01*
X1037631Y79820D01*
X1035000Y80167D01*
D02*
G37*
G36*
X655000Y67596D02*
X653293Y67372D01*
X651702Y66713D01*
X650336Y65664D01*
X649287Y64298D01*
X648628Y62707D01*
X648404Y61000D01*
X648628Y59293D01*
X649287Y57702D01*
X650336Y56336D01*
X651702Y55287D01*
X653293Y54628D01*
X655000Y54404D01*
X656707Y54628D01*
X658298Y55287D01*
X659664Y56336D01*
X660713Y57702D01*
X661372Y59293D01*
X661596Y61000D01*
X661372Y62707D01*
X660713Y64298D01*
X659664Y65664D01*
X658298Y66713D01*
X656707Y67372D01*
X655000Y67596D01*
D02*
G37*
G36*
X581000Y42596D02*
X579293Y42372D01*
X577702Y41713D01*
X576336Y40664D01*
X575287Y39298D01*
X574628Y37707D01*
X574404Y36000D01*
X574628Y34293D01*
X575287Y32702D01*
X576336Y31336D01*
X577702Y30287D01*
X579293Y29628D01*
X581000Y29404D01*
X582707Y29628D01*
X584298Y30287D01*
X585664Y31336D01*
X586713Y32702D01*
X587372Y34293D01*
X587596Y36000D01*
X587372Y37707D01*
X586713Y39298D01*
X585664Y40664D01*
X584298Y41713D01*
X582707Y42372D01*
X581000Y42596D01*
D02*
G37*
%LPD*%
G36*
X140673Y658648D02*
X140873Y658512D01*
X141101Y658392D01*
X141359Y658288D01*
X141645Y658200D01*
X141960Y658128D01*
X142304Y658072D01*
X142677Y658032D01*
X143509Y658000D01*
Y654000D01*
X143079Y653992D01*
X142304Y653928D01*
X141960Y653872D01*
X141645Y653800D01*
X141359Y653712D01*
X141101Y653608D01*
X140873Y653488D01*
X140673Y653352D01*
X140501Y653200D01*
Y658800D01*
X140673Y658648D01*
D02*
G37*
G36*
X214950Y641552D02*
X215543Y641050D01*
X215826Y640846D01*
X216099Y640674D01*
X216364Y640534D01*
X216620Y640426D01*
X216866Y640349D01*
X217104Y640303D01*
X217333Y640290D01*
X213373Y636330D01*
X213359Y636558D01*
X213314Y636796D01*
X213237Y637043D01*
X213128Y637298D01*
X212988Y637563D01*
X212816Y637837D01*
X212613Y638120D01*
X212377Y638412D01*
X211812Y639022D01*
X214640Y641851D01*
X214950Y641552D01*
D02*
G37*
G36*
X954869Y596862D02*
X954700Y597096D01*
X954504Y597304D01*
X954281Y597488D01*
X954030Y597648D01*
X953752Y597783D01*
X953447Y597894D01*
X953115Y597980D01*
X952756Y598041D01*
X952369Y598078D01*
X951955Y598090D01*
X952802Y601590D01*
X953214Y601598D01*
X953981Y601657D01*
X954334Y601710D01*
X954983Y601859D01*
X955278Y601956D01*
X955553Y602068D01*
X955809Y602195D01*
X956045Y602337D01*
X954869Y596862D01*
D02*
G37*
G36*
X696637Y596109D02*
X696340Y595796D01*
X696082Y595495D01*
X695865Y595205D01*
X695687Y594926D01*
X695550Y594659D01*
X695452Y594402D01*
X695395Y594156D01*
X695377Y593922D01*
X695400Y593698D01*
X695463Y593486D01*
X690338Y595743D01*
X690439Y595791D01*
X690564Y595869D01*
X690714Y595978D01*
X691086Y596283D01*
X691826Y596965D01*
X692441Y597569D01*
X696637Y596109D01*
D02*
G37*
G36*
X254942Y334609D02*
X254763Y334459D01*
X254603Y334277D01*
X254461Y334065D01*
X254339Y333821D01*
X254235Y333546D01*
X254151Y333241D01*
X254085Y332904D01*
X254038Y332537D01*
X254009Y332138D01*
X254000Y331709D01*
X250000Y332427D01*
X249994Y332861D01*
X249905Y333989D01*
X249852Y334307D01*
X249786Y334596D01*
X249709Y334856D01*
X249620Y335087D01*
X249520Y335289D01*
X249407Y335462D01*
X254942Y334609D01*
D02*
G37*
D52*
X455000Y857500D02*
D03*
D71*
X691749Y592000D02*
Y594048D01*
X697860Y600160D01*
X703651D01*
X197663Y656000D02*
X217373Y636290D01*
X137645Y656000D02*
X197663D01*
X252000Y318003D02*
Y337250D01*
X252609Y337859D01*
X248762Y314765D02*
X252000Y318003D01*
D76*
X766269Y600160D02*
X768690Y597740D01*
X703651Y600160D02*
X766269D01*
X768690Y597740D02*
X776386D01*
X778486Y599840D01*
X957410D02*
X958250Y599000D01*
X778486Y599840D02*
X957410D01*
D79*
X896600Y434900D02*
D03*
Y409500D02*
D03*
X922000D02*
D03*
D82*
X935000Y100000D02*
D03*
D85*
X631000Y862800D02*
D03*
D87*
X351600Y551200D02*
D03*
X402400Y398800D02*
D03*
X386330Y839430D02*
D03*
Y737830D02*
D03*
D88*
X691749Y592000D02*
D03*
X217373Y636290D02*
D03*
X137645Y656000D02*
D03*
X958250Y599000D02*
D03*
X636510Y508990D02*
D03*
X692750Y442000D02*
D03*
X674250D02*
D03*
X248762Y314765D02*
D03*
X252609Y337859D02*
D03*
D89*
X374250Y638500D02*
D03*
X185926Y376790D02*
D03*
X195000Y315710D02*
D03*
X412500Y910000D02*
D03*
X403772Y921228D02*
D03*
X875000Y170000D02*
D03*
X862500D02*
D03*
Y180000D02*
D03*
X875000D02*
D03*
X862500Y210000D02*
D03*
X875000D02*
D03*
Y190000D02*
D03*
X862500D02*
D03*
X855000Y81540D02*
D03*
X966000Y107094D02*
D03*
X911054Y81960D02*
D03*
X720000Y770000D02*
D03*
X720000Y529000D02*
D03*
X647250Y803750D02*
D03*
X657754Y347754D02*
D03*
X825000Y260000D02*
D03*
X438000Y634000D02*
D03*
X517500Y686500D02*
D03*
X421241Y723800D02*
D03*
X795500Y576000D02*
D03*
X870000Y590000D02*
D03*
X532000Y807500D02*
D03*
X826370Y700750D02*
D03*
X823750Y639500D02*
D03*
X120000Y711040D02*
D03*
X150000Y710000D02*
D03*
X90000Y590000D02*
D03*
X87897Y527897D02*
D03*
X705750Y530000D02*
D03*
X827500Y526750D02*
D03*
X799250Y509750D02*
D03*
X540000Y888210D02*
D03*
X721650Y614330D02*
D03*
X295250Y49500D02*
D03*
X89750Y300000D02*
D03*
X714250Y161500D02*
D03*
X705000Y125000D02*
D03*
Y111469D02*
D03*
X332250Y575000D02*
D03*
X358250Y574000D02*
D03*
X503580Y499768D02*
D03*
X512860Y508690D02*
D03*
X511000Y433250D02*
D03*
X515610Y440190D02*
D03*
X523546Y474641D02*
D03*
X508110Y504190D02*
D03*
X503360Y568690D02*
D03*
X523250Y592250D02*
D03*
X491000Y600000D02*
D03*
X799000Y234750D02*
D03*
X760750Y278250D02*
D03*
X749750Y277250D02*
D03*
X760750Y288250D02*
D03*
X749750Y288000D02*
D03*
X749250Y298500D02*
D03*
X613000Y896000D02*
D03*
X636012Y755190D02*
D03*
X641000Y691750D02*
D03*
X644000Y601000D02*
D03*
X646750Y505500D02*
D03*
X430928Y502563D02*
D03*
X237640Y472784D02*
D03*
X285000Y440000D02*
D03*
X60000Y410000D02*
D03*
X15000Y440000D02*
D03*
X945000D02*
D03*
X642052Y440478D02*
D03*
X795000Y440000D02*
D03*
X675000Y380000D02*
D03*
X583821Y387370D02*
D03*
X496540D02*
D03*
X465000D02*
D03*
X342899Y385854D02*
D03*
X315000D02*
D03*
X285000D02*
D03*
X390000Y410000D02*
D03*
X255000Y380314D02*
D03*
X435000Y620000D02*
D03*
X415370Y608738D02*
D03*
X127802Y530550D02*
D03*
X131272Y563728D02*
D03*
X597170Y890727D02*
D03*
X509488Y890710D02*
D03*
X345000Y920000D02*
D03*
X270000Y830000D02*
D03*
X360000Y950000D02*
D03*
X285000Y800000D02*
D03*
X330000Y770000D02*
D03*
X315000Y740000D02*
D03*
X120000Y590000D02*
D03*
X210000Y591916D02*
D03*
X252698Y802301D02*
D03*
X169290Y440000D02*
D03*
X158638Y377729D02*
D03*
X128500Y377474D02*
D03*
X144290Y440000D02*
D03*
X103927Y379463D02*
D03*
X75000Y380000D02*
D03*
X120000Y110000D02*
D03*
X236230Y591916D02*
D03*
X271272Y770000D02*
D03*
X285000Y740000D02*
D03*
X300000Y770000D02*
D03*
X225000Y200000D02*
D03*
X255000Y740000D02*
D03*
X375000Y440000D02*
D03*
X505950Y440023D02*
D03*
X461340Y440000D02*
D03*
X481540Y350000D02*
D03*
X463522Y318625D02*
D03*
X605040Y350000D02*
D03*
X570000D02*
D03*
X267564Y263319D02*
D03*
X481790Y408438D02*
D03*
X435000Y320000D02*
D03*
X450000Y350000D02*
D03*
X301015Y286014D02*
D03*
X487590Y711888D02*
D03*
X507882Y739654D02*
D03*
X418771Y350000D02*
D03*
X375000Y324290D02*
D03*
X404780Y324510D02*
D03*
X495000Y800000D02*
D03*
X510000Y350000D02*
D03*
Y410000D02*
D03*
X210000Y530000D02*
D03*
X330000D02*
D03*
X300000D02*
D03*
X195000Y500000D02*
D03*
X390000Y590000D02*
D03*
X359960Y710000D02*
D03*
X360000Y770000D02*
D03*
X422102Y587897D02*
D03*
X237169Y527168D02*
D03*
X226405Y438595D02*
D03*
X162710Y500000D02*
D03*
X151701Y531701D02*
D03*
X315000Y200000D02*
D03*
X150000Y470000D02*
D03*
X228044Y383044D02*
D03*
X135000Y500000D02*
D03*
X180000Y470000D02*
D03*
X450000Y830000D02*
D03*
X435000Y860000D02*
D03*
X238836Y891163D02*
D03*
X330000Y890000D02*
D03*
X300000D02*
D03*
X270000D02*
D03*
X315000Y800000D02*
D03*
X345000D02*
D03*
X330000Y830000D02*
D03*
Y650000D02*
D03*
X375000Y800000D02*
D03*
X945000Y980000D02*
D03*
X960000Y950000D02*
D03*
X945000Y920000D02*
D03*
X960000Y890000D02*
D03*
X945000Y620000D02*
D03*
Y380000D02*
D03*
Y320000D02*
D03*
Y260000D02*
D03*
Y200000D02*
D03*
X960000Y50000D02*
D03*
X945000Y20000D02*
D03*
X915000Y980000D02*
D03*
X930000Y950000D02*
D03*
X915000Y920000D02*
D03*
X930000Y890000D02*
D03*
X915000Y860000D02*
D03*
X930000Y650000D02*
D03*
Y290000D02*
D03*
Y170000D02*
D03*
Y50000D02*
D03*
X915000Y20000D02*
D03*
X885000Y980000D02*
D03*
Y920000D02*
D03*
Y860000D02*
D03*
X900000Y350000D02*
D03*
Y290000D02*
D03*
Y170000D02*
D03*
Y50000D02*
D03*
X885000Y20000D02*
D03*
X855000Y980000D02*
D03*
X870000Y770000D02*
D03*
Y410000D02*
D03*
X855000Y380000D02*
D03*
X870000Y350000D02*
D03*
X855000Y320000D02*
D03*
X870000Y290000D02*
D03*
Y110000D02*
D03*
Y50000D02*
D03*
X855000Y20000D02*
D03*
X825000Y920000D02*
D03*
Y860000D02*
D03*
X840000Y350000D02*
D03*
Y290000D02*
D03*
Y50000D02*
D03*
X825000Y20000D02*
D03*
X795000Y980000D02*
D03*
X810000Y770000D02*
D03*
X795000Y380000D02*
D03*
X810000Y50000D02*
D03*
X795000Y20000D02*
D03*
X765000Y380000D02*
D03*
Y320000D02*
D03*
X780000Y50000D02*
D03*
X765000Y20000D02*
D03*
X735000Y920000D02*
D03*
X750000Y830000D02*
D03*
X735000Y380000D02*
D03*
X750000Y50000D02*
D03*
X735000Y20000D02*
D03*
X720000Y950000D02*
D03*
Y830000D02*
D03*
X705000Y380000D02*
D03*
X720000Y350000D02*
D03*
Y230000D02*
D03*
X705000Y140000D02*
D03*
Y20000D02*
D03*
X690000Y950000D02*
D03*
X675000Y200000D02*
D03*
Y20000D02*
D03*
X660000Y950000D02*
D03*
Y230000D02*
D03*
X645000Y20000D02*
D03*
X615000Y320000D02*
D03*
Y80000D02*
D03*
Y20000D02*
D03*
X600000Y230000D02*
D03*
X585000Y20000D02*
D03*
X555000Y980000D02*
D03*
X570000Y230000D02*
D03*
X555000Y80000D02*
D03*
Y20000D02*
D03*
X525000Y980000D02*
D03*
X540000Y950000D02*
D03*
X525000Y920000D02*
D03*
Y80000D02*
D03*
X540000Y50000D02*
D03*
X525000Y20000D02*
D03*
X495000Y980000D02*
D03*
X510000Y950000D02*
D03*
X495000Y920000D02*
D03*
Y860000D02*
D03*
X510000Y290000D02*
D03*
X495000Y200000D02*
D03*
X510000Y170000D02*
D03*
X495000Y80000D02*
D03*
X510000Y50000D02*
D03*
X495000Y20000D02*
D03*
X465000Y980000D02*
D03*
X480000Y950000D02*
D03*
Y830000D02*
D03*
X465000Y260000D02*
D03*
X480000Y230000D02*
D03*
X465000Y200000D02*
D03*
X480000Y170000D02*
D03*
X465000Y140000D02*
D03*
Y80000D02*
D03*
X480000Y50000D02*
D03*
X465000Y20000D02*
D03*
X435000Y980000D02*
D03*
X450000Y950000D02*
D03*
X435000Y440000D02*
D03*
Y260000D02*
D03*
X450000Y230000D02*
D03*
X435000Y200000D02*
D03*
X450000Y170000D02*
D03*
X435000Y140000D02*
D03*
Y80000D02*
D03*
X450000Y50000D02*
D03*
X435000Y20000D02*
D03*
X405000Y980000D02*
D03*
X420000Y950000D02*
D03*
Y830000D02*
D03*
X405000Y500000D02*
D03*
Y440000D02*
D03*
Y260000D02*
D03*
X420000Y230000D02*
D03*
X405000Y200000D02*
D03*
X420000Y170000D02*
D03*
X405000Y140000D02*
D03*
Y80000D02*
D03*
X420000Y50000D02*
D03*
X405000Y20000D02*
D03*
X375000Y980000D02*
D03*
X390000Y950000D02*
D03*
X375000Y500000D02*
D03*
Y260000D02*
D03*
X390000Y230000D02*
D03*
X375000Y200000D02*
D03*
X390000Y170000D02*
D03*
X375000Y140000D02*
D03*
Y80000D02*
D03*
X390000Y50000D02*
D03*
X375000Y20000D02*
D03*
X360000Y830000D02*
D03*
X345000Y740000D02*
D03*
X360000Y350000D02*
D03*
X345000Y260000D02*
D03*
X360000Y230000D02*
D03*
X345000Y200000D02*
D03*
X360000Y170000D02*
D03*
X345000Y80000D02*
D03*
X360000Y50000D02*
D03*
X345000Y20000D02*
D03*
X315000Y980000D02*
D03*
X330000Y950000D02*
D03*
X315000Y920000D02*
D03*
Y620000D02*
D03*
X330000Y230000D02*
D03*
X315000Y80000D02*
D03*
X330000Y50000D02*
D03*
X315000Y20000D02*
D03*
X285000Y980000D02*
D03*
X300000Y950000D02*
D03*
X285000Y920000D02*
D03*
Y20000D02*
D03*
X255000Y980000D02*
D03*
X270000Y950000D02*
D03*
X255000Y920000D02*
D03*
Y500000D02*
D03*
X270000Y170000D02*
D03*
X255000Y20000D02*
D03*
X225000Y980000D02*
D03*
X240000Y950000D02*
D03*
X225000Y920000D02*
D03*
Y800000D02*
D03*
Y500000D02*
D03*
Y260000D02*
D03*
Y20000D02*
D03*
X195000Y980000D02*
D03*
X210000Y950000D02*
D03*
X195000Y920000D02*
D03*
X210000Y890000D02*
D03*
X195000Y800000D02*
D03*
X210000Y770000D02*
D03*
X195000Y740000D02*
D03*
X210000Y470000D02*
D03*
X195000Y440000D02*
D03*
Y140000D02*
D03*
Y20000D02*
D03*
X165000Y980000D02*
D03*
X180000Y950000D02*
D03*
X165000Y920000D02*
D03*
X180000Y890000D02*
D03*
X165000Y740000D02*
D03*
X180000Y590000D02*
D03*
Y530000D02*
D03*
X165000Y200000D02*
D03*
X180000Y170000D02*
D03*
Y110000D02*
D03*
X165000Y20000D02*
D03*
X135000Y980000D02*
D03*
X150000Y950000D02*
D03*
X135000Y920000D02*
D03*
X150000Y890000D02*
D03*
X135000Y860000D02*
D03*
X150000Y830000D02*
D03*
X135000Y800000D02*
D03*
Y740000D02*
D03*
X150000Y590000D02*
D03*
Y350000D02*
D03*
Y290000D02*
D03*
X135000Y200000D02*
D03*
X150000Y170000D02*
D03*
Y110000D02*
D03*
X135000Y20000D02*
D03*
X105000Y980000D02*
D03*
X120000Y950000D02*
D03*
X105000Y920000D02*
D03*
X120000Y890000D02*
D03*
X105000Y860000D02*
D03*
X120000Y830000D02*
D03*
X105000Y800000D02*
D03*
X120000Y770000D02*
D03*
X105000Y500000D02*
D03*
X120000Y470000D02*
D03*
X105000Y440000D02*
D03*
X120000Y350000D02*
D03*
Y230000D02*
D03*
X105000Y200000D02*
D03*
Y80000D02*
D03*
X120000Y50000D02*
D03*
X105000Y20000D02*
D03*
X75000Y980000D02*
D03*
X90000Y950000D02*
D03*
X75000Y920000D02*
D03*
X90000Y890000D02*
D03*
X75000Y860000D02*
D03*
X90000Y830000D02*
D03*
X75000Y800000D02*
D03*
X90000Y770000D02*
D03*
X75000Y740000D02*
D03*
Y500000D02*
D03*
X90000Y470000D02*
D03*
X75000Y440000D02*
D03*
X90000Y290000D02*
D03*
Y230000D02*
D03*
X75000Y80000D02*
D03*
X90000Y50000D02*
D03*
X75000Y20000D02*
D03*
X45000Y980000D02*
D03*
X60000Y950000D02*
D03*
Y890000D02*
D03*
X45000Y860000D02*
D03*
X60000Y830000D02*
D03*
X45000Y800000D02*
D03*
X60000Y770000D02*
D03*
X45000Y740000D02*
D03*
X60000Y710000D02*
D03*
Y590000D02*
D03*
Y530000D02*
D03*
Y470000D02*
D03*
Y110000D02*
D03*
X45000Y80000D02*
D03*
X60000Y50000D02*
D03*
X45000Y20000D02*
D03*
X15000Y980000D02*
D03*
X30000Y950000D02*
D03*
Y890000D02*
D03*
X15000Y860000D02*
D03*
X30000Y830000D02*
D03*
X15000Y800000D02*
D03*
X30000Y770000D02*
D03*
X15000Y740000D02*
D03*
Y680000D02*
D03*
Y620000D02*
D03*
Y560000D02*
D03*
Y500000D02*
D03*
Y380000D02*
D03*
Y320000D02*
D03*
Y260000D02*
D03*
Y200000D02*
D03*
Y140000D02*
D03*
X30000Y110000D02*
D03*
X15000Y80000D02*
D03*
X30000Y50000D02*
D03*
X15000Y20000D02*
D03*
M02*
