G04*
G04 #@! TF.GenerationSoftware,Altium Limited,Altium Designer,20.0.12 (288)*
G04*
G04 Layer_Color=8388736*
%FSLAX44Y44*%
%MOMM*%
G71*
G01*
G75*
%ADD17R,1.2500X2.0000*%
%ADD18R,0.9652X0.9652*%
%ADD19R,0.7032X0.9032*%
%ADD20R,1.3132X1.9332*%
%ADD21R,2.3032X2.4532*%
%ADD22R,0.9652X0.9652*%
%ADD23O,0.7032X0.6032*%
%ADD24R,1.1532X1.0032*%
%ADD25R,1.0032X1.1532*%
%ADD26R,1.9232X1.2532*%
%ADD27R,0.5588X1.6764*%
G04:AMPARAMS|DCode=28|XSize=2.2532mm|YSize=0.8032mm|CornerRadius=0.1766mm|HoleSize=0mm|Usage=FLASHONLY|Rotation=0.000|XOffset=0mm|YOffset=0mm|HoleType=Round|Shape=RoundedRectangle|*
%AMROUNDEDRECTD28*
21,1,2.2532,0.4500,0,0,0.0*
21,1,1.9000,0.8032,0,0,0.0*
1,1,0.3532,0.9500,-0.2250*
1,1,0.3532,-0.9500,-0.2250*
1,1,0.3532,-0.9500,0.2250*
1,1,0.3532,0.9500,0.2250*
%
%ADD28ROUNDEDRECTD28*%
G04:AMPARAMS|DCode=29|XSize=2.2044mm|YSize=0.608mm|CornerRadius=0.304mm|HoleSize=0mm|Usage=FLASHONLY|Rotation=270.000|XOffset=0mm|YOffset=0mm|HoleType=Round|Shape=RoundedRectangle|*
%AMROUNDEDRECTD29*
21,1,2.2044,0.0000,0,0,270.0*
21,1,1.5965,0.6080,0,0,270.0*
1,1,0.6080,0.0000,-0.7982*
1,1,0.6080,0.0000,0.7982*
1,1,0.6080,0.0000,0.7982*
1,1,0.6080,0.0000,-0.7982*
%
%ADD29ROUNDEDRECTD29*%
%ADD30R,0.6080X2.2044*%
%ADD31R,0.8032X1.6532*%
%ADD32O,0.8032X1.6532*%
G04:AMPARAMS|DCode=33|XSize=2.2044mm|YSize=0.608mm|CornerRadius=0.304mm|HoleSize=0mm|Usage=FLASHONLY|Rotation=0.000|XOffset=0mm|YOffset=0mm|HoleType=Round|Shape=RoundedRectangle|*
%AMROUNDEDRECTD33*
21,1,2.2044,0.0000,0,0,0.0*
21,1,1.5965,0.6080,0,0,0.0*
1,1,0.6080,0.7982,0.0000*
1,1,0.6080,-0.7982,0.0000*
1,1,0.6080,-0.7982,0.0000*
1,1,0.6080,0.7982,0.0000*
%
%ADD33ROUNDEDRECTD33*%
%ADD34R,2.2044X0.6080*%
G04:AMPARAMS|DCode=35|XSize=1.9632mm|YSize=0.8032mm|CornerRadius=0.1766mm|HoleSize=0mm|Usage=FLASHONLY|Rotation=0.000|XOffset=0mm|YOffset=0mm|HoleType=Round|Shape=RoundedRectangle|*
%AMROUNDEDRECTD35*
21,1,1.9632,0.4500,0,0,0.0*
21,1,1.6100,0.8032,0,0,0.0*
1,1,0.3532,0.8050,-0.2250*
1,1,0.3532,-0.8050,-0.2250*
1,1,0.3532,-0.8050,0.2250*
1,1,0.3532,0.8050,0.2250*
%
%ADD35ROUNDEDRECTD35*%
%ADD36R,1.2532X1.1032*%
%ADD37R,1.1032X1.2532*%
G04:AMPARAMS|DCode=38|XSize=1.2532mm|YSize=1.1032mm|CornerRadius=0mm|HoleSize=0mm|Usage=FLASHONLY|Rotation=110.000|XOffset=0mm|YOffset=0mm|HoleType=Round|Shape=Rectangle|*
%AMROTATEDRECTD38*
4,1,4,0.7327,-0.4002,-0.3040,-0.7775,-0.7327,0.4002,0.3040,0.7775,0.7327,-0.4002,0.0*
%
%ADD38ROTATEDRECTD38*%

%ADD39R,2.7062X0.9542*%
%ADD40R,2.2032X5.9032*%
%ADD41C,1.8532*%
%ADD42R,1.8532X1.8532*%
%ADD43C,0.2032*%
%ADD44R,2.7532X2.7532*%
%ADD45C,2.7532*%
%ADD46C,1.7112*%
G04:AMPARAMS|DCode=47|XSize=2.5032mm|YSize=1.7032mm|CornerRadius=0.4766mm|HoleSize=0mm|Usage=FLASHONLY|Rotation=90.000|XOffset=0mm|YOffset=0mm|HoleType=Round|Shape=RoundedRectangle|*
%AMROUNDEDRECTD47*
21,1,2.5032,0.7500,0,0,90.0*
21,1,1.5500,1.7032,0,0,90.0*
1,1,0.9532,0.3750,0.7750*
1,1,0.9532,0.3750,-0.7750*
1,1,0.9532,-0.3750,-0.7750*
1,1,0.9532,-0.3750,0.7750*
%
%ADD47ROUNDEDRECTD47*%
%ADD48C,1.5112*%
%ADD49R,1.9032X1.9032*%
%ADD50C,1.9032*%
%ADD51R,1.2500X1.2500*%
%ADD52C,1.2500*%
D17*
X350000Y422000D02*
D03*
X325000D02*
D03*
X300000D02*
D03*
D18*
X745250Y576700D02*
D03*
Y595750D02*
D03*
X768110Y586225D02*
D03*
X789860Y707739D02*
D03*
Y688689D02*
D03*
X767000Y698214D02*
D03*
X813750Y647300D02*
D03*
Y628250D02*
D03*
X790890Y637775D02*
D03*
D19*
X276000Y848500D02*
D03*
Y837500D02*
D03*
X452500Y640500D02*
D03*
Y629500D02*
D03*
X219000Y731500D02*
D03*
Y742500D02*
D03*
X728210Y534440D02*
D03*
Y523440D02*
D03*
X812750Y590500D02*
D03*
Y579500D02*
D03*
X260000Y848000D02*
D03*
Y837000D02*
D03*
X407000Y354750D02*
D03*
Y343750D02*
D03*
D20*
X710551Y597751D02*
D03*
X676451D02*
D03*
D21*
X632750Y219250D02*
D03*
Y184750D02*
D03*
D22*
X71500Y324750D02*
D03*
X90550D02*
D03*
X81025Y301890D02*
D03*
D23*
X350000Y415000D02*
D03*
Y428000D02*
D03*
X325000Y415000D02*
D03*
Y428000D02*
D03*
X300000Y415000D02*
D03*
Y428000D02*
D03*
D24*
X532000Y820500D02*
D03*
Y807500D02*
D03*
X747000Y535500D02*
D03*
Y522500D02*
D03*
X730250Y592000D02*
D03*
Y605000D02*
D03*
X113500Y326750D02*
D03*
Y313750D02*
D03*
D25*
X133500Y816000D02*
D03*
X120500D02*
D03*
X534500Y851000D02*
D03*
X521500D02*
D03*
X133500Y842000D02*
D03*
X120500D02*
D03*
X259500Y207000D02*
D03*
X246500D02*
D03*
X289000Y189750D02*
D03*
X276000D02*
D03*
X871500Y425000D02*
D03*
X858500D02*
D03*
X871500Y442500D02*
D03*
X858500D02*
D03*
X841500Y495000D02*
D03*
X828500D02*
D03*
X861110Y527440D02*
D03*
X848110D02*
D03*
X861000Y545250D02*
D03*
X848000D02*
D03*
X747500Y642750D02*
D03*
X734500D02*
D03*
X876000Y630500D02*
D03*
X863000D02*
D03*
X876250Y651500D02*
D03*
X863250D02*
D03*
X864250Y697500D02*
D03*
X851250D02*
D03*
X72000Y345000D02*
D03*
X85000D02*
D03*
X864500Y716750D02*
D03*
X851500D02*
D03*
X680750Y577750D02*
D03*
X693750D02*
D03*
X58500Y285000D02*
D03*
X71500D02*
D03*
D26*
X815250Y686150D02*
D03*
Y715350D02*
D03*
X838000Y654600D02*
D03*
Y625400D02*
D03*
D27*
X243640Y226790D02*
D03*
X250244D02*
D03*
X256848D02*
D03*
X263198D02*
D03*
X269802D02*
D03*
X276152D02*
D03*
X282756D02*
D03*
X289360D02*
D03*
Y285210D02*
D03*
X282756D02*
D03*
X276152D02*
D03*
X269802D02*
D03*
X263198D02*
D03*
X256848D02*
D03*
X250244D02*
D03*
X243640D02*
D03*
D28*
X263500Y668550D02*
D03*
Y655850D02*
D03*
Y643150D02*
D03*
Y630450D02*
D03*
Y617750D02*
D03*
Y605050D02*
D03*
Y592350D02*
D03*
Y579650D02*
D03*
X356600D02*
D03*
Y592350D02*
D03*
Y605050D02*
D03*
Y617750D02*
D03*
Y630450D02*
D03*
Y643150D02*
D03*
Y655850D02*
D03*
Y668550D02*
D03*
D29*
X219340Y636540D02*
D03*
X206640D02*
D03*
X193940D02*
D03*
X181240D02*
D03*
X168540D02*
D03*
X155840D02*
D03*
X143140D02*
D03*
X130440D02*
D03*
Y687558D02*
D03*
X143140D02*
D03*
X155840D02*
D03*
X168540D02*
D03*
X181240D02*
D03*
X193940D02*
D03*
X206640D02*
D03*
D30*
X219340D02*
D03*
D31*
X309200Y445750D02*
D03*
D32*
X321900D02*
D03*
X334600D02*
D03*
X347300D02*
D03*
X309200Y500250D02*
D03*
X321900D02*
D03*
X334600D02*
D03*
X347300D02*
D03*
D33*
X472259Y812700D02*
D03*
Y800000D02*
D03*
Y787300D02*
D03*
Y774600D02*
D03*
Y761900D02*
D03*
Y749200D02*
D03*
Y736500D02*
D03*
Y723800D02*
D03*
X421241D02*
D03*
Y736500D02*
D03*
Y749200D02*
D03*
Y761900D02*
D03*
Y774600D02*
D03*
Y787300D02*
D03*
Y800000D02*
D03*
D34*
Y812700D02*
D03*
D35*
X555200Y862050D02*
D03*
Y849350D02*
D03*
Y836650D02*
D03*
Y823950D02*
D03*
X606800D02*
D03*
Y836650D02*
D03*
Y849350D02*
D03*
Y862050D02*
D03*
X163200Y855050D02*
D03*
Y842350D02*
D03*
Y829650D02*
D03*
Y816950D02*
D03*
X214800D02*
D03*
Y829650D02*
D03*
Y842350D02*
D03*
Y855050D02*
D03*
D36*
X613000Y896000D02*
D03*
Y912000D02*
D03*
X378188Y650000D02*
D03*
Y666000D02*
D03*
X307000Y230000D02*
D03*
Y246000D02*
D03*
X510000Y799500D02*
D03*
Y815500D02*
D03*
X289500Y500000D02*
D03*
Y484000D02*
D03*
X212750Y599000D02*
D03*
Y615000D02*
D03*
X766750Y518750D02*
D03*
Y534750D02*
D03*
X299000Y840000D02*
D03*
Y856000D02*
D03*
D37*
X245000Y190000D02*
D03*
X261000D02*
D03*
X229500Y580000D02*
D03*
X245500D02*
D03*
X87500Y365000D02*
D03*
X71500D02*
D03*
D38*
X782342Y582954D02*
D03*
X797377Y588426D02*
D03*
D39*
X329500Y873250D02*
D03*
Y840750D02*
D03*
X377000Y332500D02*
D03*
Y365000D02*
D03*
D40*
X517750Y126250D02*
D03*
Y223250D02*
D03*
D41*
X896600Y434900D02*
D03*
X922000D02*
D03*
X896600Y485700D02*
D03*
X922000D02*
D03*
X896600Y536500D02*
D03*
X922000D02*
D03*
X896600Y587300D02*
D03*
X922000D02*
D03*
X896600Y638100D02*
D03*
X922000D02*
D03*
X896600Y688900D02*
D03*
X922000D02*
D03*
X896600Y739700D02*
D03*
X922000D02*
D03*
X896600Y790500D02*
D03*
Y409500D02*
D03*
Y460300D02*
D03*
Y511100D02*
D03*
Y561900D02*
D03*
Y612700D02*
D03*
Y663500D02*
D03*
Y714300D02*
D03*
Y765100D02*
D03*
X922000Y409500D02*
D03*
Y460300D02*
D03*
Y511100D02*
D03*
Y561900D02*
D03*
Y612700D02*
D03*
Y663500D02*
D03*
Y714300D02*
D03*
Y765100D02*
D03*
D42*
Y790500D02*
D03*
D43*
X947400Y841300D02*
D03*
Y358700D02*
D03*
X32000Y919440D02*
D03*
X373630D02*
D03*
X32000Y701000D02*
D03*
D44*
X935000Y150000D02*
D03*
D45*
Y100000D02*
D03*
D46*
X1035000Y70000D02*
D03*
Y180000D02*
D03*
D47*
X818500Y137500D02*
D03*
X758500D02*
D03*
X662500D02*
D03*
X602500D02*
D03*
D48*
X631000Y939000D02*
D03*
Y913600D02*
D03*
Y888200D02*
D03*
Y862800D02*
D03*
D49*
X427800Y551200D02*
D03*
X386330Y712430D02*
D03*
D50*
X402400Y551200D02*
D03*
X377000D02*
D03*
X351600D02*
D03*
X326200D02*
D03*
X300800D02*
D03*
X275400D02*
D03*
X250000D02*
D03*
X224600D02*
D03*
X199200D02*
D03*
X173800D02*
D03*
X148400D02*
D03*
X123000D02*
D03*
X97600D02*
D03*
X72200D02*
D03*
Y398800D02*
D03*
X97600D02*
D03*
X123000D02*
D03*
X148400D02*
D03*
X173800D02*
D03*
X199200D02*
D03*
X224600D02*
D03*
X250000D02*
D03*
X275400D02*
D03*
X300800D02*
D03*
X326200D02*
D03*
X351600D02*
D03*
X377000D02*
D03*
X402400D02*
D03*
X427800D02*
D03*
X386330Y864830D02*
D03*
Y839430D02*
D03*
Y814030D02*
D03*
Y788630D02*
D03*
Y763230D02*
D03*
Y737830D02*
D03*
D51*
X455000Y907500D02*
D03*
D52*
Y857500D02*
D03*
M02*
