M48
;Layer_Color=9474304
;FILE_FORMAT=4:4
METRIC,LZ
;TYPE=PLATED
T1F00S00C0.3000
T2F00S00C0.4000
T3F00S00C0.6000
T4F00S00C0.7500
T5F00S00C0.8000
T6F00S00C0.9000
T7F00S00C1.0000
T9F00S00C1.1000
T10F00S00C1.7000
;TYPE=NON_PLATED
T11F00S00C2.9000
T12F00S00C3.5000
%
T01
X00015Y0002
Y0008
Y0014
X0003Y0011
X0006
X00075Y0008
X00105
X0012Y0011
X0015
X0018
X00195Y0014
Y0002
X00225
X00255
X00285
X00315
X00345
X00375
X00405
X0039Y0005
X0036
X0033
X0029525Y000495
X00315Y0008
X00345
X00375
X00405
Y0014
X00375
X00165Y0002
X00135
X00105
X00075
X00045
X0006Y0005
X0009
X0012
X0003
X00045Y0008
X00435
X00465
X00495
X00525
X00555
X0054Y0005
X0051
X0048
X0045
X0042
X00435Y0002
X00465
X00495
X00525
X00555
X00585
X00615
X00645
X00675
X00705
X00735
X00765
X00795
X0081Y0005
X0078
X0075
X00705Y00111469
Y00125
X00705Y0014
X00615Y0008
X00465Y0014
X00435
X0087Y0011
X00855Y0008154
X0087Y0005
X009
X0093
X0096
X00945Y0002
X00915
X00885
X00855
X00825
X0084Y0005
X00911054Y0008196
X00966Y00107094
X0093Y0017
X009
X00875Y0017
Y0018
Y0019
X008625
Y0018
Y0017
Y0021
X00875
X00945Y002
Y0026
X0093Y0029
X009
X0087
X0084
X00825Y0026
X00855Y0032
X0087Y0035
X009
X0084
X00855Y0038
X0087Y0041
X00945Y0044
Y0038
Y0032
X008275Y0052675
X0079925Y0050975
X00795Y0044
Y0038
X00765
X00735
X00705
X00675
X00657754Y00347754
X0060504Y0035
X0057
X00583821Y0038737
X0049654
X00465
X0048179Y00408438
X0051Y0041
X00511Y0043325
X0051561Y0044019
X0050595Y00440023
X0046134Y0044
X00435
X00430928Y00502563
X0050358Y00499768
X0050811Y0050419
X0051286Y0050869
X00523546Y00474641
X0051Y0035
X0048154
X0045
X00418771
X00435Y0032
X00463522Y00318625
X00465Y0026
X00435
X0045Y0023
X0048
X00495Y002
X00465
X00435
X0045Y0017
X0048
X0051
X0042
Y0023
X0057
X006
X0066
X00675Y002
X0072Y0023
X0071425Y001615
X0074975Y0027725
Y00288
X0074925Y002985
X0076075Y0028825
Y0027825
X00765Y0032
X0072Y0035
X00615Y0032
X0051Y0029
X00642052Y00440478
X0064675Y005055
X0070575Y0053
X0072Y00529
X00799Y0023475
X0039Y0023
X0036
X0033
X00315Y002
X00345
X00375
X00405
X0039Y0017
X0036
X0027
X00225Y002
Y0026
X00267564Y00263319
X00301015Y00286014
X00345Y0026
X00375
X00405
X0040478Y0032451
X00375Y0032429
X0036Y0035
X00342899Y00385854
X00315
X00285
X00255Y00380314
X00228044Y00383044
X00185926Y0037679
X00158638Y00377729
X001285Y00377474
X00103927Y00379463
X00075Y0038
X0006Y0041
X00075Y0044
X00105
X0014429
X0016929
X00195
X00226405Y00438595
X0023764Y00472784
X0021Y0047
X0018
X0015
X0012
X0009
X0006
X00075Y005
X00105
X00135
X0016271
X00195
X00225
X00255
X00237169Y00527168
X0021Y0053
X0018
X00151701Y00531701
X00127802Y0053055
X00087897Y00527897
X0006Y0053
X003
X0033
X00375Y005
X00405
Y0044
X00375
X0039Y0041
X00285Y0044
X00195Y0031571
X0015Y0029
Y0035
X0012
X0008975Y003
X0009Y0029
Y0023
X0012
X00135Y002
X00165
X0018Y0017
X0015
X00105Y002
X00015
Y0026
Y0032
Y0038
Y0044
Y005
Y0056
Y0062
Y0068
Y0074
Y008
Y0086
X00045
X00075
X00105
X00135
X0015Y0089
X0018
X0021
X00238836Y00891163
X0027Y0089
X003
X0033
X00345Y0092
X00315
X00285
X00255
X00225
X00195
X00165
X00135
X00105
X00075
X0009Y0089
X0012
Y0083
X0015
X00135Y008
X00105
X00075
X00045
X0006Y0083
X0009
Y0077
X0012
X00135Y0074
X00165
X00195
X0021Y0077
X00225Y008
X00252698Y00802301
X00285Y008
X00315
X00345
X00375
X0036Y0077
X0033
X003
X00271272
X00285Y0074
X00315
X00345
X0035996Y0071
X0037425Y006385
X0033Y0065
X00315Y0062
X0033225Y00575
X0035825Y00574
X0039Y0059
X0041537Y00608738
X0023623Y00591916
X0021
X0018Y0059
X0015
X0012
X0009
X0006
X00131272Y00563728
X0012Y0071104
X0015Y0071
X0006
X00075Y0074
X00045
X0006Y0077
X0003
Y0083
Y0089
X0006
X00195Y008
X0027Y0083
X0033
X0036
X004125Y0091
X00403772Y00921228
X00255Y0074
X00421241Y007238
X0048759Y00711888
X00507882Y00739654
X005175Y006865
X0052325Y0059225
X00491Y006
X0050336Y0056869
X00422102Y00587897
X00435Y0062
X00438Y00634
X0045Y0083
X0048
X00495Y008
X00532Y008075
X0054Y0088821
X00509488Y0089071
X00495Y0092
X00525
X00495Y0086
X00435
X0042Y0083
X0059717Y00890727
X00613Y00896
X0064725Y0080375
X00636012Y0075519
X00641Y0069175
X00644Y00601
X0072165Y0061433
X007955Y00576
X0081Y0077
X0072
Y0083
X0075
X00735Y0092
X00825
X00885
X00915
X00945
X0096Y0089
X0093
X00915Y0086
X00885
X00825
X0087Y0077
X0082637Y0070075
X0082375Y006395
X0087Y0059
X00945Y0062
X0093Y0065
Y0095
X0096
X00945Y0098
X00915
X00885
X00855
X00795
X0072Y0095
X0069
X0066
X0054
X0051
X0048
X0045
X0042
X00435Y0098
X00465
X00495
X00525
X00555
X00405
X00375
X0036Y0095
X0039
X0033
X003
X0027
X0024
X0021
X0018
X0015
X0012
X0009
X0006
X0003
X00045Y0098
X00075
X00105
X00135
X00165
X00195
X00225
X00255
X00285
X00315
X00015
T02
X00209Y00098459
X00338Y0009675
X00581Y00036
X00655Y00061
X00831Y00233875
X008915Y0022175
X00909575Y0021925
X009005Y00197
X00822979Y00305356
X00947Y005
X0080267Y0048054
X00797614Y00529803
X00808304Y0040903
X0078975Y00313
X00795108Y00288227
X00695366Y00332619
X0069275Y00442
X0067425
X0064153Y0043
X00590492Y0040395
X00601665Y0038837
X0055
X0054
X00545Y003975
X00555
X0056Y004075
X0055
X004975Y00403
X00487Y0038837
X00481Y0041975
X004659Y0042038
X0047388Y004294
X0048096Y00440522
X00455809Y00448818
X00454487Y00461894
X00456533Y00472484
X0045909Y00483024
X004659Y0051
X004335Y0051175
X0049175Y0053221
X0049682Y00482803
X0063651Y0050899
X00625426Y00531926
X00718873Y00470286
X00535Y0033
Y0032
Y0031
X00525
Y0032
Y0033
X0031317Y0029058
X0031625Y002805
X0029918Y0029575
X0028818Y00299302
X00277501Y002995
X00248762Y00314765
X00252609Y00337859
X00263695Y0033779
X00241574Y00338189
X00231036Y00337978
X0020326Y00338017
X00186882Y0035063
X0022821Y00289
X00239836Y00258375
X0025139Y00256533
X00283Y0020625
X00330256Y00170936
X0019075Y0015925
X00078Y00193
X00067
X00072Y00202
X0006125
X000385Y00216
Y002265
X0002875Y002225
X0002825Y002115
X001185Y0026775
X002425Y00455
X003155Y0052875
X00248617Y00569974
X0019525Y005885
X00171082Y00580086
X00217373Y0063629
X0022939Y0063575
X00294Y006595
X00381519Y00680033
X00390796Y0068581
X0041661Y00692335
X0041175Y007085
X00396012Y006375
X003875Y0063
X0037625Y0060125
X00276392Y00793892
X00262131Y00813148
X00288177Y00819823
X00178Y00855
X00177051Y00713051
X00137645Y00656
X0008275Y007035
X00396042Y00889356
X0043071Y00827515
X00450406Y00812001
X0045525Y0078025
X00455569Y00768173
X00497909Y00771304
X004965Y0078925
X0048621Y0073775
X00470822Y0071657
X00461772Y00707534
X00451022Y00707284
X00443022Y00699034
X00434Y0070604
X00423521Y00710535
X00418845Y006625
Y006535
X0042875
X00436658Y00653532
Y00662282
X0042875Y006625
X00425Y006425
X00473273Y00631281
X0047478Y0062028
X0049408Y0055475
X00498286Y00682563
X0055269Y00685
X0056
Y00675
X0055269
X005525Y00665
X0056
X005325Y006525
X0061925Y0063721
X0062601Y0058969
X00691749Y00592
X00803Y0065585
X00800039Y00720035
X00801589Y00775983
X0081254Y00846291
X00767383Y00857688
X007315Y00894
X00689455Y00868096
X00725Y0080504
X00624332Y00813315
X0062128Y00768788
X0062151Y0069744
X0059Y00838
X00578
Y0085
Y00861
X0059
Y0085
X00595Y00905
X00540904
X00495742Y00886258
X00851Y0083854
X0082675Y00583
X0095825Y00599
X00764Y009585
T03
X0056957Y00459295
X0057211Y0051925
X0077446Y00489366
X00771699Y00458999
X0077525Y00557602
X00772538Y0060703
X00772788Y00665533
X00774788Y00742036
X00768538Y00785288
X00571278Y00786288
X0056775Y0074179
X0057761Y00699202
X00573339Y00604658
X00568028Y00562277
T04
X00455Y008575
Y009075
T05
X00631Y008628
Y008882
Y009136
Y00939
T06
X004278Y003988
X004024
X00377
X003516
X003262
X003008
X002754
X0025
X002246
X001992
X001738
X001484
X00123
X000976
X000722
Y005512
X000976
X00123
X001484
X001738
X001992
X002246
X0025
X002754
X003008
X003262
X003516
X00377
X004024
X004278
T07
X01035Y0007
Y0018
X0038633Y0071243
Y0073783
Y0076323
Y0078863
Y0081403
Y0083943
Y0086483
T09
X008966Y004095
Y004349
X00922
Y004095
Y004603
Y004857
X008966
Y004603
Y005111
Y005365
X00922
Y005111
Y005619
Y005873
X008966
Y005619
Y006127
Y006381
X00922
Y006127
Y006635
Y006889
X008966
Y006635
Y007143
Y007397
X00922
Y007143
Y007651
Y007905
X008966
Y007651
T10
X00935Y001
Y0015
T11
X009474Y003587
Y008413
T12
X00032Y00701
Y0091944
X0037363
M30
