G04*
G04 #@! TF.GenerationSoftware,Altium Limited,Altium Designer,20.0.12 (288)*
G04*
G04 Layer_Color=16776960*
%FSLAX44Y44*%
%MOMM*%
G71*
G01*
G75*
%ADD10C,0.2000*%
%ADD12C,0.2540*%
%ADD16C,0.1270*%
%ADD137C,0.1000*%
%ADD138C,0.2400*%
D10*
X306000Y43750D02*
G03*
X306000Y43750I-1000J0D01*
G01*
X811000Y97500D02*
G03*
X811000Y97500I-1000J0D01*
G01*
X216000Y212500D02*
G03*
X216000Y212500I-1000J0D01*
G01*
X329750Y696500D02*
G03*
X329750Y696500I-1000J0D01*
G01*
X751000Y245750D02*
G03*
X751000Y245750I-1000J0D01*
G01*
X640790Y334850D02*
G03*
X640790Y334850I-1000J0D01*
G01*
X831210Y880150D02*
G03*
X831210Y880150I-1000J0D01*
G01*
X960750Y738500D02*
G03*
X960750Y738500I-1000J0D01*
G01*
X961000Y808650D02*
G03*
X961000Y808650I-1000J0D01*
G01*
X806900Y414250D02*
G03*
X806900Y414250I-1000J0D01*
G01*
Y474250D02*
G03*
X806900Y474250I-1000J0D01*
G01*
Y534250D02*
G03*
X806900Y534250I-1000J0D01*
G01*
Y594250D02*
G03*
X806900Y594250I-1000J0D01*
G01*
Y654250D02*
G03*
X806900Y654250I-1000J0D01*
G01*
Y714250D02*
G03*
X806900Y714250I-1000J0D01*
G01*
Y774250D02*
G03*
X806900Y774250I-1000J0D01*
G01*
X529900Y414250D02*
G03*
X529900Y414250I-1000J0D01*
G01*
Y474250D02*
G03*
X529900Y474250I-1000J0D01*
G01*
Y534250D02*
G03*
X529900Y534250I-1000J0D01*
G01*
Y594250D02*
G03*
X529900Y594250I-1000J0D01*
G01*
Y654250D02*
G03*
X529900Y654250I-1000J0D01*
G01*
Y714250D02*
G03*
X529900Y714250I-1000J0D01*
G01*
Y774250D02*
G03*
X529900Y774250I-1000J0D01*
G01*
X704900Y414250D02*
G03*
X704900Y414250I-1000J0D01*
G01*
Y474250D02*
G03*
X704900Y474250I-1000J0D01*
G01*
Y534250D02*
G03*
X704900Y534250I-1000J0D01*
G01*
Y594250D02*
G03*
X704900Y594250I-1000J0D01*
G01*
Y654250D02*
G03*
X704900Y654250I-1000J0D01*
G01*
Y714250D02*
G03*
X704900Y714250I-1000J0D01*
G01*
Y774250D02*
G03*
X704900Y774250I-1000J0D01*
G01*
X223500Y162500D02*
X249500D01*
X223500Y177500D02*
X249500D01*
X223500Y162500D02*
Y177500D01*
X249500Y162500D02*
Y177500D01*
X192000Y162500D02*
X218000D01*
X192000Y177500D02*
X218000D01*
X192000Y162500D02*
Y177500D01*
X218000Y162500D02*
Y177500D01*
X298500Y177500D02*
X324500D01*
X298500Y162500D02*
X324500D01*
Y177500D01*
X298500Y162500D02*
Y177500D01*
X674250Y30500D02*
Y56500D01*
X659250Y30500D02*
Y56500D01*
Y30500D02*
X674250D01*
X659250Y56500D02*
X674250D01*
X636250Y31000D02*
Y57000D01*
X651250Y31000D02*
Y57000D01*
X636250D02*
X651250D01*
X636250Y31000D02*
X651250D01*
X58500Y327500D02*
X84500D01*
X58500Y312500D02*
X84500D01*
Y327500D01*
X58500Y312500D02*
Y327500D01*
X157000Y347500D02*
X183000D01*
X157000Y332500D02*
X183000D01*
Y347500D01*
X157000Y332500D02*
Y347500D01*
X196750Y330250D02*
X222750D01*
X196750Y345250D02*
X222750D01*
X196750Y330250D02*
Y345250D01*
X222750Y330250D02*
Y345250D01*
X201000Y604500D02*
Y630500D01*
X186000Y604500D02*
Y630500D01*
Y604500D02*
X201000D01*
X186000Y630500D02*
X201000D01*
X98500Y616000D02*
Y642000D01*
X113500Y616000D02*
Y642000D01*
X98500D02*
X113500D01*
X98500Y616000D02*
X113500D01*
X167500Y604500D02*
Y630500D01*
X182500Y604500D02*
Y630500D01*
X167500D02*
X182500D01*
X167500Y604500D02*
X182500D01*
X643510Y454690D02*
X669510D01*
X643510Y469690D02*
X669510D01*
X643510Y454690D02*
Y469690D01*
X669510Y454690D02*
Y469690D01*
X643510Y514690D02*
X669510D01*
X643510Y529690D02*
X669510D01*
X643510Y514690D02*
Y529690D01*
X669510Y514690D02*
Y529690D01*
X643510Y574690D02*
X669510D01*
X643510Y589690D02*
X669510D01*
X643510Y574690D02*
Y589690D01*
X669510Y574690D02*
Y589690D01*
X643510Y634690D02*
X669510D01*
X643510Y649690D02*
X669510D01*
X643510Y634690D02*
Y649690D01*
X669510Y634690D02*
Y649690D01*
X643510Y694690D02*
X669510D01*
X643510Y709690D02*
X669510D01*
X643510Y694690D02*
Y709690D01*
X669510Y694690D02*
Y709690D01*
X643510Y754690D02*
X669510D01*
X643510Y769690D02*
X669510D01*
X643510Y754690D02*
Y769690D01*
X669510Y754690D02*
Y769690D01*
X643510Y814690D02*
X669510D01*
X643510Y829690D02*
X669510D01*
X643510Y814690D02*
Y829690D01*
X669510Y814690D02*
Y829690D01*
X777610Y444190D02*
Y470190D01*
X792610Y444190D02*
Y470190D01*
X777610D02*
X792610D01*
X777610Y444190D02*
X792610D01*
X777610Y504190D02*
Y530190D01*
X792610Y504190D02*
Y530190D01*
X777610D02*
X792610D01*
X777610Y504190D02*
X792610D01*
X777610Y564190D02*
Y590190D01*
X792610Y564190D02*
Y590190D01*
X777610D02*
X792610D01*
X777610Y564190D02*
X792610D01*
X777610Y624190D02*
Y650190D01*
X792610Y624190D02*
Y650190D01*
X777610D02*
X792610D01*
X777610Y624190D02*
X792610D01*
X777610Y684190D02*
Y710190D01*
X792610Y684190D02*
Y710190D01*
X777610D02*
X792610D01*
X777610Y684190D02*
X792610D01*
X778250Y744250D02*
Y770250D01*
X793250Y744250D02*
Y770250D01*
X778250D02*
X793250D01*
X778250Y744250D02*
X793250D01*
X777610Y804190D02*
Y830190D01*
X792610Y804190D02*
Y830190D01*
X777610D02*
X792610D01*
X777610Y804190D02*
X792610D01*
X792610Y414190D02*
Y440190D01*
X777610Y414190D02*
Y440190D01*
Y414190D02*
X792610D01*
X777610Y440190D02*
X792610D01*
X794250Y474250D02*
Y500250D01*
X779250Y474250D02*
Y500250D01*
Y474250D02*
X794250D01*
X779250Y500250D02*
X794250D01*
X796000Y535000D02*
Y561000D01*
X781000Y535000D02*
Y561000D01*
Y535000D02*
X796000D01*
X781000Y561000D02*
X796000D01*
X792610Y594190D02*
Y620190D01*
X777610Y594190D02*
Y620190D01*
Y594190D02*
X792610D01*
X777610Y620190D02*
X792610D01*
Y654190D02*
Y680190D01*
X777610Y654190D02*
Y680190D01*
Y654190D02*
X792610D01*
X777610Y680190D02*
X792610D01*
X793602Y714230D02*
Y740230D01*
X778602Y714230D02*
Y740230D01*
Y714230D02*
X793602D01*
X778602Y740230D02*
X793602D01*
X792610Y774190D02*
Y800190D01*
X777610Y774190D02*
Y800190D01*
Y774190D02*
X792610D01*
X777610Y800190D02*
X792610D01*
X600010Y454690D02*
X626010D01*
X600010Y469690D02*
X626010D01*
X600010Y454690D02*
Y469690D01*
X626010Y454690D02*
Y469690D01*
X600010Y514690D02*
X626010D01*
X600010Y529690D02*
X626010D01*
X600010Y514690D02*
Y529690D01*
X626010Y514690D02*
Y529690D01*
X600010Y574690D02*
X626010D01*
X600010Y589690D02*
X626010D01*
X600010Y574690D02*
Y589690D01*
X626010Y574690D02*
Y589690D01*
X600010Y634690D02*
X626010D01*
X600010Y649690D02*
X626010D01*
X600010Y634690D02*
Y649690D01*
X626010Y634690D02*
Y649690D01*
X600010Y694690D02*
X626010D01*
X600010Y709690D02*
X626010D01*
X600010Y694690D02*
Y709690D01*
X626010Y694690D02*
Y709690D01*
X600010Y754690D02*
X626010D01*
X600010Y769690D02*
X626010D01*
X600010Y754690D02*
Y769690D01*
X626010Y754690D02*
Y769690D01*
X600010Y814690D02*
X626010D01*
X600010Y829690D02*
X626010D01*
X600010Y814690D02*
Y829690D01*
X626010Y814690D02*
Y829690D01*
X500610Y444190D02*
Y470190D01*
X515610Y444190D02*
Y470190D01*
X500610D02*
X515610D01*
X500610Y444190D02*
X515610D01*
X500610Y504190D02*
Y530190D01*
X515610Y504190D02*
Y530190D01*
X500610D02*
X515610D01*
X500610Y504190D02*
X515610D01*
X500610Y564190D02*
Y590190D01*
X515610Y564190D02*
Y590190D01*
X500610D02*
X515610D01*
X500610Y564190D02*
X515610D01*
X500610Y624190D02*
Y650190D01*
X515610Y624190D02*
Y650190D01*
X500610D02*
X515610D01*
X500610Y624190D02*
X515610D01*
X500610Y684190D02*
Y710190D01*
X515610Y684190D02*
Y710190D01*
X500610D02*
X515610D01*
X500610Y684190D02*
X515610D01*
X500610Y744190D02*
Y770190D01*
X515610Y744190D02*
Y770190D01*
X500610D02*
X515610D01*
X500610Y744190D02*
X515610D01*
X500610Y804190D02*
Y830190D01*
X515610Y804190D02*
Y830190D01*
X500610D02*
X515610D01*
X500610Y804190D02*
X515610D01*
X515610Y414190D02*
Y440190D01*
X500610Y414190D02*
Y440190D01*
Y414190D02*
X515610D01*
X500610Y440190D02*
X515610D01*
Y474190D02*
Y500190D01*
X500610Y474190D02*
Y500190D01*
Y474190D02*
X515610D01*
X500610Y500190D02*
X515610D01*
Y534190D02*
Y560190D01*
X500610Y534190D02*
Y560190D01*
Y534190D02*
X515610D01*
X500610Y560190D02*
X515610D01*
Y594190D02*
Y620190D01*
X500610Y594190D02*
Y620190D01*
Y594190D02*
X515610D01*
X500610Y620190D02*
X515610D01*
Y654190D02*
Y680190D01*
X500610Y654190D02*
Y680190D01*
Y654190D02*
X515610D01*
X500610Y680190D02*
X515610D01*
Y714190D02*
Y740190D01*
X500610Y714190D02*
Y740190D01*
Y714190D02*
X515610D01*
X500610Y740190D02*
X515610D01*
Y774190D02*
Y800190D01*
X500610Y774190D02*
Y800190D01*
Y774190D02*
X515610D01*
X500610Y800190D02*
X515610D01*
X675610Y444190D02*
Y470190D01*
X690610Y444190D02*
Y470190D01*
X675610D02*
X690610D01*
X675610Y444190D02*
X690610D01*
X675610Y504190D02*
Y530190D01*
X690610Y504190D02*
Y530190D01*
X675610D02*
X690610D01*
X675610Y504190D02*
X690610D01*
X675750Y563000D02*
Y589000D01*
X690750Y563000D02*
Y589000D01*
X675750D02*
X690750D01*
X675750Y563000D02*
X690750D01*
X675610Y624190D02*
Y650190D01*
X690610Y624190D02*
Y650190D01*
X675610D02*
X690610D01*
X675610Y624190D02*
X690610D01*
X675610Y684190D02*
Y710190D01*
X690610Y684190D02*
Y710190D01*
X675610D02*
X690610D01*
X675610Y684190D02*
X690610D01*
X675610Y744190D02*
Y770190D01*
X690610Y744190D02*
Y770190D01*
X675610D02*
X690610D01*
X675610Y744190D02*
X690610D01*
X675610Y804190D02*
Y830190D01*
X690610Y804190D02*
Y830190D01*
X675610D02*
X690610D01*
X675610Y804190D02*
X690610D01*
X690610Y414190D02*
Y440190D01*
X675610Y414190D02*
Y440190D01*
Y414190D02*
X690610D01*
X675610Y440190D02*
X690610D01*
Y474190D02*
Y500190D01*
X675610Y474190D02*
Y500190D01*
Y474190D02*
X690610D01*
X675610Y500190D02*
X690610D01*
Y534190D02*
Y560190D01*
X675610Y534190D02*
Y560190D01*
Y534190D02*
X690610D01*
X675610Y560190D02*
X690610D01*
X691500Y595750D02*
Y621750D01*
X676500Y595750D02*
Y621750D01*
Y595750D02*
X691500D01*
X676500Y621750D02*
X691500D01*
X690610Y654190D02*
Y680190D01*
X675610Y654190D02*
Y680190D01*
Y654190D02*
X690610D01*
X675610Y680190D02*
X690610D01*
Y714190D02*
Y740190D01*
X675610Y714190D02*
Y740190D01*
Y714190D02*
X690610D01*
X675610Y740190D02*
X690610D01*
Y774190D02*
Y800190D01*
X675610Y774190D02*
Y800190D01*
Y774190D02*
X690610D01*
X675610Y800190D02*
X690610D01*
X934500Y235000D02*
X960500D01*
X934500Y220000D02*
X960500D01*
Y235000D01*
X934500Y220000D02*
Y235000D01*
X819000Y331500D02*
X845000D01*
X819000Y316500D02*
X845000D01*
Y331500D01*
X819000Y316500D02*
Y331500D01*
X646750Y856750D02*
X672750D01*
X646750Y871750D02*
X672750D01*
X646750Y856750D02*
Y871750D01*
X672750Y856750D02*
Y871750D01*
X922500Y190000D02*
Y216000D01*
X907500Y190000D02*
Y216000D01*
Y190000D02*
X922500D01*
X907500Y216000D02*
X922500D01*
X818500Y284000D02*
Y310000D01*
X803500Y284000D02*
Y310000D01*
Y284000D02*
X818500D01*
X803500Y310000D02*
X818500D01*
X648500Y837500D02*
X674500D01*
X648500Y852500D02*
X674500D01*
X648500Y837500D02*
Y852500D01*
X674500Y837500D02*
Y852500D01*
X811500Y214250D02*
Y240250D01*
X826500Y214250D02*
Y240250D01*
X811500D02*
X826500D01*
X811500Y214250D02*
X826500D01*
X684500Y302750D02*
Y328750D01*
X699500Y302750D02*
Y328750D01*
X684500D02*
X699500D01*
X684500Y302750D02*
X699500D01*
X808500Y832250D02*
Y858250D01*
X793500Y832250D02*
Y858250D01*
Y832250D02*
X808500D01*
X793500Y858250D02*
X808500D01*
X852000Y237500D02*
X878000D01*
X852000Y252500D02*
X878000D01*
X852000Y237500D02*
Y252500D01*
X878000Y237500D02*
Y252500D01*
X732500Y334500D02*
X758500D01*
X732500Y349500D02*
X758500D01*
X732500Y334500D02*
Y349500D01*
X758500Y334500D02*
Y349500D01*
X697000Y907500D02*
X723000D01*
X697000Y892500D02*
X723000D01*
Y907500D01*
X697000Y892500D02*
Y907500D01*
X952500Y463000D02*
Y489000D01*
X937500Y463000D02*
Y489000D01*
Y463000D02*
X952500D01*
X937500Y489000D02*
X952500D01*
X371750Y494750D02*
Y520750D01*
X356750Y494750D02*
Y520750D01*
Y494750D02*
X371750D01*
X356750Y520750D02*
X371750D01*
X206435Y43565D02*
Y146435D01*
X103565D02*
X126485D01*
X183515D02*
X206435D01*
X103565Y43565D02*
Y146435D01*
Y43565D02*
X126485D01*
X183515D02*
X206435D01*
X346435Y233565D02*
Y336435D01*
X243565D02*
X266485D01*
X323515D02*
X346435D01*
X243565Y233565D02*
Y336435D01*
Y233565D02*
X266485D01*
X323515D02*
X346435D01*
X239500Y105500D02*
X270500D01*
Y154500D01*
X239500D02*
X270500D01*
X239500Y105500D02*
Y154500D01*
X174500Y270500D02*
X205500D01*
Y319500D01*
X174500D02*
X205500D01*
X174500Y270500D02*
Y319500D01*
X43572Y164436D02*
X55564Y176428D01*
X24436Y183572D02*
X36428Y195564D01*
X73572Y134436D02*
X85564Y146428D01*
X54436Y153572D02*
X66428Y165564D01*
X333531Y111521D02*
Y128479D01*
X306469Y111521D02*
Y128479D01*
X368531Y111521D02*
Y128479D01*
X341469Y111521D02*
Y128479D01*
X289000Y83000D02*
Y97000D01*
X261000Y83000D02*
Y97000D01*
X289000D01*
X261000Y83000D02*
X289000D01*
X696521Y103531D02*
X713479D01*
X696521Y76469D02*
X713479D01*
X838531Y41521D02*
Y58479D01*
X811469Y41521D02*
Y58479D01*
X574281Y66771D02*
Y83729D01*
X547219Y66771D02*
Y83729D01*
X696521Y138531D02*
X713479D01*
X696521Y111469D02*
X713479D01*
X428531Y251521D02*
Y268479D01*
X401469Y251521D02*
Y268479D01*
X393531Y251521D02*
Y268479D01*
X366469Y251521D02*
Y268479D01*
X123531Y266521D02*
Y283479D01*
X96469Y266521D02*
Y283479D01*
X83531Y266521D02*
Y283479D01*
X56469Y266521D02*
Y283479D01*
X219000Y248000D02*
Y262000D01*
X191000Y248000D02*
Y262000D01*
X219000D01*
X191000Y248000D02*
X219000D01*
X216521Y713531D02*
X233479D01*
X216521Y686469D02*
X233479D01*
X363531Y640521D02*
Y657479D01*
X336469Y640521D02*
Y657479D01*
X88531Y625521D02*
Y642479D01*
X61469Y625521D02*
Y642479D01*
X216521Y678531D02*
X233479D01*
X216521Y651469D02*
X233479D01*
X955000Y178000D02*
Y192000D01*
X927000Y178000D02*
Y192000D01*
X955000D01*
X927000Y178000D02*
X955000D01*
X804000Y252000D02*
X818000D01*
X804000Y280000D02*
X818000D01*
Y252000D02*
Y280000D01*
X804000Y252000D02*
Y280000D01*
X614250Y837750D02*
Y851750D01*
X642250Y837750D02*
Y851750D01*
X614250Y837750D02*
X642250D01*
X614250Y851750D02*
X642250D01*
X843000Y221000D02*
Y235000D01*
X871000Y221000D02*
Y235000D01*
X843000Y221000D02*
X871000D01*
X843000Y235000D02*
X871000D01*
X729000Y313000D02*
Y327000D01*
X757000Y313000D02*
Y327000D01*
X729000Y313000D02*
X757000D01*
X729000Y327000D02*
X757000D01*
X761000Y831750D02*
Y845750D01*
X789000Y831750D02*
Y845750D01*
X761000Y831750D02*
X789000D01*
X761000Y845750D02*
X789000D01*
X792000Y240750D02*
X806000D01*
X792000Y212750D02*
X806000D01*
X792000D02*
Y240750D01*
X806000Y212750D02*
Y240750D01*
X709000Y329500D02*
X723000D01*
X709000Y301500D02*
X723000D01*
X709000D02*
Y329500D01*
X723000Y301500D02*
Y329500D01*
X780000Y889000D02*
X794000D01*
X780000Y861000D02*
X794000D01*
X780000D02*
Y889000D01*
X794000Y861000D02*
Y889000D01*
X792000Y208750D02*
X806000D01*
X792000Y180750D02*
X806000D01*
X792000D02*
Y208750D01*
X806000Y180750D02*
Y208750D01*
X684500Y297750D02*
X698500D01*
X684500Y269750D02*
X698500D01*
X684500D02*
Y297750D01*
X698500Y269750D02*
Y297750D01*
X762500Y856000D02*
X776500D01*
X762500Y884000D02*
X776500D01*
Y856000D02*
Y884000D01*
X762500Y856000D02*
Y884000D01*
X894021Y323531D02*
X910979D01*
X894021Y296469D02*
X910979D01*
X717469Y369521D02*
Y386479D01*
X744531Y369521D02*
Y386479D01*
X876521Y938531D02*
X893479D01*
X876521Y911469D02*
X893479D01*
X894021Y358531D02*
X910979D01*
X894021Y331469D02*
X910979D01*
X751469Y371521D02*
Y388479D01*
X778531Y371521D02*
Y388479D01*
X876521Y903531D02*
X893479D01*
X876521Y876469D02*
X893479D01*
X894021Y393531D02*
X910979D01*
X894021Y366469D02*
X910979D01*
X786469Y371521D02*
Y388479D01*
X813531Y371521D02*
Y388479D01*
X876521Y868531D02*
X893479D01*
X876521Y841469D02*
X893479D01*
X894021Y288531D02*
X910979D01*
X894021Y261469D02*
X910979D01*
X681469Y364521D02*
Y381479D01*
X708531Y364521D02*
Y381479D01*
X876521Y973531D02*
X893479D01*
X876521Y946469D02*
X893479D01*
X621469Y185271D02*
Y202229D01*
X648531Y185271D02*
Y202229D01*
X506521Y276469D02*
X523479D01*
X506521Y303531D02*
X523479D01*
X617531Y938271D02*
Y955229D01*
X590469Y938271D02*
Y955229D01*
X586469Y186521D02*
Y203479D01*
X613531Y186521D02*
Y203479D01*
X506521Y241469D02*
X523479D01*
X506521Y268531D02*
X523479D01*
X723531Y936521D02*
Y953479D01*
X696469Y936521D02*
Y953479D01*
X551469Y186521D02*
Y203479D01*
X578531Y186521D02*
Y203479D01*
X506521Y206469D02*
X523479D01*
X506521Y233531D02*
X523479D01*
X687031Y936771D02*
Y953729D01*
X659969Y936771D02*
Y953729D01*
X233000Y482500D02*
Y487750D01*
Y493000D02*
Y498250D01*
X229000Y493000D02*
X233375Y488625D01*
X229000Y493000D02*
X231000D01*
X237000D01*
X233500Y489500D02*
X237000Y493000D01*
X229000Y488000D02*
X237000D01*
X303549Y617271D02*
Y607274D01*
X296884D01*
X293552Y615605D02*
X291886Y617271D01*
X288553D01*
X286887Y615605D01*
Y613939D01*
X288553Y612273D01*
X290219D01*
X288553D01*
X286887Y610607D01*
Y608941D01*
X288553Y607274D01*
X291886D01*
X293552Y608941D01*
X481000Y841000D02*
Y850997D01*
X474336Y841000D01*
Y850997D01*
X481500Y464997D02*
X474836D01*
Y463331D01*
X481500Y456666D01*
Y455000D01*
X474836Y524997D02*
X478168Y523331D01*
X481500Y519998D01*
Y516666D01*
X479834Y515000D01*
X476502D01*
X474836Y516666D01*
Y518332D01*
X476502Y519998D01*
X481500D01*
X474836Y584997D02*
X481500D01*
Y579998D01*
X478168Y581665D01*
X476502D01*
X474836Y579998D01*
Y576666D01*
X476502Y575000D01*
X479834D01*
X481500Y576666D01*
X476502Y635000D02*
Y644997D01*
X481500Y639998D01*
X474836D01*
X481500Y703331D02*
X479834Y704997D01*
X476502D01*
X474836Y703331D01*
Y701665D01*
X476502Y699998D01*
X478168D01*
X476502D01*
X474836Y698332D01*
Y696666D01*
X476502Y695000D01*
X479834D01*
X481500Y696666D01*
X474836Y755000D02*
X481500D01*
X474836Y761665D01*
Y763331D01*
X476502Y764997D01*
X479834D01*
X481500Y763331D01*
X479500Y814000D02*
X476168D01*
X477834D01*
Y823997D01*
X479500Y822331D01*
X467750Y438413D02*
Y428416D01*
X462752D01*
X461086Y430082D01*
Y436747D01*
X462752Y438413D01*
X467750D01*
X457753Y428416D02*
Y435081D01*
X454421Y438413D01*
X451089Y435081D01*
Y428416D01*
Y433414D01*
X457753D01*
X441092Y438413D02*
X444424Y436747D01*
X447756Y433414D01*
Y430082D01*
X446090Y428416D01*
X442758D01*
X441092Y430082D01*
Y431748D01*
X442758Y433414D01*
X447756D01*
X437760Y426750D02*
X431095D01*
X427763Y428416D02*
Y438413D01*
X421098Y428416D01*
Y438413D01*
X406500Y427166D02*
Y437163D01*
X401502D01*
X399836Y435497D01*
Y432164D01*
X401502Y430498D01*
X406500D01*
X403168D02*
X399836Y427166D01*
X396503Y435497D02*
X394837Y437163D01*
X391505D01*
X389839Y435497D01*
Y433831D01*
X391505Y432164D01*
X393171D01*
X391505D01*
X389839Y430498D01*
Y428832D01*
X391505Y427166D01*
X394837D01*
X396503Y428832D01*
X386506Y435497D02*
X384840Y437163D01*
X381508D01*
X379842Y435497D01*
Y433831D01*
X381508Y432164D01*
X379842Y430498D01*
Y428832D01*
X381508Y427166D01*
X384840D01*
X386506Y428832D01*
Y430498D01*
X384840Y432164D01*
X386506Y433831D01*
Y435497D01*
X384840Y432164D02*
X381508D01*
X376510Y425500D02*
X369845D01*
X366513Y427166D02*
Y437163D01*
X359848Y427166D01*
Y437163D01*
X320000Y426916D02*
Y436913D01*
X315002D01*
X313335Y435247D01*
Y431914D01*
X315002Y430248D01*
X320000D01*
X316668D02*
X313335Y426916D01*
X310003Y435247D02*
X308337Y436913D01*
X305005D01*
X303339Y435247D01*
Y433581D01*
X305005Y431914D01*
X306671D01*
X305005D01*
X303339Y430248D01*
Y428582D01*
X305005Y426916D01*
X308337D01*
X310003Y428582D01*
X293342Y426916D02*
X300006D01*
X293342Y433581D01*
Y435247D01*
X295008Y436913D01*
X298340D01*
X300006Y435247D01*
X290010Y425250D02*
X283345D01*
X280013Y426916D02*
Y436913D01*
X273348Y426916D01*
Y436913D01*
X351750Y512663D02*
Y502666D01*
X346752D01*
X345085Y504332D01*
Y510997D01*
X346752Y512663D01*
X351750D01*
X341753Y502666D02*
Y509331D01*
X338421Y512663D01*
X335089Y509331D01*
Y502666D01*
Y507664D01*
X341753D01*
X326758Y502666D02*
Y512663D01*
X331756Y507664D01*
X325092D01*
X321760Y501000D02*
X315095D01*
X311763Y502666D02*
Y512663D01*
X305098Y502666D01*
Y512663D01*
X423250Y508166D02*
Y518163D01*
X418252D01*
X416586Y516497D01*
Y513164D01*
X418252Y511498D01*
X423250D01*
X419918D02*
X416586Y508166D01*
X413253Y516497D02*
X411587Y518163D01*
X408255D01*
X406589Y516497D01*
Y514831D01*
X408255Y513164D01*
X409921D01*
X408255D01*
X406589Y511498D01*
Y509832D01*
X408255Y508166D01*
X411587D01*
X413253Y509832D01*
X403256D02*
X401590Y508166D01*
X398258D01*
X396592Y509832D01*
Y516497D01*
X398258Y518163D01*
X401590D01*
X403256Y516497D01*
Y514831D01*
X401590Y513164D01*
X396592D01*
X393260Y506500D02*
X386595D01*
X383263Y508166D02*
Y518163D01*
X376598Y508166D01*
Y518163D01*
X258750Y427166D02*
Y437163D01*
X253752D01*
X252085Y435497D01*
Y432164D01*
X253752Y430498D01*
X258750D01*
X255418D02*
X252085Y427166D01*
X248753Y435497D02*
X247087Y437163D01*
X243755D01*
X242089Y435497D01*
Y433831D01*
X243755Y432164D01*
X245421D01*
X243755D01*
X242089Y430498D01*
Y428832D01*
X243755Y427166D01*
X247087D01*
X248753Y428832D01*
X232092Y437163D02*
X235424Y435497D01*
X238756Y432164D01*
Y428832D01*
X237090Y427166D01*
X233758D01*
X232092Y428832D01*
Y430498D01*
X233758Y432164D01*
X238756D01*
X228760Y425500D02*
X222095D01*
X218763Y427166D02*
Y437163D01*
X212098Y427166D01*
Y437163D01*
X94250Y449166D02*
Y459163D01*
X89252D01*
X87585Y457497D01*
Y454165D01*
X89252Y452498D01*
X94250D01*
X90918D02*
X87585Y449166D01*
X84253Y457497D02*
X82587Y459163D01*
X79255D01*
X77589Y457497D01*
Y455831D01*
X79255Y454165D01*
X80921D01*
X79255D01*
X77589Y452498D01*
Y450832D01*
X79255Y449166D01*
X82587D01*
X84253Y450832D01*
X69258Y449166D02*
Y459163D01*
X74256Y454165D01*
X67592D01*
X64260Y447500D02*
X57595D01*
X54263Y449166D02*
Y459163D01*
X47598Y449166D01*
Y459163D01*
X93500Y481166D02*
Y491163D01*
X88502D01*
X86835Y489497D01*
Y486165D01*
X88502Y484498D01*
X93500D01*
X90168D02*
X86835Y481166D01*
X83503Y489497D02*
X81837Y491163D01*
X78505D01*
X76839Y489497D01*
Y487831D01*
X78505Y486165D01*
X80171D01*
X78505D01*
X76839Y484498D01*
Y482832D01*
X78505Y481166D01*
X81837D01*
X83503Y482832D01*
X66842Y491163D02*
X73506D01*
Y486165D01*
X70174Y487831D01*
X68508D01*
X66842Y486165D01*
Y482832D01*
X68508Y481166D01*
X71840D01*
X73506Y482832D01*
X63510Y479500D02*
X56845D01*
X53513Y481166D02*
Y491163D01*
X46848Y481166D01*
Y491163D01*
X186250Y438163D02*
Y428166D01*
X181252D01*
X179585Y429832D01*
Y436497D01*
X181252Y438163D01*
X186250D01*
X176253Y428166D02*
Y434831D01*
X172921Y438163D01*
X169589Y434831D01*
Y428166D01*
Y433164D01*
X176253D01*
X159592Y438163D02*
X166256D01*
Y433164D01*
X162924Y434831D01*
X161258D01*
X159592Y433164D01*
Y429832D01*
X161258Y428166D01*
X164590D01*
X166256Y429832D01*
X156260Y426500D02*
X149595D01*
X146263Y428166D02*
Y438163D01*
X139598Y428166D01*
Y438163D01*
X193874Y496629D02*
X197294Y506023D01*
X192597Y507733D01*
X190461Y506737D01*
X189321Y503605D01*
X190317Y501470D01*
X195014Y499760D01*
X191883Y500900D02*
X187612Y498909D01*
X187330Y507876D02*
X186334Y510012D01*
X183203Y511152D01*
X181067Y510156D01*
X180497Y508590D01*
X181493Y506455D01*
X183059Y505885D01*
X181493Y506455D01*
X179358Y505459D01*
X178788Y503893D01*
X179784Y501758D01*
X182915Y500618D01*
X185051Y501614D01*
X178506Y512861D02*
X172243Y515141D01*
X171673Y513575D01*
X175657Y505033D01*
X175087Y503467D01*
X165123Y505321D02*
X158860Y507600D01*
X156299Y510305D02*
X159718Y519699D01*
X150036Y512585D01*
X153455Y521979D01*
X265124Y503879D02*
X268544Y513273D01*
X263847Y514982D01*
X261711Y513987D01*
X260571Y510855D01*
X261567Y508720D01*
X266264Y507010D01*
X263133Y508150D02*
X258862Y506158D01*
X251034Y509008D02*
X254453Y518402D01*
X257440Y511995D01*
X251178Y514274D01*
X249186Y518545D02*
X248190Y520681D01*
X245059Y521821D01*
X242923Y520825D01*
X240644Y514562D01*
X241640Y512427D01*
X244771Y511287D01*
X246907Y512283D01*
X249186Y518545D01*
X236373Y512571D02*
X230110Y514850D01*
X227549Y517556D02*
X230968Y526949D01*
X221286Y519835D01*
X224705Y529229D01*
X297374Y507379D02*
X300794Y516773D01*
X296097Y518483D01*
X293961Y517487D01*
X292822Y514355D01*
X293817Y512220D01*
X298514Y510510D01*
X295383Y511650D02*
X291112Y509659D01*
X290830Y518626D02*
X289834Y520762D01*
X286703Y521902D01*
X284567Y520906D01*
X283997Y519340D01*
X284993Y517205D01*
X286559Y516635D01*
X284993Y517205D01*
X282858Y516209D01*
X282288Y514643D01*
X283284Y512508D01*
X286415Y511368D01*
X288550Y512364D01*
X281436Y522046D02*
X280440Y524181D01*
X277309Y525321D01*
X275173Y524325D01*
X274604Y522759D01*
X275599Y520624D01*
X277165Y520054D01*
X275599Y520624D01*
X273464Y519628D01*
X272894Y518062D01*
X273890Y515927D01*
X277021Y514787D01*
X279157Y515783D01*
X268623Y516071D02*
X262360Y518350D01*
X259799Y521055D02*
X263218Y530449D01*
X253536Y523335D01*
X256955Y532729D01*
X235294Y509023D02*
X233014Y502760D01*
X228743Y500769D01*
X226752Y505040D01*
X229031Y511302D01*
X225900Y512442D02*
X222481Y503048D01*
X217784Y504758D01*
X216788Y506893D01*
X219067Y513156D01*
X221203Y514152D01*
X225900Y512442D01*
X213087Y506467D02*
X209955Y507607D01*
X211521Y507037D01*
X214940Y516431D01*
X215936Y514296D01*
X208108Y517145D02*
X207112Y519280D01*
X203981Y520420D01*
X201845Y519424D01*
X201275Y517859D01*
X202271Y515723D01*
X203837Y515153D01*
X202271Y515723D01*
X200136Y514727D01*
X199566Y513162D01*
X200562Y511026D01*
X203693Y509886D01*
X205828Y510882D01*
X195295Y511170D02*
X189032Y513449D01*
X186471Y516155D02*
X189890Y525549D01*
X180208Y518434D01*
X183627Y527828D01*
X295502Y761994D02*
X302166D01*
X305498Y758662D01*
X302166Y755330D01*
X295502D01*
Y751998D02*
X305498D01*
Y746999D01*
X303832Y745333D01*
X297168D01*
X295502Y746999D01*
Y751998D01*
X305498Y742001D02*
Y738669D01*
Y740335D01*
X295502D01*
X297168Y742001D01*
X305498Y728672D02*
X295502D01*
X300500Y733670D01*
Y727006D01*
X438914Y335832D02*
X440581Y337498D01*
X443913D01*
X445579Y335832D01*
Y334166D01*
X443913Y332500D01*
X440581D01*
X438914Y330834D01*
Y329168D01*
X440581Y327502D01*
X443913D01*
X445579Y329168D01*
X435582Y337498D02*
Y327502D01*
X430584D01*
X428918Y329168D01*
Y330834D01*
X430584Y332500D01*
X435582D01*
X430584D01*
X428918Y334166D01*
Y335832D01*
X430584Y337498D01*
X435582D01*
X425586D02*
X418921D01*
Y335832D01*
X425586Y329168D01*
Y327502D01*
X42165Y307582D02*
X43831Y309248D01*
X47163D01*
X48829Y307582D01*
Y305916D01*
X47163Y304250D01*
X43831D01*
X42165Y302584D01*
Y300918D01*
X43831Y299252D01*
X47163D01*
X48829Y300918D01*
X38832Y309248D02*
Y299252D01*
X33834D01*
X32168Y300918D01*
Y302584D01*
X33834Y304250D01*
X38832D01*
X33834D01*
X32168Y305916D01*
Y307582D01*
X33834Y309248D01*
X38832D01*
X22171D02*
X25503Y307582D01*
X28835Y304250D01*
Y300918D01*
X27169Y299252D01*
X23837D01*
X22171Y300918D01*
Y302584D01*
X23837Y304250D01*
X28835D01*
X421665Y681332D02*
X423331Y682998D01*
X426663D01*
X428329Y681332D01*
Y679666D01*
X426663Y678000D01*
X423331D01*
X421665Y676334D01*
Y674668D01*
X423331Y673002D01*
X426663D01*
X428329Y674668D01*
X418332Y682998D02*
Y673002D01*
X413334D01*
X411668Y674668D01*
Y676334D01*
X413334Y678000D01*
X418332D01*
X413334D01*
X411668Y679666D01*
Y681332D01*
X413334Y682998D01*
X418332D01*
X401671D02*
X408335D01*
Y678000D01*
X405003Y679666D01*
X403337D01*
X401671Y678000D01*
Y674668D01*
X403337Y673002D01*
X406669D01*
X408335Y674668D01*
X46665Y672332D02*
X48331Y673998D01*
X51663D01*
X53329Y672332D01*
Y670666D01*
X51663Y669000D01*
X48331D01*
X46665Y667334D01*
Y665668D01*
X48331Y664002D01*
X51663D01*
X53329Y665668D01*
X43332Y673998D02*
Y664002D01*
X38334D01*
X36668Y665668D01*
Y667334D01*
X38334Y669000D01*
X43332D01*
X38334D01*
X36668Y670666D01*
Y672332D01*
X38334Y673998D01*
X43332D01*
X28337Y664002D02*
Y673998D01*
X33335Y669000D01*
X26671D01*
X280329Y588752D02*
Y598748D01*
X275331D01*
X273664Y597082D01*
Y593750D01*
X275331Y592084D01*
X280329D01*
X276997D02*
X273664Y588752D01*
X265334D02*
Y598748D01*
X270332Y593750D01*
X263668D01*
X255337Y588752D02*
Y598748D01*
X260336Y593750D01*
X253671D01*
X200056Y638492D02*
Y648489D01*
X195058D01*
X193391Y646823D01*
Y643490D01*
X195058Y641824D01*
X200056D01*
X196724D02*
X193391Y638492D01*
X185061D02*
Y648489D01*
X190059Y643490D01*
X183395D01*
X180062Y646823D02*
X178396Y648489D01*
X175064D01*
X173398Y646823D01*
Y645156D01*
X175064Y643490D01*
X176730D01*
X175064D01*
X173398Y641824D01*
Y640158D01*
X175064Y638492D01*
X178396D01*
X180062Y640158D01*
X120829Y651002D02*
Y660998D01*
X115831D01*
X114164Y659332D01*
Y656000D01*
X115831Y654334D01*
X120829D01*
X117497D02*
X114164Y651002D01*
X105834D02*
Y660998D01*
X110832Y656000D01*
X104168D01*
X94171Y651002D02*
X100836D01*
X94171Y657666D01*
Y659332D01*
X95837Y660998D01*
X99169D01*
X100836Y659332D01*
X165163Y637752D02*
Y647748D01*
X160165D01*
X158498Y646082D01*
Y642750D01*
X160165Y641084D01*
X165163D01*
X161831D02*
X158498Y637752D01*
X150168D02*
Y647748D01*
X155166Y642750D01*
X148502D01*
X145169Y637752D02*
X141837D01*
X143503D01*
Y647748D01*
X145169Y646082D01*
X194722Y737389D02*
Y727392D01*
X188057D01*
X178061D02*
X184725D01*
X178061Y734056D01*
Y735723D01*
X179727Y737389D01*
X183059D01*
X184725Y735723D01*
X130502Y598829D02*
X140498D01*
Y593831D01*
X138832Y592164D01*
X132168D01*
X130502Y593831D01*
Y598829D01*
Y588832D02*
X140498D01*
Y583834D01*
X138832Y582168D01*
X132168D01*
X130502Y583834D01*
Y588832D01*
X138832Y578835D02*
X140498Y577169D01*
Y573837D01*
X138832Y572171D01*
X132168D01*
X130502Y573837D01*
Y577169D01*
X132168Y578835D01*
X133834D01*
X135500Y577169D01*
Y572171D01*
X220304Y728792D02*
X221970Y730458D01*
X225303D01*
X226969Y728792D01*
Y722128D01*
X225303Y720462D01*
X221970D01*
X220304Y722128D01*
X216972Y728792D02*
X215306Y730458D01*
X211973D01*
X210307Y728792D01*
Y727126D01*
X211973Y725460D01*
X213640D01*
X211973D01*
X210307Y723794D01*
Y722128D01*
X211973Y720462D01*
X215306D01*
X216972Y722128D01*
X206975Y720462D02*
X203643D01*
X205309D01*
Y730458D01*
X206975Y728792D01*
X355164Y689332D02*
X356831Y690998D01*
X360163D01*
X361829Y689332D01*
Y682668D01*
X360163Y681002D01*
X356831D01*
X355164Y682668D01*
X351832Y689332D02*
X350166Y690998D01*
X346834D01*
X345168Y689332D01*
Y687666D01*
X346834Y686000D01*
X348500D01*
X346834D01*
X345168Y684334D01*
Y682668D01*
X346834Y681002D01*
X350166D01*
X351832Y682668D01*
X341836Y689332D02*
X340169Y690998D01*
X336837D01*
X335171Y689332D01*
Y682668D01*
X336837Y681002D01*
X340169D01*
X341836Y682668D01*
Y689332D01*
X84164Y671332D02*
X85831Y672998D01*
X89163D01*
X90829Y671332D01*
Y664668D01*
X89163Y663002D01*
X85831D01*
X84164Y664668D01*
X74168Y663002D02*
X80832D01*
X74168Y669666D01*
Y671332D01*
X75834Y672998D01*
X79166D01*
X80832Y671332D01*
X70835Y664668D02*
X69169Y663002D01*
X65837D01*
X64171Y664668D01*
Y671332D01*
X65837Y672998D01*
X69169D01*
X70835Y671332D01*
Y669666D01*
X69169Y668000D01*
X64171D01*
X256665Y728082D02*
X258331Y729748D01*
X261663D01*
X263329Y728082D01*
Y721418D01*
X261663Y719752D01*
X258331D01*
X256665Y721418D01*
X246668Y719752D02*
X253332D01*
X246668Y726416D01*
Y728082D01*
X248334Y729748D01*
X251666D01*
X253332Y728082D01*
X243335D02*
X241669Y729748D01*
X238337D01*
X236671Y728082D01*
Y726416D01*
X238337Y724750D01*
X236671Y723084D01*
Y721418D01*
X238337Y719752D01*
X241669D01*
X243335Y721418D01*
Y723084D01*
X241669Y724750D01*
X243335Y726416D01*
Y728082D01*
X241669Y724750D02*
X238337D01*
X212994Y207748D02*
Y201084D01*
X209662Y197752D01*
X206330Y201084D01*
Y207748D01*
X202998D02*
Y197752D01*
X197999D01*
X196333Y199418D01*
Y206082D01*
X197999Y207748D01*
X202998D01*
X193001Y197752D02*
X189669D01*
X191335D01*
Y207748D01*
X193001Y206082D01*
X178006Y207748D02*
X181338Y206082D01*
X184670Y202750D01*
Y199418D01*
X183004Y197752D01*
X179672D01*
X178006Y199418D01*
Y201084D01*
X179672Y202750D01*
X184670D01*
X827453Y167065D02*
Y161734D01*
X824787Y159068D01*
X822121Y161734D01*
Y167065D01*
X819455D02*
Y159068D01*
X815457D01*
X814124Y160401D01*
Y165732D01*
X815457Y167065D01*
X819455D01*
X811458Y159068D02*
X808792D01*
X810125D01*
Y167065D01*
X811458Y165732D01*
X799462Y159068D02*
X804793D01*
X799462Y164399D01*
Y165732D01*
X800795Y167065D01*
X803461D01*
X804793Y165732D01*
X796796Y157735D02*
X791464D01*
X788799Y165732D02*
X787466Y167065D01*
X784800D01*
X783467Y165732D01*
Y164399D01*
X784800Y163067D01*
X786133D01*
X784800D01*
X783467Y161734D01*
Y160401D01*
X784800Y159068D01*
X787466D01*
X788799Y160401D01*
X636185Y229694D02*
Y224363D01*
X633520Y221697D01*
X630854Y224363D01*
Y229694D01*
X628188D02*
Y221697D01*
X624189D01*
X622856Y223030D01*
Y228362D01*
X624189Y229694D01*
X628188D01*
X620191Y221697D02*
X617525D01*
X618858D01*
Y229694D01*
X620191Y228362D01*
X608195Y221697D02*
X613526D01*
X608195Y227029D01*
Y228362D01*
X609528Y229694D01*
X612193D01*
X613526Y228362D01*
X605529Y220364D02*
X600197D01*
X592200Y221697D02*
X597531D01*
X592200Y227029D01*
Y228362D01*
X593533Y229694D01*
X596198D01*
X597531Y228362D01*
X851325Y995832D02*
Y989167D01*
X847993Y985835D01*
X844660Y989167D01*
Y995832D01*
X841328D02*
Y985835D01*
X836330D01*
X834664Y987501D01*
Y994165D01*
X836330Y995832D01*
X841328D01*
X831331Y985835D02*
X827999D01*
X829665D01*
Y995832D01*
X831331Y994165D01*
X816336Y985835D02*
X823001D01*
X816336Y992499D01*
Y994165D01*
X818002Y995832D01*
X821335D01*
X823001Y994165D01*
X813004Y984168D02*
X806339D01*
X803007Y985835D02*
X799675D01*
X801341D01*
Y995832D01*
X803007Y994165D01*
X130579Y356502D02*
Y366498D01*
X125581D01*
X123914Y364832D01*
Y361500D01*
X125581Y359834D01*
X130579D01*
X127247D02*
X123914Y356502D01*
X115584D02*
Y366498D01*
X120582Y361500D01*
X113918D01*
X110585Y366498D02*
X103921D01*
Y364832D01*
X110585Y358168D01*
Y356502D01*
X225829Y350002D02*
Y359998D01*
X220831D01*
X219165Y358332D01*
Y355000D01*
X220831Y353334D01*
X225829D01*
X222497D02*
X219165Y350002D01*
X210834D02*
Y359998D01*
X215832Y355000D01*
X209168D01*
X199171Y359998D02*
X202503Y358332D01*
X205835Y355000D01*
Y351668D01*
X204169Y350002D01*
X200837D01*
X199171Y351668D01*
Y353334D01*
X200837Y355000D01*
X205835D01*
X179829Y356002D02*
Y365998D01*
X174831D01*
X173165Y364332D01*
Y361000D01*
X174831Y359334D01*
X179829D01*
X176497D02*
X173165Y356002D01*
X164834D02*
Y365998D01*
X169832Y361000D01*
X163168D01*
X153171Y365998D02*
X159836D01*
Y361000D01*
X156503Y362666D01*
X154837D01*
X153171Y361000D01*
Y357668D01*
X154837Y356002D01*
X158169D01*
X159836Y357668D01*
X968994Y206668D02*
Y214665D01*
X964995D01*
X963663Y213332D01*
Y210667D01*
X964995Y209334D01*
X968994D01*
X966328D02*
X963663Y206668D01*
X960997Y213332D02*
X959664Y214665D01*
X956998D01*
X955665Y213332D01*
Y211999D01*
X956998Y210667D01*
X958331D01*
X956998D01*
X955665Y209334D01*
Y208001D01*
X956998Y206668D01*
X959664D01*
X960997Y208001D01*
X952999Y206668D02*
X950334D01*
X951666D01*
Y214665D01*
X952999Y213332D01*
X946335Y205335D02*
X941003D01*
X938337Y213332D02*
X937004Y214665D01*
X934339D01*
X933006Y213332D01*
Y211999D01*
X934339Y210667D01*
X935672D01*
X934339D01*
X933006Y209334D01*
Y208001D01*
X934339Y206668D01*
X937004D01*
X938337Y208001D01*
X864994Y336668D02*
Y344665D01*
X860995D01*
X859663Y343332D01*
Y340667D01*
X860995Y339334D01*
X864994D01*
X862328D02*
X859663Y336668D01*
X856997Y343332D02*
X855664Y344665D01*
X852998D01*
X851665Y343332D01*
Y341999D01*
X852998Y340667D01*
X854331D01*
X852998D01*
X851665Y339334D01*
Y338001D01*
X852998Y336668D01*
X855664D01*
X856997Y338001D01*
X848999Y336668D02*
X846334D01*
X847666D01*
Y344665D01*
X848999Y343332D01*
X842335Y335335D02*
X837003D01*
X829006Y336668D02*
X834337D01*
X829006Y341999D01*
Y343332D01*
X830339Y344665D01*
X833005D01*
X834337Y343332D01*
X616077Y871085D02*
Y881081D01*
X611078D01*
X609412Y879415D01*
Y876083D01*
X611078Y874417D01*
X616077D01*
X612744D02*
X609412Y871085D01*
X606080Y879415D02*
X604414Y881081D01*
X601081D01*
X599415Y879415D01*
Y877749D01*
X601081Y876083D01*
X602748D01*
X601081D01*
X599415Y874417D01*
Y872751D01*
X601081Y871085D01*
X604414D01*
X606080Y872751D01*
X596083Y871085D02*
X592751D01*
X594417D01*
Y881081D01*
X596083Y879415D01*
X587752Y869418D02*
X581088D01*
X577756Y871085D02*
X574423D01*
X576090D01*
Y881081D01*
X577756Y879415D01*
X915332Y185661D02*
X907335D01*
Y181662D01*
X908668Y180329D01*
X911333D01*
X912666Y181662D01*
Y185661D01*
Y182995D02*
X915332Y180329D01*
X908668Y177663D02*
X907335Y176330D01*
Y173664D01*
X908668Y172332D01*
X910001D01*
X911333Y173664D01*
Y174997D01*
Y173664D01*
X912666Y172332D01*
X913999D01*
X915332Y173664D01*
Y176330D01*
X913999Y177663D01*
X908668Y169666D02*
X907335Y168333D01*
Y165667D01*
X908668Y164334D01*
X913999D01*
X915332Y165667D01*
Y168333D01*
X913999Y169666D01*
X908668D01*
X916665Y161668D02*
Y156337D01*
X908668Y153671D02*
X907335Y152338D01*
Y149672D01*
X908668Y148339D01*
X910001D01*
X911333Y149672D01*
Y151005D01*
Y149672D01*
X912666Y148339D01*
X913999D01*
X915332Y149672D01*
Y152338D01*
X913999Y153671D01*
X868411Y304668D02*
Y312665D01*
X864412D01*
X863079Y311332D01*
Y308666D01*
X864412Y307334D01*
X868411D01*
X865745D02*
X863079Y304668D01*
X860413Y311332D02*
X859080Y312665D01*
X856414D01*
X855082Y311332D01*
Y309999D01*
X856414Y308666D01*
X857747D01*
X856414D01*
X855082Y307334D01*
Y306001D01*
X856414Y304668D01*
X859080D01*
X860413Y306001D01*
X852416Y311332D02*
X851083Y312665D01*
X848417D01*
X847084Y311332D01*
Y306001D01*
X848417Y304668D01*
X851083D01*
X852416Y306001D01*
Y311332D01*
X844418Y303335D02*
X839087D01*
X831089Y304668D02*
X836421D01*
X831089Y309999D01*
Y311332D01*
X832422Y312665D01*
X835088D01*
X836421Y311332D01*
X677585Y833590D02*
X687581D01*
Y838589D01*
X685915Y840255D01*
X682583D01*
X680917Y838589D01*
Y833590D01*
Y836923D02*
X677585Y840255D01*
X685915Y843587D02*
X687581Y845253D01*
Y848586D01*
X685915Y850252D01*
X684249D01*
X682583Y848586D01*
Y846919D01*
Y848586D01*
X680917Y850252D01*
X679251D01*
X677585Y848586D01*
Y845253D01*
X679251Y843587D01*
X685915Y853584D02*
X687581Y855250D01*
Y858582D01*
X685915Y860248D01*
X679251D01*
X677585Y858582D01*
Y855250D01*
X679251Y853584D01*
X685915D01*
X675919Y863581D02*
Y870245D01*
X677585Y873577D02*
Y876910D01*
Y875244D01*
X687581D01*
X685915Y873577D01*
X968551Y266589D02*
X962896Y272244D01*
X960069Y269416D01*
Y267531D01*
X961954Y265646D01*
X963839Y265646D01*
X966666Y268474D01*
X964781Y266589D02*
Y262819D01*
X959126Y257164D02*
X962896Y260934D01*
X955356D01*
X954414Y261876D01*
Y263761D01*
X956299Y265646D01*
X958184Y265646D01*
X956299Y256221D02*
Y254336D01*
X954414Y252451D01*
X952529Y252451D01*
X948759Y256221D01*
Y258106D01*
X950644Y259991D01*
X952529Y259991D01*
X953471Y259049D01*
X953471Y257164D01*
X950644Y254336D01*
X952529Y248681D02*
X948759Y244911D01*
X941219Y248681D02*
X939334Y248681D01*
X937449Y246796D01*
Y244911D01*
X938391Y243969D01*
X940276D01*
X941219Y244911D01*
X940276Y243969D01*
Y242084D01*
X941219Y241141D01*
X943104Y241141D01*
X944989Y243026D01*
Y244911D01*
X857428Y356838D02*
Y364835D01*
X853429D01*
X852096Y363502D01*
Y360837D01*
X853429Y359504D01*
X857428D01*
X854762D02*
X852096Y356838D01*
X844099D02*
X849431D01*
X844099Y362169D01*
Y363502D01*
X845432Y364835D01*
X848098D01*
X849431Y363502D01*
X841433Y358171D02*
X840100Y356838D01*
X837435D01*
X836102Y358171D01*
Y363502D01*
X837435Y364835D01*
X840100D01*
X841433Y363502D01*
Y362169D01*
X840100Y360837D01*
X836102D01*
X833436Y355505D02*
X828104D01*
X820107Y356838D02*
X825439D01*
X820107Y362169D01*
Y363502D01*
X821440Y364835D01*
X824106D01*
X825439Y363502D01*
X580660Y915585D02*
Y925582D01*
X575661D01*
X573995Y923915D01*
Y920583D01*
X575661Y918917D01*
X580660D01*
X577327D02*
X573995Y915585D01*
X563998D02*
X570663D01*
X563998Y922249D01*
Y923915D01*
X565664Y925582D01*
X568997D01*
X570663Y923915D01*
X560666Y917251D02*
X559000Y915585D01*
X555668D01*
X554002Y917251D01*
Y923915D01*
X555668Y925582D01*
X559000D01*
X560666Y923915D01*
Y922249D01*
X559000Y920583D01*
X554002D01*
X550669Y913919D02*
X544005D01*
X540673Y915585D02*
X537340D01*
X539006D01*
Y925582D01*
X540673Y923915D01*
X823668Y171839D02*
X831665D01*
Y175838D01*
X830332Y177171D01*
X827666D01*
X826334Y175838D01*
Y171839D01*
Y174505D02*
X823668Y177171D01*
Y185168D02*
Y179837D01*
X828999Y185168D01*
X830332D01*
X831665Y183836D01*
Y181170D01*
X830332Y179837D01*
Y187834D02*
X831665Y189167D01*
Y191833D01*
X830332Y193166D01*
X828999D01*
X827666Y191833D01*
X826334Y193166D01*
X825001D01*
X823668Y191833D01*
Y189167D01*
X825001Y187834D01*
X826334D01*
X827666Y189167D01*
X828999Y187834D01*
X830332D01*
X827666Y189167D02*
Y191833D01*
X822335Y195832D02*
Y201163D01*
X830332Y203829D02*
X831665Y205162D01*
Y207828D01*
X830332Y209161D01*
X828999D01*
X827666Y207828D01*
Y206495D01*
Y207828D01*
X826334Y209161D01*
X825001D01*
X823668Y207828D01*
Y205162D01*
X825001Y203829D01*
X679582Y332661D02*
X671585D01*
Y328662D01*
X672918Y327329D01*
X675583D01*
X676916Y328662D01*
Y332661D01*
Y329995D02*
X679582Y327329D01*
Y319332D02*
Y324663D01*
X674251Y319332D01*
X672918D01*
X671585Y320664D01*
Y323330D01*
X672918Y324663D01*
Y316666D02*
X671585Y315333D01*
Y312667D01*
X672918Y311334D01*
X674251D01*
X675583Y312667D01*
X676916Y311334D01*
X678249D01*
X679582Y312667D01*
Y315333D01*
X678249Y316666D01*
X676916D01*
X675583Y315333D01*
X674251Y316666D01*
X672918D01*
X675583Y315333D02*
Y312667D01*
X680915Y308668D02*
Y303337D01*
X679582Y295339D02*
Y300671D01*
X674251Y295339D01*
X672918D01*
X671585Y296672D01*
Y299338D01*
X672918Y300671D01*
X861910Y831585D02*
Y841581D01*
X856911D01*
X855245Y839915D01*
Y836583D01*
X856911Y834917D01*
X861910D01*
X858577D02*
X855245Y831585D01*
X845248D02*
X851913D01*
X845248Y838249D01*
Y839915D01*
X846915Y841581D01*
X850247D01*
X851913Y839915D01*
X841916D02*
X840250Y841581D01*
X836918D01*
X835252Y839915D01*
Y838249D01*
X836918Y836583D01*
X835252Y834917D01*
Y833251D01*
X836918Y831585D01*
X840250D01*
X841916Y833251D01*
Y834917D01*
X840250Y836583D01*
X841916Y838249D01*
Y839915D01*
X840250Y836583D02*
X836918D01*
X831919Y829919D02*
X825255D01*
X821923Y831585D02*
X818590D01*
X820256D01*
Y841581D01*
X821923Y839915D01*
X862918Y263339D02*
X870915D01*
Y267338D01*
X869582Y268671D01*
X866917D01*
X865584Y267338D01*
Y263339D01*
Y266005D02*
X862918Y268671D01*
Y276668D02*
Y271337D01*
X868249Y276668D01*
X869582D01*
X870915Y275336D01*
Y272670D01*
X869582Y271337D01*
X870915Y279334D02*
Y284666D01*
X869582D01*
X864251Y279334D01*
X862918D01*
X861585Y287332D02*
Y292663D01*
X869582Y295329D02*
X870915Y296662D01*
Y299328D01*
X869582Y300661D01*
X868249D01*
X866917Y299328D01*
Y297995D01*
Y299328D01*
X865584Y300661D01*
X864251D01*
X862918Y299328D01*
Y296662D01*
X864251Y295329D01*
X665411Y342668D02*
Y350665D01*
X661412D01*
X660079Y349332D01*
Y346666D01*
X661412Y345334D01*
X665411D01*
X662745D02*
X660079Y342668D01*
X652082D02*
X657413D01*
X652082Y347999D01*
Y349332D01*
X653415Y350665D01*
X656080D01*
X657413Y349332D01*
X649416Y350665D02*
X644084D01*
Y349332D01*
X649416Y344001D01*
Y342668D01*
X641418Y341335D02*
X636087D01*
X628089Y342668D02*
X633421D01*
X628089Y347999D01*
Y349332D01*
X629422Y350665D01*
X632088D01*
X633421Y349332D01*
X725328Y913418D02*
Y921415D01*
X721329D01*
X719996Y920082D01*
Y917417D01*
X721329Y916084D01*
X725328D01*
X722662D02*
X719996Y913418D01*
X711999D02*
X717330D01*
X711999Y918749D01*
Y920082D01*
X713332Y921415D01*
X715997D01*
X717330Y920082D01*
X709333Y921415D02*
X704001D01*
Y920082D01*
X709333Y914751D01*
Y913418D01*
X701336Y912085D02*
X696004D01*
X693338Y913418D02*
X690672D01*
X692005D01*
Y921415D01*
X693338Y920082D01*
X343331Y356998D02*
Y347002D01*
X336666D01*
X328335D02*
Y356998D01*
X333334Y352000D01*
X326669D01*
X643994Y165832D02*
Y155835D01*
X637330D01*
X633998D02*
X630665D01*
X632331D01*
Y165832D01*
X633998Y164165D01*
X625667Y154169D02*
X619002D01*
X615670Y164165D02*
X614004Y165832D01*
X610672D01*
X609006Y164165D01*
Y162499D01*
X610672Y160833D01*
X612338D01*
X610672D01*
X609006Y159167D01*
Y157501D01*
X610672Y155835D01*
X614004D01*
X615670Y157501D01*
X584994Y340081D02*
Y330085D01*
X578330D01*
X574998D02*
X571665D01*
X573331D01*
Y340081D01*
X574998Y338415D01*
X566667Y328419D02*
X560002D01*
X550006Y330085D02*
X556670D01*
X550006Y336749D01*
Y338415D01*
X551672Y340081D01*
X555004D01*
X556670Y338415D01*
X807413Y978165D02*
Y970168D01*
X802081D01*
X799415D02*
X796749D01*
X798082D01*
Y978165D01*
X799415Y976832D01*
X792751Y968835D02*
X787419D01*
X784753Y970168D02*
X782087D01*
X783420D01*
Y978165D01*
X784753Y976832D01*
X131752Y303079D02*
X141748D01*
Y298081D01*
X140082Y296415D01*
X133418D01*
X131752Y298081D01*
Y303079D01*
X141748Y293082D02*
X135084D01*
X131752Y289750D01*
X135084Y286418D01*
X141748D01*
X136750D01*
Y293082D01*
X131752Y283085D02*
Y276421D01*
X133418D01*
X140082Y283085D01*
X141748D01*
X864919Y165076D02*
X874915D01*
Y160077D01*
X873249Y158411D01*
X866585D01*
X864919Y160077D01*
Y165076D01*
X874915Y155079D02*
X868251D01*
X864919Y151747D01*
X868251Y148414D01*
X874915D01*
X869917D01*
Y155079D01*
X866585Y145082D02*
X864919Y143416D01*
Y140084D01*
X866585Y138418D01*
X868251D01*
X869917Y140084D01*
Y141750D01*
Y140084D01*
X871583Y138418D01*
X873249D01*
X874915Y140084D01*
Y143416D01*
X873249Y145082D01*
X876581Y135085D02*
Y128421D01*
X866585Y125089D02*
X864919Y123422D01*
Y120090D01*
X866585Y118424D01*
X868251D01*
X869917Y120090D01*
Y121756D01*
Y120090D01*
X871583Y118424D01*
X873249D01*
X874915Y120090D01*
Y123422D01*
X873249Y125089D01*
X730661Y254665D02*
Y246668D01*
X726662D01*
X725329Y248001D01*
Y253332D01*
X726662Y254665D01*
X730661D01*
X722663Y246668D02*
Y251999D01*
X719997Y254665D01*
X717332Y251999D01*
Y246668D01*
Y250667D01*
X722663D01*
X714666Y253332D02*
X713333Y254665D01*
X710667D01*
X709334Y253332D01*
Y251999D01*
X710667Y250667D01*
X712000D01*
X710667D01*
X709334Y249334D01*
Y248001D01*
X710667Y246668D01*
X713333D01*
X714666Y248001D01*
X706668Y245335D02*
X701337D01*
X693339Y246668D02*
X698671D01*
X693339Y251999D01*
Y253332D01*
X694672Y254665D01*
X697338D01*
X698671Y253332D01*
X787660Y992082D02*
Y982085D01*
X782661D01*
X780995Y983751D01*
Y990415D01*
X782661Y992082D01*
X787660D01*
X777663Y982085D02*
Y988749D01*
X774331Y992082D01*
X770998Y988749D01*
Y982085D01*
Y987083D01*
X777663D01*
X767666Y990415D02*
X766000Y992082D01*
X762668D01*
X761002Y990415D01*
Y988749D01*
X762668Y987083D01*
X764334D01*
X762668D01*
X761002Y985417D01*
Y983751D01*
X762668Y982085D01*
X766000D01*
X767666Y983751D01*
X757669Y980418D02*
X751005D01*
X747673Y982085D02*
X744340D01*
X746006D01*
Y992082D01*
X747673Y990415D01*
X420914Y220582D02*
X422581Y222248D01*
X425913D01*
X427579Y220582D01*
Y213918D01*
X425913Y212252D01*
X422581D01*
X420914Y213918D01*
X417582Y220582D02*
X415916Y222248D01*
X412584D01*
X410918Y220582D01*
Y218916D01*
X412584Y217250D01*
X414250D01*
X412584D01*
X410918Y215584D01*
Y213918D01*
X412584Y212252D01*
X415916D01*
X417582Y213918D01*
X400921Y222248D02*
X404253Y220582D01*
X407585Y217250D01*
Y213918D01*
X405919Y212252D01*
X402587D01*
X400921Y213918D01*
Y215584D01*
X402587Y217250D01*
X407585D01*
X383414Y299082D02*
X385081Y300748D01*
X388413D01*
X390079Y299082D01*
Y292418D01*
X388413Y290752D01*
X385081D01*
X383414Y292418D01*
X380082Y299082D02*
X378416Y300748D01*
X375084D01*
X373418Y299082D01*
Y297416D01*
X375084Y295750D01*
X376750D01*
X375084D01*
X373418Y294084D01*
Y292418D01*
X375084Y290752D01*
X378416D01*
X380082Y292418D01*
X363421Y300748D02*
X370085D01*
Y295750D01*
X366753Y297416D01*
X365087D01*
X363421Y295750D01*
Y292418D01*
X365087Y290752D01*
X368419D01*
X370085Y292418D01*
X103665Y243582D02*
X105331Y245248D01*
X108663D01*
X110329Y243582D01*
Y236918D01*
X108663Y235252D01*
X105331D01*
X103665Y236918D01*
X100332Y243582D02*
X98666Y245248D01*
X95334D01*
X93668Y243582D01*
Y241916D01*
X95334Y240250D01*
X97000D01*
X95334D01*
X93668Y238584D01*
Y236918D01*
X95334Y235252D01*
X98666D01*
X100332Y236918D01*
X85337Y235252D02*
Y245248D01*
X90336Y240250D01*
X83671D01*
X66665Y242332D02*
X68331Y243998D01*
X71663D01*
X73329Y242332D01*
Y235668D01*
X71663Y234002D01*
X68331D01*
X66665Y235668D01*
X63332Y242332D02*
X61666Y243998D01*
X58334D01*
X56668Y242332D01*
Y240666D01*
X58334Y239000D01*
X60000D01*
X58334D01*
X56668Y237334D01*
Y235668D01*
X58334Y234002D01*
X61666D01*
X63332Y235668D01*
X53335Y242332D02*
X51669Y243998D01*
X48337D01*
X46671Y242332D01*
Y240666D01*
X48337Y239000D01*
X50003D01*
X48337D01*
X46671Y237334D01*
Y235668D01*
X48337Y234002D01*
X51669D01*
X53335Y235668D01*
X232582Y230835D02*
X234248Y229169D01*
Y225837D01*
X232582Y224171D01*
X225918D01*
X224252Y225837D01*
Y229169D01*
X225918Y230835D01*
X232582Y234168D02*
X234248Y235834D01*
Y239166D01*
X232582Y240832D01*
X230916D01*
X229250Y239166D01*
Y237500D01*
Y239166D01*
X227584Y240832D01*
X225918D01*
X224252Y239166D01*
Y235834D01*
X225918Y234168D01*
X224252Y250829D02*
Y244165D01*
X230916Y250829D01*
X232582D01*
X234248Y249163D01*
Y245831D01*
X232582Y244165D01*
X995329Y188332D02*
X996662Y189665D01*
X999328D01*
X1000661Y188332D01*
Y183001D01*
X999328Y181668D01*
X996662D01*
X995329Y183001D01*
X987332Y181668D02*
X992663D01*
X987332Y186999D01*
Y188332D01*
X988664Y189665D01*
X991330D01*
X992663Y188332D01*
X984666Y189665D02*
X979334D01*
Y188332D01*
X984666Y183001D01*
Y181668D01*
X976668Y180335D02*
X971337D01*
X968671Y188332D02*
X967338Y189665D01*
X964672D01*
X963339Y188332D01*
Y186999D01*
X964672Y185667D01*
X966005D01*
X964672D01*
X963339Y184334D01*
Y183001D01*
X964672Y181668D01*
X967338D01*
X968671Y183001D01*
X839582Y250421D02*
X840915Y249088D01*
Y246422D01*
X839582Y245089D01*
X834251D01*
X832918Y246422D01*
Y249088D01*
X834251Y250421D01*
X832918Y258418D02*
Y253087D01*
X838249Y258418D01*
X839582D01*
X840915Y257085D01*
Y254420D01*
X839582Y253087D01*
X840915Y261084D02*
Y266416D01*
X839582D01*
X834251Y261084D01*
X832918D01*
X831585Y269082D02*
Y274413D01*
X832918Y282411D02*
Y277079D01*
X838249Y282411D01*
X839582D01*
X840915Y281078D01*
Y278412D01*
X839582Y277079D01*
X557995Y846165D02*
X559661Y847831D01*
X562994D01*
X564660Y846165D01*
Y839501D01*
X562994Y837835D01*
X559661D01*
X557995Y839501D01*
X547998Y837835D02*
X554663D01*
X547998Y844499D01*
Y846165D01*
X549664Y847831D01*
X552997D01*
X554663Y846165D01*
X544666Y847831D02*
X538002D01*
Y846165D01*
X544666Y839501D01*
Y837835D01*
X534669Y836169D02*
X528005D01*
X524673Y837835D02*
X521340D01*
X523006D01*
Y847831D01*
X524673Y846165D01*
X849918Y288579D02*
X848585Y289912D01*
Y292578D01*
X849918Y293911D01*
X855249D01*
X856582Y292578D01*
Y289912D01*
X855249Y288579D01*
X856582Y280582D02*
Y285913D01*
X851251Y280582D01*
X849918D01*
X848585Y281915D01*
Y284580D01*
X849918Y285913D01*
X848585Y272584D02*
X849918Y275250D01*
X852583Y277916D01*
X855249D01*
X856582Y276583D01*
Y273917D01*
X855249Y272584D01*
X853916D01*
X852583Y273917D01*
Y277916D01*
X857915Y269918D02*
Y264587D01*
X849918Y261921D02*
X848585Y260588D01*
Y257922D01*
X849918Y256589D01*
X851251D01*
X852583Y257922D01*
Y259255D01*
Y257922D01*
X853916Y256589D01*
X855249D01*
X856582Y257922D01*
Y260588D01*
X855249Y261921D01*
X723079Y340582D02*
X724412Y341915D01*
X727078D01*
X728411Y340582D01*
Y335251D01*
X727078Y333918D01*
X724412D01*
X723079Y335251D01*
X715082Y333918D02*
X720413D01*
X715082Y339249D01*
Y340582D01*
X716414Y341915D01*
X719080D01*
X720413Y340582D01*
X707084Y341915D02*
X709750Y340582D01*
X712416Y337916D01*
Y335251D01*
X711083Y333918D01*
X708417D01*
X707084Y335251D01*
Y336584D01*
X708417Y337916D01*
X712416D01*
X704418Y332585D02*
X699087D01*
X691089Y333918D02*
X696421D01*
X691089Y339249D01*
Y340582D01*
X692422Y341915D01*
X695088D01*
X696421Y340582D01*
X853495Y854665D02*
X855161Y856331D01*
X858493D01*
X860160Y854665D01*
Y848001D01*
X858493Y846335D01*
X855161D01*
X853495Y848001D01*
X843498Y846335D02*
X850163D01*
X843498Y852999D01*
Y854665D01*
X845164Y856331D01*
X848497D01*
X850163Y854665D01*
X833502Y856331D02*
X836834Y854665D01*
X840166Y851333D01*
Y848001D01*
X838500Y846335D01*
X835168D01*
X833502Y848001D01*
Y849667D01*
X835168Y851333D01*
X840166D01*
X830169Y844669D02*
X823505D01*
X820173Y846335D02*
X816840D01*
X818506D01*
Y856331D01*
X820173Y854665D01*
X785413Y251666D02*
X786579Y252832D01*
X788912D01*
X790078Y251666D01*
Y247001D01*
X788912Y245834D01*
X786579D01*
X785413Y247001D01*
X778415Y245834D02*
X783080D01*
X778415Y250499D01*
Y251666D01*
X779581Y252832D01*
X781914D01*
X783080Y251666D01*
X771417Y252832D02*
X776083D01*
Y249333D01*
X773750Y250499D01*
X772584D01*
X771417Y249333D01*
Y247001D01*
X772584Y245834D01*
X774916D01*
X776083Y247001D01*
X769085Y244668D02*
X764420D01*
X762087Y251666D02*
X760921Y252832D01*
X758588D01*
X757422Y251666D01*
Y250499D01*
X758588Y249333D01*
X759754D01*
X758588D01*
X757422Y248167D01*
Y247001D01*
X758588Y245834D01*
X760921D01*
X762087Y247001D01*
X711418Y291829D02*
X710085Y293162D01*
Y295828D01*
X711418Y297161D01*
X716749D01*
X718082Y295828D01*
Y293162D01*
X716749Y291829D01*
X718082Y283832D02*
Y289163D01*
X712751Y283832D01*
X711418D01*
X710085Y285165D01*
Y287830D01*
X711418Y289163D01*
X710085Y275834D02*
Y281166D01*
X714083D01*
X712751Y278500D01*
Y277167D01*
X714083Y275834D01*
X716749D01*
X718082Y277167D01*
Y279833D01*
X716749Y281166D01*
X719415Y273168D02*
Y267837D01*
X718082Y259839D02*
Y265171D01*
X712751Y259839D01*
X711418D01*
X710085Y261172D01*
Y263838D01*
X711418Y265171D01*
X853995Y881915D02*
X855661Y883581D01*
X858994D01*
X860660Y881915D01*
Y875251D01*
X858994Y873585D01*
X855661D01*
X853995Y875251D01*
X843998Y873585D02*
X850663D01*
X843998Y880249D01*
Y881915D01*
X845665Y883581D01*
X848997D01*
X850663Y881915D01*
X834002Y883581D02*
X840666D01*
Y878583D01*
X837334Y880249D01*
X835668D01*
X834002Y878583D01*
Y875251D01*
X835668Y873585D01*
X839000D01*
X840666Y875251D01*
X830669Y871919D02*
X824005D01*
X820673Y873585D02*
X817340D01*
X819006D01*
Y883581D01*
X820673Y881915D01*
X817832Y176671D02*
X819165Y175338D01*
Y172672D01*
X817832Y171339D01*
X812501D01*
X811168Y172672D01*
Y175338D01*
X812501Y176671D01*
X811168Y184668D02*
Y179337D01*
X816499Y184668D01*
X817832D01*
X819165Y183335D01*
Y180670D01*
X817832Y179337D01*
X811168Y191333D02*
X819165D01*
X815166Y187334D01*
Y192666D01*
X809835Y195332D02*
Y200663D01*
X817832Y203329D02*
X819165Y204662D01*
Y207328D01*
X817832Y208661D01*
X816499D01*
X815166Y207328D01*
Y205995D01*
Y207328D01*
X813833Y208661D01*
X812501D01*
X811168Y207328D01*
Y204662D01*
X812501Y203329D01*
X673668Y282829D02*
X672335Y284162D01*
Y286828D01*
X673668Y288161D01*
X678999D01*
X680332Y286828D01*
Y284162D01*
X678999Y282829D01*
X680332Y274832D02*
Y280163D01*
X675001Y274832D01*
X673668D01*
X672335Y276164D01*
Y278830D01*
X673668Y280163D01*
X680332Y268167D02*
X672335D01*
X676333Y272166D01*
Y266834D01*
X681665Y264168D02*
Y258837D01*
X680332Y250839D02*
Y256171D01*
X675001Y250839D01*
X673668D01*
X672335Y252172D01*
Y254838D01*
X673668Y256171D01*
X855245Y868665D02*
X856911Y870331D01*
X860244D01*
X861910Y868665D01*
Y862001D01*
X860244Y860335D01*
X856911D01*
X855245Y862001D01*
X845248Y860335D02*
X851913D01*
X845248Y866999D01*
Y868665D01*
X846915Y870331D01*
X850247D01*
X851913Y868665D01*
X836918Y860335D02*
Y870331D01*
X841916Y865333D01*
X835252D01*
X831919Y858669D02*
X825255D01*
X821923Y860335D02*
X818590D01*
X820256D01*
Y870331D01*
X821923Y868665D01*
X965161Y313165D02*
X966827Y314832D01*
X970160D01*
X971826Y313165D01*
Y306501D01*
X970160Y304835D01*
X966827D01*
X965161Y306501D01*
X955164Y304835D02*
X961829D01*
X955164Y311499D01*
Y313165D01*
X956831Y314832D01*
X960163D01*
X961829Y313165D01*
X951832D02*
X950166Y314832D01*
X946834D01*
X945168Y313165D01*
Y311499D01*
X946834Y309833D01*
X948500D01*
X946834D01*
X945168Y308167D01*
Y306501D01*
X946834Y304835D01*
X950166D01*
X951832Y306501D01*
X941835Y303169D02*
X935171D01*
X931839Y313165D02*
X930173Y314832D01*
X926840D01*
X925174Y313165D01*
Y311499D01*
X926840Y309833D01*
X928506D01*
X926840D01*
X925174Y308167D01*
Y306501D01*
X926840Y304835D01*
X930173D01*
X931839Y306501D01*
X564411Y373165D02*
X566077Y374832D01*
X569410D01*
X571076Y373165D01*
Y366501D01*
X569410Y364835D01*
X566077D01*
X564411Y366501D01*
X554414Y364835D02*
X561079D01*
X554414Y371499D01*
Y373165D01*
X556081Y374832D01*
X559413D01*
X561079Y373165D01*
X551082D02*
X549416Y374832D01*
X546084D01*
X544418Y373165D01*
Y371499D01*
X546084Y369833D01*
X547750D01*
X546084D01*
X544418Y368167D01*
Y366501D01*
X546084Y364835D01*
X549416D01*
X551082Y366501D01*
X541086Y363168D02*
X534421D01*
X524424Y364835D02*
X531089D01*
X524424Y371499D01*
Y373165D01*
X526090Y374832D01*
X529423D01*
X531089Y373165D01*
X948245Y937415D02*
X949911Y939081D01*
X953243D01*
X954910Y937415D01*
Y930751D01*
X953243Y929085D01*
X949911D01*
X948245Y930751D01*
X938248Y929085D02*
X944913D01*
X938248Y935749D01*
Y937415D01*
X939914Y939081D01*
X943247D01*
X944913Y937415D01*
X934916D02*
X933250Y939081D01*
X929918D01*
X928252Y937415D01*
Y935749D01*
X929918Y934083D01*
X931584D01*
X929918D01*
X928252Y932417D01*
Y930751D01*
X929918Y929085D01*
X933250D01*
X934916Y930751D01*
X924919Y927419D02*
X918255D01*
X914923Y929085D02*
X911590D01*
X913256D01*
Y939081D01*
X914923Y937415D01*
X964661Y339165D02*
X966327Y340831D01*
X969660D01*
X971326Y339165D01*
Y332501D01*
X969660Y330835D01*
X966327D01*
X964661Y332501D01*
X954665Y330835D02*
X961329D01*
X954665Y337499D01*
Y339165D01*
X956331Y340831D01*
X959663D01*
X961329Y339165D01*
X944668Y330835D02*
X951332D01*
X944668Y337499D01*
Y339165D01*
X946334Y340831D01*
X949666D01*
X951332Y339165D01*
X941336Y329169D02*
X934671D01*
X931339Y339165D02*
X929673Y340831D01*
X926340D01*
X924674Y339165D01*
Y337499D01*
X926340Y335833D01*
X928006D01*
X926340D01*
X924674Y334167D01*
Y332501D01*
X926340Y330835D01*
X929673D01*
X931339Y332501D01*
X617661Y373165D02*
X619327Y374832D01*
X622660D01*
X624326Y373165D01*
Y366501D01*
X622660Y364835D01*
X619327D01*
X617661Y366501D01*
X607664Y364835D02*
X614329D01*
X607664Y371499D01*
Y373165D01*
X609331Y374832D01*
X612663D01*
X614329Y373165D01*
X597668Y364835D02*
X604332D01*
X597668Y371499D01*
Y373165D01*
X599334Y374832D01*
X602666D01*
X604332Y373165D01*
X594336Y363168D02*
X587671D01*
X577674Y364835D02*
X584339D01*
X577674Y371499D01*
Y373165D01*
X579340Y374832D01*
X582673D01*
X584339Y373165D01*
X950245Y882665D02*
X951911Y884332D01*
X955244D01*
X956910Y882665D01*
Y876001D01*
X955244Y874335D01*
X951911D01*
X950245Y876001D01*
X940248Y874335D02*
X946913D01*
X940248Y880999D01*
Y882665D01*
X941915Y884332D01*
X945247D01*
X946913Y882665D01*
X930252Y874335D02*
X936916D01*
X930252Y880999D01*
Y882665D01*
X931918Y884332D01*
X935250D01*
X936916Y882665D01*
X926919Y872669D02*
X920255D01*
X916923Y874335D02*
X913590D01*
X915256D01*
Y884332D01*
X916923Y882665D01*
X964328Y389165D02*
X965994Y390831D01*
X969327D01*
X970993Y389165D01*
Y382501D01*
X969327Y380835D01*
X965994D01*
X964328Y382501D01*
X954332Y380835D02*
X960996D01*
X954332Y387499D01*
Y389165D01*
X955998Y390831D01*
X959330D01*
X960996Y389165D01*
X950999Y380835D02*
X947667D01*
X949333D01*
Y390831D01*
X950999Y389165D01*
X942669Y379169D02*
X936004D01*
X932672Y389165D02*
X931006Y390831D01*
X927673D01*
X926007Y389165D01*
Y387499D01*
X927673Y385833D01*
X929340D01*
X927673D01*
X926007Y384167D01*
Y382501D01*
X927673Y380835D01*
X931006D01*
X932672Y382501D01*
X665663Y372332D02*
X666995Y373665D01*
X669661D01*
X670994Y372332D01*
Y367001D01*
X669661Y365668D01*
X666995D01*
X665663Y367001D01*
X657665Y365668D02*
X662997D01*
X657665Y370999D01*
Y372332D01*
X658998Y373665D01*
X661664D01*
X662997Y372332D01*
X654999Y365668D02*
X652334D01*
X653666D01*
Y373665D01*
X654999Y372332D01*
X648335Y364335D02*
X643003D01*
X635006Y365668D02*
X640337D01*
X635006Y370999D01*
Y372332D01*
X636339Y373665D01*
X639005D01*
X640337Y372332D01*
X913662Y830415D02*
X915328Y832082D01*
X918661D01*
X920327Y830415D01*
Y823751D01*
X918661Y822085D01*
X915328D01*
X913662Y823751D01*
X903665Y822085D02*
X910330D01*
X903665Y828749D01*
Y830415D01*
X905331Y832082D01*
X908664D01*
X910330Y830415D01*
X900333Y822085D02*
X897001D01*
X898667D01*
Y832082D01*
X900333Y830415D01*
X892002Y820419D02*
X885338D01*
X882006Y822085D02*
X878673D01*
X880340D01*
Y832082D01*
X882006Y830415D01*
X965661Y290165D02*
X967327Y291831D01*
X970660D01*
X972326Y290165D01*
Y283501D01*
X970660Y281835D01*
X967327D01*
X965661Y283501D01*
X955665Y281835D02*
X962329D01*
X955665Y288499D01*
Y290165D01*
X957331Y291831D01*
X960663D01*
X962329Y290165D01*
X952332D02*
X950666Y291831D01*
X947334D01*
X945668Y290165D01*
Y283501D01*
X947334Y281835D01*
X950666D01*
X952332Y283501D01*
Y290165D01*
X942336Y280169D02*
X935671D01*
X932339Y290165D02*
X930673Y291831D01*
X927340D01*
X925674Y290165D01*
Y288499D01*
X927340Y286833D01*
X929006D01*
X927340D01*
X925674Y285167D01*
Y283501D01*
X927340Y281835D01*
X930673D01*
X932339Y283501D01*
X509911Y373165D02*
X511577Y374832D01*
X514910D01*
X516576Y373165D01*
Y366501D01*
X514910Y364835D01*
X511577D01*
X509911Y366501D01*
X499915Y364835D02*
X506579D01*
X499915Y371499D01*
Y373165D01*
X501581Y374832D01*
X504913D01*
X506579Y373165D01*
X496582D02*
X494916Y374832D01*
X491584D01*
X489918Y373165D01*
Y366501D01*
X491584Y364835D01*
X494916D01*
X496582Y366501D01*
Y373165D01*
X486586Y363168D02*
X479921D01*
X469924Y364835D02*
X476589D01*
X469924Y371499D01*
Y373165D01*
X471590Y374832D01*
X474922D01*
X476589Y373165D01*
X945745Y968165D02*
X947411Y969831D01*
X950743D01*
X952410Y968165D01*
Y961501D01*
X950743Y959835D01*
X947411D01*
X945745Y961501D01*
X935748Y959835D02*
X942413D01*
X935748Y966499D01*
Y968165D01*
X937414Y969831D01*
X940747D01*
X942413Y968165D01*
X932416D02*
X930750Y969831D01*
X927418D01*
X925752Y968165D01*
Y961501D01*
X927418Y959835D01*
X930750D01*
X932416Y961501D01*
Y968165D01*
X922419Y958168D02*
X915755D01*
X912423Y959835D02*
X909090D01*
X910756D01*
Y969831D01*
X912423Y968165D01*
X542328Y186915D02*
X543994Y188582D01*
X547327D01*
X548993Y186915D01*
Y180251D01*
X547327Y178585D01*
X543994D01*
X542328Y180251D01*
X538996Y178585D02*
X535664D01*
X537330D01*
Y188582D01*
X538996Y186915D01*
X530665Y180251D02*
X528999Y178585D01*
X525667D01*
X524001Y180251D01*
Y186915D01*
X525667Y188582D01*
X528999D01*
X530665Y186915D01*
Y185249D01*
X528999Y183583D01*
X524001D01*
X520669Y176919D02*
X514004D01*
X510672Y186915D02*
X509006Y188582D01*
X505673D01*
X504007Y186915D01*
Y185249D01*
X505673Y183583D01*
X507340D01*
X505673D01*
X504007Y181917D01*
Y180251D01*
X505673Y178585D01*
X509006D01*
X510672Y180251D01*
X481328Y286165D02*
X482994Y287831D01*
X486327D01*
X487993Y286165D01*
Y279501D01*
X486327Y277835D01*
X482994D01*
X481328Y279501D01*
X477996Y277835D02*
X474664D01*
X476330D01*
Y287831D01*
X477996Y286165D01*
X469665Y279501D02*
X467999Y277835D01*
X464667D01*
X463001Y279501D01*
Y286165D01*
X464667Y287831D01*
X467999D01*
X469665Y286165D01*
Y284499D01*
X467999Y282833D01*
X463001D01*
X459669Y276168D02*
X453004D01*
X443007Y277835D02*
X449672D01*
X443007Y284499D01*
Y286165D01*
X444673Y287831D01*
X448006D01*
X449672Y286165D01*
X610162Y988165D02*
X611828Y989831D01*
X615160D01*
X616827Y988165D01*
Y981501D01*
X615160Y979835D01*
X611828D01*
X610162Y981501D01*
X606830Y979835D02*
X603498D01*
X605164D01*
Y989831D01*
X606830Y988165D01*
X598499Y981501D02*
X596833Y979835D01*
X593501D01*
X591835Y981501D01*
Y988165D01*
X593501Y989831D01*
X596833D01*
X598499Y988165D01*
Y986499D01*
X596833Y984833D01*
X591835D01*
X588502Y978168D02*
X581838D01*
X578506Y979835D02*
X575173D01*
X576839D01*
Y989831D01*
X578506Y988165D01*
X485828Y188165D02*
X487494Y189831D01*
X490827D01*
X492493Y188165D01*
Y181501D01*
X490827Y179835D01*
X487494D01*
X485828Y181501D01*
X482496Y179835D02*
X479164D01*
X480830D01*
Y189831D01*
X482496Y188165D01*
X474165D02*
X472499Y189831D01*
X469167D01*
X467501Y188165D01*
Y186499D01*
X469167Y184833D01*
X467501Y183167D01*
Y181501D01*
X469167Y179835D01*
X472499D01*
X474165Y181501D01*
Y183167D01*
X472499Y184833D01*
X474165Y186499D01*
Y188165D01*
X472499Y184833D02*
X469167D01*
X464169Y178169D02*
X457504D01*
X454172Y188165D02*
X452506Y189831D01*
X449173D01*
X447507Y188165D01*
Y186499D01*
X449173Y184833D01*
X450840D01*
X449173D01*
X447507Y183167D01*
Y181501D01*
X449173Y179835D01*
X452506D01*
X454172Y181501D01*
X480828Y251665D02*
X482494Y253331D01*
X485827D01*
X487493Y251665D01*
Y245001D01*
X485827Y243335D01*
X482494D01*
X480828Y245001D01*
X477496Y243335D02*
X474164D01*
X475830D01*
Y253331D01*
X477496Y251665D01*
X469165D02*
X467499Y253331D01*
X464167D01*
X462501Y251665D01*
Y249999D01*
X464167Y248333D01*
X462501Y246667D01*
Y245001D01*
X464167Y243335D01*
X467499D01*
X469165Y245001D01*
Y246667D01*
X467499Y248333D01*
X469165Y249999D01*
Y251665D01*
X467499Y248333D02*
X464167D01*
X459169Y241668D02*
X452504D01*
X442507Y243335D02*
X449172D01*
X442507Y249999D01*
Y251665D01*
X444173Y253331D01*
X447506D01*
X449172Y251665D01*
X729662Y991415D02*
X731328Y993082D01*
X734660D01*
X736327Y991415D01*
Y984751D01*
X734660Y983085D01*
X731328D01*
X729662Y984751D01*
X726330Y983085D02*
X722998D01*
X724664D01*
Y993082D01*
X726330Y991415D01*
X717999D02*
X716333Y993082D01*
X713001D01*
X711335Y991415D01*
Y989749D01*
X713001Y988083D01*
X711335Y986417D01*
Y984751D01*
X713001Y983085D01*
X716333D01*
X717999Y984751D01*
Y986417D01*
X716333Y988083D01*
X717999Y989749D01*
Y991415D01*
X716333Y988083D02*
X713001D01*
X708002Y981419D02*
X701338D01*
X698006Y983085D02*
X694673D01*
X696339D01*
Y993082D01*
X698006Y991415D01*
X430328Y188165D02*
X431994Y189831D01*
X435327D01*
X436993Y188165D01*
Y181501D01*
X435327Y179835D01*
X431994D01*
X430328Y181501D01*
X426996Y179835D02*
X423664D01*
X425330D01*
Y189831D01*
X426996Y188165D01*
X418665Y189831D02*
X412001D01*
Y188165D01*
X418665Y181501D01*
Y179835D01*
X408669Y178169D02*
X402004D01*
X398672Y188165D02*
X397006Y189831D01*
X393673D01*
X392007Y188165D01*
Y186499D01*
X393673Y184833D01*
X395340D01*
X393673D01*
X392007Y183167D01*
Y181501D01*
X393673Y179835D01*
X397006D01*
X398672Y181501D01*
X480078Y219415D02*
X481744Y221081D01*
X485077D01*
X486743Y219415D01*
Y212751D01*
X485077Y211085D01*
X481744D01*
X480078Y212751D01*
X476746Y211085D02*
X473414D01*
X475080D01*
Y221081D01*
X476746Y219415D01*
X468415Y221081D02*
X461751D01*
Y219415D01*
X468415Y212751D01*
Y211085D01*
X458419Y209419D02*
X451754D01*
X441757Y211085D02*
X448422D01*
X441757Y217749D01*
Y219415D01*
X443423Y221081D01*
X446756D01*
X448422Y219415D01*
X674412Y989165D02*
X676078Y990832D01*
X679410D01*
X681077Y989165D01*
Y982501D01*
X679410Y980835D01*
X676078D01*
X674412Y982501D01*
X671080Y980835D02*
X667748D01*
X669414D01*
Y990832D01*
X671080Y989165D01*
X662749Y990832D02*
X656085D01*
Y989165D01*
X662749Y982501D01*
Y980835D01*
X652752Y979169D02*
X646088D01*
X642756Y980835D02*
X639423D01*
X641089D01*
Y990832D01*
X642756Y989165D01*
X723664Y153332D02*
X725331Y154998D01*
X728663D01*
X730329Y153332D01*
Y146668D01*
X728663Y145002D01*
X725331D01*
X723664Y146668D01*
X720332Y153332D02*
X718666Y154998D01*
X715334D01*
X713668Y153332D01*
Y151666D01*
X715334Y150000D01*
X717000D01*
X715334D01*
X713668Y148334D01*
Y146668D01*
X715334Y145002D01*
X718666D01*
X720332Y146668D01*
X710335Y154998D02*
X703671D01*
Y153332D01*
X710335Y146668D01*
Y145002D01*
X565415Y115582D02*
X567081Y117248D01*
X570413D01*
X572079Y115582D01*
Y108918D01*
X570413Y107252D01*
X567081D01*
X565415Y108918D01*
X562082Y115582D02*
X560416Y117248D01*
X557084D01*
X555418Y115582D01*
Y113916D01*
X557084Y112250D01*
X558750D01*
X557084D01*
X555418Y110584D01*
Y108918D01*
X557084Y107252D01*
X560416D01*
X562082Y108918D01*
X552085Y115582D02*
X550419Y117248D01*
X547087D01*
X545421Y115582D01*
Y113916D01*
X547087Y112250D01*
X545421Y110584D01*
Y108918D01*
X547087Y107252D01*
X550419D01*
X552085Y108918D01*
Y110584D01*
X550419Y112250D01*
X552085Y113916D01*
Y115582D01*
X550419Y112250D02*
X547087D01*
X866915Y40082D02*
X868581Y41748D01*
X871913D01*
X873579Y40082D01*
Y33418D01*
X871913Y31752D01*
X868581D01*
X866915Y33418D01*
X863582Y40082D02*
X861916Y41748D01*
X858584D01*
X856918Y40082D01*
Y38416D01*
X858584Y36750D01*
X860250D01*
X858584D01*
X856918Y35084D01*
Y33418D01*
X858584Y31752D01*
X861916D01*
X863582Y33418D01*
X853586D02*
X851919Y31752D01*
X848587D01*
X846921Y33418D01*
Y40082D01*
X848587Y41748D01*
X851919D01*
X853586Y40082D01*
Y38416D01*
X851919Y36750D01*
X846921D01*
X686164Y75332D02*
X687831Y76998D01*
X691163D01*
X692829Y75332D01*
Y68668D01*
X691163Y67002D01*
X687831D01*
X686164Y68668D01*
X677834Y67002D02*
Y76998D01*
X682832Y72000D01*
X676168D01*
X672835Y75332D02*
X671169Y76998D01*
X667837D01*
X666171Y75332D01*
Y68668D01*
X667837Y67002D01*
X671169D01*
X672835Y68668D01*
Y75332D01*
X328248Y69332D02*
X329915Y70998D01*
X333247D01*
X334913Y69332D01*
Y62668D01*
X333247Y61002D01*
X329915D01*
X328248Y62668D01*
X319918Y61002D02*
Y70998D01*
X324916Y66000D01*
X318252D01*
X314919Y61002D02*
X311587D01*
X313253D01*
Y70998D01*
X314919Y69332D01*
X360664Y156332D02*
X362331Y157998D01*
X365663D01*
X367329Y156332D01*
Y149668D01*
X365663Y148002D01*
X362331D01*
X360664Y149668D01*
X352334Y148002D02*
Y157998D01*
X357332Y153000D01*
X350668D01*
X340671Y148002D02*
X347336D01*
X340671Y154666D01*
Y156332D01*
X342337Y157998D01*
X345669D01*
X347336Y156332D01*
X327664D02*
X329331Y157998D01*
X332663D01*
X334329Y156332D01*
Y149668D01*
X332663Y148002D01*
X329331D01*
X327664Y149668D01*
X319334Y148002D02*
Y157998D01*
X324332Y153000D01*
X317668D01*
X314335Y156332D02*
X312669Y157998D01*
X309337D01*
X307671Y156332D01*
Y154666D01*
X309337Y153000D01*
X311003D01*
X309337D01*
X307671Y151334D01*
Y149668D01*
X309337Y148002D01*
X312669D01*
X314335Y149668D01*
X99415Y179332D02*
X101081Y180998D01*
X104413D01*
X106079Y179332D01*
Y172668D01*
X104413Y171002D01*
X101081D01*
X99415Y172668D01*
X91084Y171002D02*
Y180998D01*
X96082Y176000D01*
X89418D01*
X81087Y171002D02*
Y180998D01*
X86086Y176000D01*
X79421D01*
X70164Y218832D02*
X71831Y220498D01*
X75163D01*
X76829Y218832D01*
Y212168D01*
X75163Y210502D01*
X71831D01*
X70164Y212168D01*
X61834Y210502D02*
Y220498D01*
X66832Y215500D01*
X60168D01*
X50171Y220498D02*
X56835D01*
Y215500D01*
X53503Y217166D01*
X51837D01*
X50171Y215500D01*
Y212168D01*
X51837Y210502D01*
X55169D01*
X56835Y212168D01*
X288079Y186748D02*
Y176752D01*
X283081D01*
X281415Y178418D01*
Y185082D01*
X283081Y186748D01*
X288079D01*
X278082Y176752D02*
Y183416D01*
X274750Y186748D01*
X271418Y183416D01*
Y176752D01*
Y181750D01*
X278082D01*
X268085Y185082D02*
X266419Y186748D01*
X263087D01*
X261421Y185082D01*
Y183416D01*
X263087Y181750D01*
X261421Y180084D01*
Y178418D01*
X263087Y176752D01*
X266419D01*
X268085Y178418D01*
Y180084D01*
X266419Y181750D01*
X268085Y183416D01*
Y185082D01*
X266419Y181750D02*
X263087D01*
X566494Y38748D02*
Y28752D01*
X561496D01*
X559830Y30418D01*
Y37082D01*
X561496Y38748D01*
X566494D01*
X556498D02*
Y28752D01*
X551499D01*
X549833Y30418D01*
Y37082D01*
X551499Y38748D01*
X556498D01*
X546501Y28752D02*
X543168D01*
X544835D01*
Y38748D01*
X546501Y37082D01*
X538170D02*
X536504Y38748D01*
X533172D01*
X531506Y37082D01*
Y30418D01*
X533172Y28752D01*
X536504D01*
X538170Y30418D01*
Y37082D01*
X646331Y147998D02*
Y138002D01*
X639666D01*
X629669Y147998D02*
X636334D01*
Y143000D01*
X633002Y144666D01*
X631335D01*
X629669Y143000D01*
Y139668D01*
X631335Y138002D01*
X634668D01*
X636334Y139668D01*
X788831Y15998D02*
Y6002D01*
X782166D01*
X772169Y15998D02*
X775502Y14332D01*
X778834Y11000D01*
Y7668D01*
X777168Y6002D01*
X773836D01*
X772169Y7668D01*
Y9334D01*
X773836Y11000D01*
X778834D01*
X87581Y108998D02*
Y99002D01*
X80916D01*
X77584Y108998D02*
X70919D01*
Y107332D01*
X77584Y100668D01*
Y99002D01*
X372581Y526002D02*
Y535998D01*
X367582D01*
X365916Y534332D01*
Y531000D01*
X367582Y529334D01*
X372581D01*
X369248D02*
X365916Y526002D01*
X355919Y535998D02*
X359252Y534332D01*
X362584Y531000D01*
Y527668D01*
X360918Y526002D01*
X357585D01*
X355919Y527668D01*
Y529334D01*
X357585Y531000D01*
X362584D01*
X949998Y518496D02*
X940002D01*
Y513498D01*
X941668Y511831D01*
X945000D01*
X946666Y513498D01*
Y518496D01*
Y515164D02*
X949998Y511831D01*
Y508499D02*
Y505167D01*
Y506833D01*
X940002D01*
X941668Y508499D01*
X940002Y500168D02*
Y493504D01*
X941668D01*
X948332Y500168D01*
X949998D01*
X83470Y335470D02*
Y345467D01*
X78472D01*
X76806Y343801D01*
Y340468D01*
X78472Y338802D01*
X83470D01*
X80138D02*
X76806Y335470D01*
X68475D02*
Y345467D01*
X73473Y340468D01*
X66809D01*
X63476Y343801D02*
X61810Y345467D01*
X58478D01*
X56812Y343801D01*
Y342135D01*
X58478Y340468D01*
X56812Y338802D01*
Y337136D01*
X58478Y335470D01*
X61810D01*
X63476Y337136D01*
Y338802D01*
X61810Y340468D01*
X63476Y342135D01*
Y343801D01*
X61810Y340468D02*
X58478D01*
X641829Y3502D02*
Y13498D01*
X636831D01*
X635164Y11832D01*
Y8500D01*
X636831Y6834D01*
X641829D01*
X638497D02*
X635164Y3502D01*
X626834D02*
Y13498D01*
X631832Y8500D01*
X625168D01*
X621836Y5168D02*
X620169Y3502D01*
X616837D01*
X615171Y5168D01*
Y11832D01*
X616837Y13498D01*
X620169D01*
X621836Y11832D01*
Y10166D01*
X620169Y8500D01*
X615171D01*
X678079Y3502D02*
Y13498D01*
X673081D01*
X671414Y11832D01*
Y8500D01*
X673081Y6834D01*
X678079D01*
X674747D02*
X671414Y3502D01*
X661418Y13498D02*
X668082D01*
Y8500D01*
X664750Y10166D01*
X663084D01*
X661418Y8500D01*
Y5168D01*
X663084Y3502D01*
X666416D01*
X668082Y5168D01*
X658085Y11832D02*
X656419Y13498D01*
X653087D01*
X651421Y11832D01*
Y5168D01*
X653087Y3502D01*
X656419D01*
X658085Y5168D01*
Y11832D01*
X717163Y4252D02*
Y14248D01*
X712165D01*
X710498Y12582D01*
Y9250D01*
X712165Y7584D01*
X717163D01*
X713831D02*
X710498Y4252D01*
X700502Y14248D02*
X707166D01*
Y9250D01*
X703834Y10916D01*
X702168D01*
X700502Y9250D01*
Y5918D01*
X702168Y4252D01*
X705500D01*
X707166Y5918D01*
X697169Y4252D02*
X693837D01*
X695503D01*
Y14248D01*
X697169Y12582D01*
X324579Y183002D02*
Y192998D01*
X319581D01*
X317915Y191332D01*
Y188000D01*
X319581Y186334D01*
X324579D01*
X321247D02*
X317915Y183002D01*
X307918Y192998D02*
X314582D01*
Y188000D01*
X311250Y189666D01*
X309584D01*
X307918Y188000D01*
Y184668D01*
X309584Y183002D01*
X312916D01*
X314582Y184668D01*
X297921Y183002D02*
X304585D01*
X297921Y189666D01*
Y191332D01*
X299587Y192998D01*
X302919D01*
X304585Y191332D01*
X218579Y183502D02*
Y193498D01*
X213581D01*
X211915Y191832D01*
Y188500D01*
X213581Y186834D01*
X218579D01*
X215247D02*
X211915Y183502D01*
X201918Y193498D02*
X208582D01*
Y188500D01*
X205250Y190166D01*
X203584D01*
X201918Y188500D01*
Y185168D01*
X203584Y183502D01*
X206916D01*
X208582Y185168D01*
X198585Y191832D02*
X196919Y193498D01*
X193587D01*
X191921Y191832D01*
Y190166D01*
X193587Y188500D01*
X195253D01*
X193587D01*
X191921Y186834D01*
Y185168D01*
X193587Y183502D01*
X196919D01*
X198585Y185168D01*
X252329Y182752D02*
Y192748D01*
X247331D01*
X245665Y191082D01*
Y187750D01*
X247331Y186084D01*
X252329D01*
X248997D02*
X245665Y182752D01*
X235668Y192748D02*
X242332D01*
Y187750D01*
X239000Y189416D01*
X237334D01*
X235668Y187750D01*
Y184418D01*
X237334Y182752D01*
X240666D01*
X242332Y184418D01*
X227337Y182752D02*
Y192748D01*
X232335Y187750D01*
X225671D01*
X935329Y815998D02*
Y809334D01*
X931997Y806002D01*
X928664Y809334D01*
Y815998D01*
X925332D02*
Y806002D01*
X920334D01*
X918668Y807668D01*
Y814332D01*
X920334Y815998D01*
X925332D01*
X915335Y807668D02*
X913669Y806002D01*
X910337D01*
X908671Y807668D01*
Y814332D01*
X910337Y815998D01*
X913669D01*
X915335Y814332D01*
Y812666D01*
X913669Y811000D01*
X908671D01*
X969578Y670748D02*
Y664084D01*
X966246Y660752D01*
X962914Y664084D01*
Y670748D01*
X959581D02*
Y660752D01*
X954583D01*
X952917Y662418D01*
Y669082D01*
X954583Y670748D01*
X959581D01*
X949585Y660752D02*
X946252D01*
X947918D01*
Y670748D01*
X949585Y669082D01*
X941254Y660752D02*
X937922D01*
X939588D01*
Y670748D01*
X941254Y669082D01*
X134002Y245744D02*
X140666D01*
X143998Y242412D01*
X140666Y239080D01*
X134002D01*
Y235748D02*
X143998D01*
Y230749D01*
X142332Y229083D01*
X135668D01*
X134002Y230749D01*
Y235748D01*
X143998Y225751D02*
Y222418D01*
Y224085D01*
X134002D01*
X135668Y225751D01*
X134002Y210756D02*
Y217420D01*
X139000D01*
X137334Y214088D01*
Y212422D01*
X139000Y210756D01*
X142332D01*
X143998Y212422D01*
Y215754D01*
X142332Y217420D01*
X805494Y138748D02*
Y132084D01*
X802162Y128752D01*
X798830Y132084D01*
Y138748D01*
X795498D02*
Y128752D01*
X790499D01*
X788833Y130418D01*
Y137082D01*
X790499Y138748D01*
X795498D01*
X785501Y128752D02*
X782169D01*
X783835D01*
Y138748D01*
X785501Y137082D01*
X777170Y138748D02*
X770506D01*
Y137082D01*
X777170Y130418D01*
Y128752D01*
X222248Y42756D02*
X215584D01*
X212252Y46088D01*
X215584Y49420D01*
X222248D01*
Y52752D02*
X212252D01*
Y57751D01*
X213918Y59417D01*
X220582D01*
X222248Y57751D01*
Y52752D01*
X212252Y62749D02*
Y66081D01*
Y64415D01*
X222248D01*
X220582Y62749D01*
Y71080D02*
X222248Y72746D01*
Y76078D01*
X220582Y77744D01*
X218916D01*
X217250Y76078D01*
X215584Y77744D01*
X213918D01*
X212252Y76078D01*
Y72746D01*
X213918Y71080D01*
X215584D01*
X217250Y72746D01*
X218916Y71080D01*
X220582D01*
X217250Y72746D02*
Y76078D01*
X281994Y25248D02*
Y18584D01*
X278662Y15252D01*
X275330Y18584D01*
Y25248D01*
X271998D02*
Y15252D01*
X266999D01*
X265333Y16918D01*
Y23582D01*
X266999Y25248D01*
X271998D01*
X262001Y15252D02*
X258668D01*
X260335D01*
Y25248D01*
X262001Y23582D01*
X253670Y16918D02*
X252004Y15252D01*
X248672D01*
X247006Y16918D01*
Y23582D01*
X248672Y25248D01*
X252004D01*
X253670Y23582D01*
Y21916D01*
X252004Y20250D01*
X247006D01*
D12*
X146736Y451250D02*
G03*
X146736Y451250I-2236J0D01*
G01*
X423986Y451500D02*
G03*
X423986Y451500I-2236J0D01*
G01*
X321986D02*
G03*
X321986Y451500I-2236J0D01*
G01*
X626000Y925250D02*
X634500Y926000D01*
X616000Y916000D02*
X626000Y925250D01*
X583500Y914750D02*
X616000Y916000D01*
X634500Y926000D02*
X650250Y915250D01*
X619530Y874702D02*
X643282Y871216D01*
X806250Y837000D02*
X815750Y831250D01*
X794750Y870750D02*
X817250Y861250D01*
X673250Y346500D02*
X732250D01*
X870500Y410250D02*
X874750Y414500D01*
X497000Y410250D02*
X870500D01*
X490750Y465750D02*
X494875Y469875D01*
X490750Y416500D02*
Y465750D01*
Y416500D02*
X497000Y410250D01*
X481000Y413500D02*
X489000Y421500D01*
X481250Y429250D02*
X489250Y421750D01*
X59000Y421500D02*
X490250D01*
X38750Y441750D02*
X59000Y421500D01*
X38750Y441750D02*
Y503000D01*
X405000Y489750D02*
X414500D01*
X405000Y477000D02*
X414500D01*
X405000Y464250D02*
X414500D01*
X405000Y451500D02*
X414500D01*
X453750Y489500D02*
X463250D01*
X453750Y476750D02*
X463250D01*
X453750Y464000D02*
X463250D01*
X453750Y451250D02*
X463250D01*
X351750Y489500D02*
X361250D01*
X351750Y476750D02*
X361250D01*
X351750Y464000D02*
X361250D01*
X351750Y451250D02*
X361250D01*
X302750Y489500D02*
X312250D01*
X302750Y476750D02*
X312250D01*
X302750Y464000D02*
X312250D01*
X302750Y451250D02*
X312250D01*
X176750Y489500D02*
X186250D01*
X176750Y476750D02*
X186250D01*
X176750Y464000D02*
X186250D01*
X176750Y451250D02*
X186250D01*
X128000D02*
X137500D01*
X128000Y464000D02*
X137500D01*
X128000Y476750D02*
X137500D01*
X128000Y489500D02*
X137500D01*
X99610Y442189D02*
Y468190D01*
Y442189D02*
X114610D01*
Y468190D01*
X99610D02*
X114610D01*
X99610Y498190D02*
X114610D01*
Y472190D02*
Y498190D01*
X99610Y472190D02*
X114610D01*
X99610D02*
Y498190D01*
X137610Y495440D02*
X176610D01*
Y444940D02*
Y495440D01*
X137610Y444940D02*
X176610D01*
X137610D02*
Y495440D01*
X267010Y441540D02*
Y478840D01*
X204010Y441540D02*
X267010D01*
X204010D02*
Y478840D01*
X267010D01*
X199010Y497250D02*
X225010D01*
X199010Y482690D02*
Y497250D01*
Y482690D02*
X225010D01*
Y497250D01*
X242510Y497690D02*
X268510D01*
Y482690D02*
Y497690D01*
X242510Y482690D02*
X268510D01*
X242510D02*
Y497690D01*
X289610Y442189D02*
Y468190D01*
X274610Y442189D02*
X289610D01*
X274610D02*
Y468190D01*
X289610D01*
X289610Y472190D02*
Y498190D01*
X274610Y472190D02*
X289610D01*
X274610D02*
Y498190D01*
X289610D01*
X312610Y495440D02*
X351610D01*
X312610Y444940D02*
Y495440D01*
Y444940D02*
X351610D01*
Y495440D01*
X391610Y442189D02*
Y468190D01*
X376610Y442189D02*
X391610D01*
X376610D02*
Y468190D01*
X391610D01*
X391610Y472190D02*
Y498190D01*
X376610Y472190D02*
X391610D01*
X376610D02*
Y498190D01*
X391610D01*
X453610Y444940D02*
Y495440D01*
X414610Y444940D02*
X453610D01*
X414610D02*
Y495440D01*
X453610D01*
X747000Y354000D02*
X749000Y356000D01*
X813000D01*
X680000Y350000D02*
X710000D01*
X714000Y354000D01*
X747000D01*
X670000Y360000D02*
X680000Y350000D01*
X469000Y360000D02*
X670000D01*
D16*
X281750Y32250D02*
X293500D01*
X281750Y76250D02*
X293500D01*
X221500Y83500D02*
X238500D01*
X221500Y96500D02*
X238500D01*
Y83500D02*
Y84500D01*
Y95500D02*
Y96500D01*
X221500Y83500D02*
Y84500D01*
Y95500D02*
Y96500D01*
X758350Y122800D02*
X801650D01*
X758350Y97200D02*
X801650D01*
X758350D02*
Y99300D01*
Y120700D02*
Y122800D01*
X801650Y97200D02*
Y99300D01*
Y120700D02*
Y122800D01*
X163350Y237800D02*
X206650D01*
X163350Y212200D02*
X206650D01*
X163350D02*
Y214300D01*
Y235700D02*
Y237800D01*
X206650Y212200D02*
Y214300D01*
Y235700D02*
Y237800D01*
X146500Y248500D02*
X163500D01*
X146500Y261500D02*
X163500D01*
Y248500D02*
Y249500D01*
Y260500D02*
Y261500D01*
X146500Y248500D02*
Y249500D01*
Y260500D02*
Y261500D01*
X277100Y721800D02*
X320400D01*
X277100Y696200D02*
X320400D01*
X277100D02*
Y698300D01*
Y719700D02*
Y721800D01*
X320400Y696200D02*
Y698300D01*
Y719700D02*
Y721800D01*
X720500Y161375D02*
Y230125D01*
X779500Y161375D02*
Y230125D01*
X773000Y161375D02*
X779500D01*
X720500D02*
X727000D01*
X773000Y230125D02*
X779500D01*
X720500D02*
X727000D01*
X610290Y250475D02*
Y319225D01*
X669290Y250475D02*
Y319225D01*
X662790Y250475D02*
X669290D01*
X610290D02*
X616790D01*
X662790Y319225D02*
X669290D01*
X610290D02*
X616790D01*
X859710Y895775D02*
Y964525D01*
X800710Y895775D02*
Y964525D01*
X807210D01*
X853210D02*
X859710D01*
X800710Y895775D02*
X807210D01*
X853210D02*
X859710D01*
X934450Y686850D02*
Y730150D01*
X960050Y686850D02*
Y730150D01*
X957950Y686850D02*
X960050D01*
X934450D02*
X936550D01*
X957950Y730150D02*
X960050D01*
X934450D02*
X936550D01*
X934700Y757000D02*
Y800300D01*
X960300Y757000D02*
Y800300D01*
X958200Y757000D02*
X960300D01*
X934700D02*
X936800D01*
X958200Y800300D02*
X960300D01*
X934700D02*
X936800D01*
X419950Y310430D02*
X432050D01*
X419950Y287570D02*
X432050D01*
X26570Y263950D02*
Y276050D01*
X49430Y263950D02*
Y276050D01*
X391950Y669430D02*
X404050D01*
X391950Y646570D02*
X404050D01*
X51180Y632700D02*
Y644800D01*
X28320Y632700D02*
Y644800D01*
X697500Y28750D02*
X724000D01*
Y34750D01*
X697500Y64750D02*
X724000D01*
Y58750D02*
Y64750D01*
X106500Y312000D02*
X133000D01*
Y318000D01*
X106500Y348000D02*
X133000D01*
Y342000D02*
Y348000D01*
X221250Y594750D02*
X247750D01*
Y600750D01*
X221250Y630750D02*
X247750D01*
Y624750D02*
Y630750D01*
X605010Y413540D02*
X668010D01*
X605010Y450840D02*
X668010D01*
X605010Y473540D02*
X668010D01*
X605010Y510840D02*
X668010D01*
X605010Y533540D02*
X668010D01*
X605010Y570840D02*
X668010D01*
X605010Y593540D02*
X668010D01*
X605010Y630840D02*
X668010D01*
X605010Y653540D02*
X668010D01*
X605010Y690840D02*
X668010D01*
X605010Y713540D02*
X668010D01*
X605010Y750840D02*
X668010D01*
X605010Y773540D02*
X668010D01*
X605010Y810840D02*
X668010D01*
X886750Y255250D02*
X913250D01*
X886750Y249250D02*
Y255250D01*
Y219250D02*
X913250D01*
X886750D02*
Y225250D01*
X771000Y354000D02*
X797500D01*
X771000Y348000D02*
Y354000D01*
Y318000D02*
X797500D01*
X771000D02*
Y324000D01*
X648250Y912750D02*
X674750D01*
X648250Y906750D02*
Y912750D01*
Y876750D02*
X674750D01*
X648250D02*
Y882750D01*
X801500Y28500D02*
Y91500D01*
X738500Y28500D02*
Y91500D01*
X785200D02*
X801500D01*
X738500D02*
X754800D01*
X785200Y28500D02*
X801500D01*
X738500D02*
X754800D01*
X598500Y68500D02*
X661500D01*
X598500Y131500D02*
X661500D01*
Y68500D02*
Y84800D01*
Y115200D02*
Y131500D01*
X598500Y68500D02*
Y84800D01*
Y115200D02*
Y131500D01*
X320500Y623500D02*
Y686500D01*
X257500Y623500D02*
Y686500D01*
X304200D02*
X320500D01*
X257500D02*
X273800D01*
X304200Y623500D02*
X320500D01*
X257500D02*
X273800D01*
X127500Y654500D02*
X190500D01*
X127500Y717500D02*
X190500D01*
Y654500D02*
Y670800D01*
Y701200D02*
Y717500D01*
X127500Y654500D02*
Y670800D01*
Y701200D02*
Y717500D01*
X705345Y227350D02*
X717350D01*
X652650D02*
X664655D01*
X652650Y162650D02*
X664655D01*
X705345D02*
X717350D01*
X652650D02*
Y227350D01*
X717350Y162650D02*
Y227350D01*
X595345Y312350D02*
X607350D01*
X542650D02*
X554655D01*
X542650Y247650D02*
X554655D01*
X595345D02*
X607350D01*
X542650D02*
Y312350D01*
X607350Y247650D02*
Y312350D01*
X727650Y901860D02*
X739655D01*
X780345D02*
X792350D01*
X780345Y966560D02*
X792350D01*
X727650D02*
X739655D01*
X792350Y901860D02*
Y966560D01*
X727650Y901860D02*
Y966560D01*
X616096Y29760D02*
Y60240D01*
X613048Y29760D02*
X616096D01*
X603904D02*
X613048D01*
X603904D02*
Y60240D01*
X613048D01*
X616096D01*
X613048Y29760D02*
Y60240D01*
X149096Y602760D02*
Y633240D01*
X146048Y602760D02*
X149096D01*
X136904D02*
X146048D01*
X136904D02*
Y633240D01*
X146048D01*
X149096D01*
X146048Y602760D02*
Y633240D01*
X815610Y416940D02*
X854610D01*
X815610Y467440D02*
X854610D01*
X815610Y476940D02*
X854610D01*
X815610Y527440D02*
X854610D01*
X815610Y536940D02*
X854610D01*
X815610Y587440D02*
X854610D01*
X815610Y596940D02*
X854610D01*
X815610Y647440D02*
X854610D01*
X815610Y656940D02*
X854610D01*
X815610Y707440D02*
X854610D01*
X815610Y716940D02*
X854610D01*
X815610Y767440D02*
X854610D01*
X815610Y776940D02*
X854610D01*
X815610Y827440D02*
X854610D01*
X538610Y416940D02*
X577610D01*
X538610Y467440D02*
X577610D01*
X538610Y476940D02*
X577610D01*
X538610Y527440D02*
X577610D01*
X538610Y536940D02*
X577610D01*
X538610Y587440D02*
X577610D01*
X538610Y596940D02*
X577610D01*
X538610Y647440D02*
X577610D01*
X538610Y656940D02*
X577610D01*
X538610Y707440D02*
X577610D01*
X538610Y716940D02*
X577610D01*
X538610Y767440D02*
X577610D01*
X538610Y776940D02*
X577610D01*
X538610Y827440D02*
X577610D01*
X713610Y416940D02*
X752610D01*
X713610Y467440D02*
X752610D01*
X713610Y476940D02*
X752610D01*
X713610Y527440D02*
X752610D01*
X713610Y536940D02*
X752610D01*
X713610Y587440D02*
X752610D01*
X713610Y596940D02*
X752610D01*
X713610Y647440D02*
X752610D01*
X713610Y656940D02*
X752610D01*
X713610Y707440D02*
X752610D01*
X713610Y716940D02*
X752610D01*
X713610Y767440D02*
X752610D01*
X713610Y776940D02*
X752610D01*
X713610Y827440D02*
X752610D01*
D137*
X245500Y82500D02*
G03*
X245500Y82500I-500J0D01*
G01*
X170500Y247500D02*
G03*
X170500Y247500I-500J0D01*
G01*
D138*
X677743Y31170D02*
G03*
X677743Y31170I-1200J0D01*
G01*
X86743Y314420D02*
G03*
X86743Y314420I-1200J0D01*
G01*
X201493Y597170D02*
G03*
X201493Y597170I-1200J0D01*
G01*
X935407Y252830D02*
G03*
X935407Y252830I-1200J0D01*
G01*
X819657Y351580D02*
G03*
X819657Y351580I-1200J0D01*
G01*
X696907Y910330D02*
G03*
X696907Y910330I-1200J0D01*
G01*
M02*
